<svg width="244" height="226" viewBox="0 0 244 226" fill="none" xmlns="http://www.w3.org/2000/svg">
<path d="M121.897 7.94591C129.16 8.67363 136.319 9.76973 143.509 11.0271C143.197 16.0401 142.956 21.057 142.786 26.0777C137.297 28.946 127.348 38.8076 123.329 43.5475C121.515 36.5014 119.513 28.8977 116.788 22.1495C117.562 22.16 117.978 22.2744 118.667 21.884C120.113 17.3836 120.764 12.5492 121.897 7.94591Z" fill="#687F88"/>
<path d="M38.2799 62.5787C42.2654 67.8587 46.6828 74.0082 49.085 80.0831L49.4955 81.1081C52.7471 79.0534 57.9148 75.4296 61.5761 74.4348C52.4769 88.941 48.6664 104.741 52.8964 121.636C51.3651 123.476 50.1819 125.886 48.8737 127.91C45.4148 133.208 42.0345 138.551 38.7328 143.94C37.5123 145.935 35.9069 148.078 35.036 150.23C30.0689 151.167 24.993 151.785 19.9969 152.614C18.1344 148.237 16.3364 143.838 14.603 139.415C19.376 136.131 23.9392 132.553 28.5475 129.065C26.651 120.97 25.1378 113.224 25.6429 104.9C19.8362 103.118 14.1399 100.452 8.5073 98.1929C9.1934 92.675 10.2387 87.1768 11.1409 81.6903C17.2111 81.6318 23.4208 81.5581 29.4841 81.9551C31.3563 75.1239 34.5135 68.6133 38.2799 62.5787Z" fill="#687F88"/>
<path d="M175.978 140.107C179.328 144.937 190.408 151.477 195.868 154.179L194.233 156.932C197.819 162.24 201.52 167.477 205.336 172.643C202.356 176.175 199.068 179.605 196.308 183.282C190.259 180.631 183.917 178.048 178.273 174.646C172.374 179.239 166.17 183.314 158.97 185.949C159.908 191.864 160.758 197.789 161.519 203.723C156.24 205.672 150.891 207.443 145.474 209.039C142.079 204.068 138.538 199.134 135.48 193.974C128.753 195.107 121.968 195.535 115.116 194.986C113.231 200.493 111.23 205.959 109.112 211.386L89.4193 207.709C89.4433 201.925 89.231 196.003 89.6393 190.25C83.3558 188.249 77.5183 185.581 71.7075 182.556C66.6987 186.46 60.9547 189.738 55.5515 193.151L43.0603 182.95C46.0506 177.599 48.8435 172.139 51.9301 166.841C47.0562 162.062 42.9164 157.097 38.9467 151.63C38.5686 151.11 38.3633 150.525 37.6389 150.398C37.1466 150.312 36.2857 150.527 35.7754 150.591C36.6544 148.431 38.277 146.28 39.5101 144.278C42.846 138.869 46.2616 133.506 49.7567 128.19C51.0786 126.158 52.2733 123.739 53.8214 121.893L54.5887 124.488C56.3294 129.573 58.4778 134.277 61.1715 138.994C64.173 143.116 67.0195 147.243 70.571 150.988C79.822 160.741 93.2169 167.338 106.607 169.89C107.131 169.994 107.657 170.092 108.183 170.184C108.71 170.276 109.237 170.361 109.766 170.441C110.294 170.52 110.824 170.594 111.354 170.661C111.884 170.728 112.415 170.789 112.946 170.843C113.478 170.898 114.01 170.946 114.542 170.988C115.074 171.031 115.607 171.066 116.14 171.096C116.673 171.126 117.207 171.149 117.74 171.166C118.273 171.183 118.807 171.194 119.34 171.199C119.874 171.204 120.407 171.202 120.94 171.194C121.473 171.186 122.006 171.172 122.538 171.152C123.07 171.131 123.602 171.104 124.134 171.071C124.665 171.039 125.196 171 125.726 170.954C126.256 170.909 126.786 170.857 127.314 170.799C127.842 170.741 128.37 170.677 128.896 170.607C129.423 170.537 129.948 170.46 130.472 170.378C130.997 170.295 131.519 170.206 132.041 170.111C132.562 170.016 133.083 169.915 133.601 169.808C134.12 169.7 134.637 169.587 135.152 169.468C135.667 169.348 136.181 169.222 136.693 169.091C137.205 168.959 137.715 168.821 138.222 168.678C138.73 168.534 139.236 168.385 139.74 168.229C140.243 168.074 140.745 167.912 141.244 167.744C141.743 167.577 142.24 167.403 142.734 167.224C143.228 167.045 143.72 166.86 144.21 166.669C144.698 166.478 145.185 166.282 145.669 166.079C146.152 165.877 146.633 165.668 147.111 165.455C147.59 165.241 148.065 165.022 148.537 164.796C149.009 164.571 149.478 164.341 149.943 164.104C150.409 163.868 150.871 163.626 151.33 163.379C151.789 163.132 152.245 162.879 152.697 162.621C153.149 162.363 153.598 162.1 154.043 161.831C154.488 161.562 154.929 161.288 155.367 161.009C157.027 159.955 158.675 158.823 160.213 157.615C166.663 152.38 171.651 147.023 175.978 140.107Z" fill="#7A8E96"/>
<path d="M58.2294 139.75C55.6972 135.669 53.6166 130.661 53.1239 125.983C53.5496 125.6 53.8942 125.39 54.399 125.114C56.1664 130.198 58.3448 134.901 61.0739 139.619C64.1128 143.742 66.9951 147.871 70.5888 151.619C79.9496 161.38 93.4896 167.996 107.017 170.571C107.547 170.676 108.078 170.775 108.61 170.867C109.142 170.96 109.675 171.046 110.209 171.127C110.742 171.207 111.277 171.281 111.813 171.35C112.348 171.417 112.885 171.479 113.422 171.535C113.958 171.59 114.495 171.639 115.033 171.683C115.571 171.726 116.109 171.763 116.647 171.793C117.186 171.824 117.725 171.848 118.263 171.867C118.802 171.885 119.341 171.896 119.88 171.902C120.418 171.908 120.957 171.907 121.495 171.9C122.034 171.893 122.572 171.88 123.109 171.861C123.647 171.841 124.184 171.815 124.72 171.783C125.257 171.752 125.793 171.714 126.329 171.669C126.864 171.625 127.398 171.574 127.932 171.517C128.465 171.46 128.998 171.398 129.529 171.328C130.061 171.259 130.591 171.184 131.121 171.102C131.65 171.021 132.178 170.933 132.704 170.839C133.231 170.745 133.756 170.645 134.28 170.539C134.803 170.432 135.325 170.32 135.845 170.202C136.365 170.083 136.884 169.959 137.401 169.828C137.917 169.698 138.432 169.561 138.944 169.418C139.457 169.276 139.968 169.128 140.476 168.973C140.984 168.819 141.491 168.658 141.995 168.492C142.498 168.325 143 168.153 143.498 167.975C143.997 167.797 144.494 167.613 144.988 167.423C145.481 167.233 145.972 167.038 146.46 166.836C146.948 166.635 147.434 166.428 147.916 166.215C148.399 166.003 148.878 165.784 149.354 165.56C149.831 165.336 150.304 165.107 150.773 164.871C151.243 164.636 151.71 164.395 152.173 164.149C152.636 163.903 153.096 163.652 153.552 163.394C154.008 163.138 154.461 162.875 154.91 162.608C155.359 162.34 155.804 162.067 156.245 161.789C157.92 160.739 159.582 159.611 161.134 158.407C161.217 159.994 161.43 161.597 161.582 163.182C159.822 164.404 158.003 165.546 156.126 166.608C154.249 167.67 152.322 168.648 150.343 169.541C133.876 176.955 114.806 176.999 97.4466 171.166C80.6352 165.517 66.2636 154.883 58.2294 139.75Z" fill="url(#paint0_linear_2045_3809)"/>
<path d="M58.6703 139.126C55.9657 135.198 53.7182 130.395 53.1325 125.931C53.5709 125.572 53.9271 125.377 54.4497 125.122C56.3715 129.993 58.7164 134.508 61.6362 139.046L61.0864 139.036C59.5141 136.824 57.9941 134.546 56.9929 132.115L56.395 131.944L55.8136 132.237C55.3585 134.104 59.449 137.86 58.6703 139.126Z" fill="#99A8AA"/>
<path d="M73.2986 12.2413C78.2559 11.0272 83.1919 9.74669 88.1068 8.39985C90.9976 13.366 94.3435 18.1008 97.2935 23.041C103.592 21.6562 110.082 21.6796 116.543 21.5344C119.455 28.2641 121.62 35.8374 123.581 42.8549C127.744 38.182 138.07 28.4743 143.789 25.6744C151.069 28.3137 158.757 30.6693 165.367 34.7098L180.288 24.4787C184.447 27.9762 188.556 31.5652 192.869 34.8937C189.454 39.677 186.512 44.8523 182.932 49.5076C187.662 54.9516 192.573 60.4455 195.871 66.7899C200.665 65.4595 208.567 65.65 213.781 65.3781C215.364 69.572 217.205 73.664 219.036 77.7701C214.7 81.3957 210.263 84.9814 205.529 88.1482C208.155 95.3294 208.817 103.591 208.726 111.111C215.877 112.944 222.852 115.338 229.838 117.683L227.433 135.296C219.826 135.736 212.307 135.945 204.67 135.529C203.705 138.78 202.551 141.966 201.208 145.087C199.865 148.209 198.34 151.246 196.634 154.201C191.145 151.495 180.004 144.948 176.633 140.117C177.05 139.412 177.451 138.7 177.837 137.98C178.224 137.26 178.595 136.532 178.95 135.798C179.305 135.063 179.644 134.322 179.968 133.574C180.292 132.826 180.599 132.072 180.891 131.312C181.183 130.552 181.458 129.786 181.717 129.015C181.976 128.244 182.219 127.468 182.445 126.687C182.671 125.906 182.88 125.121 183.073 124.331C183.266 123.542 183.442 122.749 183.601 121.952C183.76 121.155 183.903 120.356 184.029 119.553C184.154 118.75 184.262 117.945 184.354 117.137C184.445 116.329 184.52 115.52 184.577 114.709C184.634 113.898 184.674 113.085 184.697 112.272C184.72 111.459 184.726 110.645 184.714 109.83C184.703 109.016 184.675 108.202 184.629 107.387C184.584 106.573 184.521 105.76 184.441 104.947C184.361 104.135 184.264 103.324 184.151 102.514C181.933 86.63 172.561 71.0296 159.018 61.0414C158.595 60.724 158.167 60.4117 157.735 60.1046C157.303 59.797 156.867 59.4943 156.428 59.1967C155.989 58.899 155.546 58.6065 155.099 58.3192C154.652 58.0318 154.202 57.7495 153.748 57.4721C153.294 57.1951 152.836 56.9231 152.375 56.6561C151.915 56.3896 151.451 56.1283 150.983 55.8722C150.515 55.6157 150.045 55.3648 149.571 55.1196C149.098 54.874 148.621 54.634 148.141 54.3997C147.662 54.1651 147.179 53.9362 146.693 53.7128C146.208 53.4896 145.72 53.2718 145.229 53.0596C144.738 52.8473 144.245 52.6406 143.749 52.4395C143.253 52.2387 142.755 52.0435 142.254 51.8539C141.753 51.6646 141.25 51.481 140.745 51.3029C140.239 51.1249 139.732 50.9528 139.223 50.7868C138.713 50.6203 138.201 50.4598 137.688 50.3054C137.175 50.1507 136.66 50.0021 136.142 49.8594C135.625 49.7168 135.107 49.5802 134.586 49.4497C134.066 49.3189 133.544 49.1941 133.021 49.0754C132.498 48.9568 131.973 48.8442 131.447 48.7374C130.922 48.631 130.394 48.5307 129.866 48.4362C129.338 48.3414 128.809 48.253 128.278 48.1709C127.748 48.0885 127.217 48.0124 126.685 47.9428C126.153 47.8728 125.621 47.8089 125.087 47.751C124.554 47.6935 124.02 47.642 123.486 47.5967C122.952 47.5513 122.417 47.5123 121.882 47.4795C121.347 47.4464 120.812 47.4196 120.277 47.3991C119.741 47.3786 119.206 47.3643 118.67 47.3561C118.135 47.348 117.6 47.3459 117.064 47.3501C116.529 47.3543 115.994 47.3648 115.46 47.3814C114.925 47.3984 114.391 47.4213 113.857 47.45C113.323 47.4791 112.79 47.5145 112.258 47.5561C111.725 47.5974 111.194 47.645 110.663 47.6988C89.7939 49.9393 75.0984 59.2075 62.581 74.4232C58.8576 75.4135 53.6074 79.0402 50.3033 81.0958L49.8833 80.0657C47.4251 73.9604 42.9161 67.7754 38.8485 62.4646C39.2675 61.8706 39.7005 61.3153 39.9159 60.6202C40.1897 59.7377 31.7152 46.1819 30.5681 44.2587C34.1146 40.8016 38.0036 37.4427 41.8763 34.31C46.8312 37.0579 51.81 39.766 56.8125 42.4344C63.0363 37.3764 69.7154 33.3857 77.0142 29.825C75.5975 23.9984 74.098 18.1642 73.2986 12.2413Z" fill="#99A8AA"/>
<defs>
<linearGradient id="paint0_linear_2045_3809" x1="108.791" y1="136.872" x2="105.562" y2="173.642" gradientUnits="userSpaceOnUse">
<stop stop-color="#95A7B2"/>
<stop offset="1" stop-color="#D8DAE0"/>
</linearGradient>
</defs>
</svg>
