<svg width="20" height="23" viewBox="0 0 20 23" fill="none" xmlns="http://www.w3.org/2000/svg">
<path d="M8.51087 0.402344C9.49985 0.505626 10.5953 0.417981 11.6014 0.45053C11.6275 1.08323 11.5457 3.37099 11.6744 3.77158C11.7478 3.99996 12.6907 4.21462 12.9145 4.34472C13.1546 4.48428 13.3696 4.67539 13.6185 4.79622C14.2897 4.45864 15.6085 2.89686 16.3195 2.28562C17.0459 3.08596 17.728 3.85049 18.484 4.62547C18.0011 5.20499 16.3319 6.98243 16.112 7.48193C16.2224 7.89315 16.7302 9.23301 16.9113 9.69914C17.8475 9.85625 19.0147 9.6826 20 9.76106C19.9673 10.8595 19.9936 11.9582 19.9726 13.0569C18.952 13.1535 17.928 13.0663 16.9062 13.1359C16.6561 13.8878 16.3499 14.5688 16.0541 15.296C16.4074 15.8947 18.0207 17.6043 18.5202 18.1396C17.9235 18.952 16.9933 19.8161 16.3034 20.577C15.6605 19.9 14.7629 18.9103 14.0791 18.3233C13.553 17.8717 13.152 18.4375 12.6581 18.6423C12.3543 18.7683 11.9408 18.7847 11.6879 19.0144C11.5308 19.3108 11.6445 21.8265 11.6243 22.388L11.355 22.3946C10.3591 22.4194 9.33098 22.4486 8.33605 22.3918C8.24067 21.3374 8.40724 20.1026 8.32111 18.9669C7.45377 18.7553 7.17126 18.3986 6.45512 18.1266C5.80926 18.3892 4.13479 20.0102 3.6872 20.6166C2.98007 19.7636 2.20448 18.936 1.43912 18.1456C1.84897 17.756 3.71495 15.72 3.92627 15.3248C3.79167 14.9621 3.53806 14.6488 3.38711 14.286C3.26885 14.0017 3.23128 13.2993 2.95711 13.1514C2.76825 13.0495 0.424379 13.1085 0 13.0897C0.0393081 11.9734 -0.0108183 10.8544 0.0270034 9.73778C0.838684 9.73742 2.34106 9.8638 3.06405 9.75515C3.39743 8.87552 3.39058 8.44175 3.94254 7.5193C3.67779 7.12099 3.34516 6.78686 3.03201 6.4361L1.46827 4.71748C2.29366 3.88359 2.92458 3.12124 3.6948 2.27934L5.10659 3.68793C6.35396 4.92005 5.98177 4.87959 7.21437 4.3059C8.16519 3.86331 8.34398 4.2819 8.3415 3.04532C8.34068 2.61419 8.33902 0.571906 8.43267 0.412255L8.51087 0.402344ZM9.68293 6.76459C4.20911 7.35065 4.47659 16.3631 10.3323 16.2099C14.0879 15.8045 15.7896 10.5974 12.7251 7.85306C11.9018 7.11572 10.7533 6.64312 9.68293 6.76459Z" fill="#AD8E20"/>
</svg>
