<svg width="30" height="30" viewBox="0 0 30 30" fill="none" xmlns="http://www.w3.org/2000/svg">
<g clip-path="url(#clip0_276_5104)">
<path fill-rule="evenodd" clip-rule="evenodd" d="M15.0075 2.5C12.0256 2.50134 9.14553 3.58514 6.9025 5.55C4.6283 7.54411 3.12711 10.2739 2.66125 13.2625C2.18509 16.2636 2.76706 19.337 4.3075 21.9562C5.8254 24.5445 8.21994 26.5035 11.0575 27.4788C11.6875 27.5975 11.9113 27.2 11.9113 26.8612C11.9113 26.555 11.8988 25.5462 11.8938 24.4762C8.41875 25.2512 7.68625 22.9638 7.68625 22.9638C7.4602 22.1943 6.96856 21.5299 6.29875 21.0888C5.165 20.2925 6.38625 20.3125 6.38625 20.3125C6.7825 20.3675 7.16125 20.5163 7.4925 20.745C7.825 20.9738 8.10125 21.2775 8.30125 21.6325C8.47 21.9487 8.69875 22.2275 8.97375 22.4513C9.81245 23.1454 10.9949 23.2432 11.9362 22.6963C11.9925 22.0463 12.2737 21.4387 12.73 20.9837C9.95625 20.66 7.0375 19.5612 7.0375 14.6462C7.01842 13.3789 7.47872 12.1512 8.32625 11.2087C7.94375 10.1027 7.98652 8.8938 8.44625 7.8175C6.79 10.205 9.495 7.47375 11.8825 9.13C13.928 8.55597 16.092 8.55597 18.1375 9.13C20.52 7.47375 21.5625 7.8175 21.5625 7.8175C22.025 8.89 22.07 10.1025 21.6887 11.2087C22.5359 12.1512 22.9954 13.3792 22.975 14.6462C22.975 19.57 20.0513 20.6525 17.27 20.9688C17.877 21.6027 18.1856 22.4649 18.1187 23.34C18.1187 25.055 18.1038 26.4363 18.1038 26.8575C18.1038 27.1975 18.3287 27.5975 18.9625 27.4725C21.7948 26.4928 24.1836 24.5327 25.6975 21.9463C27.2349 19.3291 27.8151 16.259 27.3388 13.2612C26.8725 10.2755 25.3728 7.54811 23.1012 5.555C20.8622 3.59116 17.987 2.50575 15.0087 2.5" fill="white"/>
</g>
<defs>
<clipPath id="clip0_276_5104">
<rect width="30" height="30" fill="white"/>
</clipPath>
</defs>
</svg>
