<svg width="30" height="30" viewBox="0 0 30 30" fill="none" xmlns="http://www.w3.org/2000/svg">
<g clip-path="url(#clip0_276_5087)">
<path fill-rule="evenodd" clip-rule="evenodd" d="M3.75 10C3.75 6.55053 6.55053 3.75 10 3.75H20C23.4495 3.75 26.25 6.55053 26.25 10V20C26.25 23.4495 23.4495 26.25 20 26.25H10C6.55053 26.25 3.75 23.4495 3.75 20V10ZM10 6.25C7.93032 6.25 6.25 7.93032 6.25 10V20C6.25 22.0697 7.93032 23.75 10 23.75H20C22.0697 23.75 23.75 22.0697 23.75 20V10C23.75 7.93032 22.0697 6.25 20 6.25H10ZM19.4963 9.0175C19.4963 8.32714 20.0559 7.7675 20.7463 7.7675H20.7588C21.4486 7.7675 22.0088 8.32761 22.0088 9.0175C22.0088 9.70739 21.4486 10.2675 20.7588 10.2675H20.7463C20.0559 10.2675 19.4963 9.70786 19.4963 9.0175ZM15 11.25C12.9303 11.25 11.25 12.9303 11.25 15C11.25 17.0697 12.9303 18.75 15 18.75C17.0697 18.75 18.75 17.0697 18.75 15C18.75 12.9303 17.0697 11.25 15 11.25ZM8.75 15C8.75 11.5505 11.5505 8.75 15 8.75C18.4495 8.75 21.25 11.5505 21.25 15C21.25 18.4495 18.4495 21.25 15 21.25C11.5505 21.25 8.75 18.4495 8.75 15Z" fill="white"/>
</g>
<defs>
<clipPath id="clip0_276_5087">
<rect width="30" height="30" fill="white"/>
</clipPath>
</defs>
</svg>
