<svg width="120" height="23" viewBox="0 0 120 23" fill="none" xmlns="http://www.w3.org/2000/svg">
<g clip-path="url(#clip0_433_3809)">
<path d="M40.0234 16.9989V7.72621H42.4744V9.36222H42.583C42.7762 8.8189 43.0982 8.39027 43.5489 8.07635C43.9997 7.76243 44.539 7.60547 45.1668 7.60547C45.8027 7.60547 46.344 7.76445 46.7908 8.08239C47.2375 8.39631 47.5353 8.82292 47.6842 9.36222H47.7808C47.97 8.83097 48.3121 8.40637 48.8071 8.08843C49.3062 7.76646 49.8958 7.60547 50.5759 7.60547C51.4412 7.60547 52.1435 7.88116 52.6828 8.43253C53.2261 8.97988 53.4978 9.75663 53.4978 10.7627V16.9989H50.9321V11.2699C50.9321 10.7547 50.7953 10.3683 50.5216 10.1108C50.2479 9.85322 49.9058 9.72444 49.4953 9.72444C49.0285 9.72444 48.6642 9.87335 48.4026 10.1711C48.141 10.4649 48.0102 10.8533 48.0102 11.3363V16.9989H45.517V11.2155C45.517 10.7607 45.3862 10.3985 45.1246 10.1289C44.867 9.85926 44.5269 9.72444 44.1043 9.72444C43.8186 9.72444 43.561 9.79688 43.3316 9.94177C43.1062 10.0826 42.9271 10.2818 42.7943 10.5394C42.6615 10.7929 42.5951 11.0908 42.5951 11.4328V16.9989H40.0234ZM56.5292 16.9989V7.72621H58.9802V9.36222H59.0889C59.2821 8.8189 59.604 8.39027 60.0548 8.07635C60.5056 7.76243 61.0449 7.60547 61.6727 7.60547C62.3086 7.60547 62.8499 7.76445 63.2966 8.08239C63.7434 8.39631 64.0412 8.82292 64.1901 9.36222H64.2867C64.4759 8.83097 64.8179 8.40637 65.313 8.08843C65.812 7.76646 66.4016 7.60547 67.0818 7.60547C67.9471 7.60547 68.6494 7.88116 69.1887 8.43253C69.732 8.97988 70.0037 9.75663 70.0037 10.7627V16.9989H67.438V11.2699C67.438 10.7547 67.3011 10.3683 67.0275 10.1108C66.7538 9.85322 66.4117 9.72444 66.0012 9.72444C65.5343 9.72444 65.1701 9.87335 64.9085 10.1711C64.6469 10.4649 64.5161 10.8533 64.5161 11.3363V16.9989H62.0228V11.2155C62.0228 10.7607 61.892 10.3985 61.6304 10.1289C61.3729 9.85926 61.0328 9.72444 60.6102 9.72444C60.3245 9.72444 60.0669 9.79688 59.8375 9.94177C59.6121 10.0826 59.433 10.2818 59.3002 10.5394C59.1674 10.7929 59.101 11.0908 59.101 11.4328V16.9989H56.5292Z" fill="url(#paint0_linear_433_3809)"/>
<path d="M16.6197 7.78977H12.7312C12.6602 7.28669 12.5152 6.83984 12.2962 6.44922C12.0772 6.05267 11.7961 5.71532 11.4528 5.43714C11.1095 5.15897 10.713 4.9459 10.2632 4.79794C9.81925 4.64998 9.33689 4.57599 8.81605 4.57599C7.875 4.57599 7.05528 4.80978 6.35689 5.27734C5.6585 5.73899 5.11695 6.41371 4.73225 7.30149C4.34754 8.18336 4.15519 9.25462 4.15519 10.5153C4.15519 11.8114 4.34754 12.9004 4.73225 13.7823C5.12287 14.6642 5.66738 15.33 6.36577 15.7798C7.06416 16.2296 7.87204 16.4545 8.78942 16.4545C9.30433 16.4545 9.78078 16.3865 10.2188 16.2503C10.6627 16.1142 11.0563 15.9159 11.3995 15.6555C11.7428 15.3892 12.0269 15.0666 12.2518 14.6878C12.4826 14.3091 12.6424 13.877 12.7312 13.3917L16.6197 13.4094C16.5191 14.244 16.2676 15.0489 15.8651 15.8242C15.4686 16.5936 14.9329 17.2831 14.2582 17.8927C13.5894 18.4964 12.7904 18.9758 11.8612 19.331C10.9379 19.6802 9.89323 19.8547 8.72727 19.8547C7.10559 19.8547 5.65554 19.4878 4.37713 18.7539C3.10464 18.02 2.09849 16.9576 1.35867 15.5668C0.624764 14.1759 0.257812 12.4921 0.257812 10.5153C0.257812 8.53255 0.630682 6.84576 1.37642 5.4549C2.12216 4.06404 3.13423 3.00462 4.41264 2.27663C5.69105 1.54273 7.12926 1.17578 8.72727 1.17578C9.78078 1.17578 10.7574 1.32374 11.657 1.61967C12.5625 1.9156 13.3645 2.34766 14.0629 2.91584C14.7613 3.4781 15.3295 4.16761 15.7674 4.98437C16.2113 5.80114 16.4954 6.73627 16.6197 7.78977Z" fill="url(#paint1_linear_433_3809)"/>
<path d="M80.7148 5.13991H83.3288V13.169C83.3288 14.0705 83.1135 14.8593 82.6828 15.5355C82.2562 16.2116 81.6586 16.7388 80.8899 17.1171C80.1212 17.4914 79.2257 17.6786 78.2034 17.6786C77.1772 17.6786 76.2797 17.4914 75.511 17.1171C74.7423 16.7388 74.1446 16.2116 73.718 15.5355C73.2914 14.8593 73.0781 14.0705 73.0781 13.169V5.13991H75.6921V12.9456C75.6921 13.4165 75.7947 13.8351 75.9999 14.2013C76.2092 14.5675 76.503 14.8553 76.8813 15.0646C77.2597 15.2739 77.7004 15.3785 78.2034 15.3785C78.7105 15.3785 79.1512 15.2739 79.5255 15.0646C79.9038 14.8553 80.1956 14.5675 80.4009 14.2013C80.6102 13.8351 80.7148 13.4165 80.7148 12.9456V5.13991ZM89.0029 12.1427V17.5035H86.4311V8.23082H88.8821V9.86683H88.9908C89.1961 9.32753 89.5402 8.90092 90.0231 8.587C90.5061 8.26905 91.0917 8.11008 91.7799 8.11008C92.4238 8.11008 92.9852 8.25094 93.4642 8.53267C93.9431 8.81439 94.3154 9.21685 94.581 9.74005C94.8466 10.2592 94.9794 10.879 94.9794 11.5994V17.5035H92.4077V12.0582C92.4117 11.4907 92.2668 11.048 91.973 10.7301C91.6793 10.4081 91.2748 10.2471 90.7596 10.2471C90.4135 10.2471 90.1076 10.3216 89.842 10.4705C89.5804 10.6194 89.3752 10.8367 89.2262 11.1225C89.0814 11.4042 89.0069 11.7443 89.0029 12.1427ZM98.0063 17.5035V8.23082H100.579V17.5035H98.0063ZM99.2982 7.03551C98.9159 7.03551 98.5879 6.90873 98.3142 6.65518C98.0446 6.3976 97.9097 6.08972 97.9097 5.73153C97.9097 5.37736 98.0446 5.0735 98.3142 4.81995C98.5879 4.56238 98.9159 4.43359 99.2982 4.43359C99.6806 4.43359 100.007 4.56238 100.277 4.81995C100.55 5.0735 100.687 5.37736 100.687 5.73153C100.687 6.08972 100.55 6.3976 100.277 6.65518C100.007 6.90873 99.6806 7.03551 99.2982 7.03551ZM108.571 8.23082V10.1626H102.987V8.23082H108.571ZM104.254 6.00923H106.826V14.6541C106.826 14.8915 106.862 15.0767 106.935 15.2095C107.007 15.3383 107.108 15.4288 107.237 15.4811C107.37 15.5335 107.522 15.5596 107.695 15.5596C107.816 15.5596 107.937 15.5496 108.058 15.5294C108.178 15.5053 108.271 15.4872 108.335 15.4751L108.74 17.3888C108.611 17.4291 108.43 17.4753 108.197 17.5277C107.963 17.584 107.679 17.6182 107.345 17.6303C106.726 17.6544 106.182 17.5719 105.715 17.3828C105.253 17.1936 104.892 16.8998 104.635 16.5014C104.377 16.1029 104.25 15.5999 104.254 14.9921V6.00923ZM115.372 17.6846C114.419 17.6846 113.597 17.4914 112.909 17.1051C112.225 16.7147 111.698 16.1633 111.328 15.4509C110.957 14.7346 110.772 13.8874 110.772 12.9094C110.772 11.9556 110.957 11.1184 111.328 10.398C111.698 9.67767 112.219 9.11624 112.891 8.71377C113.567 8.31131 114.36 8.11008 115.27 8.11008C115.881 8.11008 116.451 8.20868 116.978 8.40589C117.509 8.59907 117.972 8.89086 118.367 9.28124C118.765 9.67163 119.075 10.1626 119.296 10.7542C119.518 11.3418 119.628 12.03 119.628 12.8188V13.5252H111.798V11.9314H117.208C117.208 11.5612 117.127 11.2331 116.966 10.9474C116.805 10.6616 116.582 10.4383 116.296 10.2773C116.014 10.1123 115.686 10.0298 115.312 10.0298C114.922 10.0298 114.575 10.1203 114.274 10.3014C113.976 10.4785 113.742 10.718 113.573 11.0198C113.404 11.3177 113.318 11.6497 113.314 12.0159V13.5312C113.314 13.99 113.398 14.3864 113.567 14.7205C113.74 15.0545 113.984 15.3121 114.298 15.4932C114.612 15.6743 114.984 15.7649 115.415 15.7649C115.7 15.7649 115.962 15.7246 116.199 15.6441C116.437 15.5636 116.64 15.4429 116.809 15.2819C116.978 15.1209 117.107 14.9237 117.195 14.6903L119.574 14.8473C119.453 15.4188 119.206 15.9178 118.832 16.3444C118.461 16.767 117.982 17.097 117.395 17.3345C116.811 17.5679 116.137 17.6846 115.372 17.6846Z" fill="url(#paint2_linear_433_3809)"/>
<path d="M26.5109 0.402344C27.4999 0.505626 28.5953 0.417981 29.6014 0.45053C29.6275 1.08323 29.5457 3.37099 29.6744 3.77158C29.7478 3.99996 30.6907 4.21462 30.9145 4.34472C31.1546 4.48428 31.3696 4.67539 31.6185 4.79622C32.2897 4.45864 33.6085 2.89686 34.3195 2.28562C35.0459 3.08596 35.728 3.85049 36.484 4.62547C36.0011 5.20499 34.3319 6.98243 34.112 7.48193C34.2224 7.89315 34.7302 9.23301 34.9113 9.69914C35.8475 9.85625 37.0147 9.6826 38 9.76106C37.9673 10.8595 37.9936 11.9582 37.9726 13.0569C36.952 13.1535 35.928 13.0663 34.9062 13.1359C34.6561 13.8878 34.3499 14.5688 34.0541 15.296C34.4074 15.8947 36.0207 17.6043 36.5202 18.1396C35.9235 18.952 34.9933 19.8161 34.3034 20.577C33.6605 19.9 32.7629 18.9103 32.0791 18.3233C31.553 17.8717 31.152 18.4375 30.6581 18.6423C30.3543 18.7683 29.9408 18.7847 29.6879 19.0144C29.5308 19.3108 29.6445 21.8265 29.6243 22.388L29.355 22.3946C28.3591 22.4194 27.331 22.4486 26.3361 22.3918C26.2407 21.3374 26.4072 20.1026 26.3211 18.9669C25.4538 18.7553 25.1713 18.3986 24.4551 18.1266C23.8093 18.3892 22.1348 20.0102 21.6872 20.6166C20.9801 19.7636 20.2045 18.936 19.4391 18.1456C19.849 17.756 21.7149 15.72 21.9263 15.3248C21.7917 14.9621 21.5381 14.6488 21.3871 14.286C21.2689 14.0017 21.2313 13.2993 20.9571 13.1514C20.7683 13.0495 18.4244 13.1085 18 13.0897C18.0393 11.9734 17.9892 10.8544 18.027 9.73778C18.8387 9.73742 20.3411 9.8638 21.0641 9.75515C21.3974 8.87552 21.3906 8.44175 21.9425 7.5193C21.6778 7.12099 21.3452 6.78686 21.032 6.4361L19.4683 4.71748C20.2937 3.88359 20.9246 3.12124 21.6948 2.27934L23.1066 3.68793C24.354 4.92005 23.9818 4.87959 25.2144 4.3059C26.1652 3.86331 26.344 4.2819 26.3415 3.04532C26.3407 2.61419 26.339 0.571906 26.4327 0.412255L26.5109 0.402344ZM27.6829 6.76459C22.2091 7.35065 22.4766 16.3631 28.3323 16.2099C32.0879 15.8045 33.7896 10.5974 30.7251 7.85306C29.9018 7.11572 28.7533 6.64312 27.6829 6.76459Z" fill="#AD8E20"/>
<path d="M27.6753 7.02939C28.6761 6.91636 29.75 7.35614 30.5198 8.04227C33.385 10.596 31.794 15.4416 28.2825 15.8188C22.8074 15.9613 22.5573 7.57475 27.6753 7.02939ZM27.6755 7.95945C23.61 8.50878 23.8806 15.0614 28.2888 14.9204L28.3098 14.9137C28.5385 14.8432 28.7706 14.8125 28.9991 14.7302C32.6192 13.427 31.3114 7.49624 27.6755 7.95945Z" fill="#1F1D15"/>
</g>
<defs>
<linearGradient id="paint0_linear_433_3809" x1="38.9971" y1="-4.00106" x2="68.4614" y2="29.695" gradientUnits="userSpaceOnUse">
<stop stop-color="white"/>
<stop offset="1" stop-color="#71717A"/>
</linearGradient>
<linearGradient id="paint1_linear_433_3809" x1="-1.00284" y1="2.60618" x2="15.3532" y2="21.4213" gradientUnits="userSpaceOnUse">
<stop stop-color="white"/>
<stop offset="1" stop-color="#71717A"/>
</linearGradient>
<linearGradient id="paint2_linear_433_3809" x1="72.0035" y1="1.50355" x2="84.8255" y2="36.4374" gradientUnits="userSpaceOnUse">
<stop stop-color="white"/>
<stop offset="1" stop-color="#71717A"/>
</linearGradient>
<clipPath id="clip0_433_3809">
<rect width="120" height="23" fill="white"/>
</clipPath>
</defs>
</svg>
