<svg width="127" height="30" viewBox="0 0 127 30" fill="none" xmlns="http://www.w3.org/2000/svg">
<path d="M41.0263 21V11.7273H43.4773V13.3633H43.5859C43.7791 12.82 44.1011 12.3913 44.5518 12.0774C45.0026 11.7635 45.5419 11.6065 46.1697 11.6065C46.8056 11.6065 47.3469 11.7655 47.7937 12.0835C48.2404 12.3974 48.5382 12.824 48.6871 13.3633H48.7837C48.9729 12.832 49.315 12.4074 49.81 12.0895C50.3091 11.7675 50.8987 11.6065 51.5788 11.6065C52.4441 11.6065 53.1464 11.8822 53.6857 12.4336C54.229 12.9809 54.5007 13.7577 54.5007 14.7638V21H51.935V15.271C51.935 14.7558 51.7982 14.3694 51.5245 14.1119C51.2508 13.8543 50.9087 13.7255 50.4982 13.7255C50.0314 13.7255 49.6671 13.8744 49.4055 14.1722C49.1439 14.466 49.0131 14.8544 49.0131 15.3374V21H46.5199V15.2166C46.5199 14.7618 46.3891 14.3996 46.1275 14.13C45.8699 13.8603 45.5298 13.7255 45.1072 13.7255C44.8215 13.7255 44.5639 13.7979 44.3345 13.9428C44.1091 14.0837 43.93 14.2829 43.7972 14.5405C43.6644 14.794 43.598 15.0919 43.598 15.4339V21H41.0263ZM57.5321 21V11.7273H59.9831V13.3633H60.0918C60.285 12.82 60.6069 12.3913 61.0577 12.0774C61.5085 11.7635 62.0478 11.6065 62.6756 11.6065C63.3115 11.6065 63.8528 11.7655 64.2995 12.0835C64.7463 12.3974 65.0441 12.824 65.193 13.3633H65.2896C65.4788 12.832 65.8208 12.4074 66.3159 12.0895C66.8149 11.7675 67.4045 11.6065 68.0847 11.6065C68.95 11.6065 69.6523 11.8822 70.1916 12.4336C70.7349 12.9809 71.0066 13.7577 71.0066 14.7638V21H68.4409V15.271C68.4409 14.7558 68.304 14.3694 68.0304 14.1119C67.7567 13.8543 67.4146 13.7255 67.0041 13.7255C66.5372 13.7255 66.173 13.8744 65.9114 14.1722C65.6498 14.466 65.519 14.8544 65.519 15.3374V21H63.0257V15.2166C63.0257 14.7618 62.8949 14.3996 62.6333 14.13C62.3758 13.8603 62.0357 13.7255 61.6131 13.7255C61.3274 13.7255 61.0698 13.7979 60.8404 13.9428C60.615 14.0837 60.4359 14.2829 60.3031 14.5405C60.1703 14.794 60.1039 15.0919 60.1039 15.4339V21H57.5321Z" fill="url(#paint0_linear_511_4096)"/>
<path d="M17.6225 11.7891H13.734C13.663 11.286 13.518 10.8391 13.299 10.4485C13.08 10.052 12.7989 9.71461 12.4556 9.43643C12.1123 9.15826 11.7158 8.94519 11.266 8.79723C10.8221 8.64927 10.3397 8.57528 9.81889 8.57528C8.87784 8.57528 8.05812 8.80907 7.35973 9.27663C6.66134 9.73828 6.11979 10.413 5.73509 11.3008C5.35038 12.1826 5.15803 13.2539 5.15803 14.5146C5.15803 15.8107 5.35038 16.8997 5.73509 17.7816C6.12571 18.6635 6.67022 19.3293 7.36861 19.7791C8.067 20.2289 8.87488 20.4538 9.79226 20.4538C10.3072 20.4538 10.7836 20.3858 11.2216 20.2496C11.6655 20.1135 12.0591 19.9152 12.4023 19.6548C12.7456 19.3885 13.0297 19.0659 13.2546 18.6871C13.4854 18.3084 13.6452 17.8763 13.734 17.391L17.6225 17.4087C17.5219 18.2433 17.2704 19.0482 16.8679 19.8235C16.4714 20.5929 15.9357 21.2824 15.261 21.892C14.5922 22.4957 13.7932 22.9751 12.864 23.3303C11.9407 23.6795 10.8961 23.854 9.73011 23.854C8.10843 23.854 6.65838 23.4871 5.37997 22.7532C4.10748 22.0193 3.10133 20.9569 2.36151 19.5661C1.6276 18.1752 1.26065 16.4914 1.26065 14.5146C1.26065 12.5318 1.63352 10.8451 2.37926 9.45419C3.125 8.06333 4.13707 7.00391 5.41548 6.27592C6.69389 5.54202 8.1321 5.17507 9.73011 5.17507C10.7836 5.17507 11.7602 5.32303 12.6598 5.61896C13.5653 5.91489 14.3673 6.34695 15.0657 6.91513C15.7641 7.47739 16.3323 8.1669 16.7702 8.98366C17.2141 9.80043 17.4982 10.7356 17.6225 11.7891Z" fill="url(#paint1_linear_511_4096)"/>
<path d="M81.7113 9.14027H84.3253V17.1694C84.3253 18.0709 84.11 18.8597 83.6793 19.5359C83.2527 20.212 82.6551 20.7392 81.8864 21.1175C81.1177 21.4918 80.2222 21.679 79.1999 21.679C78.1737 21.679 77.2762 21.4918 76.5075 21.1175C75.7388 20.7392 75.1411 20.212 74.7145 19.5359C74.2879 18.8597 74.0746 18.0709 74.0746 17.1694V9.14027H76.6886V16.946C76.6886 17.4169 76.7912 17.8355 76.9964 18.2017C77.2057 18.5679 77.4995 18.8557 77.8778 19.065C78.2562 19.2743 78.6969 19.3789 79.1999 19.3789C79.707 19.3789 80.1477 19.2743 80.522 19.065C80.9003 18.8557 81.1921 18.5679 81.3974 18.2017C81.6067 17.8355 81.7113 17.4169 81.7113 16.946V9.14027ZM89.9994 16.1431V21.5039H87.4276V12.2312H89.8786V13.8672H89.9873C90.1926 13.3279 90.5367 12.9013 91.0196 12.5874C91.5026 12.2694 92.0882 12.1104 92.7764 12.1104C93.4203 12.1104 93.9817 12.2513 94.4607 12.533C94.9396 12.8147 95.3119 13.2172 95.5775 13.7404C95.8431 14.2596 95.9759 14.8794 95.9759 15.5998V21.5039H93.4042V16.0586C93.4082 15.4911 93.2633 15.0484 92.9695 14.7305C92.6758 14.4085 92.2713 14.2475 91.7561 14.2475C91.41 14.2475 91.1041 14.322 90.8385 14.4709C90.5769 14.6198 90.3717 14.8371 90.2227 15.1229C90.0779 15.4046 90.0034 15.7447 89.9994 16.1431ZM99.0028 21.5039V12.2312H101.575V21.5039H99.0028ZM100.295 11.0359C99.9124 11.0359 99.5844 10.9091 99.3107 10.6555C99.0411 10.398 98.9062 10.0901 98.9062 9.73189C98.9062 9.37772 99.0411 9.07386 99.3107 8.82031C99.5844 8.56274 99.9124 8.43395 100.295 8.43395C100.677 8.43395 101.003 8.56274 101.273 8.82031C101.546 9.07386 101.683 9.37772 101.683 9.73189C101.683 10.0901 101.546 10.398 101.273 10.6555C101.003 10.9091 100.677 11.0359 100.295 11.0359ZM109.567 12.2312V14.163H103.983V12.2312H109.567ZM105.25 10.0096H107.822V18.6545C107.822 18.8919 107.858 19.0771 107.931 19.2099C108.003 19.3387 108.104 19.4292 108.233 19.4815C108.366 19.5339 108.518 19.56 108.691 19.56C108.812 19.56 108.933 19.55 109.054 19.5298C109.174 19.5057 109.267 19.4876 109.331 19.4755L109.736 21.3892C109.607 21.4295 109.426 21.4757 109.193 21.5281C108.959 21.5844 108.675 21.6186 108.341 21.6307C107.722 21.6548 107.178 21.5723 106.711 21.3832C106.249 21.194 105.888 20.9002 105.631 20.5018C105.373 20.1033 105.246 19.6003 105.25 18.9925V10.0096ZM116.368 21.685C115.415 21.685 114.593 21.4918 113.905 21.1055C113.221 20.7151 112.694 20.1637 112.324 19.4513C111.953 18.735 111.768 17.8878 111.768 16.9098C111.768 15.956 111.953 15.1188 112.324 14.3984C112.694 13.678 113.215 13.1166 113.887 12.7141C114.563 12.3117 115.356 12.1104 116.266 12.1104C116.877 12.1104 117.447 12.209 117.974 12.4062C118.505 12.5994 118.968 12.8912 119.363 13.2816C119.761 13.672 120.071 14.163 120.292 14.7546C120.514 15.3422 120.624 16.0304 120.624 16.8192V17.5256H112.794V15.9318H118.204C118.204 15.5616 118.123 15.2335 117.962 14.9478C117.801 14.662 117.578 14.4387 117.292 14.2777C117.01 14.1127 116.682 14.0302 116.308 14.0302C115.918 14.0302 115.571 14.1207 115.27 14.3018C114.972 14.4789 114.738 14.7184 114.569 15.0202C114.4 15.3181 114.314 15.6501 114.31 16.0163V17.5316C114.31 17.9904 114.394 18.3868 114.563 18.7209C114.736 19.0549 114.98 19.3125 115.294 19.4936C115.608 19.6747 115.98 19.7653 116.411 19.7653C116.696 19.7653 116.958 19.725 117.195 19.6445C117.433 19.564 117.636 19.4433 117.805 19.2823C117.974 19.1213 118.103 18.9241 118.191 18.6907L120.57 18.8477C120.449 19.4192 120.202 19.9182 119.828 20.3448C119.457 20.7674 118.978 21.0974 118.391 21.3349C117.807 21.5683 117.133 21.685 116.368 21.685Z" fill="url(#paint2_linear_511_4096)"/>
<path d="M27.9364 5C28.9748 5.09849 30.125 5.01491 31.1814 5.04595C31.2089 5.64928 31.123 7.83085 31.2581 8.21284C31.3352 8.43062 32.3252 8.63532 32.5602 8.75938C32.8123 8.89246 33.0381 9.0747 33.2994 9.18992C34.0042 8.86801 35.3889 7.37872 36.1355 6.79585C36.8982 7.55905 37.6144 8.28809 38.4082 9.0271C37.9011 9.57971 36.1485 11.2747 35.9176 11.751C36.0335 12.1431 36.5668 13.4208 36.7568 13.8653C37.7398 14.0151 38.9654 13.8495 40 13.9243C39.9657 14.9718 39.9932 16.0194 39.9712 17.0672C38.8996 17.1593 37.8244 17.0761 36.7515 17.1425C36.4889 17.8595 36.1674 18.5089 35.8568 19.2023C36.2277 19.7733 37.9218 21.4034 38.4463 21.9139C37.8197 22.6887 36.843 23.5126 36.1186 24.2382C35.4435 23.5926 34.5011 22.6489 33.783 22.0891C33.2306 21.6585 32.8096 22.198 32.291 22.3933C31.972 22.5134 31.5378 22.529 31.2723 22.7481C31.1074 23.0308 31.2268 25.4297 31.2055 25.9651L30.9228 25.9715C29.8771 25.995 28.7975 26.023 27.7529 25.9688C27.6527 24.9633 27.8276 23.7858 27.7372 22.7029C26.8265 22.501 26.5298 22.1609 25.7779 21.9015C25.0997 22.152 23.3415 23.6977 22.8716 24.276C22.1291 23.4625 21.3147 22.6734 20.5111 21.9196C20.9414 21.5481 22.9007 19.6066 23.1226 19.2298C22.9813 18.8839 22.715 18.5852 22.5565 18.2392C22.4323 17.9681 22.3928 17.2983 22.105 17.1573C21.9067 17.0601 19.4456 17.1163 19 17.0985C19.0413 16.0339 18.9886 14.9669 19.0284 13.9021C19.8806 13.9018 21.4581 14.0223 22.2173 13.9187C22.5673 13.0799 22.5601 12.6662 23.1397 11.7866C22.8617 11.4068 22.5124 11.0882 22.1836 10.7537L20.5417 9.11484C21.4083 8.31965 22.0708 7.59269 22.8795 6.78987L24.3619 8.13308C25.6717 9.308 25.2809 9.26942 26.5751 8.72236C27.5735 8.30032 27.7612 8.69947 27.7586 7.5203C27.7577 7.10918 27.756 5.16169 27.8543 5.00945L27.9364 5ZM29.1671 11.0669C23.4196 11.6258 23.7004 20.2198 29.8489 20.0739C33.7923 19.6873 35.579 14.7218 32.3614 12.1049C31.4969 11.4018 30.2909 10.9511 29.1671 11.0669Z" fill="#FFCA0D"/>
<path d="M29.0536 10.0221C30.4296 9.88093 31.9062 10.4301 32.9647 11.2869C36.9044 14.4759 34.7167 20.5267 29.8884 20.9978C22.3602 21.1757 22.0163 10.7031 29.0536 10.0221ZM29.0538 11.1835C23.4637 11.8694 23.8358 20.0519 29.8971 19.8759L29.926 19.8675C30.2404 19.7795 30.5596 19.7412 30.8737 19.6384C35.8515 18.011 34.0532 10.605 29.0538 11.1835Z" fill="#1F1D15"/>
<defs>
<linearGradient id="paint0_linear_511_4096" x1="40" y1="0" x2="89.5544" y2="44.1704" gradientUnits="userSpaceOnUse">
<stop/>
<stop offset="1" stop-color="#71717A"/>
</linearGradient>
<linearGradient id="paint1_linear_511_4096" x1="0" y1="6.60547" x2="23.6137" y2="37.8184" gradientUnits="userSpaceOnUse">
<stop stop-color="#0B0E0D"/>
<stop offset="1" stop-color="#71717A"/>
</linearGradient>
<linearGradient id="paint2_linear_511_4096" x1="73" y1="5.50391" x2="83.5506" y2="69.9365" gradientUnits="userSpaceOnUse">
<stop stop-color="#090909"/>
<stop offset="1" stop-color="#71717A"/>
</linearGradient>
</defs>
</svg>
