<svg width="151" height="153" viewBox="0 0 151 153" fill="none" xmlns="http://www.w3.org/2000/svg">
<ellipse cx="75.5" cy="76.9336" rx="59.5" ry="61" fill="#D8B431"/>
<g filter="url(#filter0_dd_500_4900)">
<ellipse cx="76" cy="76.9336" rx="50" ry="48" fill="url(#paint0_linear_500_4900)"/>
<path d="M125.5 76.9336C125.5 103.148 103.358 124.434 76 124.434C48.6425 124.434 26.5 103.148 26.5 76.9336C26.5 50.7191 48.6425 29.4336 76 29.4336C103.358 29.4336 125.5 50.7191 125.5 76.9336Z" stroke="#3C3F33"/>
</g>
<path d="M95.3359 99.6906C95.8104 99.6409 96.334 99.6744 96.8117 99.684C94.7525 101.159 92.8304 102.273 90.4611 103.296C90.1613 103.425 89.6123 103.718 89.3125 103.745C89.3443 103.688 91.0603 102.787 91.3059 102.639C92.3246 102.022 93.2437 101.343 94.1732 100.62C94.5617 100.318 94.9794 100.024 95.3359 99.6906Z" fill="#7A540F"/>
<path d="M64.4182 57.0036C64.5483 56.7408 64.7532 56.5471 65.0512 56.4404C65.3365 56.3383 65.652 56.3594 65.9271 56.4779C65.9627 56.4933 65.9973 56.5102 66.0311 56.5287C66.0648 56.5471 66.0975 56.5671 66.1291 56.5885C66.1607 56.6099 66.1911 56.6327 66.2202 56.6569C66.2494 56.6811 66.2771 56.7065 66.3035 56.7331C66.3299 56.7598 66.3548 56.7876 66.3783 56.8165C66.4016 56.8454 66.4234 56.8753 66.4437 56.9062C66.4638 56.9371 66.4823 56.9688 66.4991 57.0013C66.5158 57.0339 66.5307 57.0671 66.5439 57.1009C66.6463 57.3709 66.6156 57.6591 66.4756 57.9131C66.3765 58.0929 66.2245 58.2225 66.0666 58.3579C66.5743 58.8399 67.0363 59.3641 67.5099 59.8742L69.7753 62.319C69.5666 62.4849 69.205 62.7254 68.9492 62.8183C68.4476 62.3286 67.9982 61.7832 67.5242 61.2705C66.9891 60.6917 66.4282 60.1316 65.9056 59.5433C65.584 59.1813 65.3052 58.7803 64.9664 58.4329C64.8409 58.3043 64.5793 58.018 64.4063 57.9667C64.2307 57.9147 58.728 57.8878 58.5338 57.9741C58.4579 57.6884 58.5059 57.316 58.5222 57.0225C60.4843 57.0194 62.4571 57.0492 64.4182 57.0036Z" fill="#E6A428"/>
<path d="M84.6808 58.2896C84.5704 58.2071 84.4679 58.1216 84.3813 58.0171C84.3585 57.9896 84.3373 57.9612 84.3177 57.9317C84.2981 57.9023 84.2802 57.872 84.2639 57.8409C84.2477 57.8098 84.2332 57.778 84.2204 57.7456C84.2077 57.7131 84.1968 57.6802 84.1878 57.6468C84.1787 57.6133 84.1715 57.5795 84.1662 57.5454C84.1609 57.5113 84.1575 57.4769 84.156 57.4425C84.1544 57.4081 84.1548 57.3736 84.1571 57.3392C84.1594 57.3048 84.1636 57.2706 84.1698 57.2366C84.1765 57.2017 84.1852 57.1673 84.1958 57.1333C84.2064 57.0993 84.2189 57.0659 84.2333 57.033C84.2478 57.0002 84.2641 56.9681 84.2821 56.9368C84.3001 56.9055 84.3199 56.8752 84.3414 56.8457C84.3629 56.8163 84.386 56.788 84.4107 56.7607C84.4354 56.7334 84.4616 56.7074 84.4893 56.6827C84.5169 56.658 84.5459 56.6346 84.5762 56.6126C84.6065 56.5905 84.638 56.57 84.6706 56.551C84.7036 56.5318 84.7375 56.5141 84.7724 56.4979C84.8073 56.4818 84.843 56.4673 84.8795 56.4544C84.916 56.4416 84.953 56.4304 84.9908 56.421C85.0285 56.4115 85.0666 56.4038 85.1052 56.3978C85.1438 56.3918 85.1826 56.3877 85.2215 56.3853C85.2605 56.3829 85.2996 56.3822 85.3387 56.3834C85.3778 56.3845 85.4167 56.3875 85.4554 56.3922C85.4942 56.3969 85.5326 56.4034 85.5707 56.4116C85.9434 56.4942 86.1564 56.7113 86.3553 56.9959C88.5034 57.0254 90.6545 57.0115 92.803 57.0166C92.8051 57.3112 92.8215 57.6122 92.8049 57.9062L86.3208 57.9109C86.1327 58.1394 85.9941 58.2863 85.6949 58.3838C85.3669 59.0265 82.594 62.1482 81.9328 62.7155C81.6602 62.6071 81.3522 62.4257 81.125 62.2504C81.6073 61.8211 82.0236 61.2539 82.4505 60.7738C83.1895 59.9429 83.9557 59.1305 84.6808 58.2896Z" fill="#E6A428"/>
<path d="M75.5749 38.4122C76.1102 38.3663 76.6694 38.4814 77.1177 38.7552C77.1505 38.7754 77.1827 38.7962 77.2143 38.8178C77.2459 38.8393 77.2769 38.8615 77.3074 38.8845C77.3378 38.9074 77.3677 38.931 77.3968 38.9552C77.426 38.9795 77.4546 39.0044 77.4825 39.0299C77.5103 39.0554 77.5375 39.0815 77.564 39.1082C77.5905 39.135 77.6163 39.1622 77.6413 39.1901C77.6663 39.218 77.6906 39.2464 77.7142 39.2753C77.7377 39.3042 77.7605 39.3337 77.7825 39.3636C77.8044 39.3936 77.8255 39.424 77.8459 39.4549C77.8663 39.4857 77.8858 39.5171 77.9045 39.5488C77.9232 39.5806 77.9411 39.6127 77.958 39.6452C77.975 39.6778 77.9912 39.7107 78.0064 39.7439C78.0217 39.7772 78.036 39.8108 78.0495 39.8446C78.0629 39.8785 78.0755 39.9127 78.0872 39.9472C78.0988 39.9816 78.1095 40.0163 78.1194 40.0512C78.1292 40.0861 78.1381 40.1213 78.146 40.1566C78.1534 40.1912 78.1598 40.226 78.1654 40.261C78.1709 40.296 78.1754 40.331 78.179 40.3662C78.1826 40.4014 78.1852 40.4366 78.1868 40.4719C78.1884 40.5072 78.189 40.5425 78.1887 40.5778C78.1884 40.6131 78.1871 40.6484 78.1848 40.6837C78.1826 40.7189 78.1793 40.7541 78.1751 40.7892C78.1709 40.8243 78.1657 40.8593 78.1595 40.8942C78.1534 40.9291 78.1463 40.9638 78.1383 40.9983C78.1302 41.0329 78.1213 41.0672 78.1113 41.1013C78.1013 41.1355 78.0904 41.1693 78.0786 41.203C78.0668 41.2366 78.0541 41.2699 78.0405 41.303C78.0268 41.336 78.0122 41.3687 77.9968 41.4011C77.9814 41.4335 77.965 41.4655 77.9478 41.4971C77.9306 41.5287 77.9125 41.5599 77.8936 41.5908C77.8747 41.6215 77.8549 41.6518 77.8342 41.6817C77.8136 41.7116 77.7922 41.741 77.77 41.7699C77.3654 42.2963 76.8006 42.5473 76.1236 42.6497C75.5199 42.6917 74.9036 42.5629 74.4125 42.2304C73.904 41.8861 73.5346 41.3557 73.4547 40.7782C73.3767 40.2143 73.5679 39.6237 73.9527 39.1793C74.3739 38.6926 74.9191 38.4832 75.5749 38.4122Z" fill="#F3B847"/>
<path d="M53.4565 47.1661C53.5238 47.1617 53.5912 47.1597 53.6587 47.1602C53.7262 47.1607 53.7936 47.1637 53.8609 47.1691C53.9281 47.1746 53.995 47.1825 54.0615 47.193C54.1281 47.2033 54.1941 47.2161 54.2595 47.2314C54.3249 47.2466 54.3895 47.2642 54.4534 47.2843C54.5173 47.3042 54.5802 47.3265 54.642 47.3512C54.704 47.3758 54.7647 47.4027 54.8242 47.4318C54.8838 47.4609 54.9419 47.4921 54.9987 47.5255C55.0311 47.5447 55.0629 47.5647 55.0942 47.5854C55.1254 47.6062 55.1561 47.6276 55.1862 47.6497C55.2162 47.6719 55.2456 47.6948 55.2744 47.7183C55.3032 47.7419 55.3313 47.7661 55.3587 47.7909C55.3861 47.8158 55.4128 47.8413 55.4388 47.8674C55.4648 47.8935 55.49 47.9202 55.5145 47.9475C55.5389 47.9748 55.5626 48.0027 55.5856 48.0311C55.6085 48.0595 55.6306 48.0884 55.6519 48.1178C55.6732 48.1473 55.6937 48.1773 55.7133 48.2076C55.7329 48.2381 55.7516 48.2689 55.7695 48.3002C55.7874 48.3315 55.8044 48.3631 55.8205 48.3952C55.8366 48.4273 55.8518 48.4598 55.8661 48.4925C55.8804 48.5253 55.8938 48.5585 55.9062 48.5919C55.9186 48.6253 55.9301 48.659 55.9406 48.6929C55.9511 48.7269 55.9607 48.7611 55.9693 48.7955C55.978 48.8299 55.9856 48.8645 55.9923 48.8993C56.1073 49.4885 55.9635 50.1275 55.5727 50.6112C55.1416 51.1448 54.5423 51.3633 53.8515 51.4633C53.2778 51.4887 52.7389 51.3928 52.255 51.0947C51.7283 50.7703 51.3877 50.2649 51.2773 49.6956C51.2706 49.6602 51.2648 49.6247 51.26 49.5891C51.2552 49.5534 51.2514 49.5177 51.2485 49.4819C51.2456 49.4461 51.2437 49.4102 51.2428 49.3743C51.2419 49.3385 51.242 49.3026 51.243 49.2667C51.244 49.2307 51.246 49.1949 51.249 49.1591C51.252 49.1233 51.2559 49.0876 51.2608 49.052C51.2658 49.0164 51.2716 48.9809 51.2784 48.9455C51.2853 48.9101 51.2931 48.875 51.3019 48.84C51.3106 48.805 51.3203 48.7702 51.3309 48.7357C51.3416 48.7011 51.3531 48.6668 51.3656 48.6327C51.3781 48.5987 51.3916 48.565 51.4058 48.5315C51.4202 48.4981 51.4355 48.465 51.4516 48.4323C51.4677 48.3996 51.4847 48.3672 51.5026 48.3352C51.5205 48.3032 51.5392 48.2717 51.5588 48.2406C51.5784 48.2095 51.5988 48.1788 51.6201 48.1486C51.6413 48.1184 51.6634 48.0887 51.6863 48.0596C52.1219 47.507 52.7409 47.2612 53.4565 47.1661Z" fill="#F3B847"/>
<path d="M107.932 66.4342C108.591 66.2849 109.261 66.3408 109.852 66.6628C109.885 66.6808 109.918 66.6995 109.95 66.719C109.982 66.7384 110.014 66.7586 110.045 66.7795C110.076 66.8005 110.107 66.8221 110.137 66.8444C110.167 66.8667 110.196 66.8897 110.225 66.9134C110.253 66.937 110.281 66.9614 110.309 66.9863C110.336 67.0113 110.362 67.0369 110.388 67.0631C110.414 67.0893 110.439 67.116 110.464 67.1434C110.488 67.1707 110.512 67.1986 110.535 67.227C110.558 67.2555 110.58 67.2845 110.601 67.314C110.622 67.3434 110.643 67.3733 110.662 67.4037C110.682 67.4341 110.701 67.465 110.719 67.4962C110.737 67.5275 110.754 67.5592 110.77 67.5912C110.786 67.6232 110.802 67.6556 110.816 67.6884C110.83 67.7212 110.844 67.7543 110.856 67.7877C110.869 67.821 110.881 67.8547 110.891 67.8886C110.902 67.9225 110.912 67.9567 110.921 67.991C111.069 68.5816 110.947 69.2509 110.574 69.753C110.191 70.2696 109.594 70.5508 108.937 70.6617C108.355 70.6802 107.846 70.6469 107.327 70.3725C107.293 70.3548 107.26 70.3364 107.227 70.3173C107.194 70.2981 107.161 70.2782 107.129 70.2577C107.098 70.237 107.066 70.2157 107.035 70.1937C107.005 70.1716 106.974 70.1489 106.945 70.1255C106.915 70.1021 106.887 70.078 106.858 70.0533C106.83 70.0286 106.803 70.0033 106.776 69.9773C106.749 69.9513 106.723 69.9248 106.697 69.8976C106.672 69.8705 106.647 69.8428 106.623 69.8145C106.599 69.7862 106.576 69.7574 106.554 69.7281C106.532 69.6988 106.51 69.669 106.489 69.6387C106.469 69.6084 106.449 69.5777 106.43 69.5464C106.411 69.5153 106.392 69.4837 106.375 69.4516C106.358 69.4196 106.341 69.3872 106.326 69.3544C106.31 69.3217 106.295 69.2886 106.282 69.2552C106.268 69.2217 106.255 69.188 106.243 69.154C106.231 69.12 106.22 69.0858 106.21 69.0512C106.055 68.505 106.133 67.8582 106.451 67.3718C106.786 66.8594 107.32 66.5858 107.932 66.4342Z" fill="#F3B847"/>
<path d="M97.2193 47.1634C97.8576 47.1312 98.4369 47.2002 98.9824 47.5346C99.0149 47.5546 99.0469 47.5754 99.0783 47.5969C99.1097 47.6185 99.1405 47.6407 99.1707 47.6636C99.2009 47.6865 99.2305 47.7101 99.2594 47.7343C99.2883 47.7585 99.3165 47.7834 99.3442 47.8089C99.3717 47.8344 99.3986 47.8606 99.4247 47.8874C99.4509 47.9141 99.4763 47.9414 99.5009 47.9693C99.5256 47.9972 99.5495 48.0256 99.5726 48.0546C99.5957 48.0836 99.618 48.113 99.6396 48.143C99.6611 48.173 99.6818 48.2035 99.7016 48.2344C99.7215 48.2654 99.7406 48.2967 99.7587 48.3286C99.7769 48.3603 99.7942 48.3925 99.8106 48.4251C99.827 48.4577 99.8425 48.4906 99.8572 48.5239C99.8718 48.5571 99.8855 48.5907 99.8983 48.6246C99.9111 48.6586 99.923 48.6927 99.9339 48.7272C99.9449 48.7616 99.9549 48.7963 99.964 48.8312C99.9731 48.8661 99.9812 48.9012 99.9883 48.9364C99.9957 48.9739 100.002 49.0115 100.007 49.0492C100.012 49.0869 100.017 49.1247 100.02 49.1627C100.023 49.2006 100.025 49.2386 100.026 49.2767C100.027 49.3147 100.027 49.3527 100.026 49.3907C100.025 49.4287 100.022 49.4667 100.019 49.5046C100.016 49.5426 100.012 49.5804 100.006 49.6181C100.001 49.6558 99.9946 49.6934 99.9873 49.7308C99.9798 49.7683 99.9713 49.8055 99.9618 49.8425C99.9523 49.8796 99.9418 49.9163 99.9302 49.9529C99.9187 49.9894 99.9061 50.0257 99.8925 50.0617C99.879 50.0976 99.8644 50.1332 99.8488 50.1685C99.8333 50.2038 99.8168 50.2387 99.7993 50.2732C99.7818 50.3077 99.7633 50.3418 99.7439 50.3754C99.7245 50.4091 99.7042 50.4423 99.6829 50.475C99.6617 50.5077 99.6395 50.5399 99.6165 50.5715C99.5935 50.6032 99.5695 50.6344 99.5448 50.6649C99.1394 51.1619 98.5998 51.4054 97.9451 51.5028C97.3632 51.5469 96.8377 51.4673 96.3314 51.1859C95.7656 50.8715 95.3419 50.3669 95.1955 49.7729C95.187 49.738 95.1795 49.703 95.173 49.6677C95.1665 49.6325 95.161 49.5972 95.1564 49.5617C95.1518 49.5263 95.1483 49.4907 95.1457 49.4551C95.1431 49.4194 95.1415 49.3837 95.1409 49.348C95.1403 49.3123 95.1407 49.2766 95.1421 49.2409C95.1435 49.2052 95.1459 49.1696 95.1493 49.134C95.1526 49.0984 95.1569 49.0629 95.1622 49.0275C95.1676 48.9921 95.174 48.9569 95.1812 48.9218C95.1885 48.8867 95.1968 48.8518 95.206 48.8171C95.2152 48.7824 95.2254 48.7479 95.2365 48.7137C95.2477 48.6795 95.2598 48.6455 95.2729 48.6118C95.2859 48.5781 95.2998 48.5448 95.3147 48.5118C95.3296 48.4787 95.3454 48.4461 95.362 48.4138C95.3788 48.3815 95.3963 48.3496 95.4148 48.3181C95.4333 48.2866 95.4526 48.2556 95.4728 48.225C95.493 48.1944 95.514 48.1643 95.5359 48.1347C95.9463 47.5729 96.5175 47.2987 97.2193 47.1634Z" fill="#F3B847"/>
<path d="M43.5709 70.5844C43.5118 70.6137 43.4519 70.6417 43.3913 70.6684C42.8175 70.9179 42.1488 70.9162 41.5601 70.7097C40.9255 70.4871 40.3785 70.0233 40.1106 69.4507C39.8461 68.8854 39.8348 68.2034 40.0975 67.637C40.3627 67.0652 40.8814 66.6471 41.5035 66.4175C42.187 66.1653 42.7945 66.2002 43.4617 66.4644C44.1531 66.8499 44.6676 67.2429 44.8804 67.9909C45.0466 68.5746 44.9507 69.2268 44.5939 69.737C44.3348 70.1074 43.9712 70.3549 43.5709 70.5844Z" fill="#F3B847"/>
<path d="M48.8604 56.6016C48.8623 56.6177 48.8644 56.6338 48.8662 56.6499C48.9898 57.7838 48.6913 59.8466 49.0012 60.8003C49.0145 60.8421 49.0295 60.8834 49.0461 60.9242C49.0627 60.965 49.081 61.0052 49.1009 61.0447C49.1207 61.0843 49.1422 61.1231 49.1653 61.1612C49.1883 61.1993 49.2128 61.2366 49.2388 61.2731C49.2649 61.3095 49.2923 61.345 49.3212 61.3796C49.3501 61.4142 49.3804 61.4478 49.412 61.4803C49.4436 61.5129 49.4765 61.5443 49.5107 61.5746C49.5449 61.605 49.5802 61.6341 49.6167 61.6621C49.9223 61.8951 50.4166 62.0957 50.8217 62.1144C50.6918 62.3235 50.5648 62.5341 50.4408 62.7461C50.3167 62.9582 50.1957 63.1717 50.0777 63.3865C49.9596 63.6014 49.8446 63.8177 49.7326 64.0353C49.6206 64.2529 49.5117 64.4718 49.4059 64.6919C49.3001 64.9121 49.1974 65.1334 49.0978 65.356C48.9982 65.5786 48.9017 65.8022 48.8084 66.027C48.7151 66.2519 48.625 66.4778 48.5381 66.7047C48.4511 66.9316 48.3673 67.1596 48.2868 67.3885C48.2062 67.6174 48.1288 67.8472 48.0547 68.0779C47.9806 68.3087 47.9098 68.5402 47.8422 68.7726C47.7746 69.005 47.7103 69.2381 47.6492 69.472C47.5882 69.7059 47.5304 69.9404 47.476 70.1757C47.4215 70.411 47.3704 70.6468 47.3226 70.8832C47.2748 71.1197 47.2303 71.3567 47.1891 71.5942C47.1479 71.8317 47.1101 72.0696 47.0756 72.308C47.0411 72.5464 47.01 72.7851 46.9822 73.0242C46.8041 72.8383 46.6745 72.6199 46.4805 72.4436C45.6681 71.705 44.5535 71.8714 43.5061 71.8834C43.5421 71.4508 43.5132 71.0183 43.5701 70.586C43.9703 70.3565 44.334 70.109 44.5931 69.7386C44.9499 69.2284 45.0458 68.5762 44.8796 67.9925C44.6668 67.2445 44.1523 66.8515 43.4609 66.466C43.5698 65.9397 43.7736 65.4037 43.9564 64.8944C45.0268 61.9108 46.7539 59.0768 48.8604 56.6016Z" fill="#E6A428"/>
<path d="M102.23 56.6992C102.713 57.1742 103.107 57.7601 103.5 58.2981C105.362 60.8476 106.764 63.5699 107.937 66.4348C107.325 66.5864 106.791 66.86 106.457 67.3724C106.139 67.8588 106.06 68.5056 106.215 69.0518C106.225 69.0863 106.236 69.1206 106.248 69.1545C106.26 69.1886 106.273 69.2223 106.287 69.2557C106.301 69.2892 106.315 69.3222 106.331 69.355C106.346 69.3878 106.363 69.4202 106.38 69.4522C106.397 69.4842 106.416 69.5158 106.435 69.547C106.454 69.5782 106.474 69.609 106.495 69.6392C106.515 69.6695 106.537 69.6994 106.559 69.7287C106.581 69.758 106.605 69.7868 106.628 69.815C106.652 69.8433 106.677 69.871 106.702 69.8982C106.728 69.9253 106.754 69.9519 106.781 69.9778C106.808 70.0038 106.835 70.0292 106.863 70.0538C106.892 70.0786 106.921 70.1027 106.95 70.1261C106.98 70.1495 107.01 70.1722 107.041 70.1942C107.071 70.2162 107.103 70.2376 107.135 70.2582C107.167 70.2788 107.199 70.2987 107.232 70.3178C107.265 70.337 107.298 70.3554 107.333 70.373C107.852 70.6474 108.36 70.6808 108.942 70.6622C109.004 71.0704 109.061 71.4719 109.078 71.8844C109.585 71.8809 110.106 71.8544 110.611 71.8956C109.45 71.9732 108.253 71.9209 107.088 71.919C106.495 71.918 105.841 71.8691 105.263 72.0039C104.853 72.0993 104.475 72.2975 104.196 72.5899C104.058 72.7348 103.946 72.9144 103.856 73.0875C103.68 72.2084 103.627 71.3031 103.445 70.4184C102.863 67.5888 101.718 64.6421 100.205 62.1178C99.7121 62.1274 99.2201 62.1364 98.7266 62.1269C99.7639 61.9053 100.874 62.4232 101.747 61.6165C101.944 61.4346 102.061 61.2293 102.126 60.9817C102.287 60.376 102.213 59.6613 102.213 59.0395C102.214 58.2594 102.22 57.4793 102.23 56.6992Z" fill="url(#paint1_linear_500_4900)"/>
<path d="M99.1328 89.9449C101.423 87.1368 103.158 83.2585 103.668 79.7875C103.73 79.3659 103.704 78.9326 103.737 78.5078C103.772 79.4601 103.575 80.5883 104.402 81.3222C104.667 81.5569 104.999 81.7395 105.361 81.8152C105.957 81.9402 106.633 81.8765 107.243 81.8707C108.453 81.8593 109.689 81.8055 110.898 81.8586C110.255 81.9454 109.542 81.8946 108.892 81.8903C108.836 82.1374 108.776 82.3838 108.713 82.6295C108.651 82.8752 108.584 83.1202 108.515 83.3644C108.445 83.6086 108.372 83.8519 108.296 84.0945C108.22 84.337 108.14 84.5786 108.057 84.8193C107.975 85.06 107.888 85.2997 107.799 85.5384C107.709 85.7771 107.617 86.0148 107.521 86.2514C107.424 86.488 107.325 86.7234 107.223 86.9577C107.12 87.192 107.015 87.4251 106.906 87.6569C106.797 87.8888 106.685 88.1194 106.569 88.3487C106.454 88.578 106.336 88.8059 106.214 89.0325C106.092 89.2591 105.968 89.4842 105.84 89.7079C105.712 89.9316 105.582 90.1538 105.448 90.3745C105.314 90.5952 105.177 90.8144 105.037 91.0319C104.897 91.2495 104.754 91.4654 104.609 91.6797C104.463 91.8939 104.314 92.1065 104.162 92.3173C104.011 92.5282 103.856 92.7372 103.699 92.9445C103.198 93.6044 102.664 94.3169 102.052 94.8937C102.041 94.1406 102.049 93.3865 102.047 92.6333C102.045 92.1672 102.084 91.6607 101.979 91.2039C101.908 90.8956 101.748 90.5969 101.499 90.3754C100.888 89.8303 99.9175 89.9395 99.1328 89.9449Z" fill="url(#paint2_linear_500_4900)"/>
<path d="M92.3536 95.2461C92.3585 95.2706 92.3636 95.2951 92.3681 95.3196C92.5758 96.4673 91.9043 98.5437 93.0439 99.3282C93.7175 99.7919 94.5468 99.7117 95.3371 99.6921C94.9806 100.026 94.5629 100.319 94.1744 100.622C93.2449 101.345 92.3258 102.024 91.3071 102.64C91.0615 102.789 89.3455 103.69 89.3137 103.746C88.8729 104.048 88.1732 104.232 87.6525 104.403C85.5698 105.089 83.2596 105.807 81.0391 105.979L81.0415 100.766C84.8078 100.284 89.2939 98.354 92.3354 96.2924C92.3327 95.9436 92.3238 95.5941 92.3536 95.2461Z" fill="url(#paint3_linear_500_4900)"/>
<path d="M81.0462 45.4805C81.8487 45.5414 82.6937 45.7961 83.474 45.9786C83.7501 46.0421 84.0253 46.1087 84.2996 46.1786C84.5739 46.2483 84.8472 46.3213 85.1194 46.3975C85.3917 46.4735 85.6629 46.5528 85.933 46.6351C86.203 46.7175 86.4719 46.8029 86.7397 46.8914C87.0074 46.98 87.2739 47.0716 87.5391 47.1662C87.8043 47.2609 88.0682 47.3586 88.3307 47.4593C88.5932 47.56 88.8543 47.6637 89.114 47.7705C89.3736 47.8772 89.6318 47.987 89.8884 48.0997C90.145 48.2124 90.4 48.328 90.6535 48.4465C90.9069 48.5651 91.1587 48.6866 91.4088 48.8109C91.6589 48.9353 91.9073 49.0624 92.1539 49.1925C92.4005 49.3225 92.6453 49.4554 92.8882 49.5911C93.1312 49.7268 93.3722 49.8653 93.6113 50.0066C93.8505 50.1478 94.0876 50.2917 94.3228 50.4384C94.5579 50.5851 94.791 50.7345 95.022 50.8866C95.2531 51.0387 95.482 51.1934 95.7088 51.3507C96.2684 51.7389 96.8429 52.1262 97.3681 52.553C97.9983 52.5562 98.639 52.5395 99.2672 52.5822C98.1366 52.6511 96.975 52.5901 95.8404 52.5818C95.2465 52.5775 94.5362 52.5058 93.9591 52.6588C93.6608 52.738 93.3909 52.9278 93.1905 53.1405C92.6599 53.7036 92.7601 54.4319 92.793 55.1226C91.9748 54.6824 91.2157 54.1427 90.3988 53.6949C87.6993 52.2149 84.1269 50.76 81.0078 50.2997C81.074 48.6956 80.9822 47.0854 81.0462 45.4805Z" fill="#AF8026"/>
<path d="M57.6511 95.5703C58.11 95.9766 58.6435 96.3238 59.1607 96.6654C59.4494 96.8555 59.7423 97.04 60.0393 97.2191C60.3363 97.3982 60.6371 97.5717 60.9418 97.7396C61.2465 97.9075 61.5548 98.0696 61.8668 98.226C62.1788 98.3824 62.4941 98.5329 62.8127 98.6775C63.1315 98.8221 63.4532 98.9608 63.7781 99.0934C64.103 99.2261 64.4306 99.3526 64.7611 99.473C65.0916 99.5934 65.4247 99.7076 65.7603 99.8156C66.0959 99.9236 66.4338 100.025 66.774 100.121C67.7945 100.416 68.8454 100.598 69.8662 100.879C69.8725 102.579 69.9074 104.287 69.8674 105.986C63.9831 105.112 58.9865 103.07 54.3281 99.683C55.201 99.5711 56.1943 99.8463 56.9282 99.2597C57.9747 98.4232 57.5211 96.777 57.6426 95.6454L57.6511 95.5703Z" fill="url(#paint4_linear_500_4900)"/>
<path d="M99.2704 52.5834C100.096 52.5733 101.076 52.4671 101.727 53.0357C102.189 53.4402 102.243 53.9883 102.241 54.5397C102.239 55.2584 102.209 55.9819 102.23 56.7001C102.22 57.4802 102.214 58.2603 102.213 59.0404C102.213 59.6622 102.287 60.377 102.126 60.9826C102.061 61.2302 101.944 61.4356 101.747 61.6174C100.874 62.4241 99.7639 61.9062 98.7266 62.1278C97.7852 62.1328 94.7611 62.2514 93.98 62.0675C93.7143 62.005 93.4841 61.8791 93.2932 61.6989C93.077 61.4948 92.9151 61.2269 92.8473 60.949C92.6939 60.3191 92.8023 58.6444 92.8091 57.9067C92.8257 57.6128 92.8094 57.3118 92.8073 57.0171C92.7832 56.3881 92.7989 55.7535 92.7962 55.1238C92.7633 54.4332 92.6631 53.7049 93.1936 53.1417C93.3941 52.9291 93.664 52.7392 93.9623 52.6601C94.5394 52.507 95.2497 52.5787 95.8436 52.583C96.9782 52.5913 98.1398 52.6523 99.2704 52.5834Z" fill="#F3B847"/>
<path d="M48.8664 56.5992C48.9069 56.4231 48.8895 56.2112 48.8908 56.0303C48.8974 55.1009 48.6571 53.8576 49.4089 53.1134C49.7848 52.7413 50.2882 52.543 50.8379 52.5215C51.9133 52.4794 53.0094 52.5162 54.0871 52.5141C54.9203 52.5124 56.3392 52.4187 57.0963 52.5729C57.4 52.6347 57.6742 52.7829 57.8976 52.978C58.4961 53.501 58.5532 54.148 58.5598 54.8567C58.5339 55.5767 58.5763 56.3032 58.5285 57.0214C58.5121 57.3149 58.4642 57.6873 58.54 57.973C58.5488 58.7454 58.6661 60.1336 58.4754 60.8329C58.3898 61.1467 58.1964 61.4387 57.9447 61.6642C57.7421 61.8458 57.491 61.9888 57.213 62.0488C56.4641 62.2106 55.5375 62.1213 54.7643 62.12L50.8277 62.112C50.4226 62.0933 49.9283 61.8927 49.6227 61.6597C49.5862 61.6317 49.5509 61.6026 49.5168 61.5722C49.4825 61.5419 49.4496 61.5105 49.418 61.4779C49.3864 61.4454 49.3561 61.4118 49.3272 61.3772C49.2983 61.3426 49.2709 61.3071 49.2448 61.2707C49.2188 61.2342 49.1943 61.1969 49.1713 61.1588C49.1482 61.1207 49.1267 61.0819 49.1069 61.0423C49.087 61.0028 49.0687 60.9626 49.0521 60.9218C49.0355 60.881 49.0205 60.8397 49.0072 60.7979C48.6973 59.8442 48.9958 57.7814 48.8722 56.6475C48.8704 56.6314 48.8683 56.6153 48.8664 56.5992Z" fill="#F3B847"/>
<path d="M81.0355 107C81.899 106.992 82.7624 106.99 83.626 106.994L83.6216 108.283C83.6323 108.661 83.6354 109.039 83.6308 109.417L85.039 109.409L85.0404 112.154H66.0612L66.0547 109.395C66.5604 109.391 67.0644 109.389 67.5699 109.405C67.5743 109.173 67.5624 108.925 67.5918 108.695C67.5732 108.134 67.5953 107.566 67.5973 107.004C68.3515 107.002 69.1085 106.988 69.8622 107.015C70.3145 107.075 70.8004 107.041 71.2582 107.039L73.8809 107.024C76.2635 107.009 78.654 107.046 81.0355 107Z" fill="#AF8026"/>
<path d="M81.037 107C81.9005 106.992 82.764 106.99 83.6275 106.994L83.6231 108.283C83.5985 108.671 83.6004 109.058 83.6007 109.447C80.3073 109.494 77.0105 109.487 73.7166 109.489C71.6921 109.491 69.6284 109.551 67.6084 109.454C67.6069 109.204 67.6214 108.942 67.5934 108.695C67.5747 108.134 67.5968 107.566 67.5988 107.004C68.3531 107.002 69.1101 106.988 69.8638 107.015C70.3161 107.075 70.8019 107.041 71.2598 107.039L73.8824 107.024C76.2651 107.009 78.6555 107.046 81.037 107Z" fill="#F3B847"/>
<path d="M99.1357 89.946C99.9203 89.9406 100.891 89.8315 101.502 90.3766C101.751 90.598 101.91 90.8968 101.981 91.205C102.087 91.6619 102.048 92.1683 102.049 92.6344C102.052 93.3877 102.044 94.1417 102.054 94.8948C102.056 95.7133 102.165 97.7569 101.978 98.4397C101.96 98.5099 101.936 98.5786 101.908 98.646C101.879 98.7133 101.846 98.7787 101.808 98.842C101.771 98.9054 101.728 98.9662 101.682 99.0245C101.635 99.0827 101.585 99.1379 101.53 99.1901C101.481 99.2366 101.428 99.2799 101.372 99.32C101.317 99.36 101.258 99.3964 101.197 99.4292C101.136 99.462 101.073 99.4908 101.008 99.5158C100.942 99.5408 100.875 99.5616 100.807 99.5782C99.8105 99.8246 97.9241 99.5348 96.8108 99.6856C96.3331 99.676 95.8095 99.6426 95.335 99.6922C94.5447 99.7118 93.7154 99.792 93.0418 99.3283C91.9022 98.5438 92.5737 96.4674 92.366 95.3197C92.3616 95.2952 92.3564 95.2707 92.3516 95.2462L92.3539 95.2176C92.3845 94.5953 92.375 93.9693 92.3785 93.3463C92.4397 92.383 92.1208 91.1804 92.9522 90.4304C93.1761 90.2286 93.4429 90.0905 93.7493 90.0254C94.4098 89.8852 95.1854 89.9522 95.8618 89.9507L99.1357 89.946Z" fill="#F3B847"/>
<path d="M110.611 71.8948C111.414 71.8906 112.34 71.761 112.969 72.3204C113.211 72.5354 113.357 72.7977 113.422 73.0994C113.558 73.7386 113.464 74.6202 113.463 75.2838L113.452 79.6782C113.447 80.3116 113.478 80.9186 112.953 81.4041C112.396 81.92 111.628 81.8593 110.901 81.8581C109.692 81.805 108.456 81.8587 107.246 81.8702C106.636 81.876 105.96 81.9397 105.364 81.8146C105.002 81.7389 104.67 81.5563 104.405 81.3217C103.578 80.5878 103.775 79.4596 103.74 78.5073L103.743 75.3546C103.743 74.6063 103.688 73.8218 103.857 73.0866C103.946 72.9136 104.058 72.734 104.197 72.5891C104.476 72.2966 104.854 72.0985 105.263 72.003C105.842 71.8682 106.496 71.9171 107.088 71.9181C108.253 71.9201 109.45 71.9724 110.611 71.8948Z" fill="#F3B847"/>
<path d="M70.9059 50.2142C70.8763 49.1707 70.903 48.1203 70.9037 47.0762C70.9043 46.3805 70.8266 45.5952 70.9671 44.9109C71.0332 44.5883 71.1552 44.2842 71.4007 44.0385C71.7704 43.6686 72.235 43.4932 72.7744 43.4719C74.0511 43.4217 75.3497 43.4627 76.6282 43.4635C77.5347 43.4641 78.6535 43.372 79.537 43.5309C79.9206 43.5998 80.1887 43.7112 80.4732 43.9634C80.9476 44.3839 81.0256 44.9099 81.0465 45.4811C80.9825 47.0861 81.0743 48.6963 81.0081 50.3003C80.9564 51.0731 81.217 52.0202 80.5479 52.6315C80.1506 52.9946 79.7021 53.0911 79.1603 53.0964C77.7245 53.11 76.2875 53.0966 74.8515 53.0965C74.1042 53.0965 72.9591 53.1852 72.258 53.0318C71.931 52.9602 71.6082 52.7864 71.3755 52.5653C70.7415 51.9625 70.9081 50.9846 70.9059 50.2142Z" fill="#F3B847"/>
<path d="M74.7065 95.2852C75.1011 95.2854 75.8265 95.3236 76.1727 95.2909C77.8837 95.6056 79.2091 96.2379 80.1935 97.6017C80.9214 98.6102 81.0493 99.5903 81.0392 100.767L81.0368 105.981L81.0351 107.003C78.6536 107.048 76.2632 107.012 73.8805 107.027L71.2579 107.042C70.8 107.044 70.3142 107.077 69.8619 107.017L69.8702 105.989C69.9103 104.29 69.8753 102.583 69.869 100.883C69.8209 99.7639 69.9358 98.7502 70.5933 97.7738C71.6004 96.2784 72.9002 95.6734 74.7065 95.2852Z" fill="#E6A428"/>
<path d="M43.5109 71.8826C44.5583 71.8706 45.6728 71.7042 46.4853 72.4428C46.6793 72.6191 46.8089 72.8375 46.987 73.0234C47.197 73.6912 47.1189 74.4333 47.1145 75.1233C47.1053 76.5922 46.9897 78.1488 47.2347 79.602C47.9453 83.4988 49.2632 86.5549 51.3926 89.9823C52.4269 90.0217 53.4725 89.99 54.508 89.9886C55.0569 89.988 55.6643 89.9447 56.2022 90.0571C56.5784 90.1357 56.9324 90.3134 57.191 90.5769C57.8568 91.2554 57.6478 92.568 57.6449 93.4178L57.6549 95.5719L57.6465 95.647C57.525 96.7786 57.9785 98.4248 56.9321 99.2613C56.1982 99.8479 55.2049 99.5727 54.332 99.6846C53.4471 99.6257 52.4959 99.6941 51.6048 99.6986C50.5975 99.7036 49.2976 99.8925 48.5303 99.1671C48.4757 99.1153 48.4251 99.0605 48.3786 99.0025C48.3321 98.9445 48.29 98.884 48.2524 98.8208C48.2148 98.7576 48.1821 98.6925 48.1541 98.6253C48.1262 98.558 48.1033 98.4894 48.0854 98.4194C47.9452 97.8674 48.0322 97.2227 48.0324 96.6561C48.0329 95.9024 48.0112 95.1467 48.04 94.3934C44.954 90.7652 43.0109 86.3916 41.9555 81.9257C41.7257 81.6856 38.9424 82.2478 38.0508 81.4895C37.6505 81.1491 37.5324 80.7457 37.514 80.2688C37.4574 78.8078 37.5096 77.3319 37.5062 75.8687C37.5046 75.1769 37.3999 73.6862 37.5477 73.0604C37.6109 72.7929 37.7762 72.552 37.9823 72.3575C38.1939 72.158 38.3874 72.0343 38.6836 71.9618C39.4451 71.7754 42.5928 71.8816 43.5109 71.8826Z" fill="#F3B847"/>
<path d="M58.5362 57.9738C58.7304 57.8874 64.2332 57.9144 64.4087 57.9664C64.5817 58.0177 64.8434 58.304 64.9688 58.4326C65.3076 58.78 65.5865 59.181 65.9081 59.543C66.4306 60.1313 66.9915 60.6914 67.5267 61.2702C68.0007 61.7829 68.45 62.3283 68.9516 62.8179C67.5024 63.7403 65.9975 64.5936 64.5241 65.4836C63.9163 65.8507 63.2689 66.2002 62.6991 66.6143L62.6938 68.9074C62.9409 68.7798 63.1864 68.6421 63.4388 68.5241C63.8998 68.4968 64.4894 68.4074 64.9339 68.5216C64.9821 68.5921 64.9862 68.619 64.9979 68.699C64.9517 68.9908 64.8911 69.3158 65.0968 69.5717C65.1941 69.693 65.3396 69.7706 65.4921 69.8201C65.5778 69.8355 65.7215 69.8369 65.7749 69.9016C65.9146 70.0706 65.8183 70.3937 65.8167 70.5963C65.5854 73.8406 65.3715 77.102 65.2401 80.3509C64.9434 80.3796 64.7622 80.4364 64.5682 80.6531C64.5343 80.6915 64.5019 80.7308 64.4707 80.7711C64.4395 81.1051 64.4754 81.4328 64.458 81.7642C63.9571 81.7509 63.2144 81.6547 62.83 82.0094C62.6542 82.1715 62.5823 82.4128 62.5934 82.6366C62.6073 82.9162 62.7442 83.1911 62.9815 83.3708C63.1711 83.5145 63.3611 83.5452 63.6009 83.5669C64.0847 83.6105 64.5826 83.5884 65.069 83.5885L67.4822 83.5878C69.773 83.5864 72.0699 83.6152 74.3601 83.5798C74.3653 84.5149 74.3256 85.4606 74.3716 86.3943L74.3714 93.3312C73.4991 93.3458 72.6268 93.3489 71.7543 93.3405C71.3358 93.3693 70.9037 93.3515 70.4835 93.3532L70.1378 93.414C70.1515 94.1529 70.294 94.3482 69.9576 95.1113C69.9429 95.1447 69.9296 95.1785 69.9154 95.2121C71.0071 95.2138 72.0988 95.2214 73.1904 95.2348C73.678 95.2408 74.2262 95.2036 74.7049 95.2826C72.8986 95.6709 71.5989 96.2759 70.5918 97.7713C69.9342 98.7476 69.8193 99.7614 69.8675 100.88C68.8466 100.598 67.7958 100.417 66.7752 100.121C66.4351 100.026 66.0972 99.9244 65.7616 99.8164C65.426 99.7084 65.0929 99.5942 64.7624 99.4738C64.4319 99.3534 64.1042 99.2268 63.7793 99.0942C63.4545 98.9615 63.1327 98.8229 62.814 98.6783C62.4953 98.5337 62.18 98.3831 61.8681 98.2268C61.5561 98.0704 61.2478 97.9082 60.9431 97.7403C60.6384 97.5725 60.3375 97.399 60.0405 97.2199C59.7435 97.0408 59.4507 96.8562 59.1619 96.6662C58.6447 96.3245 58.1112 95.9774 57.6523 95.5711L57.6422 93.417C57.6451 92.5672 57.8542 91.2546 57.1884 90.5761C56.9297 90.3125 56.5757 90.1349 56.1996 90.0563C55.6617 89.9438 55.0543 89.9872 54.5054 89.9878C53.4699 89.9891 52.4242 90.0209 51.39 89.9814C49.2606 86.5541 47.9426 83.4979 47.232 79.6012C46.9871 78.148 47.1027 76.5914 47.1119 75.1224C47.1162 74.4325 47.1944 73.6904 46.9844 73.0226C47.0122 72.7835 47.0433 72.5447 47.0777 72.3063C47.1122 72.068 47.1501 71.8301 47.1913 71.5925C47.2324 71.355 47.2769 71.118 47.3248 70.8816C47.3725 70.6452 47.4237 70.4093 47.4782 70.1741C47.5326 69.9388 47.5903 69.7042 47.6514 69.4704C47.7125 69.2364 47.7768 69.0033 47.8444 68.7709C47.9119 68.5386 47.9828 68.307 48.0569 68.0762C48.131 67.8455 48.2083 67.6157 48.2889 67.3869C48.3694 67.1579 48.4532 66.93 48.5402 66.703C48.6272 66.4761 48.7173 66.2502 48.8106 66.0254C48.9039 65.8006 49.0003 65.5769 49.0999 65.3543C49.1995 65.1318 49.3023 64.9104 49.4081 64.6903C49.5139 64.4701 49.6228 64.2513 49.7348 64.0337C49.8467 63.816 49.9617 63.5998 50.0798 63.3849C50.1978 63.17 50.3188 62.9565 50.4429 62.7445C50.567 62.5324 50.694 62.3219 50.8239 62.1128L54.7605 62.1208C55.5337 62.1221 56.4603 62.2113 57.2092 62.0495C57.4871 61.9895 57.7382 61.8465 57.9408 61.665C58.1925 61.4394 58.386 61.1474 58.4715 60.8336C58.6622 60.1343 58.545 58.7462 58.5362 57.9738Z" fill="#131212"/>
<path d="M52.917 84.8494C53.4353 84.816 53.9359 84.9299 54.3623 85.2061C54.3919 85.2253 54.4209 85.2452 54.4494 85.2658C54.478 85.2863 54.5059 85.3075 54.5333 85.3293C54.5606 85.3511 54.5874 85.3735 54.6136 85.3965C54.6397 85.4195 54.6652 85.4431 54.6901 85.4672C54.715 85.4914 54.7392 85.5161 54.7628 85.5414C54.7863 85.5666 54.8092 85.5924 54.8313 85.6187C54.8535 85.645 54.8749 85.6718 54.8956 85.699C54.9163 85.7263 54.9362 85.754 54.9555 85.7822C54.9747 85.8103 54.9931 85.8389 55.0108 85.8679C55.0284 85.8969 55.0453 85.9263 55.0614 85.956C55.0774 85.9858 55.0927 86.0159 55.1072 86.0463C55.1216 86.0767 55.1352 86.1075 55.1479 86.1386C55.1607 86.1697 55.1726 86.201 55.1837 86.2326C55.1948 86.2642 55.205 86.296 55.2144 86.328C55.2238 86.3601 55.2323 86.3924 55.2398 86.4248C55.2475 86.4573 55.2542 86.4898 55.2601 86.5226C55.3576 87.0558 55.2387 87.6084 54.8926 88.0505C54.5042 88.5465 53.9715 88.7747 53.3334 88.8803C52.7876 88.9118 52.2669 88.8164 51.8104 88.5261C51.7806 88.507 51.7514 88.4873 51.7227 88.467C51.694 88.4466 51.6658 88.4255 51.6382 88.4039C51.6106 88.3823 51.5837 88.36 51.5574 88.3371C51.531 88.3142 51.5052 88.2908 51.4802 88.2667C51.4551 88.2427 51.4307 88.2181 51.4069 88.1929C51.3831 88.1678 51.3601 88.1421 51.3378 88.1159C51.3154 88.0897 51.2938 88.063 51.2729 88.0358C51.252 88.0086 51.2318 87.981 51.2124 87.9529C51.193 87.9248 51.1744 87.8963 51.1566 87.8673C51.1387 87.8384 51.1216 87.8091 51.1053 87.7793C51.0891 87.7496 51.0737 87.7196 51.059 87.6891C51.0444 87.6587 51.0306 87.628 51.0176 87.597C51.0047 87.5659 50.9926 87.5346 50.9814 87.503C50.9701 87.4714 50.9597 87.4396 50.9501 87.4076C50.9406 87.3755 50.932 87.3432 50.9243 87.3108C50.9164 87.2783 50.9095 87.2457 50.9035 87.2129C50.8975 87.1784 50.8924 87.1437 50.8882 87.1089C50.8841 87.0741 50.8809 87.0393 50.8787 87.0044C50.8765 86.9695 50.8753 86.9345 50.875 86.8995C50.8748 86.8645 50.8756 86.8295 50.8773 86.7946C50.8791 86.7596 50.8817 86.7248 50.8854 86.69C50.8891 86.6551 50.8937 86.6204 50.8994 86.5858C50.905 86.5512 50.9116 86.5167 50.9192 86.4824C50.9267 86.4481 50.9352 86.414 50.9447 86.3802C50.9541 86.3462 50.9645 86.3126 50.9758 86.2791C50.9872 86.2458 50.9995 86.2127 51.0127 86.1798C51.0259 86.147 51.04 86.1145 51.055 86.0823C51.07 86.0501 51.086 86.0183 51.1028 85.9869C51.1196 85.9554 51.1373 85.9244 51.1558 85.8938C51.1744 85.8632 51.1937 85.8331 51.214 85.8033C51.2342 85.7737 51.2553 85.7445 51.2772 85.7158C51.299 85.6871 51.3217 85.6589 51.3451 85.6312C51.7492 85.1477 52.2766 84.9352 52.917 84.8494Z" fill="#E6A428"/>
<path d="M53.821 69.7088C53.808 69.2391 53.7223 68.2431 53.9551 67.8467C54.0263 67.7255 54.1469 67.6576 54.2909 67.6296C54.7428 67.5417 55.2872 67.6917 55.7498 67.6958C56.2547 67.7003 56.7591 67.5727 57.2571 67.5871C57.3968 67.591 57.5524 67.6149 57.6641 67.6983C58.0354 67.9758 57.9248 69.2534 57.924 69.6655C57.9688 69.6012 58.0139 69.5381 58.0648 69.4777C58.1813 69.3394 58.2768 69.2404 58.4721 69.2173C58.5065 69.2376 58.5289 69.2474 58.5544 69.2812C58.7234 69.5042 58.6798 69.9602 58.6297 70.2193C58.5487 70.6388 58.2628 70.6489 57.9642 70.8893C57.8023 71.0197 57.732 71.7229 57.5448 71.9726C57.3828 72.1887 57.1335 72.3416 56.9015 72.489L57.1251 72.7505L57.11 72.9498C56.6971 72.9114 56.2172 73.4767 55.865 73.6842C55.4698 73.4017 55.0245 73.008 54.5211 72.9237C54.5982 72.8107 54.6744 72.7175 54.7715 72.6183C54.6772 72.3266 54.2918 72.1507 54.1011 71.9025C53.8828 71.6185 53.9605 71.2226 53.7793 70.9349C53.7116 70.8274 53.4538 70.6848 53.3489 70.5825C53.1444 70.3833 52.9755 70.0955 52.9935 69.8149C53.0087 69.5791 53.1346 69.3755 53.3214 69.218C53.3924 69.2019 53.4286 69.1762 53.4975 69.2098C53.6879 69.3027 53.7506 69.5355 53.821 69.7088Z" fill="#FDD68F"/>
<path d="M54.8359 72.6593C55.0087 72.6127 55.1615 72.6896 55.3294 72.7224C55.7169 72.7984 56.429 72.8623 56.7644 72.6555C56.8588 72.5973 56.8808 72.5935 56.8999 72.4883L57.1235 72.7498C56.874 72.8267 56.6177 72.9012 56.361 72.9548C55.7626 73.0797 55.3361 72.9521 54.8359 72.6593Z" fill="#F3B847"/>
<path d="M54.5155 72.9258C55.019 73.01 55.4642 73.4037 55.8594 73.6863C56.2116 73.4788 56.6915 72.9135 57.1045 72.9518C57.2515 73.0189 57.3746 73.0746 57.4912 73.1819L57.8266 73.308C59.008 73.5978 60.5557 73.7824 61.5178 74.5135C62.1571 74.9992 62.2168 75.6317 62.2844 76.3315C58.0605 76.9666 53.6636 77.0142 49.4453 76.3171C49.4558 75.8648 49.4969 75.3581 49.744 74.9568C50.31 74.0381 52.6521 73.6222 53.7199 73.3246C53.8876 73.2626 54.0171 73.214 54.1998 73.2235C54.369 73.1775 54.4266 73.0542 54.5155 72.9258Z" fill="#484D55"/>
<path d="M53.7266 73.325C53.8943 73.263 54.0238 73.2143 54.2065 73.2239C54.2856 73.6107 54.5638 74.0353 54.7401 74.3973C54.984 74.8874 55.2094 75.3844 55.4164 75.8884C55.347 75.9751 55.3532 75.9703 55.237 75.9888C54.7679 75.692 54.1519 73.8778 53.7266 73.325Z" fill="#2B2F39"/>
<path d="M57.4935 73.1797L57.8289 73.3059C57.833 73.4019 57.8295 73.495 57.7955 73.587C57.6527 73.9742 56.8452 75.6144 56.6235 75.9211C56.5077 75.969 56.4755 75.9595 56.347 75.946L56.2656 75.8925C56.6589 74.9839 57.1281 74.0961 57.4935 73.1797Z" fill="#2B2F39"/>
<path d="M54.5188 72.9258C55.0222 73.01 55.4675 73.4037 55.8627 73.6863C56.2149 73.4788 56.6948 72.9135 57.1077 72.9518C57.2548 73.0189 57.3778 73.0746 57.4945 73.1819C57.1291 74.0983 56.6598 74.9861 56.2666 75.8946L56.2252 75.8637C56.0755 75.9824 55.8311 75.9745 55.6421 75.9626C55.5362 75.956 55.5348 75.9554 55.4582 75.8902L55.4129 75.8881C55.206 75.3841 54.9806 74.887 54.7367 74.397C54.5604 74.0349 54.2821 73.6103 54.2031 73.2235C54.3723 73.1775 54.4299 73.0542 54.5188 72.9258Z" fill="#FBF7EE"/>
<path d="M55.8276 73.7227L56.389 74.0733C56.2699 74.228 56.1637 74.3808 56.0675 74.5483C56.1139 74.9895 56.136 75.4237 56.2237 75.8609C56.0739 75.9796 55.8295 75.9718 55.6405 75.9599C55.5346 75.9532 55.5333 75.9527 55.4566 75.8875C55.485 75.4431 55.5564 74.9945 55.6076 74.5516C55.4804 74.3949 55.3746 74.2278 55.2656 74.0603C55.4751 73.9599 55.6455 73.8619 55.8276 73.7227Z" fill="#2B2F39"/>
<path d="M57.6406 93.4174C58.17 93.3251 58.7888 93.3683 59.3299 93.3674C60.1826 93.369 61.0353 93.3645 61.888 93.3539L68.37 93.3061C69.4851 93.3036 70.6445 93.2427 71.7527 93.341C71.3342 93.3698 70.9021 93.3519 70.4819 93.3537L70.1362 93.4144C70.1499 94.1534 70.2924 94.3487 69.956 95.1118C69.9413 95.1452 69.928 95.179 69.9138 95.2126C71.0055 95.2143 72.0972 95.2219 73.1888 95.2353C73.6764 95.2413 74.2246 95.2041 74.7033 95.2831C72.897 95.6713 71.5973 96.2764 70.5901 97.7718C69.9326 98.7481 69.8177 99.7619 69.8659 100.881C68.845 100.599 67.7942 100.417 66.7736 100.122C66.4335 100.027 66.0956 99.9249 65.76 99.8168C65.4243 99.7089 65.0913 99.5947 64.7608 99.4743C64.4303 99.3539 64.1026 99.2273 63.7777 99.0947C63.4529 98.962 63.1311 98.8234 62.8124 98.6788C62.4937 98.5341 62.1784 98.3836 61.8665 98.2272C61.5545 98.0709 61.2462 97.9087 60.9415 97.7408C60.6368 97.573 60.3359 97.3995 60.0389 97.2204C59.7419 97.0413 59.4491 96.8567 59.1603 96.6667C58.6431 96.325 58.1096 95.9779 57.6507 95.5716L57.6406 93.4174Z" fill="url(#paint5_linear_500_4900)"/>
<path d="M68.3288 93.3872C67.8055 93.3897 67.2823 93.3872 66.759 93.3797C67.201 93.3293 67.6776 93.3567 68.1251 93.3538C68.9117 93.3488 69.6998 93.3344 70.4861 93.353L70.1404 93.4138C70.1541 94.1527 70.2967 94.348 69.9603 95.1111C69.9456 95.1445 69.9322 95.1783 69.918 95.2119C68.5495 95.2115 67.181 95.2037 65.8125 95.1884L65.8616 95.1987L65.8861 95.1698C66.0721 95.2231 67.434 95.1952 67.6862 95.1713C67.9253 95.1485 68.1105 95.0908 68.2565 94.9086C68.497 94.6084 68.4147 93.7844 68.3397 93.4343C68.3363 93.4186 68.3324 93.403 68.3288 93.3872Z" fill="#412E0A"/>
<path d="M86.325 57.911L92.809 57.9062C92.8022 58.6439 92.6939 60.3186 92.8473 60.9486C92.915 61.2264 93.077 61.4943 93.2931 61.6985C93.484 61.8787 93.7143 62.0045 93.9799 62.067C94.761 62.251 97.7852 62.1323 98.7265 62.1273C99.22 62.1368 99.712 62.1279 100.205 62.1182C101.718 64.6425 102.862 67.5892 103.445 70.4188C103.627 71.3035 103.68 72.2088 103.856 73.0879C103.688 73.8231 103.742 74.6076 103.742 75.3559L103.739 78.5085C103.707 78.9333 103.732 79.3666 103.671 79.7882C103.161 83.2592 101.425 87.1375 99.1353 89.9456L95.8614 89.9503C95.1851 89.9518 94.4095 89.8848 93.7489 90.025C93.4426 90.0901 93.1758 90.2282 92.9519 90.43C92.1204 91.18 92.4393 92.3826 92.3782 93.3459C92.3747 93.9689 92.3842 94.5949 92.3536 95.2172L92.3512 95.2458C92.3213 95.5939 92.3303 95.9433 92.333 96.2921C89.2915 98.3537 84.8054 100.284 81.0391 100.766C81.0492 99.5885 80.9213 98.6085 80.1934 97.5999C79.209 96.2362 77.8835 95.6038 76.1726 95.2892C75.8264 95.3219 75.101 95.2837 74.7064 95.2834C74.2277 95.2044 73.6795 95.2416 73.1919 95.2356C72.1003 95.2222 71.0086 95.2146 69.9169 95.2129C69.931 95.1793 69.9444 95.1455 69.9591 95.1121C70.2955 94.349 70.1529 94.1537 70.1393 93.4148L70.485 93.354C70.9052 93.3522 71.3373 93.3701 71.7558 93.3413C72.6282 93.3496 73.5006 93.3465 74.3729 93.332L74.3731 86.3951C74.327 85.4614 74.3668 84.5157 74.3615 83.5806C72.0714 83.616 69.7745 83.5872 67.4837 83.5886L65.0704 83.5893C64.5841 83.5892 64.0861 83.6113 63.6023 83.5677C63.3626 83.546 63.1726 83.5152 62.9829 83.3716C62.7456 83.1918 62.6087 82.917 62.5949 82.6374C62.5838 82.4136 62.6557 82.1723 62.8314 82.0101C63.2159 81.6555 63.9585 81.7517 64.4595 81.765C64.4768 81.4336 64.441 81.1059 64.4722 80.7719C64.5033 80.7316 64.5358 80.6923 64.5696 80.6539C64.7636 80.4372 64.9448 80.3804 65.2415 80.3516C65.373 77.1028 65.5868 73.8413 65.8182 70.5971C65.8198 70.3944 65.9161 70.0714 65.7764 69.9024C65.723 69.8377 65.5793 69.8363 65.4936 69.8209C65.3411 69.7714 65.1956 69.6938 65.0982 69.5725C64.8926 69.3166 64.9532 68.9916 64.9994 68.6998C64.9877 68.6198 64.9836 68.5928 64.9354 68.5224C64.4909 68.4081 63.9012 68.4975 63.4403 68.5249C63.1879 68.6429 62.9423 68.7806 62.6953 68.9082L62.7006 66.6151C63.2704 66.201 63.9177 65.8515 64.5255 65.4844C65.999 64.5944 67.5039 63.7411 68.9531 62.8187C69.2088 62.7259 69.5705 62.4854 69.7792 62.3195C71.6847 61.1936 73.5313 59.9624 75.4713 58.8895C76.2102 59.3076 76.9239 59.7627 77.6536 60.1942C78.8125 60.8794 79.9818 61.549 81.1292 62.2505C81.3564 62.4258 81.6644 62.6072 81.937 62.7156C82.5982 62.1483 85.371 59.0266 85.6991 58.3839C85.9983 58.2864 86.1368 58.1395 86.325 57.911Z" fill="#131212"/>
<path d="M92.3516 68.9556C92.3815 68.3663 92.5092 67.8583 93.0022 67.4399C93.6015 66.9313 94.4809 66.7841 95.2731 66.8221C95.9743 66.8558 96.7135 67.0462 97.1912 67.5457C97.5764 67.9486 97.6691 68.4323 97.6217 68.95C97.6104 69.0731 97.5891 69.1937 97.563 69.3149C97.5523 69.3121 97.5408 69.3112 97.531 69.3064C97.464 69.2735 97.3799 69.1949 97.3017 69.1866C97.1348 69.1686 96.7092 69.5447 96.5403 69.6274C96.3334 69.7288 96.0489 69.7674 95.8185 69.8033C94.8887 69.9482 93.9524 69.914 93.1211 69.4745C92.9118 69.3639 92.7256 69.1657 92.5187 69.0732C92.4173 69.0278 92.423 69.0325 92.3516 68.9556Z" fill="#FBF7EE"/>
<path d="M92.3516 68.957C92.423 69.0339 92.4173 69.0292 92.5187 69.0746C92.7256 69.1671 92.9118 69.3653 93.1211 69.4759C93.9524 69.9154 94.8887 69.9496 95.8185 69.8047C96.0489 69.7688 96.3334 69.7302 96.5403 69.6288C96.7092 69.5461 97.1348 69.17 97.3017 69.188C97.3799 69.1963 97.464 69.2749 97.531 69.3078C97.5408 69.3126 97.5523 69.3135 97.563 69.3163C97.5606 69.334 97.558 69.3517 97.556 69.3695C97.5144 69.7346 97.7049 70.0922 97.5668 70.4439C97.3692 70.9473 96.2197 72.035 96.158 72.3027C96.1267 72.4387 96.2324 72.6218 96.2889 72.7498C95.8044 73.01 95.4035 73.4013 94.8788 73.6021C94.5266 73.27 94.0602 73.0408 93.6726 72.6579L93.8545 72.3313C93.4335 71.9638 93.1748 71.5593 92.892 71.1015C92.8302 71.0727 92.7511 71.0416 92.698 71.0007C92.6182 70.939 92.571 70.8333 92.5293 70.748C92.319 70.3173 92.5186 70.0819 92.4894 69.6736C92.4729 69.4408 92.3951 69.1895 92.3516 68.957Z" fill="#FDD68F"/>
<path d="M93.6702 72.6562C94.0577 73.0392 94.5242 73.2684 94.8764 73.6005L94.8832 73.6227C94.779 73.7256 94.6773 73.8364 94.561 73.9276C94.6291 74.0569 94.7217 74.2008 94.746 74.3431C94.8338 74.8594 94.6957 76.1118 94.6813 76.7084L94.5984 76.7209C94.2397 76.5988 93.7108 76.614 93.3258 76.5866C92.0962 76.4993 90.3714 76.4774 89.2311 76.1676C89.2129 75.8774 89.2051 75.5821 89.2782 75.2971C89.3603 74.9762 89.5423 74.6934 89.8253 74.4867C90.6454 73.8876 92.3977 73.7179 93.3527 73.1684C93.3751 73.1555 93.3969 73.1421 93.4191 73.129C93.4836 72.9632 93.5799 72.8111 93.6702 72.6562Z" fill="#484D55"/>
<path d="M93.673 72.6562C94.0605 73.0392 94.527 73.2684 94.8792 73.6005L94.886 73.6227C94.7818 73.7256 94.6801 73.8364 94.5638 73.9276C94.6319 74.0569 94.7245 74.2008 94.7488 74.3431C94.8366 74.8594 94.6984 76.1118 94.6841 76.7084L94.6012 76.7209C94.3078 76.1015 94.0998 74.9596 93.9074 74.2658C93.7792 73.8698 93.6319 73.4952 93.4219 73.129C93.4864 72.9632 93.5827 72.8111 93.673 72.6562Z" fill="#FBF7EE"/>
<path d="M97.1989 84.9805C97.6683 84.9845 98.0979 85.0645 98.5022 85.2907C98.5351 85.3094 98.5676 85.3288 98.5995 85.3489C98.6314 85.3691 98.6627 85.39 98.6934 85.4116C98.7241 85.4332 98.7543 85.4555 98.7837 85.4785C98.8132 85.5015 98.8421 85.5251 98.8703 85.5495C98.8984 85.5738 98.9259 85.5988 98.9528 85.6244C98.9796 85.65 99.0056 85.6762 99.0309 85.703C99.0563 85.7298 99.0809 85.7572 99.1048 85.7851C99.1286 85.8131 99.1517 85.8416 99.1739 85.8706C99.1962 85.8996 99.2176 85.9291 99.2383 85.9591C99.2589 85.9891 99.2787 86.0196 99.2976 86.0504C99.3166 86.0814 99.3346 86.1127 99.3518 86.1445C99.369 86.1762 99.3853 86.2084 99.4008 86.2409C99.4162 86.2733 99.4307 86.3062 99.4444 86.3394C99.458 86.3726 99.4707 86.4061 99.4824 86.4398C99.4942 86.4736 99.505 86.5076 99.5148 86.5418C99.5247 86.5761 99.5336 86.6106 99.5416 86.6453C99.5497 86.6795 99.5569 86.714 99.5632 86.7486C99.5694 86.7832 99.5747 86.8179 99.579 86.8528C99.5833 86.8877 99.5866 86.9226 99.589 86.9576C99.5913 86.9926 99.5927 87.0276 99.5932 87.0627C99.5936 87.0978 99.5931 87.1329 99.5916 87.1679C99.5901 87.203 99.5876 87.238 99.5841 87.2729C99.5807 87.3078 99.5763 87.3426 99.5709 87.3774C99.5655 87.4122 99.5591 87.4467 99.5518 87.4812C99.5445 87.5156 99.5363 87.5498 99.5271 87.5839C99.5179 87.618 99.5078 87.6518 99.4967 87.6854C99.4857 87.719 99.4737 87.7523 99.4607 87.7853C99.4478 87.8183 99.434 87.851 99.4193 87.8834C99.4046 87.9158 99.389 87.9479 99.3724 87.9795C99.356 88.0112 99.3386 88.0425 99.3204 88.0733C99.3022 88.1042 99.2831 88.1347 99.2632 88.1646C99.2433 88.1946 99.2225 88.2241 99.201 88.2531C98.7969 88.801 98.2198 89.0352 97.5351 89.1555C96.9284 89.1704 96.3651 89.0708 95.8776 88.7201C95.8474 88.698 95.8179 88.6752 95.789 88.6517C95.7601 88.6283 95.7319 88.6043 95.7044 88.5795C95.6768 88.5548 95.6499 88.5294 95.6237 88.5035C95.5975 88.4775 95.5721 88.451 95.5474 88.4239C95.5226 88.3968 95.4986 88.3691 95.4754 88.3409C95.4522 88.3126 95.4297 88.2839 95.408 88.2547C95.3864 88.2255 95.3656 88.1958 95.3456 88.1656C95.3255 88.1354 95.3063 88.1048 95.288 88.0737C95.2696 88.0426 95.2521 88.0112 95.2355 87.9793C95.2188 87.9475 95.2031 87.9153 95.1882 87.8827C95.1733 87.8501 95.1594 87.8172 95.1463 87.784C95.1332 87.7507 95.121 87.7172 95.1098 87.6835C95.0985 87.6497 95.0882 87.6157 95.0788 87.5814C95.0694 87.5472 95.061 87.5127 95.0535 87.4781C95.046 87.4435 95.0394 87.4087 95.0339 87.3737C95.0282 87.3388 95.0236 87.3038 95.0199 87.2687C94.9581 86.7069 95.134 86.1222 95.5366 85.6897C95.9709 85.2231 96.5522 85.0345 97.1989 84.9805Z" fill="#F3B847"/>
<path d="M96.288 72.75C96.3568 72.8428 96.438 72.9349 96.4776 73.0419L96.7668 73.2252C97.5128 73.5151 98.2847 73.7296 99.0558 73.9546C99.5877 74.1098 100.255 74.2424 100.723 74.5194C100.969 74.6646 101.146 74.8823 101.252 75.1295C101.364 75.3887 101.43 75.8124 101.325 76.0793C101.293 76.1625 101.195 76.2545 101.105 76.2869C100.752 76.414 98.8988 76.4242 98.3852 76.4585C97.5211 76.5163 96.6598 76.6052 95.7968 76.6749L95.4992 76.7291L95.3487 76.7052L94.6828 76.7102C94.6972 76.1136 94.8353 74.8611 94.7475 74.3449C94.7233 74.2026 94.6306 74.0587 94.5625 73.9294C94.6788 73.8382 94.7806 73.7274 94.8847 73.6245L94.8779 73.6022C95.4026 73.4014 95.8035 73.0101 96.288 72.75Z" fill="#484D55"/>
<path d="M96.288 72.75C96.3568 72.8428 96.438 72.9349 96.4776 73.0419L96.7668 73.2252C96.7273 73.3252 96.7188 73.4052 96.71 73.5117C96.637 74.3975 96.0952 75.7822 95.7968 76.6749L95.4992 76.7291L95.3487 76.7052L94.6828 76.7102C94.6972 76.1136 94.8353 74.8611 94.7475 74.3449C94.7233 74.2026 94.6306 74.0587 94.5625 73.9294C94.6788 73.8382 94.7806 73.7274 94.8847 73.6245L94.8779 73.6022C95.4026 73.4014 95.8035 73.0101 96.288 72.75Z" fill="url(#paint6_linear_500_4900)"/>
<path d="M96.4784 73.0391L96.7676 73.2223C96.7281 73.3224 96.7195 73.4023 96.7108 73.5088C96.6378 74.3947 96.096 75.7793 95.7976 76.672L95.5 76.7263C95.6538 75.9382 95.8024 75.1363 96.0243 74.3617C96.1521 73.9156 96.3355 73.4818 96.4784 73.0391Z" fill="#2B2F39"/>
<path d="M94.8847 73.625C95.1475 73.753 95.3563 73.9628 95.5707 74.1485C95.4096 74.1774 95.3039 74.1771 95.1767 74.2747C95.1628 74.6512 95.2262 75.0352 95.2578 75.4107C95.2941 75.8419 95.308 76.2749 95.3487 76.7058L94.6828 76.7107C94.6972 76.1141 94.8353 74.8617 94.7475 74.3454C94.7233 74.2031 94.6306 74.0592 94.5625 73.9299C94.6788 73.8387 94.7806 73.7279 94.8847 73.625Z" fill="#2B2F39"/>
<path d="M74.3587 83.5809C75.3806 83.5553 76.4092 83.5548 77.4314 83.5643C77.1554 83.6212 76.8675 83.6049 76.5863 83.6036L76.5827 84.5655L76.5867 93.3487L82.4918 93.3503C83.5436 93.3497 84.6012 93.3255 85.6521 93.354C85.6253 93.3607 85.5985 93.3678 85.5716 93.3742C85.4717 93.3978 85.4007 93.3917 85.2997 93.3791L85.2177 93.4611L85.2518 93.4292L85.3666 93.4602C85.5079 93.9 85.624 94.5725 85.3883 94.999C85.3372 95.0913 85.2894 95.1321 85.1797 95.1583C84.7721 95.2556 84.0707 95.0256 83.7305 95.2191C81.9986 95.3059 80.2257 95.2447 78.491 95.2359C77.8449 95.2326 76.7499 95.1339 76.1698 95.2895C75.8236 95.3222 75.0982 95.284 74.7036 95.2838C74.2249 95.2047 73.6767 95.2419 73.189 95.2359C72.0974 95.2225 71.0058 95.2149 69.9141 95.2132C69.9282 95.1797 69.9416 95.1458 69.9563 95.1124C70.2927 94.3493 70.1501 94.154 70.1365 93.4151L70.4821 93.3543C70.9024 93.3526 71.3345 93.3704 71.753 93.3416C72.6254 93.35 73.4978 93.3469 74.3701 93.3323L74.3703 86.3955C74.3242 85.4617 74.364 84.5161 74.3587 83.5809Z" fill="url(#paint7_linear_500_4900)"/>
<path d="M74.3625 83.5809C75.3844 83.5553 76.413 83.5548 77.4352 83.5643C77.1592 83.6212 76.8713 83.6049 76.5901 83.6036L76.5865 84.5655L74.4023 84.5929C74.4062 85.1782 74.4614 85.8156 74.3741 86.3955C74.328 85.4617 74.3678 84.5161 74.3625 83.5809Z" fill="#412E0A"/>
<path d="M85.6542 93.3543C87.8932 93.3184 90.1379 93.3461 92.3775 93.3466C92.3739 93.9695 92.3835 94.5955 92.3529 95.2178L92.3505 95.2464C92.3206 95.5945 92.3296 95.944 92.3323 96.2927C89.2908 98.3543 84.8047 100.284 81.0384 100.766C81.0485 99.5892 80.9206 98.6091 80.1927 97.6005C79.2083 96.2368 77.8828 95.6044 76.1719 95.2898C76.752 95.1342 77.8471 95.2329 78.4932 95.2361C80.2278 95.245 82.0007 95.3062 83.7326 95.2194C84.0728 95.0259 84.7742 95.2559 85.1818 95.1586C85.2915 95.1324 85.3393 95.0916 85.3904 94.9992C85.6261 94.5728 85.51 93.9003 85.3687 93.4604L85.2539 93.4295L85.2198 93.4614L85.3018 93.3793C85.4028 93.392 85.4738 93.3981 85.5737 93.3744C85.6006 93.3681 85.6274 93.361 85.6542 93.3543Z" fill="#131212"/>
<path d="M85.656 93.3543C87.895 93.3184 90.1397 93.3461 92.3793 93.3466C92.3757 93.9695 92.3853 94.5955 92.3547 95.2178L86.7314 95.224C85.7378 95.2249 84.7255 95.2712 83.7344 95.2194C84.0746 95.0259 84.776 95.2559 85.1836 95.1586C85.2933 95.1324 85.3411 95.0916 85.3922 94.9992C85.6279 94.5728 85.5118 93.9003 85.3705 93.4604L85.2557 93.4295L85.2216 93.4614L85.3036 93.3793C85.4046 93.392 85.4756 93.3981 85.5755 93.3744C85.6024 93.3681 85.6292 93.361 85.656 93.3543Z" fill="url(#paint8_linear_500_4900)"/>
<path d="M65.2415 80.3524C65.9007 80.3719 66.5614 80.3617 67.2209 80.3584C67.9394 80.3568 68.6637 80.3383 69.3814 80.3699C69.6599 80.5103 69.841 80.6111 69.933 80.901C69.9935 81.092 69.9196 81.7344 70.0391 81.8022C70.8477 81.8004 71.6689 81.77 72.4759 81.8037L72.5952 81.7798C72.7164 81.6473 72.6206 81.3368 72.6219 81.1579C72.6235 80.9313 72.6627 80.6943 72.8505 80.5309C73.0368 80.3686 73.2917 80.3558 73.5349 80.358C74.2037 80.4146 74.8783 80.3669 75.5479 80.3998L75.6037 80.3935C76.282 80.3924 76.9627 80.4013 77.6405 80.3778C77.9132 80.4476 78.1236 80.537 78.2653 80.7729C78.4307 81.0485 78.403 81.3905 78.3 81.6807C78.279 81.7398 78.2797 81.736 78.2575 81.7838C79.1027 81.8311 79.9631 81.7989 80.8096 81.7836C80.7249 81.4787 80.6414 81.0768 80.7909 80.7819C80.9014 80.5637 81.115 80.4637 81.3483 80.3792C82.0804 80.4205 82.817 80.3706 83.5492 80.3988L83.6218 80.3912C84.3376 80.392 85.0632 80.3707 85.7776 80.4067C86.0385 80.518 86.2641 80.633 86.3662 80.894C86.4771 81.1776 86.4262 81.483 86.3963 81.7756L86.4344 81.7793C86.9382 81.8227 87.4797 81.6818 87.8427 82.1027C88.0269 82.3162 88.0967 82.6068 88.0456 82.8729C88.0002 83.1096 87.8618 83.3159 87.6379 83.4446C87.4561 83.5492 87.2207 83.5662 87.0104 83.5774C86.0769 83.6271 85.1168 83.5713 84.1808 83.5683C81.9342 83.561 79.6803 83.535 77.4343 83.5647C76.412 83.5551 75.3834 83.5556 74.3615 83.5813C72.0714 83.6167 69.7745 83.5879 67.4837 83.5893L65.0704 83.59C64.5841 83.5899 64.0861 83.612 63.6023 83.5684C63.3626 83.5467 63.1726 83.516 62.9829 83.3723C62.7456 83.1926 62.6087 82.9177 62.5949 82.6381C62.5838 82.4143 62.6557 82.173 62.8314 82.0109C63.2159 81.6562 63.9585 81.7524 64.4595 81.7657C64.4768 81.4343 64.441 81.1066 64.4722 80.7726C64.5033 80.7323 64.5358 80.693 64.5696 80.6546C64.7636 80.4379 64.9448 80.3811 65.2415 80.3524Z" fill="#FBF7EE"/>
<path d="M67.2188 80.3584C67.9373 80.3568 68.6616 80.3383 69.3793 80.3699C69.6577 80.5103 69.8389 80.6111 69.9308 80.901C69.9914 81.092 69.9175 81.7344 70.037 81.8022C69.1282 81.7187 68.1478 81.7813 67.2319 81.7793C67.2342 81.3055 67.2408 80.8318 67.2188 80.3584Z" fill="#E6A428"/>
<path d="M65.2436 80.3516C65.9028 80.3711 66.5635 80.3609 67.2229 80.3576C67.245 80.831 67.2384 81.3047 67.2361 81.7785C66.3118 81.7581 65.3862 81.7854 64.4615 81.7649C64.4789 81.4335 64.443 81.1059 64.4743 80.7718C64.5054 80.7315 64.5379 80.6922 64.5717 80.6538C64.7657 80.4371 64.9469 80.3803 65.2436 80.3516Z" fill="#F3B847"/>
<path d="M81.3508 80.3789C82.0828 80.4202 82.8194 80.3703 83.5516 80.3985L83.6242 80.3909C84.34 80.3916 85.0656 80.3704 85.78 80.4064C86.0409 80.5177 86.2665 80.6327 86.3686 80.8936C86.4796 81.1773 86.4286 81.4827 86.3988 81.7753L86.3729 81.7721C85.904 81.8696 85.1323 81.7981 84.6291 81.7978C83.3583 81.7974 82.0823 81.8185 80.812 81.7832C80.7273 81.4783 80.6438 81.0765 80.7933 80.7816C80.9039 80.5634 81.1175 80.4633 81.3508 80.3789Z" fill="#F3B847"/>
<path d="M83.6194 80.3923C84.3353 80.393 85.0609 80.3718 85.7752 80.4078C86.0362 80.5191 86.2618 80.6341 86.3639 80.895C86.4748 81.1787 86.4239 81.4841 86.394 81.7767L86.3681 81.7735C85.691 81.6686 84.3297 81.7525 83.5746 81.7574C83.576 81.3042 83.5813 80.8523 83.5469 80.3999L83.6194 80.3923Z" fill="#E6A428"/>
<path d="M73.5355 80.3557C74.2043 80.4123 74.8789 80.3646 75.5486 80.3974L75.6043 80.3912C76.2827 80.39 76.9634 80.399 77.6412 80.3755C77.9138 80.4453 78.1242 80.5346 78.2659 80.7706C78.4314 81.0462 78.4037 81.3882 78.3006 81.6784C78.2796 81.7375 78.2803 81.7337 78.2582 81.7815L78.1897 81.7701C77.3487 81.842 76.4647 81.7978 75.6192 81.8002C74.5765 81.803 73.517 81.8393 72.4766 81.8013L72.5958 81.7775C72.7171 81.645 72.6212 81.3345 72.6225 81.1555C72.6241 80.9289 72.6634 80.692 72.8511 80.5286C73.0375 80.3663 73.2923 80.3534 73.5355 80.3557Z" fill="#F3B847"/>
<path d="M75.6026 80.3946C76.281 80.3934 76.9617 80.4024 77.6395 80.3789C77.9121 80.4487 78.1225 80.538 78.2642 80.7739C78.4297 81.0496 78.402 81.3916 78.2989 81.6818C78.2779 81.7409 78.2787 81.7371 78.2565 81.7849L78.188 81.7735C77.3436 81.6892 76.4326 81.7533 75.5814 81.7571C75.5828 81.3054 75.5974 80.8507 75.5469 80.4008L75.6026 80.3946Z" fill="#E6A428"/>
<path d="M75.4713 58.8906C76.2102 59.3087 76.9239 59.7639 77.6536 60.1953C78.8125 60.8806 79.9818 61.5502 81.1292 62.2516C81.3564 62.4269 81.6644 62.6084 81.937 62.7167L88.1895 66.3242C88.0261 67.1753 87.894 68.0417 87.7844 68.9C87.555 68.7757 87.3276 68.6474 87.0901 68.5364C86.7279 68.5343 86.3603 68.5437 86.0003 68.5042C86.0447 68.8541 86.113 69.2641 85.8559 69.562C85.7596 69.6736 85.6404 69.7329 85.5023 69.7924C85.3132 69.8139 85.1306 69.8248 84.94 69.8251C84.966 70.0758 84.9734 70.345 85.0303 70.5906C85.2035 72.663 85.3646 74.7362 85.5138 76.8103C85.6085 78.0026 85.7564 79.2124 85.7776 80.4072C85.0632 80.3711 84.3376 80.3924 83.6218 80.3916L83.5492 80.3993C82.817 80.3711 82.0804 80.4209 81.3484 80.3797C81.115 80.4641 80.9014 80.5641 80.7909 80.7824C80.6414 81.0773 80.7249 81.4791 80.8096 81.784C79.9632 81.7993 79.1027 81.8315 78.2576 81.7843C78.2797 81.7365 78.279 81.7403 78.3 81.6812C78.403 81.391 78.4307 81.049 78.2653 80.7733C78.1236 80.5374 77.9132 80.4481 77.6405 80.3783C76.9627 80.4018 76.282 80.3928 75.6037 80.394L75.5479 80.4002C74.8783 80.3673 74.2037 80.4151 73.5349 80.3584C73.2917 80.3562 73.0368 80.3691 72.8505 80.5313C72.6628 80.6948 72.6235 80.9317 72.6219 81.1583C72.6206 81.3373 72.7164 81.6477 72.5952 81.7803L72.4759 81.8041C71.6689 81.7704 70.8477 81.8009 70.0391 81.8026C69.9196 81.7348 69.9935 81.0925 69.933 80.9014C69.8411 80.6115 69.6599 80.5108 69.3814 80.3703C68.6637 80.3388 67.9395 80.3572 67.2209 80.3589C66.5614 80.3622 65.9007 80.3723 65.2416 80.3528C65.373 77.104 65.5869 73.8425 65.8182 70.5982C65.8198 70.3956 65.9161 70.0725 65.7764 69.9035C65.723 69.8389 65.5793 69.8374 65.4936 69.822C65.3411 69.7725 65.1956 69.6949 65.0982 69.5736C64.8926 69.3177 64.9532 68.9928 64.9994 68.7009C64.9877 68.621 64.9836 68.594 64.9354 68.5235C64.4909 68.4093 63.9012 68.4987 63.4403 68.526C63.1879 68.644 62.9423 68.7818 62.6953 68.9093L62.7006 66.6162C63.2704 66.2021 63.9178 65.8527 64.5255 65.4855C65.999 64.5955 67.5039 63.7423 68.9531 62.8199C69.2089 62.7271 69.5705 62.4865 69.7792 62.3207C71.6847 61.1948 73.5313 59.9636 75.4713 58.8906Z" fill="#E6A428"/>
<path d="M75.3675 68.4521C76.1078 68.4456 76.9053 68.3937 77.6388 68.4743C77.646 68.8144 77.7304 69.3337 77.4465 69.5956C77.3141 69.7177 77.1321 69.7659 76.9528 69.7953C76.4328 69.7958 75.9129 69.7998 75.393 69.8074L75.3672 69.7963C75.3699 69.3482 75.3699 68.9002 75.3675 68.4521Z" fill="#E6A428"/>
<path d="M73.1138 68.6034L73.1617 68.5114C73.4872 68.3718 74.9202 68.4528 75.365 68.4552C75.3675 68.9032 75.3674 69.3513 75.3648 69.7994L75.3906 69.8104C75.35 70.0569 75.3588 70.306 75.3584 70.5546L75.2136 70.5638L73.86 70.5884L73.8663 69.8142C73.6369 69.7756 73.4237 69.7253 73.266 69.5552C73.0222 69.2921 73.0879 68.9189 73.1138 68.6034Z" fill="#F3B847"/>
<path d="M75.3642 69.7969L75.39 69.8079C75.3494 70.0544 75.3582 70.3035 75.3578 70.5521L75.213 70.5613L73.8594 70.5859L73.8657 69.8117C74.3606 69.8097 74.8714 69.8295 75.3642 69.7969Z" fill="#584213"/>
<path d="M82.0494 68.472C82.7706 68.4298 83.5103 68.4585 84.2332 68.4615C84.8097 68.4639 85.4344 68.4242 86.0015 68.5034C86.0458 68.8533 86.1141 69.2633 85.857 69.5612C85.7607 69.6728 85.6416 69.7321 85.5034 69.7916C85.3143 69.8131 85.1317 69.824 84.9412 69.8243C84.9671 70.075 84.9746 70.3442 85.0314 70.5898C84.7494 70.4691 83.8097 70.5506 83.4627 70.5539L83.4264 70.5597L82.3393 70.5612C82.3557 70.3265 82.404 70.0431 82.3652 69.812C82.3159 69.8132 82.2665 69.8151 82.2173 69.8131C82.0205 69.8049 81.7951 69.7173 81.6667 69.5778C81.4005 69.2887 81.4727 68.829 81.4931 68.4828C81.6771 68.4704 81.8648 68.4746 82.0494 68.472Z" fill="#F3B847"/>
<path d="M83.4021 69.7829C84.0936 69.7795 84.8117 69.7413 85.5 69.7906C85.3109 69.8121 85.1283 69.8231 84.9378 69.8234L83.4123 69.8268C83.4164 70.0437 83.3841 70.3524 83.4593 70.553L83.423 70.5588L82.3359 70.5603C82.3523 70.3255 82.4006 70.0422 82.3618 69.8111C82.5028 69.7496 83.2088 69.7862 83.4021 69.7829Z" fill="#584213"/>
<path d="M83.4097 69.8276L84.9352 69.8242C84.9612 70.075 84.9686 70.3441 85.0255 70.5897C84.7434 70.469 83.8037 70.5505 83.4567 70.5539C83.3815 70.3533 83.4138 70.0445 83.4097 69.8276Z" fill="#412E0A"/>
<path d="M67.177 68.4432C67.555 68.4408 69.2738 68.3442 69.5426 68.5165C69.5637 68.8569 69.6487 69.3381 69.3624 69.6103C69.1469 69.8151 68.8563 69.8156 68.5671 69.8175C68.5396 70.0713 68.5685 70.3187 68.5926 70.5719L68.3435 70.5689C67.9529 70.6005 67.5414 70.6097 67.1498 70.5896L65.8175 70.598C65.8191 70.3954 65.9154 70.0723 65.7757 69.9033C65.7223 69.8386 65.5786 69.8372 65.4929 69.8218C65.3404 69.7723 65.1949 69.6947 65.0975 69.5734C64.8919 69.3175 64.9525 68.9925 64.9987 68.7007L65.0447 68.4675C65.727 68.3856 66.4857 68.4432 67.177 68.4432Z" fill="#F3B847"/>
<path d="M67.1454 69.8154C67.589 69.8148 68.0538 69.7873 68.4947 69.8228L68.5665 69.8153C68.5389 70.0691 68.5678 70.3166 68.5919 70.5697L68.3428 70.5668C67.9522 70.5983 67.5407 70.6075 67.1491 70.5874L65.8168 70.5958C65.8184 70.3932 65.9147 70.0701 65.775 69.9011C65.7216 69.8365 65.5779 69.835 65.4922 69.8196C66.0433 69.8219 66.5944 69.8205 67.1454 69.8154Z" fill="#584213"/>
<path d="M68.4949 69.824L68.5667 69.8164C68.5392 70.0702 68.5681 70.3177 68.5921 70.5709L68.343 70.5679C67.9532 70.5377 67.5507 70.5577 67.1592 70.5596C67.163 70.3262 67.1574 70.0922 67.1562 69.8587C67.5601 69.863 68.1118 69.9297 68.4949 69.824Z" fill="#412E0A"/>
<path d="M75.4713 58.8906C76.2102 59.3087 76.9239 59.7639 77.6536 60.1953C78.8125 60.8806 79.9818 61.5502 81.1292 62.2516C81.3564 62.4269 81.6644 62.6084 81.937 62.7167L88.1895 66.3242C88.0261 67.1753 87.894 68.0417 87.7844 68.9C87.555 68.7757 87.3276 68.6474 87.0901 68.5364C86.7442 68.2581 86.2792 68.0383 85.8862 67.8148L83.7051 66.5714L78.9036 63.8474C77.7305 63.1781 76.557 62.4628 75.338 61.8681L66.5323 66.8269C65.5059 67.3926 64.5003 68.0153 63.4403 68.526C63.1879 68.644 62.9423 68.7818 62.6953 68.9093L62.7006 66.6162C63.2704 66.2021 63.9178 65.8527 64.5255 65.4855C65.999 64.5955 67.5039 63.7423 68.9531 62.8199C69.2089 62.7271 69.5705 62.4865 69.7792 62.3207C71.6847 61.1948 73.5313 59.9636 75.4713 58.8906Z" fill="#FDD68F"/>
<path d="M69.5439 68.5161C69.8281 68.4364 72.7558 68.4481 73.0799 68.5191L73.1184 68.6021C73.0925 68.9176 73.0268 69.2908 73.2706 69.5538C73.4283 69.724 73.6415 69.7742 73.8709 69.8128L73.8646 70.587C73.7398 73.8439 73.5698 77.099 73.5355 80.3579C73.2923 80.3556 73.0375 80.3685 72.8511 80.5308C72.6634 80.6942 72.6242 80.9311 72.6225 81.1577C72.6212 81.3367 72.7171 81.6472 72.5958 81.7797L72.4766 81.8035C71.6695 81.7698 70.8483 81.8003 70.0398 81.802C69.9202 81.7342 69.9942 81.0919 69.9336 80.9008C69.8417 80.611 69.6605 80.5102 69.382 80.3697C68.6644 80.3382 67.9401 80.3566 67.2215 80.3583C66.5621 80.3616 65.9014 80.3717 65.2422 80.3522C65.3736 77.1034 65.5875 73.8419 65.8188 70.5976L67.1511 70.5893C67.5428 70.6094 67.9543 70.6001 68.3448 70.5686L68.5939 70.5716C68.5698 70.3184 68.541 70.071 68.5685 69.8171C68.8577 69.8153 69.1483 69.8147 69.3637 69.6099C69.6501 69.3378 69.5651 68.8566 69.5439 68.5161Z" fill="#131212"/>
<path d="M68.3448 70.5664L68.5939 70.5694C68.7604 72.7987 68.944 75.0268 69.1449 77.2538C69.2309 78.2844 69.3697 79.3347 69.382 80.3676C68.6644 80.336 67.9401 80.3544 67.2215 80.3561C66.5621 80.3594 65.9014 80.3695 65.2422 80.35C65.3736 77.1012 65.5875 73.8397 65.8188 70.5955L67.1511 70.5871C67.5428 70.6072 67.9543 70.5979 68.3448 70.5664Z" fill="#7A540F"/>
<path d="M65.8188 70.5982L67.1511 70.5898L67.1905 77.2935C67.1946 78.1064 67.1073 79.6112 67.2215 80.3589C66.5621 80.3622 65.9014 80.3723 65.2422 80.3528C65.3736 77.104 65.5875 73.8425 65.8188 70.5982Z" fill="#AF8026"/>
<path d="M77.6367 68.4766C78.9205 68.4871 80.2044 68.4894 81.4883 68.4836C81.4679 68.8298 81.3957 69.2895 81.6619 69.5787C81.7904 69.7181 82.0157 69.8057 82.2125 69.8139C82.2617 69.816 82.3111 69.814 82.3604 69.8128C82.3992 70.0439 82.3509 70.3273 82.3346 70.5621L83.4216 70.5606L83.4579 70.5547C83.8049 70.5514 84.7446 70.4699 85.0267 70.5906C85.1998 72.663 85.361 74.7363 85.5102 76.8103C85.6048 78.0026 85.7528 79.2125 85.7739 80.4072C85.0595 80.3712 84.334 80.3924 83.6181 80.3917L83.5456 80.3993C82.8134 80.3711 82.0767 80.421 81.3447 80.3797C81.1114 80.4641 80.8978 80.5642 80.7872 80.7824C80.6378 81.0773 80.7212 81.4792 80.806 81.784C79.9595 81.7993 79.0991 81.8315 78.2539 81.7843C78.2761 81.7365 78.2753 81.7403 78.2963 81.6812C78.3994 81.391 78.4271 81.049 78.2616 80.7733C78.1199 80.5374 77.9095 80.4481 77.6369 80.3783C76.9591 80.4018 76.2784 80.3928 75.6 80.394L75.5443 80.4002C74.8747 80.3673 74.2001 80.4151 73.5312 80.3585C73.5655 77.0996 73.7355 73.8445 73.8603 70.5876L75.2139 70.563L75.3587 70.5538C75.3591 70.3052 75.3503 70.0561 75.3909 69.8097C75.9108 69.8021 76.4308 69.7981 76.9507 69.7976C77.13 69.7682 77.312 69.72 77.4444 69.5979C77.7283 69.336 77.644 68.8167 77.6367 68.4766Z" fill="#131212"/>
<path d="M83.457 70.5534C83.804 70.5501 84.7436 70.4686 85.0257 70.5893C85.1989 72.6617 85.36 74.7349 85.5092 76.809C85.6039 78.0013 85.7518 79.2111 85.773 80.4059C85.0586 80.3698 84.333 80.3911 83.6172 80.3903L83.5446 80.398C82.8124 80.3698 82.0758 80.4196 81.3438 80.3784C81.3758 79.3593 81.5538 78.3149 81.6562 77.2983L82.3336 70.5607L83.4206 70.5592L83.457 70.5534Z" fill="#7A540F"/>
<path d="M82.3336 70.5601L83.4206 70.5586L83.4879 75.6445C83.4925 76.2961 83.4211 80.0352 83.5444 80.3527L83.6172 80.3897L83.5446 80.3973C82.8124 80.3691 82.0758 80.419 81.3438 80.3778C81.3758 79.3587 81.5538 78.3143 81.6562 77.2977L82.3336 70.5601Z" fill="#AF8026"/>
<path d="M75.3909 69.8089C75.9108 69.8014 76.4308 69.7974 76.9507 69.7969C76.9527 70.057 76.9424 70.3225 76.9877 70.5799C77.1018 72.3394 77.2037 74.0994 77.2936 75.8601C77.3694 77.3162 77.419 78.7816 77.538 80.2351C77.5435 80.3022 77.5485 80.3173 77.6054 80.3609C77.6147 80.3681 77.6264 80.372 77.6369 80.3776C76.9591 80.401 76.2784 80.3921 75.6 80.3932L75.5443 80.3995C74.8747 80.3666 74.2001 80.4143 73.5312 80.3577C73.5655 77.0988 73.7355 73.8438 73.8603 70.5869L75.2139 70.5623L75.3587 70.5531C75.3591 70.3045 75.3503 70.0554 75.3909 69.8089Z" fill="#7A540F"/>
<path d="M75.3921 69.8089C75.912 69.8014 76.432 69.7974 76.9519 69.7969C76.9539 70.057 76.9436 70.3225 76.9889 70.5799C76.4475 70.5663 75.8991 70.605 75.3599 70.5531C75.3603 70.3045 75.3515 70.0554 75.3921 69.8089Z" fill="#412E0A"/>
<path d="M75.2139 70.5625L75.3448 70.6135C75.4702 71.4003 75.3943 72.3997 75.4021 73.2036L75.4533 78.44C75.4553 78.8317 75.3815 80.0131 75.4967 80.3307C75.5271 80.3502 75.5658 80.3813 75.6 80.3934L75.5443 80.3997C74.8747 80.3668 74.2001 80.4145 73.5312 80.3579C73.5655 77.099 73.7355 73.844 73.8603 70.5871L75.2139 70.5625Z" fill="#AF8026"/>
<path d="M85.293 0.0193243C87.1605 -0.259089 86.2512 2.54017 86.2255 3.95342C86.155 7.80078 85.9882 11.8226 86.631 15.6221C89.8057 17.0505 93.4909 17.4711 96.7942 18.6281C101.246 20.1867 105.403 22.4089 109.723 24.2706C113.799 22.1421 117.533 17.1695 121.422 14.2567C126.803 18.3442 132.414 24.6604 137.927 29.2386C135.713 31.4533 128.788 38.3587 127.35 40.7565C128.611 44.5499 131.583 47.559 133.214 51.2025C134.801 54.7478 135.302 58.7858 136.828 62.1494C140.83 63.3594 146.566 62.7971 150.827 62.8772C151.036 71.2629 151.088 79.8055 150.801 88.1887C148.43 88.2396 138.915 87.6369 137.52 88.7894C136.649 89.5081 133.788 99.4508 132.658 101.853C126.867 114.173 125.902 109.93 136.445 121.265C132.508 126.147 123.557 133.803 118.758 138.159C116.171 135.721 114.024 132.612 111.318 130.368C108.93 128.388 98.3906 134.862 94.0925 135.725C91.1797 136.31 87.2017 135.965 86.4792 139.524C85.8056 142.841 86.1967 149.336 86.2049 152.997H66.1862L64.3079 153C63.9476 150.063 63.8838 146.967 64.0567 144.011C64.3475 139.052 65.4524 137.116 59.1504 136.082C52.7001 135.024 48.1648 131.613 42.293 129.708C38.6654 131.301 35.6884 135.389 33.4518 138.539C27.2301 132.671 20.7515 127.023 14.59 121.223C17.5738 117.752 21.5713 115.517 23.6221 111.273C21.7175 105.952 17.7132 102.004 15.7134 95.4143C12.5732 85.0701 11.8857 88.747 0 88.054L0.350353 62.6795C14.7645 63.5849 12.9371 64.2996 16.4545 54.311C18.0838 49.6834 20.9749 45.9914 23.3087 41.7355C25.1315 38.4116 16.4601 32.4843 13.9822 30.2857C19.4671 25.0493 25.0671 19.9405 30.6096 14.7641C32.7833 16.4624 39.4909 23.2744 41.4737 23.8444C42.6208 24.1737 52.6415 18.7396 55.46 17.9175C58.1638 17.1286 61.1332 16.7882 63.6311 15.4662C64.4684 11.3102 64.0145 4.47091 63.9883 0.0798465C71.0952 0.232167 78.1918 0.490408 85.293 0.0193243ZM73.1701 30.5944C46.0981 32.2901 26.9409 54.1279 28.688 80.5747C30.3286 105.407 53.6537 123.999 78.4939 123.028C120.596 119.819 138.918 68.4228 106.375 41.4969C97.349 34.0286 85.0815 29.4656 73.1701 30.5944Z" fill="url(#paint9_linear_500_4900)"/>
<defs>
<filter id="filter0_dd_500_4900" x="15" y="21.9336" width="122" height="118" filterUnits="userSpaceOnUse" color-interpolation-filters="sRGB">
<feFlood flood-opacity="0" result="BackgroundImageFix"/>
<feColorMatrix in="SourceAlpha" type="matrix" values="0 0 0 0 0 0 0 0 0 0 0 0 0 0 0 0 0 0 127 0" result="hardAlpha"/>
<feOffset dy="1"/>
<feGaussianBlur stdDeviation="1.5"/>
<feColorMatrix type="matrix" values="0 0 0 0 0 0 0 0 0 0 0 0 0 0 0 0 0 0 0.3 0"/>
<feBlend mode="normal" in2="BackgroundImageFix" result="effect1_dropShadow_500_4900"/>
<feColorMatrix in="SourceAlpha" type="matrix" values="0 0 0 0 0 0 0 0 0 0 0 0 0 0 0 0 0 0 127 0" result="hardAlpha"/>
<feMorphology radius="3" operator="dilate" in="SourceAlpha" result="effect2_dropShadow_500_4900"/>
<feOffset dy="4"/>
<feGaussianBlur stdDeviation="4"/>
<feColorMatrix type="matrix" values="0 0 0 0 0 0 0 0 0 0 0 0 0 0 0 0 0 0 0.15 0"/>
<feBlend mode="normal" in2="effect1_dropShadow_500_4900" result="effect2_dropShadow_500_4900"/>
<feBlend mode="normal" in="SourceGraphic" in2="effect2_dropShadow_500_4900" result="shape"/>
</filter>
<linearGradient id="paint0_linear_500_4900" x1="99.5" y1="28.9336" x2="26" y2="151.934" gradientUnits="userSpaceOnUse">
<stop stop-color="#151515"/>
<stop offset="1" stop-color="#1F1D15"/>
</linearGradient>
<linearGradient id="paint1_linear_500_4900" x1="109.166" y1="65.0011" x2="100.266" y2="64.7429" gradientUnits="userSpaceOnUse">
<stop stop-color="#664002"/>
<stop offset="1" stop-color="#987528"/>
</linearGradient>
<linearGradient id="paint2_linear_500_4900" x1="108.677" y1="87.4671" x2="99.3229" y2="87.3581" gradientUnits="userSpaceOnUse">
<stop stop-color="#5E3D06"/>
<stop offset="1" stop-color="#81611F"/>
</linearGradient>
<linearGradient id="paint3_linear_500_4900" x1="95.1888" y1="100.306" x2="80.6307" y2="102.047" gradientUnits="userSpaceOnUse">
<stop stop-color="#1E1106"/>
<stop offset="1" stop-color="#583E0A"/>
</linearGradient>
<linearGradient id="paint4_linear_500_4900" x1="55.7882" y1="97.5737" x2="69.8616" y2="105.691" gradientUnits="userSpaceOnUse">
<stop stop-color="#E6AD33"/>
<stop offset="1" stop-color="#FACE67"/>
</linearGradient>
<linearGradient id="paint5_linear_500_4900" x1="65.005" y1="100.104" x2="65.9619" y2="93.0668" gradientUnits="userSpaceOnUse">
<stop/>
<stop offset="1" stop-color="#1E1404"/>
</linearGradient>
<linearGradient id="paint6_linear_500_4900" x1="94.5321" y1="76.0994" x2="96.318" y2="72.9056" gradientUnits="userSpaceOnUse">
<stop stop-color="#C7C7CC"/>
<stop offset="1" stop-color="#ECECEC"/>
</linearGradient>
<linearGradient id="paint7_linear_500_4900" x1="69.368" y1="93.8125" x2="82.8268" y2="87.7878" gradientUnits="userSpaceOnUse">
<stop stop-color="#4F3503"/>
<stop offset="1" stop-color="#BF9230"/>
</linearGradient>
<linearGradient id="paint8_linear_500_4900" x1="85.2644" y1="94.5011" x2="92.3025" y2="93.9814" gradientUnits="userSpaceOnUse">
<stop stop-color="#BD9336"/>
<stop offset="1" stop-color="#E9C366"/>
</linearGradient>
<linearGradient id="paint9_linear_500_4900" x1="16.5" y1="6.5" x2="127" y2="197.5" gradientUnits="userSpaceOnUse">
<stop stop-color="#435257"/>
<stop offset="1" stop-color="#6D8C99"/>
</linearGradient>
</defs>
</svg>
