<svg width="151" height="153" viewBox="0 0 151 153" fill="none" xmlns="http://www.w3.org/2000/svg">
<ellipse cx="75.5" cy="76.9336" rx="59.5" ry="61" fill="#D8B431"/>
<g filter="url(#filter0_dd_500_4899)">
<ellipse cx="76" cy="77" rx="50" ry="48" fill="url(#paint0_linear_500_4899)"/>
<path d="M125.5 77C125.5 103.214 103.358 124.5 76 124.5C48.6425 124.5 26.5 103.214 26.5 77C26.5 50.7855 48.6425 29.5 76 29.5C103.358 29.5 125.5 50.7855 125.5 77Z" stroke="#3C3F33"/>
</g>
<path d="M85.293 0.0193243C87.1605 -0.259089 86.2512 2.54017 86.2255 3.95342C86.155 7.80078 85.9882 11.8226 86.631 15.6221C89.8057 17.0505 93.4909 17.4711 96.7942 18.6281C101.246 20.1867 105.403 22.4089 109.723 24.2706C113.799 22.1421 117.533 17.1695 121.422 14.2567C126.803 18.3442 132.414 24.6604 137.927 29.2386C135.713 31.4533 128.788 38.3587 127.35 40.7565C128.611 44.5499 131.583 47.559 133.214 51.2025C134.801 54.7478 135.302 58.7858 136.828 62.1494C140.83 63.3594 146.566 62.7971 150.827 62.8772C151.036 71.2629 151.088 79.8055 150.801 88.1887C148.43 88.2396 138.915 87.6369 137.52 88.7894C136.649 89.5081 133.788 99.4508 132.658 101.853C126.867 114.173 125.902 109.93 136.445 121.265C132.508 126.147 123.557 133.803 118.758 138.159C116.171 135.721 114.024 132.612 111.318 130.368C108.93 128.388 98.3906 134.862 94.0925 135.725C91.1797 136.31 87.2017 135.965 86.4792 139.524C85.8056 142.841 86.1967 149.336 86.2049 152.997H66.1862L64.3079 153C63.9476 150.063 63.8838 146.967 64.0567 144.011C64.3475 139.052 65.4524 137.116 59.1504 136.082C52.7001 135.024 48.1648 131.613 42.293 129.708C38.6654 131.301 35.6884 135.389 33.4518 138.539C27.2301 132.671 20.7515 127.023 14.59 121.223C17.5738 117.752 21.5713 115.517 23.6221 111.273C21.7175 105.952 17.7132 102.004 15.7134 95.4143C12.5732 85.0701 11.8857 88.747 0 88.054L0.350353 62.6795C14.7645 63.5849 12.9371 64.2996 16.4545 54.311C18.0838 49.6834 20.9749 45.9914 23.3087 41.7355C25.1315 38.4116 16.4601 32.4843 13.9822 30.2857C19.4671 25.0493 25.0671 19.9405 30.6096 14.7641C32.7833 16.4624 39.4909 23.2744 41.4737 23.8444C42.6208 24.1737 52.6415 18.7396 55.46 17.9175C58.1638 17.1286 61.1332 16.7882 63.6311 15.4662C64.4684 11.3102 64.0145 4.47091 63.9883 0.0798465C71.0952 0.232167 78.1918 0.490408 85.293 0.0193243ZM73.1701 30.5944C46.0981 32.2901 26.9409 54.1279 28.688 80.5747C30.3286 105.407 53.6537 123.999 78.4939 123.028C120.596 119.819 138.918 68.4228 106.375 41.4969C97.349 34.0286 85.0815 29.4656 73.1701 30.5944Z" fill="url(#paint1_linear_500_4899)"/>
<path d="M43.2188 74.5508C43.8234 74.9017 44.406 75.2116 45.0721 75.439C46.6002 75.7703 48.0722 76.0694 49.5111 76.6933C49.7856 76.8248 50.0705 76.948 50.3348 77.0978L48.9936 80.4679C48.6478 81.3552 48.3222 82.2854 47.9048 83.143C46.1265 81.2125 45.0736 78.9644 44.0766 76.5891C43.7916 75.9102 43.4752 75.2406 43.2188 74.5508Z" fill="#F7BC30"/>
<path d="M106.857 75.4636C107.575 75.2231 108.247 74.8784 108.921 74.5391C108.639 75.2188 108.325 75.8871 108.035 76.564C107.029 78.9141 105.984 81.3088 104.136 83.1678C103.267 81.2162 102.492 79.2167 101.656 77.25C103.167 76.3637 105.156 75.8692 106.857 75.4636Z" fill="#C88818"/>
<path d="M105.89 66.6528C106.329 66.3959 106.719 66.1054 107.108 65.7812C106.913 66.6523 106.696 67.5706 106.405 68.4153C106.529 69.4966 106.722 70.5649 106.801 71.6526C106.893 72.9296 106.846 74.1886 106.853 75.4656C105.153 75.8712 103.163 76.3657 101.653 77.252L101.168 76.1358C100.923 75.5977 100.719 75.0412 100.485 74.4983L98.7344 70.4544C100.463 68.9314 101.652 68.4884 103.731 67.6548C104.454 67.3652 105.231 67.0652 105.89 66.6528Z" fill="#F7BC30"/>
<path d="M106.409 68.4141C106.534 69.4954 106.726 70.5637 106.805 71.6514C106.897 72.9284 106.85 74.1874 106.857 75.4644C105.157 75.87 103.167 76.3645 101.657 77.2508L101.172 76.1346C101.406 76.0491 101.643 75.931 101.861 75.8131C102.007 75.7355 102.149 75.6518 102.288 75.5622C102.426 75.4726 102.56 75.3774 102.69 75.2765C102.82 75.1757 102.945 75.0696 103.065 74.9583C103.186 74.8469 103.301 74.7307 103.411 74.6097C104.823 73.0546 105.83 70.391 106.409 68.4141Z" fill="#604518"/>
<path d="M44.9531 65.6328C45.3181 65.918 45.6894 66.1949 46.0806 66.4452C46.4943 66.7477 47.0056 66.9602 47.4761 67.1668C49.2416 67.9422 52.0268 68.6571 53.3328 69.9762C52.9176 71.1144 52.3671 72.1958 51.8973 73.3126C51.5349 74.1742 51.1902 75.2533 50.7529 76.0579C50.6005 76.3905 50.4144 76.7405 50.3352 77.0972C50.0709 76.9474 49.7859 76.8243 49.5114 76.6928C48.0725 76.0689 46.6006 75.7698 45.0725 75.4385C45.1111 74.6294 45.04 73.8025 45.0487 72.9899C45.0615 71.7829 45.1894 70.5955 45.3647 69.4017C45.4133 69.071 45.4228 68.6044 45.5607 68.3022C45.3473 67.4143 45.132 66.528 44.9531 65.6328Z" fill="#F7BC30"/>
<path d="M49.6571 75.6016C50.0107 75.7943 50.3731 75.9338 50.7572 76.0576C50.6047 76.3903 50.4186 76.7403 50.3394 77.097C50.0751 76.9472 49.7902 76.8241 49.5156 76.6926C49.5772 76.3385 49.5665 75.9445 49.6571 75.6016Z" fill="#060607"/>
<path d="M45.5597 68.3047C45.7233 68.7419 45.855 69.1894 46.0142 69.6282C46.6546 71.3931 47.4285 73.2232 48.6518 74.6905C48.8595 74.9396 49.1211 75.1672 49.3713 75.3762C49.4566 75.4475 49.5799 75.5232 49.6518 75.6043C49.5612 75.9472 49.5719 76.3413 49.5103 76.6953C48.0715 76.0714 46.5995 75.7723 45.0714 75.441C45.11 74.6319 45.039 73.805 45.0476 72.9924C45.0604 71.7854 45.1883 70.598 45.3636 69.4042C45.4122 69.0735 45.4218 68.607 45.5597 68.3047Z" fill="#604518"/>
<path d="M63.7009 101.859C64.3499 101.939 65.0543 101.88 65.7108 101.882L69.9138 101.893L82.125 101.892L86.1631 101.891C86.8707 101.892 87.5886 101.867 88.2946 101.902C88.6436 101.877 89.1859 102.142 89.4815 102.31C90.371 102.815 90.9817 103.584 91.2412 104.551C89.3536 104.597 87.4552 104.558 85.5663 104.56L74.2258 104.562L64.8822 104.553C63.395 104.551 61.8915 104.602 60.4062 104.548C60.5483 103.9 60.8217 103.323 61.299 102.844C61.9363 102.204 62.7917 101.876 63.7009 101.859Z" fill="#F7BC30"/>
<path d="M83.0247 97.3068C83.7454 97.2996 84.8311 97.1347 85.3861 97.6709C85.6137 97.8908 85.7271 98.1858 85.7154 98.4966C85.6995 98.9175 85.4601 99.3104 85.1598 99.6017C86.0868 99.6728 86.9341 99.9956 87.5498 100.701C87.7244 100.9 88.0769 101.395 88.0895 101.648C88.0905 101.67 88.0835 101.691 88.0806 101.713C88.1563 101.831 88.1673 101.841 88.2968 101.9C87.5908 101.864 86.873 101.889 86.1654 101.889L82.1272 101.89L69.9161 101.89L65.713 101.88C65.0565 101.878 64.3521 101.937 63.7031 101.857C63.7193 101.722 63.7752 101.587 63.8179 101.459C63.8957 101.294 63.9739 101.129 64.0723 100.975C64.6232 100.114 65.352 99.7323 66.3412 99.5015C66.2484 99.4555 66.1744 99.403 66.0996 99.3318C65.8788 99.1215 65.7632 98.8484 65.7669 98.5487C65.7709 98.2351 65.8647 97.9302 66.1023 97.7093C66.6515 97.1988 67.6545 97.3296 68.3477 97.3369C70.6864 97.3627 73.0295 97.3322 75.3687 97.3307C77.9208 97.3401 80.4728 97.3322 83.0247 97.3068Z" fill="#C88818"/>
<path d="M83.0235 97.3068C83.7442 97.2996 84.8299 97.1347 85.3849 97.6709C85.6125 97.8908 85.7259 98.1858 85.7142 98.4966C85.6983 98.9175 85.4589 99.3104 85.1586 99.6017C84.5397 99.689 83.8179 99.6325 83.1899 99.6337L78.8664 99.6216L70.682 99.6165L68.37 99.6123C67.711 99.6098 66.9827 99.6536 66.34 99.5015C66.2472 99.4555 66.1732 99.403 66.0984 99.3318C65.8776 99.1215 65.762 98.8484 65.7657 98.5487C65.7696 98.2351 65.8635 97.9302 66.1011 97.7093C66.6503 97.1988 67.6532 97.3296 68.3465 97.3369C70.6852 97.3627 73.0282 97.3322 75.3675 97.3307C77.9196 97.3401 80.4716 97.3322 83.0235 97.3068Z" fill="#F7BC30"/>
<path d="M50.9375 91.2969C51.7614 91.5702 52.588 91.8318 53.4425 91.9992C56.7306 92.6433 60.5286 92.3157 63.574 90.9107C64.2644 90.5922 64.9039 90.1843 65.5389 89.7734C65.7698 90.2122 65.955 90.682 66.1541 91.1359C66.5213 91.968 66.8806 92.8032 67.2321 93.6417C67.5848 94.4817 68.1956 95.7183 68.367 96.5812L68.4148 96.6137C68.3879 96.8546 68.3652 97.0959 68.3468 97.3375C67.6535 97.3301 66.6505 97.1993 66.1014 97.7098C65.8637 97.9307 65.7699 98.2357 65.766 98.5492C65.7622 98.849 65.8779 99.122 66.0986 99.3323C66.1734 99.4036 66.2474 99.456 66.3403 99.5021C65.3511 99.7328 64.6222 100.114 64.0713 100.976C63.9729 101.13 63.8948 101.295 63.8169 101.459C63.0878 101.175 62.3837 100.739 61.6997 100.36C61.2474 100.114 60.8008 99.8595 60.3601 99.5949C59.9193 99.3303 59.4848 99.0564 59.0565 98.773C58.6282 98.4897 58.2066 98.1973 57.7915 97.8957C57.3765 97.5942 56.9686 97.284 56.5677 96.9649C56.1668 96.6458 55.7733 96.3182 55.3873 95.9822C55.0013 95.6462 54.6231 95.302 54.2528 94.9496C53.8824 94.5973 53.5202 94.2372 53.1662 93.8692C52.8122 93.5013 52.4668 93.1259 52.1298 92.7431C51.7365 92.2931 51.2437 91.8055 50.9375 91.2969Z" fill="#604518"/>
<path d="M86.0773 89.3633C88.9785 91.7389 92.5653 92.7362 96.3203 92.4168C96.6551 92.3899 96.9886 92.3526 97.3208 92.3049C97.6531 92.2572 97.9834 92.1992 98.3119 92.1309C98.6403 92.0625 98.9662 91.984 99.2895 91.8953C99.6127 91.8066 99.9327 91.7079 100.249 91.5993C99.6712 92.3619 99.1462 93.1587 98.5402 93.9019C98.2914 94.203 98.0359 94.4986 97.7738 94.7888C97.5117 95.079 97.2432 95.3635 96.9683 95.6422C96.6934 95.921 96.4124 96.1938 96.1254 96.4606C95.8382 96.7275 95.5453 96.9881 95.2465 97.2425C94.9477 97.4968 94.6434 97.7447 94.3334 97.9862C94.0235 98.2276 93.7084 98.4623 93.3879 98.6903C93.0675 98.9183 92.7421 99.1394 92.4117 99.3536C92.0813 99.5678 91.7463 99.7749 91.4067 99.9748C90.6553 100.423 89.8851 100.839 89.0962 101.221C88.8067 101.358 88.2898 101.491 88.0792 101.714C88.0821 101.692 88.0891 101.671 88.0881 101.649C88.0755 101.396 87.723 100.901 87.5484 100.701C86.9327 99.9964 86.0854 99.6736 85.1584 99.6025C85.4587 99.3113 85.6981 98.9184 85.714 98.4974C85.7257 98.1867 85.6123 97.8916 85.3847 97.6718C84.8297 97.1355 83.744 97.3004 83.0233 97.3077C82.9817 96.9133 82.8746 96.5646 82.7344 96.1932C82.9538 95.9811 83.1249 95.5781 83.2813 95.3099C84.1915 93.7488 85.0422 92.1485 85.6859 90.4636C85.8242 90.1018 85.9797 89.7374 86.0773 89.3633Z" fill="#604518"/>
<path d="M94.8548 64.2695C95.281 64.3021 95.7669 64.2403 96.1781 64.3075C96.4808 65.0749 96.7711 65.8561 97.1076 66.6098C97.6538 67.8902 98.2095 69.1676 98.7387 70.4547L100.49 74.4987C100.724 75.0416 100.927 75.598 101.172 76.1361L101.657 77.2523C102.492 79.2191 103.267 81.2186 104.137 83.1702C104.45 83.9282 104.808 84.6872 105.08 85.4587C105.706 85.4596 106.339 85.443 106.965 85.4692C106.787 86.4033 106.483 87.126 105.919 87.9065C104.846 89.3117 103.326 90.322 101.693 91.0287C101.227 91.2307 100.699 91.3693 100.253 91.601C99.9367 91.7097 99.6167 91.8084 99.2935 91.897C98.9702 91.9857 98.6443 92.0643 98.3158 92.1326C97.9874 92.2009 97.6571 92.2589 97.3248 92.3066C96.9925 92.3543 96.6591 92.3916 96.3243 92.4185C92.5693 92.7379 88.9825 91.7406 86.0813 89.365C85.5778 88.9097 85.137 88.4232 84.7 87.9089C84.0347 87.2218 83.5742 86.3171 83.2031 85.4507C83.9656 85.4104 84.7349 85.429 85.4985 85.4287C85.8149 84.7357 86.0794 84.0214 86.4022 83.3306C87.1694 81.6727 87.8855 79.9837 88.5985 78.3029C88.9028 77.7067 89.1642 77.0845 89.427 76.47C89.5673 76.2248 89.6651 75.9337 89.7798 75.6749C90.0865 74.9907 90.3864 74.3038 90.6797 73.6141C91.1439 72.5455 91.6759 71.5056 92.1251 70.4312C92.4155 69.7338 92.7579 69.0544 93.0525 68.357C93.704 67.0226 94.2423 65.6234 94.8548 64.2695Z" fill="url(#paint2_linear_500_4899)"/>
<path d="M86.9543 83.9453C87.5903 84.4731 88.2613 84.9827 88.9634 85.425L86.2812 85.4337C86.525 84.9458 86.7379 84.4452 86.9543 83.9453Z" fill="#060607"/>
<path d="M101.383 85.4509C102.189 84.9934 102.915 84.3745 103.556 83.7148C103.801 84.2912 104.063 84.8659 104.279 85.453L101.383 85.4509Z" fill="#060607"/>
<path d="M95.9199 71.0897C95.8804 70.5901 95.9056 70.0675 95.9026 69.5656C95.8945 68.181 95.9315 66.7835 95.8281 65.4023C96.3144 66.4163 96.6588 67.5011 97.1082 68.5322C96.7667 68.8928 96.3555 69.1921 95.9251 69.4456C95.9271 69.9919 95.9461 70.5443 95.9199 71.0897Z" fill="#C88818"/>
<path d="M93.7188 68.6871C94.1583 67.6715 94.5645 66.5907 95.1349 65.6367C95.1319 66.8925 95.1841 68.1673 95.1218 69.4205C94.6057 69.3149 94.0881 69.0548 93.7188 68.6871Z" fill="#C88818"/>
<path d="M93.7214 68.6875C94.0908 69.0552 94.6084 69.3153 95.1244 69.4209C95.1107 71.0108 95.1193 72.6006 95.1502 74.1902C94.9836 73.8787 94.8908 73.5221 94.7252 73.2048C94.2482 72.2903 93.4948 71.5972 92.7578 70.885C93.0984 70.2726 93.4366 69.3479 93.7214 68.6875Z" fill="#060607"/>
<path d="M94.695 77.433C94.8398 76.9896 94.9269 76.4624 95.1365 76.0508C95.0473 78.3694 95.0995 80.7112 95.107 83.0318C95.1094 83.7838 95.1745 84.5639 95.1381 85.3115C95.1348 85.3793 95.1353 85.3587 95.1003 85.4285L95.0345 85.4455C94.9453 85.367 94.5535 84.2497 94.4563 84.0496C93.2744 81.6165 91.5906 80.0272 89.2891 78.5966C89.5385 78.0481 89.7832 77.4976 90.023 76.945C90.3696 77.2948 90.7553 77.5743 91.22 77.7586C92.4511 78.2468 93.5285 77.9092 94.695 77.433Z" fill="#060607"/>
<path d="M90.0234 76.9444L91.5584 73.4892C91.945 72.6175 92.3154 71.7319 92.753 70.8828C93.49 71.595 94.2434 72.2881 94.7204 73.2025C94.886 73.5199 94.9787 73.8765 95.1453 74.188C95.1912 74.8057 95.1604 75.4319 95.1369 76.0502C94.9273 76.4618 94.8402 76.989 94.6954 77.4324C93.5289 77.9086 92.4515 78.2462 91.2204 77.758C90.7557 77.5737 90.37 77.2942 90.0234 76.9444Z" fill="#F7BC30"/>
<path d="M89.2954 78.5977C91.5969 80.0282 93.2807 81.6175 94.4627 84.0507C94.5598 84.2507 94.9517 85.3681 95.0408 85.4465C93.8049 85.4915 92.5475 85.4358 91.3098 85.4299C90.5426 85.4263 89.7238 85.4909 88.9623 85.4275C88.2601 84.9851 87.5891 84.4756 86.9531 83.9478L88.4505 80.5445C88.7316 79.8961 88.9938 79.2372 89.2954 78.5977Z" fill="#C88818"/>
<path d="M100.968 77.5469C101.549 78.9793 102.144 80.4062 102.753 81.8275C103.02 82.4552 103.316 83.0764 103.556 83.7145C102.916 84.3741 102.19 84.993 101.384 85.4505C99.5561 85.4973 97.7159 85.452 95.8869 85.452C95.8944 84.8519 95.8383 84.205 95.9198 83.6113L95.931 83.6171C95.9905 83.5936 95.9748 83.6142 95.9898 83.5662C96.1782 82.968 96.4552 82.3384 96.7818 81.7988C97.5497 80.5304 98.5118 79.3949 99.6912 78.4686C100.092 78.1535 100.535 77.8904 100.934 77.5739L100.968 77.5469Z" fill="#C88818"/>
<path d="M95.9198 69.4447C96.3502 69.1912 96.7614 68.8919 97.103 68.5312L98.1559 71.0013C98.5161 71.6488 98.7778 72.3865 99.0644 73.0693L100.47 76.3635C100.641 76.7535 100.784 77.1609 100.962 77.546L100.929 77.573C100.529 77.8895 100.087 78.1525 99.6854 78.4677C98.506 79.394 97.544 80.5294 96.776 81.7979C96.4494 82.3375 96.1724 82.967 95.9841 83.5653C95.969 83.6132 95.9847 83.5926 95.9252 83.6162L95.9141 83.6103L95.9147 71.0888C95.9409 70.5433 95.9218 69.991 95.9198 69.4447Z" fill="#060607"/>
<path d="M98.1613 71C98.5214 71.6475 98.7831 72.3853 99.0698 73.068L100.475 76.3622C99.622 76.5269 98.7204 76.4894 97.9158 76.1469C97.0872 75.7942 96.7171 75.3727 96.3906 74.5521C96.7851 73.2559 97.2113 72.0238 98.1613 71Z" fill="#F7BC30"/>
<path d="M84.6953 87.9086C89.3804 87.9845 94.0747 87.9433 98.7607 87.9424L103.47 87.9365C104.27 87.9346 105.12 87.9868 105.914 87.9062C104.842 89.3115 103.321 90.3218 101.689 91.0285C101.222 91.2305 100.694 91.3691 100.249 91.6008C99.932 91.7094 99.612 91.8081 99.2887 91.8968C98.9654 91.9855 98.6396 92.0641 98.3111 92.1324C97.9827 92.2007 97.6523 92.2587 97.3201 92.3064C96.9878 92.3541 96.6543 92.3914 96.3196 92.4183C92.5646 92.7377 88.9778 91.7404 86.0765 89.3648C85.5731 88.9095 85.1323 88.423 84.6953 87.9086Z" fill="#F7BC30"/>
<path d="M55.6832 64.2787C56.0607 64.3538 56.3948 64.3436 56.777 64.3094C56.8947 64.2989 57.0357 64.2674 57.1521 64.2745C57.5375 65.2226 57.9323 66.1671 58.3367 67.1078C58.516 67.5279 58.6766 68.0089 58.9036 68.405C59.1789 69.0079 59.5286 69.6353 59.734 70.2613C60.3236 71.6537 60.9737 73.0272 61.6096 74.4002C61.9464 75.1273 62.2578 75.8719 62.6106 76.5912C62.8943 77.2133 63.1738 77.8372 63.4491 78.463C64.158 80.0704 64.8855 81.6698 65.6318 83.2612C65.9647 83.9867 66.2853 84.7173 66.5937 85.453L68.7706 85.4495C68.4197 86.4808 67.9366 87.4349 67.1965 88.2553C66.684 88.8193 66.1613 89.3181 65.5418 89.7731C64.9069 90.1839 64.2674 90.5919 63.577 90.9103C60.5316 92.3153 56.7335 92.643 53.4455 91.9989C52.5909 91.8314 51.7644 91.5698 50.9405 91.2966C49.1451 90.6274 47.4603 89.67 46.2159 88.2175C45.4803 87.3508 45.1344 86.553 44.9219 85.4507C45.6099 85.4356 46.3005 85.4497 46.9888 85.4523C47.3058 84.6864 47.6116 83.9163 47.9063 83.142C48.3236 82.2844 48.6493 81.3542 48.995 80.4669L50.3363 77.0968C50.4155 76.74 50.6016 76.39 50.754 76.0574C51.1913 75.2528 51.536 74.1737 51.8984 73.3121C52.3681 72.1953 52.9187 71.114 53.3339 69.9757C53.4452 69.5799 53.6572 69.1755 53.8136 68.7924C54.2333 67.758 54.6692 66.7301 55.1211 65.7086C55.3266 65.2397 55.5011 64.7566 55.6832 64.2787Z" fill="url(#paint3_linear_500_4899)"/>
<path d="M65.0415 83.8398C65.2982 84.3874 65.5732 84.9313 65.807 85.4883C64.7136 85.4903 63.6165 85.5106 62.5234 85.4874C62.7373 85.3655 62.9753 85.2816 63.1962 85.1711C63.9133 84.8123 64.4807 84.4024 65.0415 83.8398Z" fill="#060607"/>
<path d="M55.9568 65.5352C55.9785 66.1366 55.9615 66.7437 55.9618 67.3458L55.9641 69.368C55.6614 69.349 55.3643 69.311 55.0642 69.269C54.869 69.2364 54.6943 69.1937 54.5078 69.1278C55.0106 67.9378 55.4936 66.7403 55.9568 65.5352Z" fill="#986812"/>
<path d="M55.0625 69.267C55.4277 68.6529 55.6118 67.9626 55.96 67.3438L55.9623 69.366C55.6597 69.347 55.3626 69.3089 55.0625 69.267Z" fill="#C88818"/>
<path d="M56.7637 69.3612C56.746 68.009 56.7393 66.6569 56.7433 65.3047C57.1944 66.474 57.741 67.6051 58.2305 68.759C57.7647 69.0616 57.3147 69.2533 56.7637 69.3612Z" fill="#C88818"/>
<path d="M56.7656 69.36C57.3167 69.2521 57.7666 69.0604 58.2325 68.7578C58.5317 69.4273 58.7957 70.1154 59.1075 70.7786C58.2271 71.5163 57.5864 72.4351 57.0995 73.4555C56.9986 73.4138 56.8842 73.4233 56.7762 73.4215C56.782 72.0676 56.7784 70.7138 56.7656 69.36Z" fill="#060607"/>
<path d="M61.9747 77.082C62.2495 77.635 62.4918 78.2037 62.7413 78.7678C60.2042 80.1978 58.3201 81.9212 57.5309 84.7902C57.4694 85.0137 57.4167 85.2397 57.3492 85.4615C57.1543 85.4632 56.9557 85.4578 56.7612 85.4677C56.782 82.7512 56.7783 80.0348 56.75 77.3184C57.1941 77.7922 57.8576 78.0488 58.5015 78.1318C59.7785 78.2962 60.9768 77.8261 61.9747 77.082Z" fill="#060607"/>
<path d="M59.1086 70.7773C59.5271 71.4028 59.9303 72.5304 60.2522 73.2526C60.8209 74.5286 61.4446 75.793 61.976 77.0831C60.978 77.8271 59.7798 78.2973 58.5028 78.1328C57.8588 78.0499 57.1954 77.7933 56.7513 77.3195C56.7472 76.3802 56.6722 75.1699 56.7648 74.2557C56.7785 73.9782 56.7742 73.6982 56.7773 73.4202C56.8852 73.422 56.9997 73.4126 57.1006 73.4543C57.5875 72.4339 58.2282 71.5151 59.1086 70.7773Z" fill="#F7BC30"/>
<path d="M56.7782 73.4219C56.8861 73.4237 57.0005 73.4142 57.1015 73.4559C56.9924 73.7173 56.8998 74.0085 56.7656 74.2573C56.7794 73.9798 56.7751 73.6998 56.7782 73.4219Z" fill="#060607"/>
<path d="M62.7379 78.7695C63.2041 79.7785 63.6638 80.7902 64.117 81.8048C64.4245 82.4794 64.7674 83.1516 65.0392 83.8401C64.4785 84.4026 63.9111 84.8126 63.194 85.1714C62.973 85.2819 62.735 85.3658 62.5212 85.4876C61.4064 85.5291 60.2759 85.4867 59.1595 85.4834C58.3675 85.4811 57.5453 85.5329 56.7578 85.4694C56.9523 85.4595 57.1509 85.4649 57.3458 85.4633C57.4133 85.2414 57.466 85.0154 57.5275 84.792C58.3167 81.9229 60.2008 80.1996 62.7379 78.7695Z" fill="#C88818"/>
<path d="M54.5103 69.125C54.6969 69.1908 54.8716 69.2335 55.0668 69.2662C55.3668 69.3081 55.6639 69.3462 55.9666 69.3651L55.9673 77.9323C55.9747 79.7432 56.0166 81.556 55.9946 83.3667C55.8824 83.1815 55.8258 82.9252 55.7513 82.7188C55.621 82.3576 55.4785 81.997 55.2966 81.657C54.3762 79.9351 52.6965 78.4624 51.0391 77.4153C51.2174 77.0132 51.3914 76.6119 51.5478 76.201C51.983 75.0483 52.4834 73.9106 52.9663 72.7756C53.2518 72.1046 53.5126 71.3923 53.8511 70.7457C54.124 70.2949 54.3152 69.6246 54.5103 69.125Z" fill="#060607"/>
<path d="M53.8502 70.7461C54.6923 71.8869 55.4243 73.5757 55.1913 75.0108C55.1298 75.3899 54.9655 75.7412 54.6333 75.9648C53.8033 76.5233 52.4881 76.3171 51.5469 76.2014C51.982 75.0487 52.4825 73.911 52.9653 72.776C53.2509 72.105 53.5116 71.3927 53.8502 70.7461Z" fill="#F7BC30"/>
<path d="M48.5256 83.7229C48.8894 82.7379 49.3226 81.774 49.7033 80.7944C50.1398 79.671 50.527 78.5104 51.039 77.418C52.6964 78.4651 54.3761 79.9377 55.2966 81.6597C55.4784 81.9997 55.6209 82.3602 55.7512 82.7215C55.8257 82.9279 55.8823 83.1842 55.9946 83.3694C56.0052 84.0753 56.0074 84.7813 56.0013 85.4874L51.4595 85.4846C50.6582 85.4831 49.8481 85.5042 49.0484 85.464L47.8047 85.4577C48.039 84.8771 48.2793 84.2988 48.5256 83.7229Z" fill="#C88818"/>
<path d="M48.5256 83.7227C49.3547 84.5266 50.4573 85.1745 51.6047 85.4324C50.7775 85.5461 49.8867 85.425 49.0484 85.4638L47.8047 85.4574C48.039 84.8768 48.2793 84.2986 48.5256 83.7227Z" fill="#060607"/>
<path d="M46.2188 88.2169C47.8794 88.1768 49.5466 88.2044 51.208 88.207L59.6475 88.2243L64.5104 88.2305C65.3961 88.2304 66.3181 88.182 67.1993 88.2547C66.6868 88.8188 66.1641 89.3176 65.5446 89.7725C64.9097 90.1834 64.2702 90.5913 63.5798 90.9098C60.5344 92.3148 56.7364 92.6424 53.4483 91.9983C52.5938 91.8309 51.7672 91.5693 50.9433 91.296C49.1479 90.6268 47.4631 89.6695 46.2188 88.2169Z" fill="#F7BC30"/>
<path d="M46.0781 66.4463L46.0976 66.3935C46.2761 65.9009 46.4016 65.378 46.5639 64.8785C46.9038 63.8069 47.3008 62.7557 47.755 61.725C47.8465 61.5196 47.9403 61.3152 48.0365 61.1119C48.1326 60.9085 48.2311 60.7062 48.3319 60.505C48.4326 60.3038 48.5357 60.1036 48.641 59.9047C48.7464 59.7057 48.854 59.5079 48.9638 59.3112C49.0737 59.1145 49.1857 58.919 49.3 58.7248C49.4144 58.5306 49.5309 58.3376 49.6496 58.1459C49.7683 57.9542 49.8892 57.7638 50.0122 57.5747C50.1353 57.3855 50.2605 57.1978 50.3879 57.0115C50.5152 56.8251 50.6447 56.6401 50.7762 56.4565C50.9078 56.2728 51.0415 56.0907 51.1773 55.91C51.313 55.7293 51.4507 55.5501 51.5905 55.3724C51.7303 55.1947 51.8722 55.0185 52.016 54.8438C52.1598 54.6692 52.3056 54.4961 52.4534 54.3246C52.6012 54.1531 52.751 53.9832 52.9027 53.815C53.0543 53.6468 53.2079 53.4802 53.3634 53.3152C53.5188 53.1503 53.6762 52.9871 53.8354 52.8255C53.9946 52.664 54.1556 52.5042 54.3184 52.3462C54.4812 52.1881 54.6459 52.0319 54.8123 51.8774C54.9787 51.7229 55.1469 51.5702 55.3167 51.4194C55.4866 51.2686 55.6582 51.1196 55.8315 50.9724C56.0048 50.8253 56.1798 50.6801 56.3564 50.5367C56.533 50.3934 56.7112 50.252 56.8911 50.1125C57.0709 49.973 57.2523 49.8355 57.4353 49.7C57.6183 49.5644 57.8028 49.4308 57.9888 49.2993C58.1748 49.1677 58.3623 49.0381 58.5513 48.9106C58.7403 48.7831 58.9307 48.6577 59.1225 48.5343C59.3144 48.4109 59.5076 48.2896 59.7022 48.1704C59.8968 48.0512 60.0928 47.9341 60.2901 47.8191C60.4874 47.7042 60.686 47.5914 60.8858 47.4807C61.0857 47.37 61.2868 47.2615 61.4891 47.1552C61.6915 47.0489 61.895 46.9448 62.0997 46.8428C62.3044 46.7409 62.5103 46.6412 62.7172 46.5438C62.9431 46.4387 63.1703 46.3363 63.3988 46.2367C63.6273 46.137 63.857 46.0401 64.0878 45.9459C64.3187 45.8517 64.5508 45.7603 64.784 45.6716C65.0172 45.5829 65.2515 45.497 65.4869 45.4139C65.7222 45.3308 65.9586 45.2505 66.1959 45.173C66.4333 45.0956 66.6716 45.0209 66.9108 44.9492C67.1501 44.8773 67.3902 44.8084 67.6312 44.7423C67.8721 44.6762 68.1139 44.613 68.3564 44.5526C68.599 44.4923 68.8423 44.4348 69.0863 44.3803C69.3303 44.3257 69.5749 44.2741 69.8203 44.2253C70.0655 44.1766 70.3114 44.1308 70.5578 44.0879C70.8043 44.045 71.0513 44.0051 71.2987 43.9681C71.5461 43.931 71.794 43.897 72.0424 43.8659C72.2907 43.8348 72.5393 43.8066 72.7883 43.7814C73.0373 43.7562 73.2866 43.734 73.5362 43.7147C73.7857 43.6954 74.0355 43.6792 74.2855 43.6658C74.5355 43.6525 74.7856 43.6422 75.0358 43.6348C75.2861 43.6274 75.5363 43.623 75.7867 43.6216C76.037 43.6202 76.2873 43.6217 76.5376 43.6263C76.788 43.6308 77.0382 43.6383 77.2883 43.6488C77.5384 43.6593 77.7884 43.6728 78.0382 43.6892C78.288 43.7056 78.5375 43.7251 78.7868 43.7474C79.0361 43.7698 79.285 43.7951 79.5337 43.8234C79.7823 43.8517 80.0306 43.883 80.2785 43.9172C80.5264 43.9514 80.7738 43.9885 81.0208 44.0286C81.2677 44.0687 81.5141 44.1117 81.76 44.1577C82.0058 44.2037 82.2511 44.2525 82.4957 44.3043C82.7403 44.3561 82.9843 44.4108 83.2276 44.4684C83.4708 44.526 83.7133 44.5864 83.9551 44.6498C84.1968 44.7132 84.4377 44.7794 84.6778 44.8485C84.9179 44.9176 85.1571 44.9895 85.3954 45.0643C85.6337 45.1391 85.871 45.2167 86.1073 45.2971C86.2879 45.358 86.468 45.4205 86.6474 45.4847C86.8269 45.5488 87.0057 45.6145 87.1839 45.6819C87.3621 45.7493 87.5397 45.8183 87.7166 45.889C87.8934 45.9596 88.0696 46.0318 88.2451 46.1056C88.4205 46.1794 88.5953 46.2549 88.7693 46.3319C88.9434 46.4089 89.1166 46.4875 89.2892 46.5677C89.4617 46.6479 89.6335 46.7296 89.8044 46.8128C89.9754 46.8961 90.1455 46.981 90.3148 47.0673C90.4842 47.1538 90.6527 47.2417 90.8203 47.3311C90.9879 47.4206 91.1547 47.5116 91.3206 47.6041C91.4865 47.6966 91.6515 47.7906 91.8156 47.886C91.9797 47.9815 92.1428 48.0785 92.3051 48.177C92.4673 48.2755 92.6285 48.3754 92.7888 48.4768C92.9491 48.5782 93.1084 48.6811 93.2668 48.7853C93.4251 48.8896 93.5824 48.9954 93.7387 49.1026C93.895 49.2097 94.0503 49.3183 94.2045 49.4283C94.3588 49.5382 94.5119 49.6496 94.664 49.7624C94.8161 49.8752 94.9671 49.9894 95.117 50.1049C95.2669 50.2204 95.4156 50.3373 95.5633 50.4555C95.7109 50.5737 95.8574 50.6933 96.0028 50.8142C96.1481 50.9351 96.2923 51.0573 96.4353 51.1808C96.5783 51.3044 96.7201 51.4292 96.8607 51.5553C97.0013 51.6814 97.1407 51.8088 97.2788 51.9375C97.417 52.0661 97.554 52.196 97.6896 52.3271C97.8253 52.4583 97.9597 52.5906 98.0928 52.7242C98.2259 52.8578 98.3578 52.9925 98.4883 53.1285C98.6188 53.2645 98.748 53.4017 98.8759 53.54C99.0038 53.6783 99.1304 53.8178 99.2556 53.9584C99.3809 54.0991 99.5047 54.2409 99.6273 54.3838C99.7498 54.5266 99.8709 54.6706 99.9906 54.8157C100.11 54.9608 100.229 55.107 100.346 55.2542C100.463 55.4015 100.578 55.5498 100.692 55.6992C100.991 56.1012 101.28 56.5096 101.559 56.9245C101.839 57.3394 102.108 57.7602 102.368 58.1871C102.628 58.614 102.877 59.0465 103.116 59.4845C103.356 59.9225 103.585 60.3656 103.803 60.8139C104.11 61.4396 104.392 62.0761 104.648 62.7233C104.904 63.3705 105.134 64.0264 105.337 64.691C105.527 65.3124 105.659 66.0577 105.89 66.6524C105.231 67.0648 104.454 67.3648 103.731 67.6544C101.652 68.488 100.463 68.9309 98.7345 70.4539C98.2054 69.1668 97.6497 67.8894 97.1035 66.609C96.767 65.8553 96.4767 65.0741 96.174 64.3067C95.7628 64.2395 95.2769 64.3012 94.8507 64.2687C93.9402 63.9427 93.4503 63.6456 92.8742 62.8599C91.8817 62.7987 89.5032 61.4868 88.8318 60.8504L87.4753 60.8533C84.6859 60.8913 81.8862 60.875 79.0966 60.8565C79.103 61.4218 79.1188 61.9891 79.0926 62.554C78.4722 62.4604 77.1725 62.5594 76.4824 62.56C75.6392 62.5608 74.7952 62.5663 73.9521 62.5566C73.3675 62.5498 72.7795 62.5138 72.1954 62.5497C72.1786 61.988 72.1948 61.4219 72.1962 60.8598C70.3318 60.9017 68.4579 60.8482 66.5922 60.8551C65.9363 60.8576 65.2263 60.7927 64.5767 60.8687C64.1676 60.8632 63.6654 60.9414 63.272 60.858C63.1987 60.948 63.1169 60.9939 63.0147 61.0476C62.2226 61.4634 61.3754 61.8076 60.5634 62.1873C60.2164 62.3497 59.4642 62.7848 59.1313 62.8519C58.5478 63.5912 58.0443 63.9553 57.1485 64.276C57.0321 64.2689 56.8912 64.3005 56.7735 64.3109C56.3913 64.3451 56.0571 64.3554 55.6797 64.2803C55.4975 64.7582 55.323 65.2413 55.1175 65.7101C54.6656 66.7316 54.2298 67.7596 53.81 68.794C53.6537 69.1771 53.4417 69.5815 53.3303 69.9773C52.0243 68.6582 49.2391 67.9433 47.4737 67.1679C47.0032 66.9613 46.4919 66.7487 46.0781 66.4463Z" fill="#604518"/>
<path d="M55.5632 64.2617L55.686 64.2803C55.5039 64.7582 55.3294 65.2413 55.1239 65.7101C55.0791 65.65 55.0534 65.609 55.0408 65.534C54.9933 65.2518 55.1287 64.5669 55.3191 64.3487C55.3726 64.3376 55.4179 64.3315 55.4731 64.3305C55.4906 64.3302 55.5079 64.3305 55.5253 64.3305L55.5632 64.2617Z" fill="#986812"/>
<path d="M96.1797 64.3071C96.3199 64.2858 96.4597 64.2283 96.5939 64.1836C96.9573 64.7426 97.1331 65.9422 97.1092 66.6093C96.7727 65.8557 96.4824 65.0745 96.1797 64.3071Z" fill="#C88818"/>
<path d="M95.1295 57.1285C95.3831 57.1256 95.6563 57.0736 95.8983 57.1544C95.989 57.2532 95.972 57.3026 95.9807 57.4319L95.977 58.0624C95.7144 58.0655 95.4371 58.0852 95.1777 58.0465C95.1585 58.0181 95.136 57.9975 95.1341 57.9631C95.1173 57.6869 95.1288 57.4054 95.1295 57.1285Z" fill="#FFFEF6"/>
<path d="M56.0133 57.9286C56.0075 57.6888 55.9228 56.9696 56.0735 56.79C56.1476 56.7018 56.3112 56.6164 56.4288 56.6257C56.537 56.6343 56.6048 56.6633 56.6759 56.7444C56.8796 56.9767 56.7709 57.6348 56.7542 57.9285C56.745 58.0017 56.76 57.9659 56.6956 58.0295C56.4964 58.0576 56.2242 58.1019 56.0351 58.0249L56.0133 57.9286Z" fill="#FFFEF6"/>
<path d="M75.3858 45.2161C76.5692 45.097 77.8174 45.499 78.7549 46.192C79.7486 46.9265 80.4179 48.0886 80.5861 49.2893C80.7562 50.5026 80.4358 51.7873 79.6695 52.7635C78.8102 53.8581 77.6582 54.4534 76.27 54.628C74.9404 54.6936 73.7472 54.4233 72.6901 53.6023C72.6284 53.5538 72.5679 53.5039 72.5086 53.4526C72.4493 53.4013 72.3914 53.3485 72.3348 53.2944C72.2782 53.2404 72.223 53.185 72.1691 53.1282C72.1153 53.0715 72.0629 53.0135 72.012 52.9543C71.9611 52.8951 71.9117 52.8347 71.8638 52.7731C71.8159 52.7115 71.7697 52.6488 71.7249 52.585C71.6802 52.5212 71.6371 52.4564 71.5956 52.3905C71.5542 52.3247 71.5144 52.258 71.4763 52.1902C71.4382 52.1225 71.4018 52.0539 71.3672 51.9844C71.3326 51.9149 71.2997 51.8446 71.2686 51.7736C71.2374 51.7025 71.2081 51.6308 71.1806 51.5584C71.1531 51.4859 71.1274 51.4129 71.1036 51.3392C71.0797 51.2656 71.0578 51.1914 71.0377 51.1166C71.0176 51.0419 70.9994 50.9668 70.983 50.8912C70.9667 50.8157 70.9523 50.7397 70.9398 50.6635C70.9273 50.5872 70.9167 50.5107 70.908 50.4339C70.8999 50.3563 70.8938 50.2786 70.8896 50.2007C70.8854 50.1229 70.8831 50.045 70.8828 49.967C70.8825 49.8891 70.8842 49.8112 70.8878 49.7333C70.8915 49.6554 70.8971 49.5777 70.9046 49.5001C70.9121 49.4224 70.9216 49.3451 70.9329 49.2679C70.9444 49.1908 70.9577 49.1139 70.973 49.0374C70.9883 48.9609 71.0054 48.8847 71.0245 48.8091C71.0436 48.7334 71.0646 48.6582 71.0875 48.5834C71.1103 48.5087 71.135 48.4346 71.1616 48.3611C71.1882 48.2875 71.2166 48.2146 71.2468 48.1425C71.2771 48.0703 71.3091 47.9989 71.3429 47.9282C71.3768 47.8576 71.4123 47.7878 71.4497 47.7188C71.487 47.6498 71.526 47.5818 71.5668 47.5147C71.6075 47.4476 71.6499 47.3815 71.694 47.3164C71.738 47.2513 71.7837 47.1873 71.831 47.1244C71.8782 47.0615 71.9271 46.9997 71.9774 46.9391C72.8528 45.896 74.0225 45.3449 75.3858 45.2161Z" fill="#F7BC30"/>
<path d="M72.5291 56.8899C72.7923 56.2298 73.2062 55.7625 73.8812 55.4739C74.7206 55.1151 76.4067 55.0971 77.2563 55.4254C77.8294 55.6469 78.3651 56.061 78.6122 56.6232C78.6459 56.7005 78.6778 56.7786 78.7079 56.8574C83.3152 57.1885 88.2487 58.6219 92.4524 60.4866C92.8248 59.5165 93.3491 58.7278 94.3456 58.2824C94.483 58.221 95.0482 58.0845 95.0995 58.0468C95.1243 58.0286 95.1224 57.9906 95.1338 57.9624C95.1357 57.9968 95.1582 58.0174 95.1774 58.0458C95.4368 58.0845 95.7141 58.0649 95.9766 58.0617L95.9803 57.4312C95.9885 57.6384 95.9961 57.8444 95.9916 58.0518C96.8619 58.2058 97.5612 58.6235 98.0651 59.3358C98.0965 59.3804 98.1268 59.4256 98.1559 59.4717C98.1851 59.5177 98.213 59.5643 98.2398 59.6117C98.2666 59.659 98.2922 59.707 98.3166 59.7555C98.341 59.8041 98.3641 59.8532 98.3861 59.9028C98.408 59.9525 98.4287 60.0026 98.4482 60.0532C98.4676 60.1039 98.4857 60.1549 98.5027 60.2064C98.5195 60.2579 98.5351 60.3097 98.5494 60.362C98.5637 60.4142 98.5767 60.4667 98.5883 60.5196C98.6 60.5724 98.6103 60.6255 98.6193 60.6788C98.6283 60.7322 98.636 60.7857 98.6424 60.8394C98.6487 60.8931 98.6537 60.9469 98.6573 61.0008C98.661 61.0548 98.6633 61.1088 98.6642 61.1628C98.6652 61.2168 98.6648 61.2708 98.663 61.3249C98.6613 61.3789 98.6582 61.4328 98.6538 61.4867C98.6493 61.5406 98.6435 61.5944 98.6363 61.6479C98.6292 61.7016 98.6207 61.755 98.6109 61.8081C98.6013 61.859 98.5904 61.9096 98.5781 61.96C98.5659 62.0103 98.5524 62.0603 98.5376 62.1099C98.5228 62.1596 98.5068 62.2089 98.4894 62.2578C98.4721 62.3067 98.4536 62.3551 98.4338 62.4032C98.414 62.4512 98.393 62.4986 98.3707 62.5456C98.3484 62.5925 98.325 62.6389 98.3004 62.6848C98.2758 62.7306 98.25 62.7758 98.223 62.8204C98.1961 62.8649 98.168 62.9088 98.1388 62.952C98.1096 62.9953 98.0793 63.0377 98.0479 63.0794C98.0165 63.1212 97.9841 63.1621 97.9506 63.2023C97.9171 63.2424 97.8826 63.2817 97.8472 63.3202C97.8116 63.3587 97.7752 63.3963 97.7378 63.433C97.7003 63.4697 97.662 63.5054 97.6227 63.5403C97.5834 63.5751 97.5433 63.6089 97.5023 63.6418C97.4612 63.6747 97.4194 63.7065 97.3768 63.7374C97.3342 63.7683 97.2908 63.798 97.2466 63.8267C97.0423 63.9612 96.8174 64.0783 96.5947 64.1811C96.4605 64.2258 96.3207 64.2833 96.1805 64.3046C95.7693 64.2374 95.2834 64.2991 94.8572 64.2666C93.9467 63.9406 93.4567 63.6435 92.8807 62.8578C91.8882 62.7966 89.5097 61.4847 88.8383 60.8483L87.4818 60.8512C84.6924 60.8892 81.8927 60.8729 79.1031 60.8544C79.1095 61.4197 79.1253 61.987 79.0991 62.5519C78.4787 62.4582 77.179 62.5573 76.4889 62.5579C75.6457 62.5587 74.8017 62.5642 73.9586 62.5545C73.374 62.5477 72.786 62.5117 72.2019 62.5476C72.1851 61.9859 72.2013 61.4198 72.2027 60.8577C70.3383 60.8995 68.4644 60.8461 66.5987 60.853C65.9428 60.8555 65.2328 60.7906 64.5832 60.8666C64.1741 60.8611 63.6719 60.9393 63.2785 60.8559C63.2052 60.9459 63.1234 60.9918 63.0212 61.0455C62.2291 61.4613 61.3819 61.8055 60.5699 62.1852C60.2229 62.3476 59.4707 62.7827 59.1378 62.8498C58.5543 63.5891 58.0508 63.9532 57.155 64.2739C57.0386 64.2668 56.8977 64.2983 56.78 64.3088C56.3978 64.343 56.0636 64.3533 55.6862 64.2782L55.5634 64.2596C55.3906 64.2005 55.2174 64.1415 55.0509 64.0668C55.0021 64.0454 54.9538 64.0228 54.9062 63.9991C54.8585 63.9753 54.8115 63.9505 54.7652 63.9244C54.7188 63.8984 54.6731 63.8713 54.6282 63.843C54.5832 63.8148 54.539 63.7855 54.4955 63.7551C54.452 63.7246 54.4093 63.6931 54.3674 63.6607C54.3256 63.6282 54.2846 63.5947 54.2445 63.5602C54.2043 63.5257 54.1651 63.4903 54.1268 63.4539C54.0885 63.4175 54.0511 63.3802 54.0148 63.342C53.9783 63.3038 53.9429 63.2647 53.9085 63.2248C53.8742 63.1848 53.8408 63.1441 53.8085 63.1025C53.7762 63.0609 53.745 63.0186 53.7149 62.9755C53.6848 62.9325 53.6558 62.8887 53.6279 62.8441C53.6 62.7997 53.5733 62.7545 53.5478 62.7087C53.5222 62.6629 53.4978 62.6165 53.4747 62.5695C53.4515 62.5226 53.4295 62.4751 53.4088 62.427C53.3881 62.3789 53.3686 62.3304 53.3503 62.2814C53.3317 62.2333 53.3144 62.1848 53.2983 62.1359C53.2822 62.087 53.2674 62.0377 53.2539 61.988C53.2404 61.9383 53.2281 61.8884 53.2171 61.8381C53.2062 61.7878 53.1965 61.7373 53.1882 61.6866C53.1798 61.6359 53.1728 61.585 53.167 61.5339C53.1613 61.4828 53.1569 61.4316 53.1538 61.3803C53.1508 61.3291 53.149 61.2777 53.1485 61.2263C53.1481 61.175 53.149 61.1236 53.1512 61.0723C53.1534 61.021 53.157 60.9697 53.1618 60.9186C53.1667 60.8674 53.1729 60.8164 53.1804 60.7655C53.1879 60.7147 53.1967 60.664 53.2068 60.6136C53.2169 60.5632 53.2283 60.513 53.241 60.4631C53.2537 60.4133 53.2677 60.3637 53.283 60.3146C53.2982 60.2654 53.3148 60.2166 53.3325 60.1682C53.3503 60.1199 53.3693 60.0719 53.3895 60.0245C53.4098 59.977 53.4313 59.9301 53.454 59.8837C53.8816 58.9968 54.5473 58.4912 55.47 58.147C55.6274 58.0883 55.8003 58.0961 55.9456 58.0367C56.0063 58.0118 55.999 57.9812 56.0193 57.9252L56.041 58.0214C56.2301 58.0984 56.5023 58.0542 56.7015 58.026C56.7659 57.9624 56.751 57.9982 56.7601 57.925C56.7789 57.9776 56.7727 58.0116 56.829 58.0344C57.0389 58.1195 57.2871 58.1355 57.5065 58.2184C58.3235 58.5269 58.9821 59.1902 59.342 59.9602C59.4041 60.096 59.4638 60.2329 59.5211 60.3707C63.0639 58.5725 68.5293 57.0856 72.5291 56.8899Z" fill="#F7BC30"/>
<path d="M63.2735 60.8594C63.2002 60.9494 63.1184 60.9953 63.0162 61.0489C62.2242 61.4647 61.377 61.8089 60.5649 62.1887C60.2179 62.3511 59.4658 62.7862 59.1328 62.8533C59.4727 62.2115 59.5916 61.602 59.5963 60.8845C60.8217 60.8897 62.0482 60.8699 63.2735 60.8594Z" fill="#060607"/>
<path d="M88.8359 60.8516C90.0193 60.8648 91.2028 60.8662 92.3862 60.8557C92.3581 61.6124 92.5037 62.1961 92.8783 62.8611C91.8858 62.7998 89.5073 61.4879 88.8359 60.8516Z" fill="#060607"/>
<path d="M75.1939 56.1926C75.86 56.1314 76.4613 56.193 77.0375 56.5481C77.075 56.5711 77.1118 56.5951 77.1481 56.6199C77.1844 56.6448 77.2201 56.6706 77.255 56.6972C77.2899 56.7238 77.3241 56.7513 77.3576 56.7796C77.3911 56.8079 77.4239 56.837 77.4558 56.8669C77.4878 56.8969 77.519 56.9276 77.5494 56.9591C77.5798 56.9905 77.6094 57.0227 77.6381 57.0556C77.6668 57.0886 77.6946 57.1222 77.7216 57.1565C77.7486 57.1908 77.7746 57.2257 77.7998 57.2613C77.8249 57.2969 77.8491 57.3331 77.8724 57.3698C77.8957 57.4066 77.918 57.444 77.9393 57.4819C77.9606 57.5197 77.9809 57.5581 78.0002 57.597C78.0196 57.6358 78.0379 57.6752 78.0551 57.715C78.0724 57.7548 78.0886 57.795 78.1038 57.8355C78.119 57.8761 78.1331 57.9171 78.1461 57.9584C78.1592 57.9996 78.1712 58.0412 78.1821 58.0831C78.1929 58.125 78.2027 58.1671 78.2114 58.2094C78.3481 58.845 78.2289 59.4668 77.8557 60.0057C77.45 60.5918 76.8539 60.9523 76.1482 61.0902C75.4662 61.1941 74.7667 61.1069 74.1745 60.7448C74.1389 60.7229 74.104 60.7001 74.0696 60.6764C74.0353 60.6528 74.0015 60.6284 73.9684 60.6031C73.9352 60.578 73.9027 60.552 73.8709 60.5252C73.8391 60.4984 73.808 60.4709 73.7775 60.4426C73.7471 60.4143 73.7174 60.3853 73.6884 60.3556C73.6595 60.3259 73.6313 60.2955 73.6038 60.2644C73.5764 60.2334 73.5497 60.2017 73.5239 60.1694C73.498 60.1371 73.4731 60.1042 73.4489 60.0706C73.4247 60.0371 73.4014 60.0031 73.3789 59.9684C73.3565 59.9338 73.3349 59.8986 73.3142 59.8629C73.2935 59.8273 73.2737 59.7911 73.2549 59.7545C73.236 59.7179 73.2181 59.6809 73.2012 59.6434C73.1842 59.6059 73.1682 59.5681 73.1531 59.5299C73.138 59.4916 73.1239 59.453 73.1108 59.4141C73.0976 59.3752 73.0855 59.336 73.0743 59.2965C73.0632 59.257 73.053 59.2173 73.0439 59.1773C72.9018 58.5452 73.0611 57.8961 73.416 57.3565C73.8273 56.731 74.4558 56.3483 75.1939 56.1926Z" fill="#C88818"/>
<path d="M63.2719 60.8584C63.6654 60.9418 64.1675 60.8636 64.5766 60.8691C65.2263 60.7931 65.9362 60.858 66.5921 60.8555C68.4578 60.8486 70.3317 60.902 72.1961 60.8602C72.1947 61.4223 72.1785 61.9884 72.1953 62.5501C72.7794 62.5142 73.3674 62.5502 73.952 62.557C74.7951 62.5667 75.6391 62.5612 76.4823 62.5604C77.1724 62.5597 78.4722 62.4607 79.0925 62.5544C79.1187 61.9895 79.1029 61.4222 79.0965 60.8569C81.8861 60.8754 84.6858 60.8917 87.4752 60.8537L88.8318 60.8508C89.5031 61.4872 91.8816 62.7991 92.8742 62.8603C93.4502 63.646 93.9402 63.9431 94.8506 64.2691C94.2381 65.623 93.6998 67.0221 93.0483 68.3566C92.7537 69.054 92.4113 69.7333 92.1209 70.4308C91.6717 71.5051 91.1397 72.5451 90.6755 73.6137C90.3822 74.3034 90.0823 74.9903 89.7756 75.6744C89.6608 75.9333 89.5631 76.2244 89.4228 76.4696C89.16 77.0841 88.8986 77.7063 88.5943 78.3024C87.8813 79.9833 87.1652 81.6723 86.398 83.3302C86.0752 84.021 85.8107 84.7352 85.4943 85.4283C84.7307 85.4286 83.9614 85.41 83.1989 85.4502C83.57 86.3166 84.0305 87.2214 84.6958 87.9084C85.1328 88.4227 85.5736 88.9093 86.077 89.3646C85.9794 89.7387 85.824 90.1031 85.6857 90.4649C85.042 92.1498 84.1913 93.7501 83.2811 95.3112C83.1247 95.5794 82.9536 95.9824 82.7342 96.1945C82.8744 96.5659 82.9815 96.9146 83.0231 97.309C80.4712 97.3344 77.9191 97.3423 75.3671 97.3328C73.0278 97.3344 70.6848 97.3648 68.3461 97.3391C68.3646 97.0975 68.3873 96.8562 68.4142 96.6154L68.3664 96.5828C68.1949 95.7199 67.5842 94.4833 67.2314 93.6433C66.88 92.8048 66.5207 91.9696 66.1535 91.1375C65.9543 90.6836 65.7692 90.2138 65.5382 89.775C66.1576 89.3201 66.6804 88.8213 67.1928 88.2573C67.933 87.4369 68.4161 86.4827 68.7669 85.4515L66.59 85.4549C66.2817 84.7192 65.9611 83.9886 65.6282 83.2631C64.8819 81.6718 64.1543 80.0724 63.4455 78.4649C63.1702 77.8392 62.8906 77.2153 62.6069 76.5931C62.2542 75.8738 61.9427 75.1293 61.606 74.4021C60.9701 73.0292 60.32 71.6556 59.7304 70.2633C59.525 69.6373 59.1753 69.0099 58.9 68.407C58.673 68.0109 58.5124 67.5298 58.3331 67.1097C57.9287 66.169 57.5338 65.2246 57.1484 64.2764C58.0442 63.9557 58.5477 63.5916 59.1312 62.8523C59.4641 62.7852 60.2163 62.3501 60.5633 62.1877C61.3753 61.808 62.2226 61.4638 63.0146 61.0479C63.1168 60.9943 63.1986 60.9484 63.2719 60.8584Z" fill="#060607"/>
<path d="M63.4453 78.4652C63.9442 78.2633 64.4374 78.1333 64.9722 78.0565C66.3024 77.8657 68.0868 78.0337 69.154 77.125C68.7428 77.8148 68.3378 78.5041 67.9757 79.2201C67.2591 80.6367 66.6674 82.0239 65.628 83.2634C64.8818 81.6721 64.1542 80.0726 63.4453 78.4652Z" fill="#C88818"/>
<path d="M63.2719 60.8594C63.6654 60.9428 64.1675 60.8646 64.5766 60.8701C63.7645 61.6608 63.1895 62.5821 62.5843 63.5214C61.5179 65.1762 60.3893 67.0794 58.9 68.408C58.673 68.0119 58.5124 67.5308 58.3331 67.1107C57.9287 66.17 57.5338 65.2256 57.1484 64.2774C58.0442 63.9567 58.5477 63.5926 59.1312 62.8533C59.4641 62.7862 60.2163 62.3511 60.5633 62.1887C61.3753 61.8089 62.2226 61.4647 63.0146 61.0489C63.1168 60.9953 63.1986 60.9494 63.2719 60.8594Z" fill="#C88818"/>
<path d="M59.7344 70.2607C60.8274 69.5018 62.1126 68.9688 63.3577 68.4936C64.549 68.039 65.8153 67.6029 66.8627 66.8686C67.3068 66.5574 67.6783 66.1913 68.0388 65.793C66.873 68.9027 65.8577 72.0841 63.9903 74.8828C63.5912 75.4808 63.147 76.1033 62.6109 76.5906C62.2582 75.8713 61.9468 75.1267 61.61 74.3996C60.9741 73.0266 60.324 71.6531 59.7344 70.2607Z" fill="#F7BC30"/>
<path d="M72.2008 62.5476C72.7849 62.5118 73.3728 62.5478 73.9575 62.5546C74.8006 62.5643 75.6445 62.5588 76.4877 62.558C77.1779 62.5573 78.4776 62.4583 79.098 62.552C78.7112 62.6035 78.2922 62.5711 77.9011 62.5703L77.9005 84.3954L77.9063 91.1411C77.9097 92.1052 77.8689 93.0897 77.9117 94.0518C77.9164 94.1563 77.9083 94.2262 77.9755 94.3093C78.3416 94.419 78.8179 94.3505 79.2003 94.3414C80.6535 94.3066 81.9 94.6243 82.6267 95.9696C82.6661 96.0425 82.7057 96.1167 82.7396 96.1921C82.8798 96.5635 82.9869 96.9122 83.0285 97.3065C80.4766 97.332 77.9246 97.3399 75.3725 97.3304C73.0333 97.332 70.6902 97.3624 68.3516 97.3367C68.37 97.0951 68.3927 96.8538 68.4196 96.6129C68.5573 96.1742 68.8208 95.8057 69.152 95.4839C70.4429 94.2298 71.6852 94.409 73.3636 94.4151L73.3662 62.5694C72.9858 62.5712 72.5768 62.6035 72.2008 62.5476Z" fill="#C88818"/>
<path d="M87.4793 60.8545L88.8358 60.8516C89.5072 61.4879 91.8857 62.7998 92.8782 62.8611C93.4542 63.6467 93.9442 63.9438 94.8547 64.2699C94.2422 65.6238 93.7038 67.0229 93.0524 68.3574C92.7578 69.0547 92.4154 69.7341 92.125 70.4315C91.6757 71.5059 91.1438 72.5459 90.6796 73.6145C90.3863 74.3042 90.0863 74.9911 89.7797 75.6752C89.6649 75.934 89.5672 76.2251 89.4269 76.4703C89.1641 77.0848 88.9027 77.7071 88.5983 78.3032C87.8854 79.984 87.1693 81.673 86.4021 83.3309C86.0793 84.0217 85.8148 84.736 85.4984 85.429C84.7348 85.4293 83.9655 85.4107 83.203 85.451C83.5741 86.3174 84.0346 87.2222 84.6999 87.9092C85.1369 88.4235 85.5777 88.9101 86.0811 89.3653C85.9835 89.7395 85.8281 90.1038 85.6898 90.4657C85.0461 92.1506 84.1954 93.7508 83.2852 95.3119C83.1288 95.5801 82.9577 95.9832 82.7382 96.1952C82.7043 96.1199 82.6647 96.0456 82.6254 95.9728C81.8987 94.6274 80.6521 94.3098 79.199 94.3446C78.8165 94.3537 78.3403 94.4222 77.9741 94.3125C77.907 94.2294 77.915 94.1595 77.9103 94.055C77.8675 93.0929 77.9084 92.1084 77.9049 91.1443L77.8991 84.3985L77.8997 62.5734C78.2908 62.5743 78.7099 62.6067 79.0966 62.5552C79.1228 61.9903 79.107 61.423 79.1006 60.8576C81.8902 60.8761 84.6899 60.8925 87.4793 60.8545Z" fill="#060607"/>
<path d="M82.9297 76.7812C84.0849 77.8569 85.4096 77.61 86.8755 77.8228C87.4782 77.9103 88.0289 78.0926 88.5952 78.3024C87.8823 79.9833 87.1662 81.6723 86.399 83.3302C85.3222 82.0563 84.7068 80.4257 84.0178 78.9364C83.6803 78.2069 83.3001 77.4953 82.9297 76.7812Z" fill="#C88818"/>
<path d="M87.4766 60.8545L88.8331 60.8516C89.5045 61.4879 91.883 62.7998 92.8755 62.8611C93.4515 63.6467 93.9415 63.9438 94.852 64.2699C94.2395 65.6238 93.7011 67.0229 93.0497 68.3574C92.6224 67.8306 92.1017 67.3623 91.6557 66.8466C89.9492 64.8734 88.665 63.1756 87.4766 60.8545Z" fill="#C88818"/>
<path d="M83.875 65.8203C85.0943 67.3995 87.4166 67.8873 89.2127 68.6667C90.2639 69.1229 91.2581 69.6844 92.1208 70.4317C91.6715 71.5061 91.1396 72.5461 90.6754 73.6147C90.3821 74.3044 90.0821 74.9913 89.7755 75.6754C89.6607 75.9342 89.563 76.2253 89.4227 76.4705C86.5467 73.7226 85.1064 69.4678 83.875 65.8203Z" fill="#F7BC30"/>
<defs>
<filter id="filter0_dd_500_4899" x="15" y="22" width="122" height="118" filterUnits="userSpaceOnUse" color-interpolation-filters="sRGB">
<feFlood flood-opacity="0" result="BackgroundImageFix"/>
<feColorMatrix in="SourceAlpha" type="matrix" values="0 0 0 0 0 0 0 0 0 0 0 0 0 0 0 0 0 0 127 0" result="hardAlpha"/>
<feOffset dy="1"/>
<feGaussianBlur stdDeviation="1.5"/>
<feColorMatrix type="matrix" values="0 0 0 0 0 0 0 0 0 0 0 0 0 0 0 0 0 0 0.3 0"/>
<feBlend mode="normal" in2="BackgroundImageFix" result="effect1_dropShadow_500_4899"/>
<feColorMatrix in="SourceAlpha" type="matrix" values="0 0 0 0 0 0 0 0 0 0 0 0 0 0 0 0 0 0 127 0" result="hardAlpha"/>
<feMorphology radius="3" operator="dilate" in="SourceAlpha" result="effect2_dropShadow_500_4899"/>
<feOffset dy="4"/>
<feGaussianBlur stdDeviation="4"/>
<feColorMatrix type="matrix" values="0 0 0 0 0 0 0 0 0 0 0 0 0 0 0 0 0 0 0.15 0"/>
<feBlend mode="normal" in2="effect1_dropShadow_500_4899" result="effect2_dropShadow_500_4899"/>
<feBlend mode="normal" in="SourceGraphic" in2="effect2_dropShadow_500_4899" result="shape"/>
</filter>
<linearGradient id="paint0_linear_500_4899" x1="99.5" y1="29" x2="26" y2="152" gradientUnits="userSpaceOnUse">
<stop stop-color="#151515"/>
<stop offset="1" stop-color="#1F1D15"/>
</linearGradient>
<linearGradient id="paint1_linear_500_4899" x1="16.5" y1="6.5" x2="127" y2="197.5" gradientUnits="userSpaceOnUse">
<stop stop-color="#435257"/>
<stop offset="1" stop-color="#6D8C99"/>
</linearGradient>
<linearGradient id="paint2_linear_500_4899" x1="95.3289" y1="88.646" x2="93.4518" y2="64.4319" gradientUnits="userSpaceOnUse">
<stop stop-color="#FCEFDA"/>
<stop offset="1" stop-color="white"/>
</linearGradient>
<linearGradient id="paint3_linear_500_4899" x1="60.0244" y1="91.771" x2="48.0407" y2="68.2781" gradientUnits="userSpaceOnUse">
<stop stop-color="#FFEFD0"/>
<stop offset="1" stop-color="#FEFEF7"/>
</linearGradient>
</defs>
</svg>
