<svg width="151" height="153" viewBox="0 0 151 153" fill="none" xmlns="http://www.w3.org/2000/svg">
<ellipse cx="75.5" cy="76.9336" rx="59.5" ry="61" fill="#D8B431"/>
<g filter="url(#filter0_dd_500_4898)">
<ellipse cx="76" cy="76" rx="50" ry="48" fill="url(#paint0_linear_500_4898)"/>
<path d="M125.5 76C125.5 102.214 103.358 123.5 76 123.5C48.6425 123.5 26.5 102.214 26.5 76C26.5 49.7855 48.6425 28.5 76 28.5C103.358 28.5 125.5 49.7855 125.5 76Z" stroke="#3C3F33"/>
</g>
<path d="M85.293 0.0193243C87.1605 -0.259089 86.2512 2.54017 86.2255 3.95342C86.155 7.80078 85.9882 11.8226 86.631 15.6221C89.8057 17.0505 93.4909 17.4711 96.7942 18.6281C101.246 20.1867 105.403 22.4089 109.723 24.2706C113.799 22.1421 117.533 17.1695 121.422 14.2567C126.803 18.3442 132.414 24.6604 137.927 29.2386C135.713 31.4533 128.788 38.3587 127.35 40.7565C128.611 44.5499 131.583 47.559 133.214 51.2025C134.801 54.7478 135.302 58.7858 136.828 62.1494C140.83 63.3594 146.566 62.7971 150.827 62.8772C151.036 71.2629 151.088 79.8055 150.801 88.1887C148.43 88.2396 138.915 87.6369 137.52 88.7894C136.649 89.5081 133.788 99.4508 132.658 101.853C126.867 114.173 125.902 109.93 136.445 121.265C132.508 126.147 123.557 133.803 118.758 138.159C116.171 135.721 114.024 132.612 111.318 130.368C108.93 128.388 98.3906 134.862 94.0925 135.725C91.1797 136.31 87.2017 135.965 86.4792 139.524C85.8056 142.841 86.1967 149.336 86.2049 152.997H66.1862L64.3079 153C63.9476 150.063 63.8838 146.967 64.0567 144.011C64.3475 139.052 65.4524 137.116 59.1504 136.082C52.7001 135.024 48.1648 131.613 42.293 129.708C38.6654 131.301 35.6884 135.389 33.4518 138.539C27.2301 132.671 20.7515 127.023 14.59 121.223C17.5738 117.752 21.5713 115.517 23.6221 111.273C21.7175 105.952 17.7132 102.004 15.7134 95.4143C12.5732 85.0701 11.8857 88.747 0 88.054L0.350353 62.6795C14.7645 63.5849 12.9371 64.2996 16.4545 54.311C18.0838 49.6834 20.9749 45.9914 23.3087 41.7355C25.1315 38.4116 16.4601 32.4843 13.9822 30.2857C19.4671 25.0493 25.0671 19.9405 30.6096 14.7641C32.7833 16.4624 39.4909 23.2744 41.4737 23.8444C42.6208 24.1737 52.6415 18.7396 55.46 17.9175C58.1638 17.1286 61.1332 16.7882 63.6311 15.4662C64.4684 11.3102 64.0145 4.47091 63.9883 0.0798465C71.0952 0.232167 78.1918 0.490408 85.293 0.0193243ZM73.1701 30.5944C46.0981 32.2901 26.9409 54.1279 28.688 80.5747C30.3286 105.407 53.6537 123.999 78.4939 123.028C120.596 119.819 138.918 68.4228 106.375 41.4969C97.349 34.0286 85.0815 29.4656 73.1701 30.5944Z" fill="url(#paint1_linear_500_4898)"/>
<path d="M74.3359 55.4883C74.6189 55.5286 74.9032 55.5514 75.1888 55.5564C75.4745 55.5615 75.7594 55.5489 76.0435 55.5186L76.0584 57.1708L74.3436 57.173L74.3359 55.4883Z" fill="#CC931F"/>
<path d="M85.8798 47.6875C86.4568 47.9039 87.0184 48.2068 87.5754 48.4729C87.3618 48.9311 87.111 49.3715 86.8695 49.815L86.8323 49.8572C86.6103 49.868 85.5948 49.2996 85.2656 49.1755C85.4767 48.6822 85.6815 48.1862 85.8798 47.6875Z" fill="#9B610E"/>
<path d="M47.5918 79.5536C48.1289 79.538 48.6705 79.5541 49.208 79.5562L49.2012 81.3364L47.5783 81.3428C47.5772 80.7463 47.5817 80.1499 47.5918 79.5536Z" fill="#814903"/>
<path d="M64.8046 47.6211C64.9569 47.7598 65.3561 48.8957 65.464 49.1654C64.9317 49.3761 64.4123 49.6186 63.8906 49.8546C63.6202 49.3619 63.4083 48.7711 63.2188 48.2409C63.7408 48.0212 64.2769 47.8272 64.8046 47.6211Z" fill="#B17613"/>
<path d="M89.6034 49.6836C90.0929 49.8947 90.7043 50.411 91.1505 50.7345C90.8326 51.1567 90.5271 51.588 90.2341 52.0284L90.1848 52.0399C89.6747 51.7246 89.198 51.3359 88.6953 51.0034C89.0088 50.5721 89.303 50.1244 89.6034 49.6836Z" fill="#B17613"/>
<path d="M92.8305 52.2773C93.3223 52.6734 93.7734 53.1908 94.227 53.6355C93.862 54.0151 93.5096 54.4063 93.1698 54.8092L93.1178 54.8198C92.645 54.4207 92.2224 53.8925 91.7969 53.4387C92.1666 53.0745 92.5111 52.6874 92.8305 52.2773Z" fill="#9B610E"/>
<path d="M57.3932 51.668C57.5983 51.7546 58.3055 52.7202 58.4989 52.9559C58.0619 53.3486 57.6281 53.7448 57.1974 54.1447C56.8 53.7114 56.4265 53.2504 56.0469 52.8012L57.3932 51.668Z" fill="#B17613"/>
<path d="M60.9744 49.293C61.1695 49.4101 61.7359 50.5106 61.8808 50.763C61.3747 51.0775 60.8576 51.3638 60.3668 51.704C60.04 51.244 59.7411 50.7565 59.4297 50.2852C59.9548 49.971 60.4635 49.6299 60.9744 49.293Z" fill="#B17613"/>
<path d="M86.752 102.949C86.9495 103.118 87.2248 104.175 87.3185 104.465C86.7192 104.691 86.1226 104.923 85.5287 105.162L85.5139 105.159C85.3481 105.01 85.1085 103.888 85.0312 103.6L86.752 102.949Z" fill="#9B610E"/>
<path d="M90.1984 101.137C90.4226 101.285 90.8848 102.261 91.0443 102.551C90.4977 102.857 89.9462 103.157 89.4145 103.489L89.3253 103.522C89.1384 103.398 88.7199 102.346 88.6172 102.089C89.1579 101.795 89.6849 101.477 90.1984 101.137Z" fill="#9B610E"/>
<path d="M93.338 98.8047C93.6607 99.0463 94.054 99.7286 94.2998 100.074C93.7856 100.479 93.2822 100.897 92.7896 101.328C92.4356 100.941 92.132 100.428 91.8281 99.9943C92.3171 99.582 92.8338 99.198 93.338 98.8047Z" fill="#9B610E"/>
<path d="M60.6502 100.891C61.1758 101.212 61.7232 101.5 62.2625 101.797C62.0563 102.215 61.7632 102.972 61.4839 103.31C60.9083 103.008 60.3381 102.696 59.7734 102.374C60.0629 101.878 60.3551 101.383 60.6502 100.891Z" fill="#9B610E"/>
<path d="M57.3958 98.3906C57.8507 98.8459 58.3425 99.2611 58.8257 99.6851C58.4439 100.138 58.0735 100.6 57.7146 101.071C57.2491 100.606 56.7376 100.188 56.25 99.7476C56.6532 99.3137 57.0351 98.8614 57.3958 98.3906Z" fill="#9B610E"/>
<path d="M63.9128 102.48C64.5094 102.694 65.1065 102.892 65.7176 103.06C65.5357 103.626 65.426 104.217 65.2271 104.778C64.6087 104.558 63.9809 104.369 63.3438 104.213C63.5485 103.639 63.7442 103.067 63.9128 102.48Z" fill="#9B610E"/>
<path d="M74.3376 59.5147L76.0699 59.4961C76.0724 60.1823 76.0848 60.8704 76.0625 61.5562C75.4855 61.5205 74.9082 61.5612 74.3312 61.5831C74.3224 60.8943 74.335 60.2038 74.3376 59.5147Z" fill="#CC931F"/>
<path d="M74.4857 94.4258C75.0543 94.4426 75.623 94.452 76.1919 94.4539L76.1932 96.6191C75.6564 96.6108 75.0133 96.5507 74.4844 96.6578C74.5075 95.9165 74.4858 95.1679 74.4857 94.4258Z" fill="#CC931F"/>
<path d="M47.6016 70.6367C47.9948 70.6719 48.3888 70.7162 48.7839 70.711L48.7531 76.2897C49.4007 76.2899 50.0608 76.3178 50.7068 76.2832L50.6102 76.3386C50.5288 76.6532 50.5797 77.0683 50.5791 77.3947C49.6013 77.4303 48.6149 77.4059 47.6362 77.4054C47.6602 75.1532 47.6346 72.8891 47.6016 70.6367Z" fill="#814903"/>
<path d="M71.2578 87.4492C71.757 87.7359 72.9048 89.0738 73.3763 89.5582C74.2154 89.5596 75.0362 89.3877 75.871 89.3265C76.4843 89.2816 80.468 89.1966 80.6947 89.3307C80.7411 89.3581 80.7978 89.4173 80.8371 89.4564C79.3371 90.0426 77.8485 90.4356 76.2342 90.5067C76.2322 90.9252 76.2518 91.3574 76.2001 91.7728L76.1845 92.2863C75.6264 92.3462 75.0474 92.3173 74.4869 92.3048L74.4822 91.763C74.4466 91.3298 74.457 90.8824 74.4485 90.4474L73.8099 90.3823C73.858 90.3699 73.9033 90.3532 73.95 90.3364C73.9299 90.0759 71.5914 87.8784 71.2578 87.4492Z" fill="#514C41"/>
<path d="M74.4802 90.4531C75.0511 90.482 75.6229 90.479 76.1943 90.4813C76.1914 90.9092 76.1735 91.343 76.1944 91.7702L76.1788 92.2837C75.6207 92.3435 75.0417 92.3147 74.4812 92.3022L74.4766 91.7604C74.4891 91.3247 74.4903 90.8889 74.4802 90.4531Z" fill="#FCBC18"/>
<path d="M101.847 70.7133C102.243 70.7041 102.772 70.6536 103.145 70.666L103.033 70.737C102.943 71.8106 103.025 72.941 103.023 74.0214C103.018 76.7299 103.06 79.4416 103.027 82.1497C102.629 82.1354 102.235 82.1266 101.837 82.1383C101.883 81.6695 101.846 81.1637 101.844 80.6907L101.828 77.9569L101.847 70.7133Z" fill="#B17613"/>
<path d="M89.3988 76.4105C92.206 76.4051 95.0191 76.4599 97.8253 76.4215C97.8252 77.2329 97.7454 82.8853 97.8739 83.169C97.4966 83.4088 97.116 83.643 96.732 83.8716C96.7692 81.7467 96.7431 79.6166 96.7418 77.4913C94.7189 77.5204 92.696 77.5322 90.6729 77.5265C90.2412 77.4981 89.7927 77.5184 89.3594 77.5175C89.3809 77.2313 89.3862 76.9469 89.389 76.6599L89.3988 76.4105Z" fill="#B17613"/>
<path d="M74.3326 55.4874C72.3363 55.1842 70.541 54.4065 69.0943 52.9511C69.038 52.8944 68.9824 52.837 68.9276 52.779C68.8727 52.7209 68.8185 52.6621 68.7651 52.6026C68.7116 52.5431 68.6589 52.483 68.6069 52.4223C68.555 52.3615 68.5037 52.3001 68.4533 52.238C68.4027 52.176 68.353 52.1134 68.3041 52.05C68.2552 51.9868 68.207 51.9229 68.1596 51.8583C68.1122 51.7938 68.0656 51.7288 68.0199 51.6631C67.974 51.5974 67.929 51.5312 67.8849 51.4644C67.8407 51.3976 67.7973 51.3302 67.7548 51.2624C67.7123 51.1945 67.6706 51.1261 67.6297 51.0571C67.5889 50.9882 67.5489 50.9188 67.5097 50.8488C67.4706 50.779 67.4323 50.7086 67.3948 50.6377C67.3574 50.5668 67.3208 50.4954 67.2852 50.4236C67.2495 50.3518 67.2146 50.2796 67.1807 50.207C67.1468 50.1343 67.1137 50.0612 67.0816 49.9877C67.0495 49.9142 67.0183 49.8403 66.988 49.766C66.9576 49.6917 66.9282 49.617 66.8997 49.542C66.8712 49.467 66.8436 49.3916 66.8169 49.3159C66.7902 49.2402 66.7645 49.1642 66.7397 49.0878C66.7149 49.0115 66.691 48.9348 66.668 48.8579C66.6451 48.7809 66.6232 48.7037 66.6021 48.6262C66.5811 48.5487 66.561 48.471 66.5418 48.3929C66.5227 48.3149 66.5045 48.2367 66.4873 48.1582C66.47 48.0797 66.4537 48.0011 66.4384 47.9222C66.4231 47.8434 66.4088 47.7643 66.3954 47.6851C66.382 47.6059 66.3696 47.5265 66.3582 47.4469C66.3468 47.3674 66.3363 47.2878 66.3268 47.208C66.3173 47.1281 66.3088 47.0482 66.3013 46.9682C66.2937 46.8882 66.2872 46.8081 66.2816 46.7279C66.276 46.6478 66.2714 46.5675 66.2678 46.4872C66.2642 46.407 66.2615 46.3266 66.2599 46.2462C66.2582 46.1659 66.2576 46.0855 66.2579 46.0051C66.2658 43.5666 67.2533 41.3058 68.9704 39.6077C69.0243 39.5538 69.0789 39.5007 69.1341 39.4482C69.1893 39.3957 69.2452 39.3439 69.3017 39.2928C69.3582 39.2418 69.4153 39.1914 69.473 39.1418C69.5308 39.0921 69.5891 39.0432 69.6481 38.9951C69.707 38.9469 69.7665 38.8995 69.8266 38.8528C69.8867 38.8061 69.9474 38.7602 70.0086 38.7151C70.0699 38.67 70.1317 38.6256 70.194 38.582C70.2563 38.5385 70.3192 38.4957 70.3825 38.4537C70.4459 38.4117 70.5098 38.3705 70.5742 38.3301C70.6386 38.2897 70.7035 38.2502 70.7689 38.2114C70.8342 38.1727 70.9001 38.1348 70.9664 38.0977C71.0327 38.0606 71.0994 38.0243 71.1666 37.9889C71.2338 37.9535 71.3014 37.919 71.3695 37.8853C71.4376 37.8516 71.506 37.8187 71.5748 37.7867C71.6437 37.7548 71.7129 37.7237 71.7826 37.6934C71.8522 37.6632 71.9222 37.6339 71.9925 37.6054C72.0629 37.5769 72.1335 37.5494 72.2045 37.5227C72.2756 37.496 72.3469 37.4702 72.4185 37.4453C72.4902 37.4204 72.5621 37.3964 72.6344 37.3734C72.7066 37.3503 72.7791 37.3281 72.8519 37.3069C72.9247 37.2857 72.9978 37.2653 73.0711 37.2459C73.1444 37.2265 73.2179 37.208 73.2917 37.1905C73.3654 37.1729 73.4394 37.1563 73.5135 37.1406C73.5876 37.125 73.662 37.1102 73.7365 37.0964C73.811 37.0826 73.8857 37.0697 73.9605 37.0578C74.0354 37.0459 74.1103 37.0349 74.1854 37.0248C74.2606 37.0148 74.3358 37.0057 74.4111 36.9975C74.4864 36.9894 74.5618 36.9822 74.6373 36.976C74.7128 36.9697 74.7884 36.9644 74.864 36.9601C74.9397 36.9558 75.0154 36.9524 75.0911 36.95C75.1668 36.9475 75.2425 36.946 75.3183 36.9455C75.394 36.945 75.4698 36.9454 75.5455 36.9468C75.6189 36.9478 75.6921 36.9496 75.7654 36.9523C75.8386 36.9551 75.9119 36.9588 75.985 36.9633C76.0582 36.9679 76.1313 36.9734 76.2044 36.9798C76.2774 36.9862 76.3504 36.9935 76.4232 37.0017C76.4961 37.0099 76.5689 37.019 76.6415 37.029C76.7141 37.039 76.7866 37.05 76.859 37.0618C76.9314 37.0736 77.0036 37.0863 77.0757 37.1C77.1477 37.1136 77.2196 37.1281 77.2913 37.1435C77.3631 37.1589 77.4346 37.1752 77.5058 37.1924C77.5772 37.2096 77.6483 37.2277 77.7192 37.2467C77.7901 37.2656 77.8607 37.2855 77.9311 37.3062C78.0015 37.3269 78.0716 37.3485 78.1415 37.371C78.2114 37.3934 78.281 37.4168 78.3503 37.441C78.4196 37.4652 78.4885 37.4902 78.5572 37.5161C78.6259 37.5421 78.6943 37.5688 78.7624 37.5964C78.8304 37.6241 78.8981 37.6525 78.9655 37.6818C79.0328 37.7111 79.0998 37.7413 79.1664 37.7722C79.233 37.8032 79.2993 37.835 79.3651 37.8676C79.431 37.9002 79.4964 37.9337 79.5614 37.9679C79.6265 38.0022 79.6911 38.0372 79.7553 38.0731C79.8194 38.1089 79.8832 38.1456 79.9465 38.183C80.0098 38.2205 80.0726 38.2587 80.1349 38.2977C80.1973 38.3367 80.2592 38.3765 80.3206 38.4171C80.3819 38.4576 80.4428 38.4989 80.5033 38.541C80.5637 38.583 80.6235 38.6259 80.6829 38.6694C80.7422 38.713 80.801 38.7573 80.8593 38.8023C80.9176 38.8473 80.9753 38.893 81.0325 38.9395C81.0896 38.9859 81.1462 39.0331 81.2023 39.081C81.2582 39.1288 81.3137 39.1774 81.3685 39.2266C81.4234 39.2759 81.4776 39.3258 81.5312 39.3764C81.5848 39.427 81.6379 39.4782 81.6902 39.5302C81.7426 39.5821 81.7943 39.6346 81.8454 39.6878C83.8067 41.7664 84.4299 43.9786 84.3664 46.7965C83.9917 46.7167 80.3702 42.5621 79.5551 42.0839L79.5034 42.0407C79.2558 41.8307 79.0632 41.5611 78.8097 41.352C77.6344 40.3824 76.2123 39.9506 74.7043 40.073C73.2223 40.1932 71.8496 40.9878 70.9047 42.1343C70.4815 42.6477 69.6576 44.098 69.7067 44.7576C70.1659 45.3158 70.8744 45.62 71.3897 46.1288C70.8228 46.4261 70.2194 46.6972 69.6776 47.0369C70.1453 48.6108 70.6956 49.5369 71.9305 50.6241C72.2092 51.0357 72.7244 51.3717 73.0837 51.7171C73.476 52.0944 76.699 55.2524 76.7165 55.4326C76.491 55.4591 76.2643 55.4815 76.0401 55.5177C75.756 55.548 75.4711 55.5606 75.1854 55.5556C74.8998 55.5505 74.6155 55.5277 74.3326 55.4874Z" fill="#FCBC18"/>
<path d="M84.4528 71.6055C84.6313 71.7932 84.7635 72.0138 84.9606 72.1826C85.2197 72.4142 85.4359 72.6945 85.6846 72.9384C86.5833 73.822 87.4713 74.7164 88.3487 75.6217C88.6651 75.9439 89.0187 76.4204 89.3904 76.66C89.3876 76.9469 89.3823 77.2314 89.3608 77.5176C89.7941 77.5184 90.2426 77.4982 90.6744 77.5266C90.2293 77.5492 89.7839 77.5544 89.3384 77.5421C89.3272 77.6612 89.3146 77.7801 89.3006 77.899C89.2865 78.0178 89.271 78.1364 89.2541 78.2548C89.2372 78.3733 89.2189 78.4915 89.1991 78.6095C89.1793 78.7274 89.158 78.8451 89.1354 78.9626C89.1127 79.08 89.0887 79.1972 89.0632 79.314C89.0378 79.4309 89.0109 79.5474 88.9826 79.6636C88.9543 79.7798 88.9246 79.8956 88.8935 80.011C88.8624 80.1265 88.8299 80.2415 88.796 80.3562C88.7621 80.4708 88.7268 80.585 88.6901 80.6987C88.6535 80.8125 88.6155 80.9258 88.5761 81.0387C88.5367 81.1515 88.4959 81.2638 88.4538 81.3756C88.4117 81.4874 88.3682 81.5987 88.3235 81.7094C88.2786 81.8201 88.2325 81.9302 88.185 82.0398C88.1375 82.1494 88.0887 82.2584 88.0385 82.3668C87.9885 82.4752 87.937 82.5829 87.8843 82.69C87.8316 82.7971 87.7775 82.9035 87.7223 83.0093C87.6669 83.1151 87.6104 83.2201 87.5525 83.3245C87.4947 83.4289 87.4355 83.5325 87.3752 83.6353C87.3148 83.7383 87.2532 83.8404 87.1904 83.9417C87.1276 84.0431 87.0636 84.1437 86.9983 84.2434C86.933 84.3433 86.8665 84.4422 86.7989 84.5403C86.7312 84.6385 86.6623 84.7358 86.5924 84.8322C86.5223 84.9286 86.4511 85.0241 86.3788 85.1187C86.3065 85.2134 86.233 85.3071 86.1584 85.4C86.0838 85.4928 86.008 85.5847 85.9312 85.6756C85.8544 85.7666 85.7765 85.8566 85.6974 85.9456C85.6184 86.0346 85.5384 86.1227 85.4573 86.2097C85.3761 86.2967 85.2939 86.3827 85.2107 86.4677C85.1275 86.5528 85.0432 86.6367 84.958 86.7196C84.8727 86.8025 84.7865 86.8844 84.6993 86.9651C84.612 87.0459 84.5238 87.1255 84.4346 87.2041C84.3454 87.2827 84.2553 87.3602 84.1643 87.4365C83.1444 88.2784 82.0216 88.8917 80.8367 89.4553C80.7974 89.4163 80.7407 89.357 80.6943 89.3296C80.4675 89.1955 76.4839 89.2805 75.8705 89.3254C75.0357 89.3866 74.215 89.5585 73.3759 89.5572C72.9043 89.0728 71.7566 87.7349 71.2574 87.4482C70.6313 86.7673 69.9676 86.1105 69.3111 85.4596C69.0063 85.1573 68.614 84.8565 68.375 84.504C68.6053 84.6274 68.8407 84.7347 69.1021 84.763C69.5253 84.8089 69.9779 84.7761 70.4034 84.773L72.7294 84.7581L79.8815 84.7748C80.5353 84.7752 81.1025 84.7812 81.592 84.2674C81.8381 84.0091 81.9547 83.7211 82.0103 83.368C82.1318 82.5953 82.0388 81.6515 82.0356 80.86L82.0248 75.8366L82.5411 75.839L84.4605 75.8391L84.4528 71.6055Z" fill="url(#paint2_linear_500_4898)"/>
<path d="M101.833 82.1383C102.231 82.1265 102.625 82.1353 103.023 82.1496C105.92 82.5647 108.197 83.5554 109.991 85.9865C110.76 87.0282 111.516 88.4556 111.707 89.7532C111.381 89.7495 108.924 87.0591 108.381 86.7325C108.382 87.6438 108.425 88.5838 108.371 89.4922C104.346 89.4126 100.312 89.4644 96.2862 89.4644C96.2905 90.1921 96.3311 90.9454 96.2749 91.67C96.1904 92.5208 96.2445 93.433 96.2404 94.289C96.2369 95.0438 96.1644 95.878 96.2553 96.6256C96.3362 96.7415 96.4367 96.8612 96.5018 96.9861C96.771 97.4725 97.3375 97.9244 97.7303 98.3215C98.2763 98.8736 98.8019 99.4455 99.3453 100C99.7012 100.363 100.092 100.715 100.425 101.098C100.498 101.181 100.543 101.238 100.566 101.347L100.513 101.41C100.444 101.399 100.375 101.387 100.307 101.375C100.238 101.362 100.169 101.349 100.101 101.335C100.033 101.321 99.9643 101.306 99.8963 101.29C99.8282 101.274 99.7604 101.258 99.6927 101.24C99.6251 101.223 99.5576 101.205 99.4904 101.186C99.4231 101.167 99.3561 101.147 99.2894 101.126C99.2227 101.105 99.1561 101.084 99.0898 101.062C99.0236 101.039 98.9576 101.016 98.8919 100.993C98.8262 100.969 98.7608 100.944 98.6957 100.919C98.6306 100.893 98.5657 100.867 98.5012 100.84C98.4367 100.813 98.3725 100.785 98.3086 100.757C98.2448 100.728 98.1813 100.699 98.1181 100.669C98.0549 100.639 97.9921 100.608 97.9297 100.576C97.8672 100.545 97.8052 100.512 97.7435 100.479C97.6818 100.446 97.6205 100.412 97.5597 100.378C97.4988 100.343 97.4383 100.308 97.3783 100.272C97.3183 100.236 97.2586 100.199 97.1994 100.162C97.1402 100.124 97.0815 100.086 97.0232 100.047C96.9649 100.008 96.9071 99.9685 96.8497 99.9282C96.7924 99.8879 96.7356 99.847 96.6792 99.8053C96.6228 99.7637 96.5669 99.7213 96.5115 99.6783C96.4561 99.6353 96.4012 99.5916 96.3469 99.5473C96.2925 99.503 96.2387 99.458 96.1853 99.4124C96.1321 99.3667 96.0793 99.3205 96.0271 99.2736C95.9749 99.2267 95.9233 99.1792 95.8721 99.131C95.821 99.0829 95.7705 99.0341 95.7206 98.9848C95.6706 98.9354 95.6213 98.8854 95.5726 98.8348C95.5238 98.7843 95.4756 98.7332 95.428 98.6814C95.3805 98.6297 95.3335 98.5775 95.2872 98.5246C95.2409 98.4718 95.1952 98.4184 95.1501 98.3644C95.105 98.3105 95.0606 98.256 95.0168 98.2009C94.973 98.1459 94.9299 98.0903 94.8874 98.0343C94.8365 97.9683 94.7864 97.9016 94.737 97.8344C94.6878 97.7671 94.6393 97.6992 94.5917 97.6307C94.5441 97.5622 94.4973 97.4931 94.4514 97.4235C94.4054 97.3539 94.3603 97.2836 94.3161 97.2128C94.2719 97.1421 94.2286 97.0707 94.1861 96.9989C94.1436 96.927 94.1021 96.8546 94.0614 96.7817C94.0207 96.7088 93.9809 96.6354 93.942 96.5614C93.9031 96.4875 93.8651 96.4131 93.828 96.3382C93.7909 96.2633 93.7547 96.188 93.7195 96.1123C93.6843 96.0365 93.65 95.9603 93.6166 95.8837C93.5832 95.8071 93.5508 95.73 93.5193 95.6525C93.4878 95.5751 93.4573 95.4972 93.4278 95.419C93.3982 95.3408 93.3695 95.2623 93.3419 95.1834C93.3142 95.1044 93.2875 95.0251 93.2619 94.9456C93.2361 94.8659 93.2114 94.786 93.1876 94.7059C93.1638 94.6256 93.1411 94.5451 93.1193 94.4643C93.0975 94.3835 93.0767 94.3025 93.0569 94.2211C93.0371 94.1398 93.0183 94.0583 93.0005 93.9765C92.9827 93.8947 92.9659 93.8127 92.95 93.7305C92.9343 93.6483 92.9195 93.5659 92.9057 93.4834C92.8919 93.4008 92.8791 93.318 92.8674 93.2351C92.8556 93.1522 92.8448 93.0692 92.8351 92.9861C92.8254 92.9029 92.8167 92.8196 92.809 92.7362C92.8013 92.6528 92.7947 92.5694 92.789 92.4859C92.7834 92.4023 92.7787 92.3187 92.7751 92.235C92.7716 92.1513 92.769 92.0676 92.7674 91.9839C92.7659 91.9002 92.7653 91.8165 92.7658 91.7327C92.7663 91.6489 92.7679 91.5652 92.7704 91.4815C92.773 91.3978 92.7765 91.3141 92.7811 91.2305C92.7857 91.1469 92.7913 91.0634 92.798 90.9799C92.8046 90.8964 92.8123 90.813 92.821 90.7297C92.8297 90.6464 92.8394 90.5633 92.8501 90.4803C93.2026 87.7901 94.6246 85.5135 96.7268 83.8723C97.1108 83.6437 97.4914 83.4095 97.8687 83.1697C99.1074 82.5214 100.451 82.235 101.833 82.1383Z" fill="#FCBC18"/>
<path d="M96.6437 85.9378C98.7773 85.8805 100.927 85.9427 103.062 85.9419C104.561 85.9413 106.227 85.8566 107.707 85.937C107.859 85.9452 108.013 85.9438 108.136 86.0494C108.336 86.2215 108.373 86.4816 108.382 86.7313C108.383 87.6426 108.427 88.5826 108.372 89.491C104.347 89.4114 100.314 89.4632 96.2879 89.4632C96.1878 88.5684 96.2605 87.308 96.2517 86.3607C96.3713 86.1913 96.4811 86.0674 96.6437 85.9378Z" fill="#FAFAF7"/>
<path d="M50.7049 76.2852C54.1382 76.3652 57.5795 76.2528 61.014 76.2966C61.1513 76.3118 61.2152 76.2985 61.3205 76.3929C61.4344 76.7508 61.3854 77.1455 61.4239 77.5197C58.2247 77.5396 55.0256 77.5387 51.8264 77.5169L51.8279 83.4179C54.1269 84.4747 55.9203 86.2786 56.811 88.6854C57.3267 90.0792 57.4527 91.529 57.3729 93.0046C57.3348 93.0029 57.292 92.983 57.2634 92.9587C56.9926 92.7286 56.7417 92.3372 56.5072 92.0588L54.3376 89.4844C54.0052 89.0947 53.6649 88.622 53.2715 88.3011C52.7905 87.8213 52.3139 87.3354 51.8124 86.8774C51.3907 87.2136 50.9739 87.577 50.5313 87.8835C50.1879 87.6932 49.873 87.5462 49.4935 87.4483C49.4195 86.8555 49.3354 86.2642 49.2413 85.6744C48.6147 85.6769 47.9756 85.7003 47.3508 85.6457C47.2102 86.2566 47.16 86.8808 47.0348 87.4934L46.0967 87.9031C45.6004 87.6182 45.0952 87.3415 44.6242 87.0147C44.1868 87.4999 43.7563 87.9912 43.3327 88.4888C43.6717 88.9183 43.9812 89.3803 44.3529 89.7813C44.1462 90.2042 43.9541 90.6246 43.8168 91.077C43.2548 91.184 42.6922 91.2876 42.1289 91.3878L42.1042 93.173C42.6826 93.2868 43.275 93.3524 43.8488 93.4814C43.9694 93.859 44.1261 94.2043 44.319 94.5493C43.9946 95.0121 43.6697 95.4719 43.3783 95.957C43.7995 96.3801 44.2051 96.8179 44.5952 97.2705C45.1558 97.624 45.9309 98.5835 46.4225 99.0899C47.1444 99.8335 47.969 100.562 48.6055 101.38C48.3398 101.379 48.0728 101.372 47.8076 101.394C47.2383 101.398 46.6374 101.285 46.0854 101.153C43.7393 100.591 41.632 99.0045 40.3715 96.9303C40.3323 96.8654 40.2938 96.8001 40.2562 96.7343C40.2185 96.6685 40.1817 96.6023 40.1457 96.5356C40.1096 96.4688 40.0744 96.4017 40.04 96.3341C40.0057 96.2664 39.9721 96.1984 39.9394 96.13C39.9067 96.0615 39.8748 95.9927 39.8437 95.9234C39.8127 95.8542 39.7825 95.7845 39.7532 95.7145C39.7239 95.6445 39.6954 95.5742 39.6678 95.5034C39.6402 95.4327 39.6134 95.3617 39.5876 95.2903C39.5617 95.2189 39.5367 95.1472 39.5126 95.0752C39.4885 95.0032 39.4653 94.9309 39.4429 94.8583C39.4206 94.7857 39.3991 94.7128 39.3786 94.6396C39.358 94.5665 39.3383 94.4932 39.3196 94.4196C39.3008 94.3459 39.2829 94.272 39.266 94.198C39.249 94.1239 39.233 94.0496 39.2179 93.9751C39.2027 93.9007 39.1885 93.826 39.1752 93.7512C39.1619 93.6764 39.1495 93.6014 39.138 93.5262C39.1265 93.451 39.116 93.3758 39.1063 93.3004C39.0967 93.225 39.088 93.1495 39.0802 93.0738C39.0724 92.9982 39.0656 92.9225 39.0596 92.8467C39.0537 92.7709 39.0487 92.695 39.0446 92.6191C39.0406 92.5432 39.0374 92.4672 39.0352 92.3912C39.033 92.3152 39.0317 92.2391 39.0314 92.1631C39.031 92.0871 39.0316 92.0111 39.0331 91.935C39.0346 91.859 39.037 91.783 39.0404 91.707C39.0438 91.6311 39.0481 91.5552 39.0533 91.4793C39.0585 91.4035 39.0647 91.3277 39.0717 91.252C39.0788 91.1763 39.0868 91.1007 39.0958 91.0252C39.1047 90.9497 39.1145 90.8744 39.1253 90.7991C39.1361 90.7239 39.1478 90.6487 39.1604 90.5738C39.173 90.4988 39.1866 90.424 39.201 90.3494C39.2154 90.2748 39.2308 90.2003 39.2471 90.1261C39.2633 90.0519 39.2805 89.9779 39.2986 89.9041C39.8911 87.4469 41.3327 85.3513 43.4838 84.0398C45.641 82.7246 48.1342 82.3693 50.5728 82.9799C50.5949 81.1198 50.5762 79.257 50.5771 77.3967C50.5777 77.0703 50.5268 76.6552 50.6082 76.3406L50.7049 76.2852Z" fill="#FCBC18"/>
<path d="M69.7088 44.7596C69.6597 44.1 70.4836 42.6497 70.9068 42.1363C71.8517 40.9898 73.2244 40.1952 74.7064 40.075C76.2144 39.9526 77.6365 40.3844 78.8118 41.354C79.0653 41.5631 79.2579 41.8327 79.5055 42.0427L79.5572 42.0859C80.3723 42.5641 83.9938 46.7187 84.3685 46.7985C84.0908 49.5328 83.1014 51.8068 80.9513 53.5648C79.7746 54.5272 78.2243 55.235 76.7186 55.4346C76.7011 55.2544 73.4781 52.0964 73.0858 51.7191C72.7265 51.3737 72.2113 51.0377 71.9326 50.6261C70.6977 49.5389 70.1474 48.6128 69.6797 47.0389C70.2215 46.6992 70.8249 46.4281 71.3918 46.1308C70.8765 45.622 70.168 45.3178 69.7088 44.7596Z" fill="#FAFAF7"/>
<path d="M69.7109 44.7578C70.5027 45.0404 71.1871 45.5575 71.9651 45.872C71.7749 45.9565 71.5803 46.0361 71.394 46.129C70.8786 45.6202 70.1702 45.316 69.7109 44.7578Z" fill="#B17613"/>
<path d="M80.3376 43.353L80.4245 43.3438C80.8615 43.8797 81.0616 44.7285 81.1909 45.3971C80.5514 45.6767 79.8036 45.9418 79.227 46.3414C78.9487 46.1855 78.676 46.0265 78.375 45.9186C79.2182 45.6102 80.0191 45.1977 80.8133 44.7798C80.6647 44.2965 80.5235 43.8238 80.3376 43.353Z" fill="#B17613"/>
<path d="M73.8975 48.257C73.8371 48.2251 73.7781 48.1909 73.7203 48.1544C73.6626 48.1178 73.6063 48.079 73.5515 48.038C73.4968 47.997 73.4437 47.9539 73.3923 47.9088C73.3409 47.8636 73.2913 47.8164 73.2435 47.7673C73.1957 47.7182 73.1499 47.6673 73.106 47.6146C73.0621 47.5619 73.0203 47.5075 72.9807 47.4514C72.941 47.3954 72.9035 47.3379 72.8683 47.2789C72.833 47.22 72.8001 47.1597 72.7695 47.0981C72.4562 46.4689 72.3591 45.681 72.5829 45.0083C72.8192 44.298 73.3717 43.6969 74.0357 43.373C74.0758 43.353 74.1164 43.3341 74.1575 43.3162C74.1986 43.2983 74.24 43.2814 74.2819 43.2656C74.3238 43.2498 74.3661 43.2351 74.4087 43.2214C74.4513 43.2077 74.4943 43.1951 74.5375 43.1836C74.5807 43.1721 74.6242 43.1616 74.668 43.1523C74.7118 43.143 74.7557 43.1348 74.7999 43.1276C74.844 43.1205 74.8883 43.1145 74.9328 43.1096C74.9773 43.1047 75.0218 43.101 75.0665 43.0984C75.1111 43.0957 75.1557 43.0942 75.2004 43.0938C75.2452 43.0935 75.2899 43.0942 75.3346 43.0961C75.3793 43.0979 75.4239 43.1009 75.4684 43.105C75.5129 43.1091 75.5573 43.1143 75.6016 43.1207C75.6458 43.127 75.6899 43.1345 75.7339 43.1431C75.7778 43.1517 75.8215 43.1613 75.8648 43.1721C75.9083 43.1829 75.9514 43.1947 75.9943 43.2076C76.0371 43.2206 76.0796 43.2346 76.1218 43.2497C76.164 43.2652 76.2058 43.2818 76.2471 43.2995C76.2885 43.3171 76.3294 43.3357 76.3699 43.3554C76.4104 43.375 76.4504 43.3956 76.4899 43.4172C76.5293 43.4389 76.5682 43.4615 76.6067 43.485C76.645 43.5085 76.6828 43.533 76.72 43.5584C76.7573 43.5838 76.7939 43.6101 76.8298 43.6373C76.8657 43.6645 76.901 43.6926 76.9356 43.7216C76.9702 43.7506 77.0041 43.7803 77.0372 43.811C77.0704 43.8416 77.1028 43.873 77.1344 43.9052C77.1661 43.9375 77.1969 43.9705 77.227 44.0042C77.257 44.038 77.2862 44.0725 77.3146 44.1077C77.343 44.1428 77.3705 44.1787 77.3972 44.2153C77.4238 44.2518 77.4496 44.289 77.4744 44.3269C77.4993 44.3647 77.5232 44.4031 77.5462 44.4421C77.5693 44.4811 77.5913 44.5206 77.6124 44.5607C77.6335 44.6009 77.6536 44.6415 77.6728 44.6825C76.8365 44.2045 76.1093 43.7532 75.1072 44.0342C74.4552 44.217 73.9109 44.7309 73.5943 45.3264C73.3123 45.8568 73.1746 46.6329 73.3546 47.2179C73.4702 47.5937 73.8034 47.8942 73.8975 48.257Z" fill="#9B610E"/>
<path d="M73.8973 48.2587C73.8032 47.896 73.47 47.5954 73.3544 47.2196C73.1744 46.6347 73.3121 45.8586 73.5941 45.3281C73.9107 44.7327 74.455 44.2188 75.107 44.0359C76.1091 43.755 76.8363 44.2062 77.6726 44.6843C77.9865 45.2535 78.0803 45.9785 77.9069 46.6089C77.7075 47.3339 77.1566 47.9954 76.5062 48.3535C75.9375 48.6667 75.1784 48.767 74.5561 48.5722C74.3369 48.5037 74.0763 48.4035 73.8973 48.2587Z" fill="#CC931F"/>
<path d="M79.5543 42.0859C80.3693 42.5642 83.9909 46.7188 84.3656 46.7986C84.0879 49.5329 83.0985 51.8068 80.9484 53.5649C79.7716 54.5272 78.2214 55.2351 76.7157 55.4347C76.6981 55.2545 73.4752 52.0965 73.0829 51.7192C72.7235 51.3738 72.2084 51.0378 71.9297 50.6262C72.3691 50.9639 72.8442 51.1493 73.3237 51.4076C73.7554 51.497 74.1691 51.649 74.6069 51.721C75.6172 51.8871 76.7798 51.648 77.6876 51.1877C79.3411 50.349 80.1718 49.0018 80.7418 47.2782L80.7443 47.1946C80.5747 46.9411 79.5436 46.5087 79.2236 46.3418C79.8002 45.9421 80.548 45.6771 81.1875 45.3974C81.0581 44.7289 80.8581 43.8801 80.4211 43.3441L80.3342 43.3534C80.161 43.147 79.7718 42.3978 79.5543 42.0859Z" fill="#CC931F"/>
<path d="M80.7419 47.2773C80.9053 47.3868 81.0714 47.512 81.2552 47.5827C80.7441 49.3257 79.9579 50.7067 78.3347 51.5997C77.0472 52.3078 75.5078 52.3868 74.1155 51.9594C73.5401 51.7828 72.956 51.5082 72.5 51.1083C72.7702 51.2156 73.0324 51.3923 73.3238 51.4067C73.7555 51.4961 74.1692 51.6481 74.607 51.7201C75.6173 51.8862 76.7799 51.6471 77.6877 51.1868C79.3412 50.3481 80.1719 49.0009 80.7419 47.2773Z" fill="#B17613"/>
<path d="M47.3481 85.6445C47.9729 85.6991 48.612 85.6757 49.2386 85.6732C49.3327 86.263 49.4168 86.8543 49.4908 87.4471C49.8703 87.545 50.1852 87.6919 50.5286 87.8823C50.9712 87.5758 51.3881 87.2124 51.8097 86.8761C52.3112 87.3342 52.7878 87.8201 53.2688 88.2999C53.6622 88.6208 54.0025 89.0935 54.3349 89.4832L56.5045 92.0576C56.739 92.336 56.9899 92.7274 57.2607 92.9574C57.2893 92.9818 57.3321 93.0017 57.3702 93.0034C56.9773 95.752 56.0197 97.9445 53.7552 99.6437C52.3852 100.672 50.7696 101.229 49.0794 101.388C48.6801 101.425 48.2362 101.465 47.8377 101.399C47.8268 101.397 47.8159 101.395 47.805 101.393C48.0701 101.371 48.3371 101.378 48.6029 101.379C47.9663 100.561 47.1417 99.8322 46.4198 99.0887C45.9282 98.5823 45.1531 97.6228 44.5925 97.2693C44.2024 96.8167 43.7968 96.3788 43.3756 95.9558C43.667 95.4706 43.9919 95.0109 44.3163 94.5481C44.1234 94.2031 43.9667 93.8577 43.8462 93.4802C43.2723 93.3512 42.6799 93.2856 42.1016 93.1718L42.1263 91.3866C42.6895 91.2864 43.2521 91.1828 43.8141 91.0757C43.9514 90.6234 44.1435 90.203 44.3502 89.7801C43.9785 89.3791 43.6691 88.9171 43.33 88.4876C43.7536 87.99 44.1841 87.4987 44.6215 87.0135C45.0925 87.3403 45.5978 87.617 46.094 87.9019L47.0321 87.4922C47.1573 86.8796 47.2075 86.2553 47.3481 85.6445Z" fill="black"/>
<path d="M48.0207 89.5854C48.6408 89.5278 49.221 89.6296 49.7438 89.9867C49.7793 90.0108 49.8143 90.0358 49.8486 90.0616C49.8829 90.0874 49.9166 90.1141 49.9497 90.1416C49.9827 90.1691 50.0151 90.1974 50.0467 90.2266C50.0784 90.2557 50.1093 90.2856 50.1395 90.3163C50.1697 90.347 50.1991 90.3785 50.2277 90.4107C50.2564 90.4428 50.2842 90.4757 50.3113 90.5092C50.3383 90.5428 50.3645 90.577 50.3898 90.6119C50.4152 90.6468 50.4397 90.6823 50.4634 90.7184C50.487 90.7545 50.5097 90.7911 50.5316 90.8284C50.5534 90.8656 50.5743 90.9034 50.5943 90.9417C50.6143 90.9799 50.6333 91.0187 50.6514 91.058C50.6695 91.0972 50.6866 91.1369 50.7028 91.177C50.7189 91.2171 50.734 91.2576 50.7483 91.2984C50.7624 91.3393 50.7756 91.3805 50.7877 91.422C50.7998 91.4635 50.8109 91.5053 50.821 91.5474C50.8312 91.5895 50.8402 91.6318 50.8483 91.6744C50.8557 91.7147 50.8622 91.7551 50.8677 91.7958C50.8731 91.8364 50.8776 91.8771 50.8811 91.918C50.8846 91.9588 50.8871 91.9997 50.8886 92.0407C50.8901 92.0817 50.8906 92.1226 50.8901 92.1636C50.8896 92.2046 50.8882 92.2456 50.8857 92.2865C50.8832 92.3274 50.8798 92.3683 50.8753 92.409C50.8708 92.4498 50.8654 92.4904 50.859 92.5308C50.8526 92.5713 50.8451 92.6116 50.8368 92.6518C50.8284 92.6918 50.819 92.7317 50.8087 92.7714C50.7984 92.811 50.7871 92.8504 50.7748 92.8895C50.7626 92.9285 50.7494 92.9673 50.7353 93.0057C50.7212 93.0442 50.7062 93.0822 50.6902 93.1199C50.6742 93.1576 50.6573 93.1949 50.6396 93.2317C50.6218 93.2685 50.6031 93.3049 50.5836 93.3408C50.5641 93.3767 50.5437 93.4122 50.5224 93.4471C50.5012 93.4819 50.4791 93.5163 50.4561 93.5501C50.0526 94.1457 49.4773 94.4554 48.7873 94.583C48.1499 94.6539 47.5071 94.5566 46.9605 94.1984C46.9263 94.176 46.8927 94.1527 46.8596 94.1286C46.8265 94.1044 46.794 94.0795 46.7622 94.0538C46.7303 94.0281 46.6991 94.0016 46.6685 93.9743C46.638 93.9471 46.608 93.9191 46.5788 93.8903C46.5496 93.8616 46.5211 93.8321 46.4933 93.8019C46.4655 93.7717 46.4385 93.7409 46.4122 93.7094C46.3858 93.6779 46.3603 93.6457 46.3356 93.6129C46.3109 93.5802 46.287 93.5468 46.2638 93.5128C46.2407 93.4789 46.2184 93.4443 46.197 93.4092C46.1755 93.3742 46.1549 93.3386 46.1352 93.3025C46.1155 93.2664 46.0967 93.2298 46.0787 93.1928C46.0608 93.1557 46.0437 93.1183 46.0276 93.0804C46.0115 93.0425 45.9963 93.0043 45.982 92.9656C45.9677 92.927 45.9544 92.888 45.942 92.8487C45.9297 92.8094 45.9182 92.7699 45.9078 92.73C45.8973 92.6901 45.8878 92.65 45.8793 92.6097C45.871 92.5695 45.8638 92.5291 45.8575 92.4885C45.8512 92.4479 45.846 92.4072 45.8417 92.3664C45.8374 92.3255 45.8342 92.2846 45.8319 92.2436C45.8297 92.2026 45.8284 92.1615 45.8282 92.1204C45.8279 92.0794 45.8287 92.0383 45.8305 91.9972C45.8322 91.9562 45.835 91.9153 45.8389 91.8743C45.8426 91.8335 45.8474 91.7927 45.8532 91.752C45.859 91.7114 45.8658 91.6709 45.8736 91.6306C45.8813 91.5903 45.8901 91.5502 45.8998 91.5103C45.9096 91.4704 45.9203 91.4308 45.932 91.3915C45.9437 91.3522 45.9564 91.3132 45.97 91.2744C45.9836 91.2358 45.9982 91.1975 46.0136 91.1594C46.0291 91.1215 46.0455 91.0839 46.0629 91.0468C46.0802 91.0097 46.0985 90.973 46.1176 90.9368C46.1367 90.9006 46.1568 90.8649 46.1777 90.8297C46.1986 90.7945 46.2203 90.7598 46.2429 90.7257C46.6661 90.0829 47.2832 89.7301 48.0207 89.5854Z" fill="#FAFAF7"/>
<path d="M53.27 88.3008C53.6634 88.6217 54.0037 89.0944 54.3361 89.4841L56.5057 92.0585C56.7403 92.3369 56.9911 92.7283 57.2619 92.9583C57.2906 92.9827 57.3334 93.0026 57.3715 93.0043C56.9785 95.7529 56.0209 97.9454 53.7564 99.6446C52.3864 100.673 50.7708 101.23 49.0806 101.389C48.6813 101.426 48.2374 101.466 47.8389 101.4C47.828 101.398 47.8171 101.396 47.8062 101.394C48.0713 101.372 48.3383 101.379 48.6041 101.38C47.9676 100.561 47.1429 99.8331 46.421 99.0896C45.9295 98.5832 45.1543 97.6237 44.5938 97.2702C45.0887 96.9315 45.5576 96.5407 46.0304 96.1709C46.3625 96.3467 46.7073 96.5082 47.0681 96.6128C47.2115 97.2098 47.3309 97.8318 47.4275 98.4381C48.0246 98.429 48.6216 98.4272 49.2187 98.4326C49.3231 97.8398 49.4233 97.2463 49.5193 96.6521C49.9123 96.5421 50.2875 96.4008 50.6677 96.2534C51.1239 96.6435 51.5829 97.0397 52.0608 97.4021C52.4786 96.9662 52.8942 96.5281 53.3074 96.0878C53.0022 95.5984 52.697 95.1104 52.4133 94.608C52.6335 94.2167 52.8197 93.824 52.9903 93.4078C53.5652 93.3767 54.1423 93.3325 54.7057 93.2073L54.7152 91.3115C54.1643 91.1787 53.5838 91.1458 53.0204 91.1009C52.899 90.5714 52.7277 90.1148 52.4728 89.6358C52.7811 89.2147 53.0339 88.7665 53.27 88.3008Z" fill="#CC931F"/>
<path d="M108.382 86.7305C108.926 87.057 111.382 89.7475 111.709 89.7512C112.262 92.1509 111.666 94.79 110.397 96.8567C109.034 99.0762 106.798 100.762 104.271 101.34C103.408 101.538 101.334 101.714 100.514 101.408L100.567 101.345C100.544 101.236 100.499 101.179 100.426 101.096C100.093 100.713 99.7025 100.361 99.3466 99.998C98.8032 99.4434 98.2775 98.8716 97.7315 98.3194C97.3388 97.9223 96.7723 97.4705 96.503 96.984C96.4379 96.8592 96.3374 96.7394 96.2565 96.6235C96.1657 95.876 96.2381 95.0418 96.2417 94.2869C96.2457 93.4309 96.1917 92.5188 96.2761 91.6679C96.3323 90.9433 96.2917 90.1901 96.2874 89.4624C100.313 89.4624 104.347 89.4106 108.372 89.4902C108.426 88.5818 108.383 87.6418 108.382 86.7305Z" fill="#FAFAF7"/>
<path d="M96.2925 89.4619C100.319 89.4619 104.352 89.4101 108.377 89.4897C108.371 90.2151 108.369 90.9405 108.37 91.666C104.341 91.6878 100.311 91.6883 96.2812 91.6674C96.3374 90.9428 96.2968 90.1896 96.2925 89.4619Z" fill="black"/>
<path d="M108.387 86.7305C108.93 87.057 111.387 89.7475 111.714 89.7512C112.267 92.1509 111.671 94.79 110.402 96.8567C109.039 99.0762 106.803 100.762 104.276 101.34C103.413 101.538 101.339 101.714 100.519 101.408L100.572 101.345C100.549 101.236 100.504 101.179 100.431 101.096C100.098 100.713 99.7073 100.361 99.3514 99.998C98.808 99.4434 98.2823 98.8716 97.7364 98.3194C97.3436 97.9223 96.7771 97.4705 96.5078 96.984C96.9482 97.0377 97.4116 97.013 97.8554 97.0118L99.9719 97.0033C102.177 96.9844 104.382 96.9785 106.587 96.9857C107.111 96.9847 107.794 97.0703 108.182 96.6416C108.306 96.5044 108.34 96.2799 108.361 96.1024C108.418 95.6062 108.381 95.079 108.381 94.5786L108.37 91.6665C108.369 90.941 108.371 90.2155 108.377 89.4902C108.431 88.5818 108.388 87.6418 108.387 86.7305Z" fill="#CC931F"/>
<path d="M74.4783 96.6568C75.0072 96.5496 75.6503 96.6097 76.1871 96.6181C78.7816 96.9509 81.0568 98.0798 82.6795 100.191C84.0578 101.985 84.7104 104.321 84.5703 106.58C84.2969 109.163 83.1531 111.471 81.1464 113.12C80.3449 113.779 79.3379 114.362 78.3456 114.662C77.7623 114.846 77.1874 114.994 76.5781 115.064C74.1307 115.348 71.661 114.704 69.7317 113.128C69.6728 113.08 69.6145 113.031 69.5567 112.982C69.499 112.932 69.4419 112.882 69.3854 112.831C69.3288 112.78 69.2729 112.729 69.2176 112.676C69.1624 112.624 69.1078 112.571 69.0538 112.517C68.9999 112.463 68.9466 112.409 68.894 112.354C68.8413 112.299 68.7893 112.243 68.738 112.187C68.6868 112.131 68.6362 112.074 68.5863 112.016C68.5364 111.958 68.4873 111.9 68.4388 111.841C68.3903 111.783 68.3426 111.723 68.2955 111.663C68.2485 111.603 68.2022 111.543 68.1566 111.481C68.1111 111.42 68.0663 111.359 68.0223 111.296C67.9782 111.234 67.9349 111.171 67.8924 111.108C67.8499 111.044 67.8082 110.981 67.7673 110.916C67.7263 110.852 67.6861 110.787 67.6467 110.721C67.6073 110.656 67.5688 110.59 67.531 110.524C67.4932 110.457 67.4562 110.391 67.4201 110.323C67.384 110.256 67.3487 110.188 67.3142 110.12C67.2797 110.052 67.246 109.983 67.2132 109.914C67.1804 109.845 67.1484 109.776 67.1173 109.706C67.0862 109.636 67.0559 109.566 67.0265 109.495C66.997 109.425 66.9685 109.354 66.9408 109.283C66.9131 109.211 66.8863 109.14 66.8603 109.068C66.8344 108.996 66.8094 108.923 66.7852 108.851C66.761 108.778 66.7377 108.705 66.7152 108.632C66.6929 108.559 66.6714 108.486 66.6507 108.412C66.6301 108.338 66.6104 108.264 66.5916 108.19C66.5728 108.116 66.5548 108.042 66.5378 107.967C66.5209 107.892 66.5048 107.817 66.4896 107.742C66.4744 107.667 66.4601 107.592 66.4468 107.517C66.4334 107.441 66.421 107.366 66.4095 107.29C66.398 107.214 66.3874 107.139 66.3777 107.063C66.3681 106.987 66.3593 106.911 66.3516 106.834C66.3433 106.759 66.336 106.683 66.3297 106.607C66.3233 106.531 66.3179 106.455 66.3134 106.378C66.3089 106.302 66.3053 106.226 66.3026 106.15C66.3 106.074 66.2982 105.997 66.2974 105.921C66.2966 105.845 66.2967 105.769 66.2977 105.692C66.2988 105.616 66.3007 105.54 66.3037 105.464C66.3065 105.387 66.3103 105.311 66.3151 105.235C66.3198 105.159 66.3255 105.083 66.3321 105.007C66.3387 104.931 66.3462 104.855 66.3546 104.779C66.363 104.703 66.3723 104.628 66.3826 104.552C66.3929 104.477 66.4041 104.401 66.4162 104.326C66.4283 104.251 66.4413 104.176 66.4552 104.101C66.4691 104.026 66.4839 103.951 66.4997 103.876C66.5154 103.802 66.5321 103.727 66.5496 103.653C66.5671 103.579 66.5856 103.505 66.6049 103.431C66.6243 103.358 66.6445 103.284 66.6656 103.211C66.6867 103.138 66.7087 103.065 66.7316 102.992C66.7545 102.919 66.7783 102.847 66.8029 102.775C66.8276 102.703 66.8531 102.631 66.8795 102.56C66.9059 102.488 66.9332 102.417 66.9612 102.346C66.9893 102.275 67.0183 102.205 67.0481 102.135C67.078 102.065 67.1087 101.995 67.1402 101.926C67.1717 101.857 67.2041 101.788 67.2372 101.719C67.2704 101.651 67.3044 101.583 67.3393 101.515C67.3741 101.448 67.4098 101.38 67.4463 101.314C67.4828 101.247 67.52 101.181 67.5581 101.115C67.5961 101.049 67.635 100.984 67.6747 100.919C67.7144 100.854 67.7548 100.79 67.796 100.726C67.8373 100.662 67.8793 100.598 67.9221 100.536C67.9648 100.473 68.0083 100.411 68.0527 100.349C68.0969 100.287 68.1419 100.226 68.1877 100.165C68.2335 100.105 68.28 100.045 68.3272 99.9854C69.8723 98.0645 72.0502 96.907 74.4783 96.6568Z" fill="#FCBC18"/>
<path d="M75.0627 100.051C75.3185 100.055 75.5745 100.068 75.8302 100.078C76.5908 100.093 77.343 100.31 78.108 100.329L83.0431 105.124C83.5335 105.591 84.017 106.206 84.5729 106.58C84.2995 109.163 83.1557 111.471 81.149 113.12C80.3475 113.779 79.3405 114.362 78.3482 114.662C78.1003 114.262 77.6315 113.885 77.2966 113.55C76.3821 112.636 75.458 111.721 74.5102 110.842C74.2 110.554 73.5762 110.085 73.3804 109.732C73.0731 109.56 72.7807 109.368 72.4867 109.175C72.5764 108.864 72.6261 108.531 72.6916 108.214C73.4809 108.47 74.2826 108.636 75.0979 108.78C75.0923 107.896 75.0935 107.013 75.1016 106.13C74.3768 105.837 73.571 105.542 73.0048 104.977C72.5578 104.532 72.3224 103.964 72.3203 103.326C72.3181 102.656 72.5404 102.011 73.0178 101.532C73.5787 100.97 74.2938 100.8 75.059 100.806L75.0627 100.051Z" fill="#CC931F"/>
<path d="M75.0627 100.051C75.3185 100.055 75.5745 100.068 75.8302 100.078L75.825 100.794C76.508 100.825 77.1573 100.95 77.8252 101.083C77.7784 101.519 77.7036 101.948 77.6284 102.379C77.0465 102.22 76.4822 102.069 75.8785 102.023C75.8709 102.866 75.8678 103.71 75.8692 104.554C76.7588 104.808 77.7826 105.208 78.2699 106.061C78.6068 106.651 78.6488 107.414 78.4669 108.063C78.2728 108.757 77.8205 109.285 77.1993 109.628C76.7775 109.861 76.3226 109.957 75.855 110.046L75.8528 110.868L75.0565 110.863L75.0666 110.054C74.4843 110.012 73.9353 109.918 73.3804 109.732C73.0731 109.56 72.7807 109.368 72.4867 109.175C72.5764 108.864 72.6261 108.531 72.6916 108.214C73.4809 108.47 74.2826 108.636 75.0979 108.78C75.0923 107.896 75.0935 107.013 75.1016 106.13C74.3768 105.837 73.571 105.542 73.0048 104.977C72.5578 104.532 72.3224 103.964 72.3203 103.326C72.3181 102.656 72.5404 102.011 73.0178 101.532C73.5787 100.97 74.2938 100.8 75.059 100.806L75.0627 100.051Z" fill="black"/>
<path d="M74.9171 102.042C74.9987 102.032 74.9542 102.031 75.0498 102.055C75.1757 102.384 75.0854 103.819 75.0806 104.264C74.8983 104.188 74.7244 104.091 74.5493 104C74.3795 103.85 74.2396 103.701 74.152 103.487C74.0457 103.228 74.04 102.936 74.1535 102.677C74.3065 102.329 74.5797 102.17 74.9171 102.042Z" fill="#FCBC18"/>
<path d="M75.8663 106.328C76.0037 106.384 76.1407 106.448 76.2647 106.531C76.2983 106.554 76.3308 106.578 76.3621 106.604C76.3933 106.63 76.4232 106.657 76.4519 106.686C76.4805 106.715 76.5076 106.745 76.5333 106.777C76.5589 106.808 76.583 106.841 76.6055 106.875C76.628 106.909 76.6487 106.944 76.6678 106.98C76.6869 107.016 76.7041 107.053 76.7196 107.091C76.7351 107.129 76.7487 107.167 76.7605 107.206C76.7722 107.246 76.7821 107.285 76.79 107.325C76.865 107.719 76.7507 108.096 76.5328 108.422C76.3404 108.609 76.115 108.694 75.872 108.79C75.8298 107.977 75.866 107.143 75.8663 106.328Z" fill="#CC931F"/>
<path d="M100.754 70.6083C99.1383 70.345 97.5553 69.4623 96.3271 68.3901C94.3531 66.667 93.0624 64.2848 92.884 61.6377C92.713 59.1026 93.4311 56.5466 95.099 54.6175C95.1509 54.5564 95.2036 54.4959 95.257 54.436C95.3105 54.3762 95.3647 54.3171 95.4196 54.2587C95.4745 54.2002 95.5301 54.1425 95.5865 54.0855C95.6429 54.0285 95.6999 53.9722 95.7576 53.9166C95.8154 53.8611 95.8738 53.8062 95.9329 53.7521C95.992 53.6981 96.0518 53.6447 96.1122 53.5922C96.1727 53.5396 96.2338 53.4878 96.2955 53.4368C96.3572 53.3859 96.4195 53.3356 96.4825 53.2862C96.5454 53.2368 96.609 53.1882 96.6732 53.1404C96.7374 53.0926 96.8022 53.0456 96.8675 52.9994C96.9328 52.9533 96.9987 52.9079 97.0652 52.8634C97.1316 52.819 97.1987 52.7753 97.2662 52.7325C97.3337 52.6897 97.4018 52.6478 97.4704 52.6068C97.5389 52.5658 97.608 52.5256 97.6776 52.4863C97.7472 52.447 97.8173 52.4086 97.8878 52.3711C97.9584 52.3336 98.0294 52.2969 98.1008 52.2612C98.1723 52.2255 98.2441 52.1907 98.3164 52.1569C98.3888 52.123 98.4615 52.09 98.5346 52.058C98.6077 52.026 98.6812 51.9949 98.7552 51.9648C98.829 51.9346 98.9033 51.9054 98.9779 51.8771C99.0525 51.8488 99.1275 51.8215 99.2028 51.7951C99.2782 51.7688 99.3538 51.7434 99.4297 51.7189C99.5056 51.6945 99.5818 51.671 99.6584 51.6485C99.7349 51.626 99.8117 51.6045 99.8887 51.584C99.9658 51.5634 100.043 51.5438 100.121 51.5252C100.198 51.5067 100.276 51.489 100.354 51.4724C100.432 51.4558 100.51 51.4402 100.588 51.4256C100.667 51.411 100.745 51.3974 100.824 51.3847C100.903 51.3721 100.982 51.3605 101.061 51.3499C101.14 51.3393 101.219 51.3297 101.298 51.3211C101.377 51.3124 101.456 51.3048 101.536 51.2983C101.615 51.2917 101.695 51.2861 101.774 51.2815C101.853 51.277 101.931 51.2734 102.01 51.2708C102.088 51.2682 102.167 51.2666 102.246 51.2659C102.324 51.2653 102.403 51.2656 102.482 51.267C102.56 51.2683 102.639 51.2706 102.717 51.2739C102.796 51.2772 102.874 51.2814 102.953 51.2867C103.031 51.2919 103.11 51.2982 103.188 51.3054C103.266 51.3126 103.345 51.3208 103.423 51.3299C103.501 51.3391 103.579 51.3492 103.657 51.3603C103.734 51.3714 103.812 51.3835 103.89 51.3965C103.967 51.4096 104.045 51.4236 104.122 51.4385C104.199 51.4535 104.276 51.4695 104.353 51.4864C104.43 51.5033 104.506 51.5211 104.583 51.5399C104.659 51.5587 104.735 51.5785 104.811 51.5992C104.887 51.6199 104.963 51.6416 105.038 51.6642C105.114 51.6868 105.189 51.7103 105.264 51.7348C105.338 51.7593 105.413 51.7847 105.487 51.811C105.561 51.8373 105.635 51.8646 105.709 51.8927C105.782 51.9209 105.855 51.95 105.928 51.98C106.001 52.01 106.073 52.0409 106.146 52.0727C106.218 52.1045 106.289 52.1373 106.361 52.1708C106.432 52.2045 106.503 52.239 106.573 52.2744C106.644 52.3097 106.714 52.3459 106.783 52.383C106.853 52.4202 106.922 52.4582 106.99 52.497C107.059 52.5358 107.127 52.5755 107.195 52.616C107.262 52.6566 107.33 52.698 107.396 52.7402C107.463 52.7824 107.529 52.8255 107.595 52.8693C107.66 52.9132 107.725 52.9579 107.79 53.0034C107.854 53.0489 107.918 53.0952 107.982 53.1422C108.045 53.1893 108.108 53.2372 108.17 53.2859C108.232 53.3345 108.294 53.3839 108.355 53.4341C108.416 53.4843 108.476 53.5353 108.536 53.5869C108.596 53.6387 108.655 53.6911 108.713 53.7443C110.622 55.4732 111.821 57.8422 111.952 60.4461C112.088 63.1679 111.011 65.6683 109.232 67.6662C107.887 69.0182 106.426 69.9832 104.572 70.4474C104.156 70.5517 103.677 70.6713 103.245 70.6712C103.212 70.6711 103.18 70.6681 103.147 70.6657C102.774 70.6532 102.245 70.7037 101.849 70.7129C101.488 70.718 101.11 70.6728 100.754 70.6083Z" fill="#FCBC18"/>
<path d="M96.6641 66.6094C96.8694 66.7486 97.07 66.8893 97.2504 67.0615C97.0968 67.0775 96.8973 67.1244 96.7506 67.0695C96.6518 66.9531 96.671 66.7567 96.6641 66.6094Z" fill="#9B610E"/>
<path d="M101.716 53.1279C102.604 53.019 103.494 53.3141 104.197 53.862C104.242 53.897 104.287 53.9332 104.33 53.9704C104.374 54.0077 104.416 54.0461 104.458 54.0855C104.499 54.1249 104.54 54.1654 104.579 54.2069C104.619 54.2484 104.657 54.2909 104.695 54.3344C104.732 54.3778 104.769 54.4223 104.804 54.4676C104.839 54.5129 104.873 54.5591 104.906 54.6062C104.939 54.6533 104.971 54.7012 105.001 54.7499C105.032 54.7985 105.061 54.848 105.089 54.8982C105.117 54.9484 105.144 54.9993 105.17 55.0508C105.195 55.1023 105.22 55.1545 105.243 55.2073C105.265 55.2601 105.287 55.3135 105.307 55.3674C105.328 55.4213 105.347 55.4756 105.364 55.5305C105.382 55.5854 105.398 55.6407 105.413 55.6963C105.428 55.752 105.441 55.808 105.453 55.8644C105.465 55.9208 105.476 55.9775 105.485 56.0344C105.494 56.0913 105.502 56.1484 105.508 56.2058C105.614 57.1072 105.331 58.0444 104.772 58.7506C104.738 58.7933 104.703 58.8351 104.668 58.876C104.632 58.917 104.595 58.957 104.557 58.9961C104.52 59.0352 104.481 59.0734 104.441 59.1106C104.402 59.1477 104.361 59.1838 104.32 59.219C104.278 59.2542 104.236 59.2883 104.193 59.3213C104.15 59.3543 104.106 59.3863 104.062 59.4171C104.017 59.448 103.972 59.4777 103.926 59.5063C103.88 59.5349 103.833 59.5623 103.786 59.5885C103.738 59.6147 103.69 59.6398 103.642 59.6637C103.593 59.6875 103.544 59.7102 103.494 59.7315C103.445 59.7529 103.394 59.773 103.344 59.7919C103.293 59.8108 103.242 59.8284 103.19 59.8447C103.139 59.8611 103.087 59.8761 103.035 59.8899C102.982 59.9036 102.93 59.916 102.877 59.9271C102.824 59.9382 102.771 59.948 102.718 59.9564C102.664 59.9649 102.611 59.972 102.557 59.9777C102.505 59.9829 102.453 59.987 102.401 59.9899C102.349 59.9928 102.297 59.9946 102.245 59.9953C102.193 59.9959 102.141 59.9955 102.088 59.9939C102.036 59.9923 101.984 59.9896 101.932 59.9857C101.88 59.9819 101.828 59.9769 101.777 59.9708C101.725 59.9647 101.673 59.9575 101.622 59.9492C101.57 59.9408 101.519 59.9313 101.468 59.9208C101.417 59.9102 101.366 59.8986 101.315 59.8858C101.265 59.873 101.215 59.8592 101.165 59.8442C101.115 59.8293 101.065 59.8132 101.016 59.7961C100.966 59.779 100.917 59.7609 100.869 59.7416C100.82 59.7224 100.772 59.7022 100.725 59.6808C100.677 59.6595 100.63 59.6372 100.583 59.6138C100.536 59.5905 100.49 59.5661 100.444 59.5407C100.399 59.5154 100.354 59.489 100.309 59.4617C100.264 59.4344 100.22 59.4061 100.177 59.3768C99.4443 58.8732 98.9245 58.0449 98.7636 57.1648C98.601 56.2756 98.8217 55.2786 99.3344 54.5392C99.9034 53.7182 100.76 53.2941 101.716 53.1279Z" fill="black"/>
<path d="M96.6667 66.6078C96.6627 66.5899 96.6573 66.5726 96.6546 66.5545C96.6095 66.2486 96.6292 65.896 96.6216 65.5847C96.5891 64.27 96.7218 63.1394 97.5407 62.0672C98.1646 61.2505 99.4394 60.3451 100.513 60.4476C101.118 60.5054 101.663 60.7563 102.291 60.7515C102.877 60.7469 103.36 60.4451 103.92 60.3867C104.663 60.3092 105.651 60.8212 106.218 61.2765C107.281 62.1293 107.852 63.4144 107.921 64.7712C107.944 65.2367 107.882 65.7382 107.939 66.1952C107.942 66.2192 107.946 66.243 107.949 66.267C108.39 66.7177 108.774 67.2299 109.23 67.665C107.885 69.017 106.424 69.9819 104.57 70.4462C104.154 70.5504 103.675 70.6701 103.243 70.6699C103.21 70.6699 103.177 70.6669 103.145 70.6644C102.772 70.652 102.243 70.7025 101.847 70.7117C101.485 70.7168 101.108 70.6716 100.752 70.6071C100.71 70.2298 97.8363 67.6646 97.3008 67.0729L97.2531 67.0599C97.0726 66.8877 96.872 66.747 96.6667 66.6078Z" fill="black"/>
<path d="M107.945 66.2656C108.386 66.7163 108.77 67.2285 109.226 67.6636C107.881 69.0156 106.42 69.9806 104.566 70.4448C104.15 70.549 103.671 70.6687 103.239 70.6686C103.206 70.6685 103.173 70.6655 103.141 70.6631C102.768 70.6506 102.239 70.7011 101.843 70.7103C101.481 70.7154 101.104 70.6702 100.748 70.6057C100.706 70.2284 97.8323 67.6632 97.2969 67.0715C98.4085 67.1056 99.5339 67.062 100.647 67.0627L107.94 67.0982L107.945 66.2656Z" fill="#CC931F"/>
<path d="M46.4892 70.4449C44.7162 70.098 43.0484 69.1221 41.7714 67.845C39.9425 66.0158 38.9681 63.5546 38.9533 60.9621C38.9383 58.3376 39.8729 55.9143 41.7106 54.0477C43.4872 52.2434 46.0105 51.2933 48.5089 51.3008C48.5879 51.3012 48.6669 51.3024 48.7459 51.3047C48.8249 51.307 48.9039 51.3102 48.9828 51.3144C49.0617 51.3187 49.1405 51.3239 49.2193 51.3301C49.2981 51.3363 49.3768 51.3435 49.4554 51.3517C49.5341 51.3599 49.6126 51.369 49.691 51.3792C49.7694 51.3893 49.8476 51.4004 49.9257 51.4125C50.0039 51.4245 50.0818 51.4375 50.1596 51.4516C50.2375 51.4656 50.3151 51.4806 50.3925 51.4966C50.4699 51.5125 50.5472 51.5294 50.6242 51.5472C50.7012 51.5651 50.778 51.584 50.8546 51.6038C50.9312 51.6236 51.0075 51.6443 51.0836 51.6659C51.1597 51.6877 51.2355 51.7103 51.3109 51.7339C51.3865 51.7574 51.4617 51.782 51.5366 51.8075C51.6115 51.8329 51.6861 51.8593 51.7604 51.8866C51.8347 51.9139 51.9086 51.9421 51.9822 51.9713C52.0558 52.0004 52.129 52.0305 52.2019 52.0615C52.2747 52.0925 52.3472 52.1243 52.4193 52.1571C52.4914 52.1899 52.563 52.2236 52.6343 52.2581C52.7056 52.2927 52.7764 52.3282 52.8468 52.3645C52.9173 52.4008 52.9872 52.438 53.0567 52.4761C53.1262 52.5142 53.1952 52.5531 53.2637 52.5929C53.3323 52.6327 53.4003 52.6734 53.4679 52.7149C53.5355 52.7563 53.6025 52.7987 53.6691 52.8419C53.7356 52.885 53.8016 52.929 53.8671 52.9738C53.9325 53.0186 53.9974 53.0643 54.0618 53.1107C54.1261 53.1571 54.1899 53.2043 54.2531 53.2523C54.3163 53.3003 54.3789 53.3491 54.4409 53.3987C54.503 53.4482 54.5644 53.4986 54.6252 53.5497C54.686 53.6008 54.7461 53.6526 54.8056 53.7052C54.8652 53.7579 54.9241 53.8112 54.9823 53.8653C55.0405 53.9194 55.0981 53.9742 55.155 54.0297C55.2119 54.0851 55.2681 54.1413 55.3236 54.1983C55.3789 54.2551 55.4335 54.3127 55.4874 54.3709C55.5414 54.4292 55.5946 54.4881 55.647 54.5476C55.6996 54.6072 55.7514 54.6674 55.8024 54.7282C55.8534 54.789 55.9037 54.8504 55.9533 54.9125C56.0029 54.9746 56.0517 55.0372 56.0998 55.1005C56.1479 55.1638 56.1951 55.2276 56.2417 55.2921C56.2882 55.3565 56.3339 55.4215 56.3789 55.487C56.4238 55.5526 56.468 55.6187 56.5114 55.6854C56.5547 55.7521 56.5973 55.8192 56.6391 55.8869C56.6808 55.9546 56.7218 56.0228 56.7619 56.0915C56.802 56.1602 56.8413 56.2294 56.8797 56.2991C56.9182 56.3687 56.9558 56.4389 56.9926 56.5095C57.0293 56.5801 57.0653 56.6511 57.1003 56.7226C57.1353 56.7941 57.1695 56.866 57.2029 56.9383C57.2362 57.0107 57.2686 57.0834 57.3002 57.1565C57.3318 57.2297 57.3625 57.3032 57.3923 57.377C57.4221 57.4509 57.451 57.5252 57.479 57.5998C57.507 57.6744 57.5341 57.7493 57.5603 57.8246C57.5865 57.8999 57.6119 57.9754 57.6363 58.0513C57.6607 58.1272 57.6842 58.2034 57.7067 58.2799C57.7293 58.3563 57.751 58.4331 57.7716 58.5101C57.7924 58.5871 57.8122 58.6643 57.8311 58.7418C57.8499 58.8193 57.8678 58.897 57.8848 58.9749C57.9018 59.0529 57.9178 59.131 57.9329 59.2093C57.9481 59.2877 57.9622 59.3662 57.9754 59.4448C57.9887 59.5235 58.001 59.6023 58.0123 59.6813C58.0236 59.7603 58.034 59.8394 58.0434 59.9186C58.0528 59.9979 58.0613 60.0772 58.0688 60.1567C58.0763 60.2361 58.0829 60.3156 58.0885 60.3952C58.0941 60.4748 58.0987 60.5544 58.1024 60.6342C58.1061 60.7139 58.1088 60.7937 58.1105 60.8735C58.1123 60.9533 58.1131 61.033 58.113 61.1128C58.1136 61.1909 58.1133 61.269 58.1121 61.347C58.1108 61.4251 58.1086 61.5031 58.1054 61.5811C58.1023 61.6591 58.0982 61.7371 58.0931 61.815C58.0881 61.8929 58.0821 61.9707 58.0751 62.0485C58.0681 62.1262 58.0602 62.2039 58.0514 62.2814C58.0425 62.359 58.0327 62.4364 58.0219 62.5138C58.0112 62.591 57.9996 62.6682 57.9869 62.7452C57.9743 62.8222 57.9607 62.8991 57.9462 62.9758C57.9317 63.0524 57.9163 63.1289 57.8999 63.2052C57.8835 63.2815 57.8662 63.3576 57.848 63.4334C57.8297 63.5093 57.8106 63.5849 57.7905 63.6603C57.7704 63.7357 57.7494 63.8108 57.7276 63.8856C57.7056 63.9605 57.6828 64.0351 57.6591 64.1093C57.6353 64.1836 57.6107 64.2576 57.5851 64.3312C57.5596 64.4049 57.5332 64.4782 57.5059 64.5513C57.4785 64.6243 57.4503 64.6969 57.4212 64.7692C57.3921 64.8416 57.3621 64.9135 57.3313 64.985C57.3004 65.0566 57.2687 65.1277 57.236 65.1985C57.2035 65.2692 57.17 65.3396 57.1357 65.4095C57.1014 65.4794 57.0662 65.5489 57.0302 65.618C56.9942 65.687 56.9573 65.7556 56.9197 65.8237C56.882 65.8918 56.8435 65.9594 56.8042 66.0266C56.7648 66.0937 56.7247 66.1604 56.6837 66.2266C56.6427 66.2927 56.6009 66.3584 56.5584 66.4235C56.5158 66.4886 56.4725 66.5532 56.4283 66.6172C56.3842 66.6812 56.3393 66.7447 56.2936 66.8076C56.2479 66.8705 56.2014 66.9328 56.1542 66.9946C56.107 67.0563 56.059 67.1174 56.0103 67.178C55.9616 67.2385 55.9122 67.2984 55.862 67.3577C55.8119 67.417 55.761 67.4757 55.7094 67.5337C55.6578 67.5918 55.6055 67.6491 55.5525 67.7058C55.4994 67.7626 55.4458 67.8186 55.3914 67.874C55.3375 67.9284 55.2829 67.9822 55.2278 68.0352C55.1727 68.0883 55.1169 68.1407 55.0604 68.1925C55.004 68.2442 54.9471 68.2953 54.8895 68.3457C54.8319 68.3961 54.7737 68.4457 54.7149 68.4947C54.6562 68.5437 54.5969 68.5919 54.537 68.6394C54.4771 68.687 54.4166 68.7339 54.3556 68.78C54.2946 68.826 54.2331 68.8713 54.171 68.916C54.109 68.9606 54.0464 69.0045 53.9833 69.0475C53.9203 69.0907 53.8567 69.1331 53.7926 69.1746C53.7285 69.2162 53.664 69.2571 53.599 69.2971C53.5339 69.3371 53.4684 69.3764 53.4024 69.4148C53.3365 69.4532 53.2701 69.4909 53.2032 69.5278C53.1364 69.5646 53.0691 69.6007 53.0014 69.636C52.9337 69.6712 52.8656 69.7056 52.7972 69.7392C52.7286 69.7728 52.6597 69.8056 52.5905 69.8375C52.5212 69.8694 52.4516 69.9006 52.3816 69.9309C52.3116 69.9612 52.2413 69.9906 52.1706 70.0191C52.0999 70.0477 52.0288 70.0755 51.9575 70.1024C51.8862 70.1292 51.8146 70.1552 51.7426 70.1804C51.6707 70.2056 51.5984 70.2298 51.5259 70.2532C51.4534 70.2766 51.3806 70.2992 51.3075 70.3209C51.2345 70.3426 51.1612 70.3634 51.0876 70.3833C51.0141 70.4032 50.9404 70.4222 50.8664 70.4403C50.7924 70.4584 50.7182 70.4757 50.6439 70.492C50.5695 70.5084 50.4949 70.5238 50.4201 70.5384C50.3454 70.5529 50.2704 70.5666 50.1954 70.5794C50.1203 70.5921 50.0451 70.604 49.9697 70.6149C49.8944 70.6259 49.8189 70.6359 49.7433 70.645C49.6678 70.6542 49.5921 70.6624 49.5163 70.6697C49.4405 70.677 49.3647 70.6834 49.2888 70.6889C49.2129 70.6944 49.1369 70.699 49.0608 70.7027C48.9848 70.7063 48.9087 70.709 48.8326 70.7109C48.8163 70.7111 48.8 70.7107 48.7837 70.7106C48.3887 70.7158 47.9946 70.6715 47.6014 70.6363C47.2315 70.6223 46.851 70.5221 46.4892 70.4449Z" fill="#FCBC18"/>
<path d="M45.7663 56.8501C45.7715 56.3032 45.6517 54.2112 45.8792 53.8691C45.937 53.7822 46.1761 53.7444 46.2733 53.7291C46.9735 53.6182 47.7872 53.6924 48.5003 53.691C49.205 53.6896 49.96 53.6342 50.6586 53.7008C50.8151 53.7157 51.0477 53.7416 51.1711 53.848C51.4057 54.0504 51.3073 56.4433 51.3054 56.8489L53.7458 56.8493C53.9456 56.9764 54.0738 57.0743 54.1676 57.2984C54.1786 58.9727 54.1217 60.6707 54.1907 62.342L49.8819 62.3422C49.8873 62.064 49.948 61.6382 49.8366 61.3839C49.4011 61.2588 47.4333 61.2639 46.9901 61.3622C46.8277 61.5783 46.8874 62.0623 46.8886 62.3328L42.7736 62.3403C42.8257 61.2 42.7908 60.044 42.7789 58.9023C42.7736 58.3949 42.7291 57.8488 42.788 57.3454C42.8022 57.2236 42.8221 57.1305 42.9104 57.0404C42.9303 57.02 42.9516 57.0012 42.9741 56.984C42.9967 56.9668 43.0204 56.9513 43.0452 56.9376C43.07 56.9239 43.0957 56.9121 43.1222 56.9022C43.1488 56.8923 43.1759 56.8844 43.2035 56.8784C43.7493 56.757 45.128 56.8465 45.7663 56.8501Z" fill="black"/>
<path d="M46.4124 54.2359C47.8522 54.2022 49.308 54.1984 50.7474 54.251C50.748 54.828 50.8201 56.3255 50.7153 56.8389L50.6509 56.8733C49.2067 56.8564 47.7625 56.8473 46.3182 56.8461C46.3149 56.0775 46.2755 55.2886 46.3128 54.5221C46.3192 54.3902 46.3122 54.3246 46.4124 54.2359Z" fill="#FCBC18"/>
<path d="M54.1676 57.2969C54.8414 57.8779 57.7346 61.0035 58.1131 61.1127C58.1137 61.1908 58.1135 61.2689 58.1122 61.3469C58.111 61.425 58.1087 61.503 58.1056 61.581C58.1024 61.659 58.0983 61.737 58.0932 61.8149C58.0882 61.8928 58.0822 61.9706 58.0752 62.0484C58.0683 62.1261 58.0604 62.2038 58.0515 62.2813C58.0426 62.3589 58.0328 62.4363 58.0221 62.5137C58.0114 62.5909 57.9997 62.6681 57.9871 62.7451C57.9744 62.8221 57.9609 62.899 57.9464 62.9757C57.9318 63.0523 57.9164 63.1288 57.9 63.2051C57.8836 63.2814 57.8663 63.3575 57.8481 63.4333C57.8299 63.5092 57.8107 63.5848 57.7907 63.6602C57.7706 63.7356 57.7496 63.8107 57.7277 63.8855C57.7057 63.9604 57.6829 64.035 57.6592 64.1092C57.6355 64.1835 57.6108 64.2575 57.5853 64.3311C57.5598 64.4048 57.5333 64.4781 57.506 64.5511C57.4787 64.6242 57.4504 64.6968 57.4213 64.7691C57.3922 64.8415 57.3623 64.9134 57.3314 64.9849C57.3006 65.0565 57.2688 65.1276 57.2362 65.1984C57.2036 65.2691 57.1701 65.3395 57.1358 65.4094C57.1015 65.4793 57.0664 65.5488 57.0304 65.6179C56.9943 65.6869 56.9575 65.7555 56.9198 65.8236C56.8821 65.8917 56.8436 65.9593 56.8043 66.0265C56.765 66.0936 56.7248 66.1603 56.6839 66.2265C56.6428 66.2926 56.6011 66.3583 56.5586 66.4233C56.516 66.4885 56.4726 66.5531 56.4285 66.6171C56.3843 66.6811 56.3394 66.7446 56.2937 66.8075C56.248 66.8704 56.2016 66.9327 56.1543 66.9944C56.1071 67.0562 56.0591 67.1173 56.0105 67.1779C55.9618 67.2384 55.9123 67.2983 55.8621 67.3576C55.812 67.4169 55.7611 67.4756 55.7095 67.5336C55.6579 67.5917 55.6056 67.649 55.5526 67.7057C55.4996 67.7625 55.4459 67.8185 55.3915 67.8739C55.3376 67.9283 55.2831 67.982 55.228 68.0351C55.1728 68.0882 55.117 68.1406 55.0606 68.1923C55.0042 68.2441 54.9472 68.2952 54.8896 68.3456C54.832 68.3959 54.7738 68.4456 54.715 68.4946C54.6563 68.5436 54.597 68.5918 54.5371 68.6393C54.4772 68.6869 54.4167 68.7338 54.3557 68.7799C54.2948 68.8259 54.2333 68.8712 54.1712 68.9159C54.1091 68.9605 54.0466 69.0043 53.9834 69.0474C53.9204 69.0906 53.8568 69.1329 53.7927 69.1745C53.7286 69.2161 53.6641 69.257 53.5991 69.297C53.534 69.337 53.4685 69.3763 53.4025 69.4147C53.3366 69.4531 53.2702 69.4908 53.2034 69.5277C53.1365 69.5645 53.0693 69.6006 53.0015 69.6359C52.9338 69.6711 52.8658 69.7055 52.7973 69.7391C52.7288 69.7727 52.6599 69.8055 52.5906 69.8374C52.5214 69.8693 52.4518 69.9005 52.3817 69.9308C52.3117 69.9611 52.2414 69.9905 52.1707 70.019C52.1 70.0476 52.029 70.0754 51.9576 70.1023C51.8863 70.1291 51.8147 70.1551 51.7428 70.1803C51.6708 70.2054 51.5985 70.2297 51.526 70.2531C51.4535 70.2765 51.3807 70.2991 51.3077 70.3208C51.2346 70.3425 51.1613 70.3633 51.0878 70.3832C51.0143 70.4031 50.9405 70.4221 50.8665 70.4402C50.7925 70.4583 50.7183 70.4756 50.644 70.4919C50.5696 70.5083 50.495 70.5237 50.4203 70.5383C50.3455 70.5528 50.2706 70.5665 50.1955 70.5793C50.1205 70.592 50.0452 70.6039 49.9699 70.6148C49.8945 70.6258 49.8191 70.6358 49.7435 70.6449C49.6679 70.6541 49.5923 70.6623 49.5164 70.6696C49.4407 70.6769 49.3648 70.6833 49.2889 70.6888C49.213 70.6943 49.137 70.6989 49.0609 70.7026C48.9849 70.7062 48.9088 70.7089 48.8327 70.7108C48.8165 70.711 48.8002 70.7105 48.7839 70.7105C48.3888 70.7157 47.9947 70.6714 47.6015 70.6362C47.2316 70.6222 46.8511 70.522 46.4893 70.4448C46.492 70.4361 46.4969 70.4278 46.4977 70.4186C46.5167 70.1874 43.599 67.4192 43.2071 66.8444C43.1125 66.7525 43.0102 66.6601 42.9273 66.5571C42.8559 66.4686 42.8202 66.3675 42.8025 66.2558C42.706 65.6459 42.7428 63.4696 42.7922 62.8202C42.7276 62.7014 42.766 62.4722 42.7737 62.3388L46.8886 62.3313C46.8874 62.0608 46.8278 61.5769 46.9901 61.3607C47.4333 61.2624 49.4011 61.2573 49.8366 61.3824C49.9481 61.6367 49.8873 62.0625 49.8819 62.3407L54.1907 62.3405C54.1217 60.6692 54.1786 58.9712 54.1676 57.2969Z" fill="#CC931F"/>
<path d="M46.8886 62.3327C46.8874 62.0622 46.8278 61.5783 46.9901 61.3621C47.4333 61.2638 49.4011 61.2587 49.8366 61.3838C49.9481 61.6381 49.8873 62.0639 49.8819 62.3421L54.1907 62.3419C54.2019 62.507 54.212 62.6652 54.1985 62.8306C54.1984 63.6208 54.2854 65.7385 54.1438 66.3718C54.1213 66.4722 54.0666 66.5485 53.9942 66.6194C53.8491 66.7617 53.6776 66.8133 53.4812 66.8372C53.021 66.8935 52.5202 66.8579 52.0555 66.8567H49.6373L45.4449 66.8571C44.7019 66.8564 43.9489 66.88 43.2071 66.8458C43.1125 66.7539 43.0102 66.6615 42.9273 66.5585C42.8559 66.47 42.8202 66.3689 42.8025 66.2572C42.706 65.6473 42.7428 63.4711 42.7922 62.8216C42.7276 62.7028 42.766 62.4736 42.7737 62.3403L46.8886 62.3327Z" fill="black"/>
<path d="M46.8911 62.3327C46.8899 62.0622 46.8302 61.5783 46.9926 61.3621C47.4358 61.2638 49.4036 61.2587 49.8391 61.3838C49.9505 61.6381 49.8898 62.0639 49.8844 62.3421L54.1932 62.3419C54.2043 62.507 54.2145 62.6652 54.2009 62.8306L49.9046 62.8313C49.908 63.1717 49.9883 63.7842 49.8667 64.0861C49.841 64.1499 49.8257 64.1952 49.7591 64.2151C49.4084 64.3197 47.1912 64.321 46.9228 64.1726C46.8243 63.7758 46.8947 63.2417 46.9 62.8268C45.5323 62.8082 44.1626 62.8226 42.7947 62.8216C42.7301 62.7028 42.7684 62.4736 42.7761 62.3403L46.8911 62.3327Z" fill="#FAFAF7"/>
<path d="M76.0613 61.5571L76.0768 61.7514C79.7384 61.8546 83.0881 63.5105 85.5946 66.1852C86.0883 66.712 86.5104 67.2964 86.9119 67.8966C87.0175 68.0515 87.12 68.2084 87.2194 68.3674C87.3188 68.5264 87.4151 68.6873 87.5082 68.8501C87.6013 69.0129 87.6913 69.1775 87.7779 69.3439C87.8647 69.5104 87.9481 69.6785 88.0282 69.8483C88.1083 70.018 88.1851 70.1893 88.2585 70.3622C88.3319 70.535 88.402 70.7092 88.4686 70.8849C88.5352 71.0605 88.5984 71.2375 88.658 71.4156C88.7177 71.5938 88.7739 71.7731 88.8266 71.9535C88.8793 72.1339 88.9284 72.3153 88.974 72.4978C89.0196 72.6802 89.0616 72.8634 89.1 73.0475C89.1384 73.2315 89.1733 73.4163 89.2045 73.6018C89.2357 73.7873 89.2632 73.9733 89.2872 74.1598C89.3111 74.3464 89.3313 74.5334 89.348 74.7208C89.3646 74.9082 89.3775 75.0958 89.3868 75.2837C89.3961 75.4716 89.4017 75.6596 89.4036 75.8478C89.4055 76.0359 89.4038 76.224 89.3983 76.4121L89.3884 76.6614C89.0168 76.4218 88.6631 75.9454 88.3467 75.6232C87.4694 74.7179 86.5813 73.8234 85.6826 72.9398C85.4339 72.696 85.2177 72.4157 84.9586 72.184C84.7616 72.0153 84.6294 71.7946 84.4509 71.6069L84.4586 75.8406L82.5391 75.8405L82.0228 75.838L82.0337 80.8614C82.0368 81.653 82.1298 82.5967 82.0083 83.3695C81.9528 83.7225 81.8361 84.0105 81.5901 84.2689C81.1006 84.7827 80.5334 84.7766 79.8796 84.7762L72.7275 84.7596L70.4014 84.7744C69.976 84.7775 69.5234 84.8103 69.1002 84.7645C68.8387 84.7362 68.6033 84.6288 68.373 84.5054C68.6121 84.8579 69.0044 85.1587 69.3091 85.461C69.9656 86.1119 70.6294 86.7688 71.2554 87.4496C71.589 87.8788 73.9275 90.0763 73.9476 90.3368C73.9009 90.3536 73.8557 90.3703 73.8075 90.3827C73.642 90.3605 73.4769 90.3355 73.3123 90.3076C73.1476 90.2796 72.9834 90.2489 72.8198 90.2153C72.6562 90.1817 72.4932 90.1454 72.3308 90.1062C72.1683 90.067 72.0066 90.025 71.8457 89.9802C71.6847 89.9354 71.5245 89.8879 71.3651 89.8375C71.2057 89.7872 71.0472 89.7342 70.8896 89.6784C70.732 89.6226 70.5754 89.5642 70.4198 89.503C70.2641 89.4418 70.1096 89.378 69.9561 89.3115C69.8027 89.2449 69.6504 89.1758 69.4992 89.104C69.348 89.0322 69.1981 88.9578 69.0495 88.8809C68.9009 88.8039 68.7536 88.7245 68.6076 88.6424C68.4616 88.5605 68.3171 88.4759 68.174 88.3889C68.0308 88.3019 67.8892 88.2124 67.7492 88.1205C67.609 88.0286 67.4705 87.9343 67.3336 87.8376C67.1967 87.7409 67.0614 87.6419 66.9278 87.5406C66.7943 87.4393 66.6624 87.3356 66.5323 87.2297C66.4422 87.1553 66.353 87.0798 66.2648 87.0033C66.1766 86.9267 66.0893 86.849 66.0029 86.7702C65.9166 86.6913 65.8313 86.6115 65.7469 86.5305C65.6625 86.4496 65.5792 86.3676 65.4968 86.2846C65.4145 86.2016 65.3331 86.1175 65.2528 86.0324C65.1725 85.9473 65.0933 85.8613 65.0152 85.7742C64.937 85.6871 64.8599 85.5991 64.7839 85.5101C64.7078 85.4211 64.6329 85.3312 64.5591 85.2403C64.4853 85.1494 64.4126 85.0576 64.3411 84.9648C64.2695 84.8721 64.1991 84.7785 64.1298 84.684C64.0606 84.5895 63.9925 84.4942 63.9256 84.398C63.8587 84.3018 63.7929 84.2048 63.7284 84.1069C63.6638 84.009 63.6005 83.9104 63.5385 83.811C63.4763 83.7115 63.4154 83.6113 63.3558 83.5103C63.2961 83.4093 63.2377 83.3076 63.1805 83.2052C63.1234 83.1027 63.0675 82.9996 63.0129 82.8957C62.9583 82.7919 62.9049 82.6873 62.8528 82.5821C62.8008 82.477 62.75 82.3711 62.7006 82.2647C62.6511 82.1582 62.6029 82.0511 62.5561 81.9434C62.5093 81.8357 62.4638 81.7275 62.4196 81.6187C62.3754 81.5098 62.3326 81.4005 62.2911 81.2906C62.2496 81.1807 62.2095 81.0703 62.1707 80.9594C62.1319 80.8485 62.0945 80.7371 62.0584 80.6253C62.0224 80.5134 61.9877 80.4011 61.9544 80.2884C61.9211 80.1757 61.8892 80.0625 61.8587 79.949C61.8282 79.8355 61.7991 79.7216 61.7714 79.6073C61.7437 79.4931 61.7173 79.3785 61.6924 79.2635C61.6675 79.1487 61.644 79.0335 61.6219 78.918C61.5999 78.8025 61.5792 78.6867 61.56 78.5706C61.5408 78.4546 61.5229 78.3383 61.5066 78.2219C61.4901 78.1054 61.4752 77.9888 61.4617 77.8719C61.4482 77.755 61.4361 77.638 61.4254 77.5209C61.387 77.1467 61.436 76.7519 61.3221 76.394C61.2168 76.2997 61.1529 76.313 61.0156 76.2977L61.2851 76.2922C61.356 76.229 61.3496 76.2363 61.3569 76.1402C61.4091 75.4619 61.4227 74.7959 61.5229 74.1203C61.5483 73.9541 61.5766 73.7884 61.6076 73.6232C61.6387 73.458 61.6726 73.2934 61.7092 73.1294C61.7458 72.9654 61.7853 72.8021 61.8275 72.6394C61.8697 72.4768 61.9146 72.315 61.9623 72.1539C62.01 71.9928 62.0604 71.8326 62.1135 71.6733C62.1667 71.514 62.2225 71.3556 62.2811 71.1982C62.3396 71.0409 62.4008 70.8846 62.4646 70.7293C62.5285 70.5741 62.5949 70.42 62.664 70.2671C62.7331 70.1141 62.8047 69.9624 62.8789 69.812C62.9532 69.6616 63.0299 69.5125 63.1093 69.3648C63.1885 69.217 63.2703 69.0706 63.3546 68.9257C63.4389 68.7808 63.5256 68.6374 63.6147 68.4955C63.7039 68.3536 63.7954 68.2133 63.8893 68.0746C63.9833 67.9359 64.0796 67.7989 64.1781 67.6635C64.2767 67.5282 64.3775 67.3946 64.4806 67.2627C64.5838 67.1309 64.6891 67.0008 64.7967 66.8726C67.1885 64.0338 70.6343 62.1212 74.3279 61.8225L74.33 61.584C74.907 61.5621 75.4843 61.5213 76.0613 61.5571Z" fill="#615D57"/>
<path d="M76.0616 61.5571L76.077 61.7514C75.4973 61.7575 74.9033 61.7398 74.3281 61.8225L74.3302 61.584C74.9073 61.5621 75.4845 61.5213 76.0616 61.5571Z" fill="#814903"/>
<path d="M84.4575 66.3008C84.6487 66.5105 84.8876 66.7294 85.0259 66.977L85.0113 67.0145C84.9352 66.9411 84.8641 66.8647 84.7757 66.8065C84.7289 66.9774 84.7291 67.1471 84.7231 67.3231C84.7308 67.333 84.739 67.3425 84.7462 67.3527C84.7845 67.4079 84.8213 67.4682 84.8324 67.5358C84.8615 67.7129 84.9825 69.4809 84.9647 69.5797C84.9576 69.6194 84.9467 69.6316 84.9277 69.6619L84.9213 69.6105C84.9112 69.5336 84.8985 69.4576 84.8856 69.3811C84.8505 69.4961 84.9436 71.9167 84.9608 72.1826C84.7638 72.0138 84.6316 71.7932 84.4531 71.6055L84.4575 66.3008Z" fill="black"/>
<path d="M77.1562 66.1987L82.4804 66.2047C82.9245 66.2051 84.0427 66.1286 84.4192 66.2228L84.4511 66.3003L84.4467 71.605L84.4544 75.8386L82.535 75.8386L82.0186 75.8361C81.9492 75.4211 81.9903 74.9371 81.9891 74.5164C81.9856 73.3487 82.0374 72.1504 81.9519 70.9862C81.914 70.9385 81.8751 70.8916 81.8351 70.8457C81.6009 70.578 81.324 70.3726 80.9816 70.2722C80.3472 70.086 78.0295 70.222 77.1569 70.1709L77.1562 66.1987Z" fill="#FEC966"/>
<path d="M82.0198 75.8343C81.9504 75.4193 81.9915 74.9353 81.9902 74.5146C81.9868 73.3469 82.0386 72.1486 81.9531 70.9844C82.1725 71.2239 82.3478 71.4375 82.4489 71.7565C82.678 72.4801 82.509 74.9043 82.5362 75.8368L82.0198 75.8343Z" fill="#CC931F"/>
<path d="M77.1587 70.1697C78.0312 70.2207 80.349 70.0848 80.9834 70.2709C81.3258 70.3713 81.6026 70.5767 81.8369 70.8444C81.8768 70.8904 81.9157 70.9372 81.9537 70.9849C82.0392 72.1491 81.9874 73.3474 81.9908 74.5151C81.992 74.9359 81.9509 75.4199 82.0204 75.8348L82.0313 80.8583C82.0344 81.6498 82.1274 82.5936 82.0059 83.3663C81.9504 83.7194 81.8337 84.0074 81.5876 84.2657C81.0981 84.7795 80.5309 84.7735 79.8771 84.7731L72.725 84.7564L70.399 84.7712C69.9736 84.7744 69.5209 84.8072 69.0978 84.7613C68.8363 84.733 68.6009 84.6256 68.3706 84.5023C68.2919 84.3699 68.0738 84.228 67.9662 84.0959C67.9317 84.0533 67.9004 84.0084 67.8725 83.9612C67.8444 83.914 67.82 83.8649 67.7992 83.814C67.7783 83.7632 67.7613 83.711 67.7481 83.6576C67.7349 83.6042 67.7256 83.55 67.7203 83.4953C67.6546 82.7421 67.7078 81.9381 67.7083 81.1802L67.7159 76.542L67.7112 72.9776C67.7093 72.3922 67.6618 71.7602 67.7206 71.1799C67.7513 70.8757 67.9645 70.5059 68.2119 70.3281C68.3978 70.1946 68.7715 70.1624 69.0015 70.1475C69.5311 70.1133 70.0749 70.1367 70.6064 70.1366L73.6115 70.1374L75.8136 70.1396C76.2583 70.1402 76.7174 70.1162 77.1587 70.1697Z" fill="#FCBC18"/>
<path d="M75.8685 79.3586C77.0823 79.3493 78.296 79.3492 79.5097 79.3585L79.5054 80.1808C78.2948 80.1566 77.0784 80.1852 75.8672 80.1886L75.8685 79.3586Z" fill="#FAFAF7"/>
<path d="M69.8032 81.4906L74.2591 81.4805L74.2558 82.2799L69.7969 82.276L69.8032 81.4906Z" fill="#FAFAF7"/>
<path d="M70.6694 79.3436L74.3137 79.3398L74.3107 80.1739L73.4873 80.1675L69.8203 80.1755L69.8207 79.3506L70.6694 79.3436Z" fill="#FAFAF7"/>
<path d="M69.8034 75.1523L79.4694 75.1716L79.4673 75.9549L69.7969 75.9515C69.7976 75.6851 69.7998 75.4187 69.8034 75.1523Z" fill="#FAFAF7"/>
<path d="M69.7983 77.2344L79.4967 77.2381C79.4988 77.5134 79.4877 77.7894 79.4806 78.0647L69.7969 78.0685L69.7983 77.2344Z" fill="#FAFAF7"/>
<defs>
<filter id="filter0_dd_500_4898" x="15" y="21" width="122" height="118" filterUnits="userSpaceOnUse" color-interpolation-filters="sRGB">
<feFlood flood-opacity="0" result="BackgroundImageFix"/>
<feColorMatrix in="SourceAlpha" type="matrix" values="0 0 0 0 0 0 0 0 0 0 0 0 0 0 0 0 0 0 127 0" result="hardAlpha"/>
<feOffset dy="1"/>
<feGaussianBlur stdDeviation="1.5"/>
<feColorMatrix type="matrix" values="0 0 0 0 0 0 0 0 0 0 0 0 0 0 0 0 0 0 0.3 0"/>
<feBlend mode="normal" in2="BackgroundImageFix" result="effect1_dropShadow_500_4898"/>
<feColorMatrix in="SourceAlpha" type="matrix" values="0 0 0 0 0 0 0 0 0 0 0 0 0 0 0 0 0 0 127 0" result="hardAlpha"/>
<feMorphology radius="3" operator="dilate" in="SourceAlpha" result="effect2_dropShadow_500_4898"/>
<feOffset dy="4"/>
<feGaussianBlur stdDeviation="4"/>
<feColorMatrix type="matrix" values="0 0 0 0 0 0 0 0 0 0 0 0 0 0 0 0 0 0 0.15 0"/>
<feBlend mode="normal" in2="effect1_dropShadow_500_4898" result="effect2_dropShadow_500_4898"/>
<feBlend mode="normal" in="SourceGraphic" in2="effect2_dropShadow_500_4898" result="shape"/>
</filter>
<linearGradient id="paint0_linear_500_4898" x1="99.5" y1="28" x2="26" y2="151" gradientUnits="userSpaceOnUse">
<stop stop-color="#151515"/>
<stop offset="1" stop-color="#1F1D15"/>
</linearGradient>
<linearGradient id="paint1_linear_500_4898" x1="16.5" y1="6.5" x2="127" y2="197.5" gradientUnits="userSpaceOnUse">
<stop stop-color="#435257"/>
<stop offset="1" stop-color="#6D8C99"/>
</linearGradient>
<linearGradient id="paint2_linear_500_4898" x1="76.8193" y1="77.9468" x2="84.2715" y2="87.2223" gradientUnits="userSpaceOnUse">
<stop stop-color="#25221D"/>
<stop offset="1" stop-color="#4A463C"/>
</linearGradient>
</defs>
</svg>
