<svg width="151" height="153" viewBox="0 0 151 153" fill="none" xmlns="http://www.w3.org/2000/svg">
<ellipse cx="75.5" cy="75.9336" rx="59.5" ry="61" fill="#D8B431"/>
<g filter="url(#filter0_dd_500_4901)">
<ellipse cx="76" cy="75" rx="50" ry="48" fill="url(#paint0_linear_500_4901)"/>
<path d="M125.5 75C125.5 101.214 103.358 122.5 76 122.5C48.6425 122.5 26.5 101.214 26.5 75C26.5 48.7855 48.6425 27.5 76 27.5C103.358 27.5 125.5 48.7855 125.5 75Z" stroke="#3C3F33"/>
</g>
<path d="M85.293 0.0193243C87.1605 -0.259089 86.2512 2.54017 86.2255 3.95342C86.155 7.80078 85.9882 11.8226 86.631 15.6221C89.8057 17.0505 93.4909 17.4711 96.7942 18.6281C101.246 20.1867 105.403 22.4089 109.723 24.2706C113.799 22.1421 117.533 17.1695 121.422 14.2567C126.803 18.3442 132.414 24.6604 137.927 29.2386C135.713 31.4533 128.788 38.3587 127.35 40.7565C128.611 44.5499 131.583 47.559 133.214 51.2025C134.801 54.7478 135.302 58.7858 136.828 62.1494C140.83 63.3594 146.566 62.7971 150.827 62.8772C151.036 71.2629 151.088 79.8055 150.801 88.1887C148.43 88.2396 138.915 87.6369 137.52 88.7894C136.649 89.5081 133.788 99.4508 132.658 101.853C126.867 114.173 125.902 109.93 136.445 121.265C132.508 126.147 123.557 133.803 118.758 138.159C116.171 135.721 114.024 132.612 111.318 130.368C108.93 128.388 98.3906 134.862 94.0925 135.725C91.1797 136.31 87.2017 135.965 86.4792 139.524C85.8056 142.841 86.1967 149.336 86.2049 152.997H66.1862L64.3079 153C63.9476 150.063 63.8838 146.967 64.0567 144.011C64.3475 139.052 65.4524 137.116 59.1504 136.082C52.7001 135.024 48.1648 131.613 42.293 129.708C38.6654 131.301 35.6884 135.389 33.4518 138.539C27.2301 132.671 20.7515 127.023 14.59 121.223C17.5738 117.752 21.5713 115.517 23.6221 111.273C21.7175 105.952 17.7132 102.004 15.7134 95.4143C12.5732 85.0701 11.8857 88.747 0 88.054L0.350353 62.6795C14.7645 63.5849 12.9371 64.2996 16.4545 54.311C18.0838 49.6834 20.9749 45.9914 23.3087 41.7355C25.1315 38.4116 16.4601 32.4843 13.9822 30.2857C19.4671 25.0493 25.0671 19.9405 30.6096 14.7641C32.7833 16.4624 39.4909 23.2744 41.4737 23.8444C42.6208 24.1737 52.6415 18.7396 55.46 17.9175C58.1638 17.1286 61.1332 16.7882 63.6311 15.4662C64.4684 11.3102 64.0145 4.47091 63.9883 0.0798465C71.0952 0.232167 78.1918 0.490408 85.293 0.0193243ZM73.1701 30.5944C46.0981 32.2901 26.9409 54.1279 28.688 80.5747C30.3286 105.407 53.6537 123.999 78.4939 123.028C120.596 119.819 138.918 68.4228 106.375 41.4969C97.349 34.0286 85.0815 29.4656 73.1701 30.5944Z" fill="url(#paint1_linear_500_4901)"/>
<path d="M54.2911 76.0129L54.3041 75.9609C54.3336 76.0575 54.3823 76.5041 54.4244 76.5275L54.3834 76.5308C53.9077 76.5771 53.4164 76.5544 52.938 76.5558L50.3185 76.5671C50.3053 76.4399 50.316 76.3257 50.3306 76.199C50.7828 76.1985 54.1439 76.2574 54.2908 76.1539L54.2911 76.0129Z" fill="#D5860F"/>
<path d="M101.133 68.7422L101.503 68.7443C101.507 69.8585 101.567 71.0102 101.49 72.1214C100.807 72.1094 100.123 72.1032 99.4385 72.103C99.4202 71.9881 99.4347 71.8737 99.4431 71.7584C100.003 71.7808 100.57 71.7607 101.131 71.7589C101.166 70.7574 101.141 69.7448 101.133 68.7422Z" fill="#F3A915"/>
<path d="M105.023 77.5703C105.013 77.7631 105 77.9563 104.999 78.1493C104.988 78.1064 104.969 78.0681 104.951 78.0277C104.812 77.9582 99.362 77.9928 98.75 77.9966C98.8333 77.8855 98.845 77.7793 98.8368 77.6439C99.6787 77.7073 100.576 77.6511 101.423 77.6513C102.597 77.6516 103.789 77.695 104.961 77.6427L105.023 77.5703Z" fill="#F3A915"/>
<path d="M100.971 87.3555C100.97 87.5938 100.965 87.8275 101.003 88.0637C100.303 88.021 99.5771 88.056 98.8748 88.0561L94.6875 88.0517C94.748 87.9341 94.8217 87.8219 94.8904 87.7087C96.1784 87.7146 97.4673 87.6903 98.7554 87.6816C99.4629 87.6768 100.195 87.7199 100.9 87.6618C100.95 87.5765 100.955 87.4539 100.971 87.3555Z" fill="#D5860F"/>
<path d="M97.2344 83.039L97.3777 82.6484C99.2975 82.6525 101.227 82.6883 103.146 82.65C103.153 82.7815 103.163 82.9121 103.147 83.0432C102.452 83.0776 101.746 83.0544 101.05 83.0511C99.7781 83.0404 98.5062 83.0364 97.2344 83.039Z" fill="#D5860F"/>
<path d="M70.4609 45.5938L70.524 45.746C71.102 45.8497 72.2551 45.7642 72.8975 45.772L72.89 50.2969C72.856 50.6635 72.8697 51.0402 72.8669 51.4084C72.7483 51.4802 72.6332 51.5582 72.517 51.634L72.5163 48.0438C72.5159 47.4359 72.5613 46.7826 72.4942 46.1796L70.4812 46.1859C70.4573 45.994 70.4654 45.7877 70.4609 45.5938Z" fill="#D5860F"/>
<path d="M63.5069 49.7461C64.9492 49.7963 66.3948 49.731 67.8372 49.7621L67.8303 53.4509C67.8126 53.6787 67.8043 53.9053 67.7995 54.1337L67.4482 54.2918C67.451 52.9113 67.4465 51.5309 67.4349 50.1505L64.9539 50.1367C64.479 50.1332 63.9908 50.1062 63.518 50.1452C63.4879 50.0189 63.504 49.8754 63.5069 49.7461Z" fill="#D5860F"/>
<path d="M63.5191 50.1444C63.5156 50.1856 63.5123 50.224 63.5008 50.2639C63.4289 50.5127 63.2171 50.7692 62.9918 50.8945C62.755 51.0262 62.446 51.0298 62.1907 50.9528C61.9392 50.8768 61.7369 50.7084 61.6192 50.4734C61.6106 50.4566 61.6024 50.4396 61.5947 50.4224C61.587 50.4052 61.5798 50.3878 61.573 50.3702C61.5662 50.3526 61.5599 50.3349 61.554 50.3169C61.5481 50.299 61.5427 50.281 61.5378 50.2628C61.5328 50.2446 61.5284 50.2263 61.5244 50.2078C61.5204 50.1894 61.5169 50.1709 61.5139 50.1523C61.5109 50.1336 61.5084 50.115 61.5064 50.0962C61.5043 50.0775 61.5028 50.0587 61.5017 50.0399C61.5007 50.0211 61.5001 50.0022 61.5 49.9834C61.5 49.9645 61.5004 49.9457 61.5013 49.9269C61.5022 49.908 61.5036 49.8892 61.5055 49.8705C61.5073 49.8517 61.5097 49.833 61.5126 49.8144C61.5154 49.7958 61.5188 49.7772 61.5226 49.7587C61.5264 49.7403 61.5308 49.7219 61.5356 49.7037C61.5403 49.6855 61.5456 49.6674 61.5513 49.6494C61.557 49.6314 61.5632 49.6136 61.5699 49.596C61.6656 49.3485 61.8524 49.1357 62.1005 49.034C62.3856 48.917 62.6953 48.9579 62.969 49.0863C63.2493 49.2178 63.4108 49.4604 63.508 49.7453C63.5051 49.8746 63.489 50.0181 63.5191 50.1444Z" fill="#F3A915"/>
<path d="M69.1357 46.8804C69.1147 46.8717 69.0933 46.8642 69.0729 46.8544C68.8199 46.7334 68.6027 46.526 68.5089 46.2587C68.4978 46.2267 68.4884 46.1942 68.4805 46.1612C68.4727 46.1282 68.4665 46.0949 68.462 46.0612C68.4575 46.0276 68.4547 45.9939 68.4537 45.96C68.4526 45.9261 68.4532 45.8922 68.4555 45.8584C68.4578 45.8245 68.4618 45.7909 68.4675 45.7574C68.4731 45.724 68.4805 45.6909 68.4895 45.6582C68.4985 45.6255 68.5092 45.5934 68.5214 45.5617C68.5337 45.5301 68.5475 45.4992 68.5628 45.4689C68.6965 45.2048 68.9444 44.9934 69.2305 44.9136C69.4939 44.84 69.7688 44.8857 69.9998 45.0297C70.2277 45.1718 70.3913 45.3312 70.4571 45.5957C70.4616 45.7896 70.4535 45.996 70.4774 46.1878C70.3766 46.4793 70.2097 46.6913 69.9241 46.8213C69.8004 46.8776 69.6683 46.9162 69.5358 46.9454C69.4019 46.9144 69.2725 46.8935 69.1357 46.8804Z" fill="#F3A915"/>
<path d="M106.154 71.3905C106.13 71.1287 106.179 70.9071 106.351 70.7002C106.526 70.4901 106.798 70.3685 107.067 70.3471C107.104 70.3442 107.141 70.3432 107.178 70.3441C107.215 70.3449 107.252 70.3477 107.289 70.3523C107.325 70.357 107.362 70.3635 107.398 70.3719C107.434 70.3802 107.47 70.3904 107.505 70.4024C107.54 70.4144 107.574 70.4282 107.608 70.4437C107.641 70.4592 107.674 70.4764 107.706 70.4953C107.738 70.5141 107.769 70.5346 107.798 70.5566C107.828 70.5786 107.857 70.6021 107.884 70.6271C108.066 70.7954 108.174 71.0261 108.178 71.2748C108.182 71.5517 108.091 71.8339 107.895 72.0333C107.683 72.2491 107.398 72.3818 107.093 72.3757C106.83 72.3705 106.553 72.2603 106.372 72.0659C106.296 71.9841 106.245 71.8926 106.197 71.7926L106.154 71.3905Z" fill="#F3A915"/>
<path d="M56.433 53.1887C56.4182 53.2437 56.4026 53.2994 56.38 53.3518C56.2696 53.6079 56.0617 53.7867 55.805 53.888C55.7736 53.9005 55.7417 53.9114 55.7093 53.9208C55.6768 53.9301 55.6439 53.9378 55.6107 53.9438C55.5774 53.9499 55.544 53.9542 55.5103 53.957C55.4766 53.9596 55.4429 53.9606 55.4091 53.9599C55.3753 53.9592 55.3417 53.9569 55.3081 53.9528C55.2746 53.9487 55.2413 53.943 55.2083 53.9355C55.1754 53.9281 55.1429 53.9191 55.1108 53.9085C55.0788 53.8978 55.0473 53.8856 55.0165 53.8717C54.9834 53.8571 54.9512 53.8408 54.9198 53.8229C54.8884 53.8049 54.858 53.7855 54.8286 53.7645C54.7992 53.7434 54.7709 53.721 54.7438 53.6971C54.7166 53.6733 54.6908 53.6481 54.6662 53.6216C54.6416 53.595 54.6185 53.5674 54.5967 53.5385C54.5749 53.5097 54.5547 53.4798 54.5359 53.4489C54.5172 53.4179 54.5001 53.3862 54.4845 53.3535C54.469 53.3209 54.4552 53.2875 54.4431 53.2535C54.3572 53.0077 54.3592 52.7175 54.4744 52.4813C54.6025 52.2187 54.8482 52.0744 55.1154 51.9824C55.407 51.8821 55.6738 51.9312 55.9412 52.0771C56.2177 52.228 56.3778 52.4777 56.4655 52.7734C56.4532 52.9099 56.4313 53.0519 56.433 53.1887Z" fill="#F3A915"/>
<path d="M50.3162 76.5697C50.297 76.6426 50.2749 76.7174 50.2438 76.7862C50.1292 77.0389 49.9076 77.215 49.6506 77.3092C49.3912 77.4043 49.1112 77.4031 48.8611 77.281C48.83 77.2655 48.7998 77.2486 48.7703 77.2301C48.7409 77.2116 48.7125 77.1917 48.685 77.1705C48.6575 77.1492 48.6311 77.1267 48.6059 77.1028C48.5806 77.0789 48.5566 77.0539 48.5338 77.0276C48.511 77.0014 48.4896 76.9741 48.4695 76.9458C48.4494 76.9174 48.4308 76.8882 48.4135 76.858C48.3963 76.8278 48.3806 76.7969 48.3665 76.7651C48.3523 76.7334 48.3397 76.701 48.3288 76.6681C48.2352 76.3912 48.2622 76.0699 48.3953 75.8102C48.5201 75.5669 48.7337 75.4096 48.9955 75.3392C49.279 75.2629 49.6003 75.286 49.8545 75.4393C50.1375 75.61 50.2502 75.8979 50.3282 76.2015C50.3137 76.3283 50.3029 76.4425 50.3162 76.5697Z" fill="#F3A915"/>
<path d="M105.025 77.5713C105.077 77.3448 105.208 77.1467 105.405 77.0182C105.65 76.8583 105.978 76.8294 106.257 76.8985C106.545 76.9696 106.806 77.1539 106.949 77.4163C107.092 77.6783 107.099 78.0081 107.003 78.2872C106.909 78.5587 106.712 78.7295 106.456 78.8469C106.163 78.9815 105.885 78.9975 105.583 78.8708C105.339 78.7687 105.116 78.5692 105.033 78.3125C105.016 78.26 105.008 78.2047 105 78.1504C105.001 77.9573 105.015 77.7642 105.025 77.5713Z" fill="#F3A915"/>
<path d="M103.148 82.6523C103.193 82.3867 103.336 82.1573 103.554 81.9973C103.796 81.8195 104.09 81.7581 104.384 81.8117C104.42 81.818 104.456 81.8262 104.491 81.8362C104.526 81.8462 104.56 81.858 104.594 81.8716C104.628 81.8851 104.661 81.9004 104.693 81.9174C104.726 81.9344 104.757 81.9529 104.787 81.9731C104.818 81.9933 104.847 82.0151 104.875 82.0383C104.903 82.0615 104.93 82.0861 104.955 82.1122C104.981 82.1381 105.005 82.1654 105.028 82.1939C105.051 82.2224 105.072 82.252 105.092 82.2827C105.24 82.5134 105.295 82.8145 105.231 83.0815C105.165 83.3526 104.983 83.5857 104.745 83.7283C104.712 83.748 104.679 83.7659 104.645 83.7821C104.611 83.7984 104.576 83.8128 104.54 83.8255C104.504 83.8382 104.468 83.849 104.431 83.858C104.394 83.8669 104.357 83.874 104.319 83.8791C104.282 83.8843 104.244 83.8875 104.206 83.8888C104.168 83.8901 104.131 83.8895 104.093 83.8869C104.055 83.8843 104.017 83.8799 103.98 83.8734C103.943 83.867 103.906 83.8587 103.869 83.8485C103.615 83.7758 103.388 83.5967 103.27 83.3578C103.222 83.2595 103.177 83.1516 103.149 83.0454C103.165 82.9144 103.155 82.7837 103.148 82.6523Z" fill="#F3A915"/>
<path d="M100.97 87.3563C101.081 87.0737 101.237 86.8359 101.524 86.7073C101.791 86.5881 102.108 86.567 102.38 86.6789C102.658 86.7933 102.863 87.0251 102.965 87.3053C103.068 87.5868 103.068 87.9153 102.934 88.1866C102.815 88.4259 102.597 88.5898 102.344 88.6649C102.307 88.676 102.27 88.6852 102.233 88.6925C102.195 88.6998 102.158 88.7052 102.12 88.7087C102.082 88.7121 102.044 88.7137 102.006 88.7133C101.967 88.713 101.929 88.7106 101.892 88.7064C101.854 88.7021 101.816 88.696 101.779 88.6879C101.741 88.6799 101.705 88.67 101.668 88.6582C101.632 88.6464 101.597 88.6328 101.562 88.6174C101.527 88.602 101.493 88.5848 101.46 88.566C101.259 88.453 101.089 88.2784 101.001 88.0645C100.964 87.8283 100.968 87.5947 100.97 87.3563Z" fill="#F3A915"/>
<path d="M106.154 71.3906L106.196 71.7927L103.888 71.7948C103.887 72.6219 103.962 74.0069 103.837 74.7619C102.322 74.7527 100.789 74.7078 99.2757 74.76C99.2652 74.6435 99.2939 74.5216 99.3122 74.4062C100.708 74.3764 102.107 74.3918 103.503 74.3931C103.498 73.4057 103.5 72.4183 103.508 71.4309C104.076 71.3969 105.768 71.4996 106.154 71.3906Z" fill="#D5860F"/>
<path d="M56.4701 52.7729C58.6548 52.8205 60.8515 52.7748 63.0373 52.7773C63.9024 52.7783 64.8407 52.7088 65.6947 52.7879C65.6905 53.523 65.7352 54.2952 65.6741 55.025C65.6066 55.1286 65.5257 55.1589 65.4125 55.2062C65.366 55.221 65.3548 55.2086 65.3096 55.1942C65.2983 54.5267 65.307 53.8572 65.306 53.1896C63.4607 53.2013 61.6155 53.2016 59.7703 53.1904C58.6611 53.1911 57.5461 53.2239 56.4376 53.1882C56.4359 53.0514 56.4578 52.9094 56.4701 52.7729Z" fill="#D5860F"/>
<path d="M50.604 68.5763C50.6255 68.411 50.6379 68.2484 50.6461 68.082C50.6622 68.2729 50.7056 68.505 50.6454 68.6883L50.6621 68.7355C50.6587 68.749 50.6541 68.7624 50.6518 68.7762C50.6405 68.8454 50.6606 68.8842 50.6855 68.9469C50.9932 69.1452 53.4187 68.8035 53.4779 69.0894C53.5424 69.4008 53.5213 69.7479 53.5326 70.0659C53.5483 70.6085 53.5761 71.1506 53.6158 71.692C53.6459 72.0978 53.7784 72.5517 53.7579 72.9522C53.0997 73.0863 52.3286 73.0117 51.655 73.0119L47.9023 73.0113C47.6178 73.0111 46.9877 72.948 46.7549 73.0341C46.7242 73.1204 46.7337 73.1793 46.7398 73.2686C47.0799 73.3511 47.8885 73.2895 48.2612 73.2885L52.2366 73.2932C52.7502 73.2937 53.2935 73.2412 53.8051 73.3025C53.8492 73.518 53.9015 73.7584 53.9019 73.9782C53.9026 74.3247 54.0522 74.7268 54.1032 75.0773L54.0609 75.1149C53.9081 74.5376 53.8454 73.9128 53.7575 73.3224C51.4068 73.3626 49.052 73.3275 46.7009 73.3252C46.6623 73.4133 46.6235 73.5017 46.5789 73.587C46.4611 73.8125 46.2218 74.0096 45.9779 74.0814C45.7016 74.1627 45.3893 74.1118 45.1447 73.9632C44.8886 73.8076 44.6968 73.5474 44.6386 73.2521C44.5877 72.9936 44.6254 72.7023 44.775 72.4815C44.9459 72.229 45.249 72.078 45.5442 72.0295C45.8105 71.9858 46.0878 72.0358 46.3068 72.1984C46.5679 72.3921 46.659 72.6305 46.6992 72.942C49.028 73.0034 51.3699 72.9496 53.7001 72.9423C53.6468 72.3733 53.5735 71.8073 53.5324 71.2367C53.4797 70.5031 53.4681 69.764 53.4437 69.0288C52.5079 69.0452 51.5386 69.1072 50.606 69.0338L50.604 68.5763Z" fill="#F3A915"/>
<path d="M99.4472 68.7441C100.01 68.748 100.573 68.7581 101.136 68.7422C101.143 69.7448 101.168 70.7574 101.133 71.7589C100.572 71.7607 100.005 71.7808 99.4453 71.7584C99.504 70.7653 99.4513 69.7404 99.4472 68.7441Z" fill="#0A0A0A"/>
<path d="M84.8354 94.3816L84.8988 94.3996C85.2783 94.1316 85.6277 93.7758 85.9694 93.4598C86.0894 93.3487 86.211 93.2049 86.3465 93.1148C86.4107 93.0722 86.4267 93.0798 86.4994 93.09C86.5278 93.1221 86.5777 93.1971 86.6116 93.217C86.7484 93.2972 87.3442 93.2758 87.8097 93.5821C88.2349 93.8618 88.4357 94.371 88.7871 94.6007C88.8633 94.6505 88.8666 94.7068 88.8749 94.7907C88.8853 94.894 88.8854 95.0003 88.8891 95.1041L88.9894 95.1206L89.007 95.1881C88.8896 95.3845 88.2516 95.7373 88.297 95.9421C87.8204 96.475 87.2447 96.949 86.7091 97.4224C86.3619 97.7284 86.0098 98.0286 85.6528 98.3232C85.2958 98.6177 84.9342 98.9064 84.5679 99.1892C84.2015 99.472 83.8307 99.7488 83.4554 100.02C83.0801 100.29 82.7006 100.555 82.3167 100.814C81.9328 101.072 81.5449 101.324 81.1528 101.57C80.7608 101.816 80.3648 102.056 79.965 102.289C79.5652 102.522 79.1617 102.748 78.7546 102.968C78.3474 103.188 77.9368 103.402 77.5227 103.608C77.1916 103.773 76.8621 103.987 76.5234 104.128C76.5884 103.656 76.5415 103.13 76.5399 102.65C76.5365 101.537 76.5152 100.421 76.5398 99.3089C77.0198 99.2038 78.8192 98.3137 79.217 98.0244C81.2509 97.0848 83.025 95.6739 84.8354 94.3816Z" fill="#A57018"/>
<path d="M66.1106 92.3398C66.3922 92.6208 66.679 92.8964 66.9708 93.1666C67.2627 93.4368 67.5596 93.7015 67.8614 93.9606C68.1632 94.2197 68.4697 94.4731 68.781 94.7207C69.0922 94.9684 69.408 95.2101 69.7284 95.446C70.0487 95.6817 70.3733 95.9115 70.7022 96.1352C71.0311 96.3588 71.3641 96.5763 71.7012 96.7875C72.0383 96.9987 72.3791 97.2036 72.7238 97.4021C73.0686 97.6005 73.4169 97.7924 73.7688 97.9779C74.3846 98.2991 75.007 98.6071 75.6358 98.9021C75.933 99.0405 76.2437 99.1601 76.5347 99.3104C76.5101 100.423 76.5314 101.539 76.5348 102.652C76.5363 103.131 76.5833 103.657 76.5183 104.13C72.1861 102.061 68.0045 99.1018 64.3438 96.0055C64.9442 95.1547 65.3825 94.2028 65.8075 93.257C65.9298 92.9632 66.0141 92.6433 66.1106 92.3398Z" fill="#F3A915"/>
<path d="M81.5469 52.2062C81.5649 52.1531 81.5835 52.1003 81.6027 52.0477C81.622 51.9951 81.6419 51.9427 81.6624 51.8906C81.6829 51.8385 81.7041 51.7866 81.7258 51.735C81.7477 51.6834 81.7701 51.6321 81.7931 51.581C81.8161 51.5299 81.8398 51.4792 81.864 51.4287C81.8883 51.3782 81.9132 51.328 81.9386 51.2781C81.9641 51.2282 81.9902 51.1786 82.0169 51.1294C82.0436 51.0801 82.0708 51.0312 82.0987 50.9826C82.1266 50.934 82.155 50.8858 82.1841 50.8379C82.2131 50.7899 82.2427 50.7424 82.273 50.6952C82.3031 50.648 82.3339 50.6012 82.3652 50.5548C82.3965 50.5083 82.4284 50.4623 82.4609 50.4166C82.4933 50.371 82.5263 50.3257 82.5599 50.2808C82.5934 50.2359 82.6275 50.1915 82.6621 50.1475C82.6968 50.1034 82.7319 50.0598 82.7676 50.0167C82.8033 49.9734 82.8395 49.9307 82.8762 49.8884C82.9129 49.8461 82.9502 49.8042 82.9879 49.7628C83.0256 49.7214 83.0638 49.6805 83.1026 49.64C83.1413 49.5995 83.1805 49.5595 83.2202 49.52C83.2599 49.4805 83.3001 49.4414 83.3407 49.4029C83.3814 49.3643 83.4225 49.3263 83.4641 49.2888C83.5056 49.2512 83.5477 49.2141 83.5901 49.1776C83.6326 49.1411 83.6755 49.105 83.7188 49.0696C83.7622 49.0341 83.806 48.9991 83.8501 48.9647C83.8943 48.9303 83.9389 48.8964 83.9839 48.863C84.0289 48.8297 84.0743 48.7969 84.1201 48.7647C84.166 48.7324 84.2121 48.7007 84.2587 48.6696C84.3053 48.6384 84.3523 48.6079 84.3996 48.5779C84.4469 48.5479 84.4946 48.5185 84.5426 48.4897C84.5906 48.4608 84.639 48.4326 84.6877 48.4049C84.7364 48.3773 84.7855 48.3502 84.8349 48.3237C84.8842 48.2973 84.9339 48.2714 84.9839 48.2462C86.6776 47.3976 88.7505 47.2826 90.5406 47.8901C90.5937 47.9081 90.6465 47.9269 90.6992 47.9463C90.7518 47.9656 90.8042 47.9857 90.8563 48.0063C90.9084 48.027 90.9603 48.0484 91.0119 48.0703C91.0634 48.0923 91.1148 48.1149 91.1658 48.1381C91.2168 48.1613 91.2675 48.1852 91.318 48.2097C91.3684 48.2342 91.4185 48.2593 91.4684 48.285C91.5182 48.3107 91.5677 48.3371 91.6169 48.364C91.666 48.391 91.7148 48.4185 91.7633 48.4467C91.8118 48.4748 91.86 48.5036 91.9077 48.5329C91.9555 48.5623 92.0029 48.5922 92.05 48.6227C92.097 48.6532 92.1437 48.6843 92.1899 48.716C92.2362 48.7476 92.2821 48.7799 92.3276 48.8127C92.3731 48.8455 92.4181 48.8788 92.4627 48.9128C92.5074 48.9467 92.5516 48.9811 92.5954 49.0161C92.6392 49.0512 92.6826 49.0867 92.7255 49.1228C92.7684 49.1589 92.8109 49.1955 92.8529 49.2326C92.8949 49.2697 92.9364 49.3074 92.9775 49.3455C93.0186 49.3837 93.0592 49.4223 93.0994 49.4615C93.1395 49.5007 93.1791 49.5403 93.2183 49.5805C93.2574 49.6206 93.2961 49.6612 93.3343 49.7023C93.3724 49.7434 93.41 49.785 93.4471 49.827C93.4843 49.869 93.5208 49.9115 93.5569 49.9544C93.593 49.9973 93.6286 50.0407 93.6635 50.0845C93.6985 50.1284 93.733 50.1726 93.7669 50.2172C93.8008 50.2619 93.8341 50.307 93.8669 50.3524C93.8997 50.3979 93.9319 50.4438 93.9636 50.4901C93.9952 50.5363 94.0263 50.583 94.0568 50.6301C94.0873 50.6771 94.1173 50.7245 94.1466 50.7723C94.1759 50.8201 94.2046 50.8683 94.2328 50.9168C94.2609 50.9653 94.2885 51.0141 94.3154 51.0633C94.3423 51.1125 94.3686 51.162 94.3943 51.2118C94.4201 51.2616 94.4452 51.3118 94.4696 51.3622C94.7615 51.9612 94.9422 52.5941 95.0871 53.2422C96.3719 53.2329 97.4695 53.5309 98.4146 54.4372C98.0263 54.4246 97.6327 54.414 97.2445 54.4362C95.2416 54.5506 93.7723 55.418 92.4602 56.8894C91.8494 56.7369 91.253 56.5184 90.6538 56.3259C89.9815 56.116 89.3149 55.8894 88.6539 55.6461C87.9929 55.4028 87.3385 55.1432 86.6905 54.8671C86.0426 54.5911 85.4019 54.299 84.7686 53.9909C84.1352 53.6828 83.51 53.359 82.8928 53.0196C82.4599 52.7818 81.9055 52.541 81.5469 52.2062Z" fill="#FEFEFE"/>
<path d="M64.3434 96.0023C62.9497 97.8197 61.0293 99.1933 58.8081 99.8013C58.7263 99.8243 58.6443 99.8463 58.5619 99.8673C58.4796 99.8883 58.397 99.9083 58.3142 99.9272C58.2314 99.9462 58.1484 99.9641 58.0651 99.981C57.9818 99.9979 57.8984 100.014 57.8148 100.029C57.7311 100.043 57.6473 100.057 57.5633 100.07C57.4793 100.083 57.3951 100.094 57.3108 100.105C57.2266 100.116 57.1422 100.125 57.0576 100.134C56.9731 100.143 56.8885 100.15 56.8038 100.157C56.7191 100.163 56.6343 100.168 56.5495 100.173C56.4646 100.177 56.3798 100.181 56.2948 100.183C56.2099 100.185 56.1249 100.186 56.04 100.187C55.955 100.187 55.8701 100.186 55.7852 100.184C55.7002 100.182 55.6154 100.179 55.5305 100.175C55.4456 100.171 55.3608 100.166 55.2761 100.16C55.1913 100.154 55.1067 100.147 55.0221 100.139C54.9376 100.13 54.8531 100.121 54.7688 100.111C54.6845 100.101 54.6003 100.089 54.5162 100.077C54.4322 100.064 54.3483 100.051 54.2646 100.037C54.1808 100.022 54.0973 100.007 54.014 99.9901C53.9306 99.9736 53.8475 99.9561 53.7646 99.9375C53.6817 99.9189 53.599 99.8993 53.5166 99.8787C53.4343 99.8581 53.3521 99.8364 53.2702 99.8138C53.1883 99.7911 53.1068 99.7675 53.0255 99.7429C52.9441 99.7182 52.8632 99.6925 52.7825 99.6658C52.7018 99.6392 52.6215 99.6115 52.5416 99.5828C52.4616 99.5542 52.382 99.5245 52.3027 99.4939C52.2235 99.4633 52.1446 99.4317 52.0662 99.3991C51.9877 99.3665 51.9097 99.333 51.832 99.2985C51.7544 99.264 51.6772 99.2285 51.6005 99.1921C51.5237 99.1556 51.4474 99.1183 51.3716 99.08C51.2957 99.0417 51.2204 99.0024 51.1455 98.9623C51.0707 98.9221 50.9964 98.881 50.9225 98.839C48.2093 97.2675 46.3145 94.6447 45.5239 91.632C45.5003 91.544 45.4779 91.4558 45.4565 91.3674C45.4351 91.2788 45.4149 91.1901 45.3957 91.101C45.3765 91.0121 45.3584 90.9228 45.3415 90.8333C45.3245 90.7439 45.3087 90.6542 45.2939 90.5644C45.2792 90.4745 45.2656 90.3845 45.253 90.2943C45.2405 90.2041 45.2291 90.1138 45.2189 90.0233C45.2086 89.9329 45.1994 89.8423 45.1914 89.7516C45.1834 89.6609 45.1765 89.5701 45.1707 89.4793C45.1649 89.3884 45.1603 89.2975 45.1567 89.2065C45.1532 89.1155 45.1508 89.0245 45.1495 88.9335C45.1482 88.8424 45.1481 88.7514 45.1491 88.6603C45.1501 88.5693 45.1522 88.4783 45.1554 88.3873C45.1586 88.2963 45.163 88.2053 45.1685 88.1145C45.174 88.0236 45.1806 87.9328 45.1883 87.842C45.1961 87.7513 45.2049 87.6607 45.2149 87.5702C45.2249 87.4797 45.236 87.3894 45.2482 87.2991C45.2604 87.2089 45.2738 87.1188 45.2882 87.0289C45.3027 86.939 45.3182 86.8493 45.3349 86.7598C45.3516 86.6703 45.3693 86.581 45.3882 86.4919C45.4071 86.4029 45.4271 86.314 45.4482 86.2255C45.4693 86.1369 45.4915 86.0486 45.5147 85.9605C45.538 85.8725 45.5624 85.7848 45.5878 85.6974C45.6133 85.61 45.6398 85.5228 45.6674 85.4361C45.695 85.3493 45.7237 85.2629 45.7534 85.1769C45.7831 85.0908 45.814 85.0052 45.8458 84.9199C45.8777 84.8346 45.9106 84.7497 45.9446 84.6652C45.9785 84.5807 46.0135 84.4967 46.0496 84.4131C46.0856 84.3295 46.1227 84.2463 46.1608 84.1636C46.199 84.0809 46.2381 83.9987 46.2782 83.917C46.3184 83.8353 46.3595 83.7541 46.4017 83.6734C46.4438 83.5926 46.487 83.5125 46.5311 83.4328C46.5753 83.3532 46.6204 83.2742 46.6665 83.1956C46.7103 83.1224 46.7549 83.0497 46.8005 82.9775C46.846 82.9053 46.8925 82.8337 46.9398 82.7627C46.9871 82.6917 47.0353 82.6212 47.0843 82.5514C47.1334 82.4815 47.1832 82.4123 47.234 82.3437C47.2847 82.2751 47.3363 82.2071 47.3887 82.1397C47.4411 82.0724 47.4943 82.0057 47.5484 81.9396C47.6024 81.8736 47.6573 81.8082 47.7129 81.7435C47.7686 81.6787 47.825 81.6147 47.8822 81.5514C47.9394 81.4881 47.9974 81.4255 48.0561 81.3636C48.1149 81.3017 48.1744 81.2405 48.2347 81.18C48.2949 81.1196 48.3559 81.0599 48.4177 81.001C48.4794 80.9421 48.5418 80.8839 48.6049 80.8265C48.6681 80.7691 48.7319 80.7125 48.7964 80.6566C48.861 80.6007 48.9262 80.5457 48.9921 80.4915C49.058 80.4372 49.1245 80.3838 49.1917 80.3312C49.2589 80.2786 49.3268 80.2268 49.3952 80.1758C49.4637 80.1249 49.5328 80.0748 49.6025 80.0255C49.6722 79.9763 49.7425 79.9279 49.8133 79.8804C49.8842 79.8329 49.9557 79.7862 50.0277 79.7404C50.0997 79.6947 50.1723 79.6498 50.2454 79.6058C50.3186 79.5618 50.3923 79.5187 50.4665 79.4765C50.5407 79.4343 50.6153 79.393 50.6905 79.3527C50.7657 79.3123 50.8414 79.2729 50.9176 79.2345C50.9937 79.196 51.0704 79.1584 51.1475 79.1218C51.2245 79.0852 51.3021 79.0495 51.38 79.0148C51.458 78.9801 51.5364 78.9463 51.6152 78.9135C51.694 78.8807 51.7732 78.8489 51.8527 78.8181C51.9323 78.7872 52.0122 78.7573 52.0925 78.7285C52.1729 78.6996 52.2535 78.6717 52.3345 78.6448C52.4155 78.6179 52.4968 78.592 52.5784 78.567C52.6601 78.5422 52.742 78.5183 52.8242 78.4954C52.9064 78.4725 52.9889 78.4506 53.0716 78.4297L52.8936 78.6032L52.8664 78.5908C52.8711 78.6071 52.8778 78.6231 52.8807 78.64C53.0342 79.5578 52.6554 80.7469 52.4855 81.6587C52.1714 81.7936 51.2362 82.0994 51.102 82.3625C50.9267 82.7063 51.0233 85.9001 51.0277 86.5277C50.7209 86.5247 50.3179 86.4792 50.0757 86.7137C49.9276 86.8571 49.8657 87.0825 49.8413 87.2806C49.8017 87.6021 49.8282 87.9509 49.8302 88.275L49.8395 90.1159C49.8435 91.7154 49.7922 93.3256 49.838 94.9237C49.8438 95.1271 49.8506 95.4202 50.005 95.5687C50.1326 95.6915 50.2892 95.7422 50.4621 95.7585C51.0343 95.8125 51.6416 95.7668 52.2171 95.7608C53.1714 95.7526 54.1258 95.7501 55.0802 95.7531L58.9981 95.755C59.6984 95.7562 60.4216 95.7977 61.119 95.7452C61.2818 95.733 61.4506 95.6703 61.5612 95.5433C61.6651 95.4239 61.6994 95.2102 61.7167 95.0591C61.764 94.6444 61.7325 94.1994 61.7314 93.7817C61.729 92.8593 61.7042 91.932 61.724 91.0101C61.9911 90.9441 62.2735 91.152 62.4962 91.2869L64.6236 92.5475C64.964 92.7496 65.3126 93.0015 65.6701 93.167C65.7252 93.1926 65.7613 93.215 65.8071 93.2538C65.3822 94.1996 64.9438 95.1516 64.3434 96.0023Z" fill="#A57018"/>
<path d="M98.7375 68.7503L99.4445 68.7416C99.4486 69.7379 99.5013 70.7628 99.4426 71.7559C99.4342 71.8712 99.4197 71.9856 99.438 72.1005C99.4196 72.8646 99.4059 73.6474 99.3073 74.4058C99.289 74.5211 99.2603 74.643 99.2708 74.7596C99.2221 75.33 99.1471 75.897 99.0458 76.4605C98.9736 76.8503 98.8648 77.2491 98.8367 77.6446C98.8449 77.7799 98.8332 77.8861 98.7499 77.9972C98.4078 79.5889 97.9368 81.12 97.3762 82.6479L97.2329 83.0384C96.974 83.5756 96.768 84.1361 96.5133 84.675C96.0246 85.709 95.465 86.7216 94.8872 87.7084C94.8186 87.8216 94.7449 87.9337 94.6844 88.0514C93.0462 90.7382 90.6389 93.8671 88.2898 95.9414C88.2444 95.7366 88.8823 95.3838 88.9997 95.1874L88.9822 95.1199L88.8819 95.1034C88.8782 94.9996 88.8781 94.8933 88.8677 94.79C88.8593 94.7061 88.8561 94.6498 88.7799 94.6C88.4285 94.3703 88.2277 93.8611 87.8025 93.5814C87.337 93.2751 86.7412 93.2965 86.6044 93.2163C86.5705 93.1964 86.5205 93.1214 86.4922 93.0893C86.4195 93.0791 86.4034 93.0715 86.3392 93.1141C86.2038 93.2043 86.0822 93.3481 85.9622 93.4591C85.6204 93.7751 85.271 94.1309 84.8916 94.3989L84.8281 94.381C85.0732 94.1767 85.3149 93.9687 85.5534 93.7569C85.792 93.5451 86.0271 93.3296 86.2589 93.1104C86.4906 92.8913 86.7188 92.6685 86.9436 92.4422C87.1684 92.2159 87.3896 91.9861 87.6071 91.7528C87.8247 91.5195 88.0385 91.2829 88.2487 91.0429C88.4588 90.8029 88.6651 90.5597 88.8676 90.3133C89.0701 90.0668 89.2687 89.8173 89.4634 89.5646C89.6581 89.3119 89.8487 89.0562 90.0354 88.7975C90.2221 88.5389 90.4047 88.2774 90.5831 88.013C90.7615 87.7486 90.9358 87.4815 91.1059 87.2116C91.276 86.9418 91.4418 86.6693 91.6033 86.3943C91.7648 86.1192 91.922 85.8417 92.0748 85.5617C92.2277 85.2817 92.3761 84.9994 92.52 84.7148C92.664 84.4301 92.8035 84.1433 92.9385 83.8543C93.0735 83.5653 93.2039 83.2742 93.3297 82.9811C93.4556 82.688 93.5768 82.393 93.6933 82.0961C93.7697 81.879 93.9065 81.5991 93.9233 81.3733C93.441 80.9237 92.9743 80.4585 92.5232 79.9778C92.1008 79.986 91.674 80.0318 91.252 80.0587C90.5346 80.1044 89.8153 80.1404 89.1016 80.2282C88.7525 79.8655 88.4307 79.4773 88.1057 79.0931C88.0856 78.1875 88.0994 77.2792 88.0995 76.3732C88.0997 75.5171 88.1828 74.6108 87.9212 73.7862C88.2808 73.3767 88.6533 73.0376 89.1145 72.7451C90.1169 72.1094 91.0852 71.9054 92.2412 72.1673C92.3392 71.9089 92.3961 71.6406 92.3663 71.3638C92.3159 70.8967 92.0267 70.4747 91.659 70.1923C90.36 69.1943 89.8089 71.1749 88.6623 71.2851C88.4109 71.3092 88.154 71.1875 87.9671 71.0259C87.8791 70.9498 87.8321 70.8539 87.8263 70.7377C87.8154 70.5219 87.9344 70.3135 88.0759 70.1591C88.4035 69.8018 88.8768 69.8091 89.3239 69.7923C89.6088 69.2741 89.7922 69.085 90.3054 68.7731C93.1147 68.7636 95.9287 68.7074 98.7375 68.7503Z" fill="url(#paint2_linear_500_4901)"/>
<path d="M90.3079 68.7731C93.1172 68.7636 95.9312 68.7074 98.7401 68.7503C98.3648 68.8158 97.9453 68.7856 97.5643 68.7854C96.82 68.7852 96.074 68.7719 95.3299 68.7913C95.3959 69.4493 95.5113 70.1591 95.4505 70.8175L95.5306 70.9483C95.6188 71.0434 95.5862 71.262 95.5815 71.3932C95.573 71.634 95.5623 71.8772 95.4794 72.1057C95.4975 72.4042 95.5314 72.7444 95.4879 73.0393C95.5892 73.2023 95.4485 73.8678 95.4251 74.0973C95.3686 74.6515 95.3841 75.2114 95.3221 75.7645C95.2306 76.5809 95.0228 77.3878 94.8363 78.1868C94.6298 79.0714 94.3932 79.9639 94.1305 80.8339C94.0747 81.0189 93.9798 81.1926 93.9258 81.3733C93.4435 80.9237 92.9768 80.4585 92.5257 79.9778C92.1034 79.986 91.6765 80.0318 91.2545 80.0587C90.5371 80.1044 89.8179 80.1404 89.1042 80.2282C88.755 79.8655 88.4332 79.4773 88.1082 79.0931C88.0881 78.1875 88.1019 77.2792 88.1021 76.3732C88.1023 75.5171 88.1853 74.6108 87.9237 73.7862C88.2833 73.3767 88.6558 73.0376 89.117 72.7451C90.1194 72.1094 91.0877 71.9054 92.2438 72.1673C92.3418 71.9089 92.3987 71.6406 92.3688 71.3638C92.3184 70.8967 92.0292 70.4747 91.6616 70.1923C90.3626 69.1943 89.8115 71.1749 88.6648 71.2851C88.4135 71.3092 88.1566 71.1875 87.9696 71.0259C87.8816 70.9498 87.8346 70.8539 87.8288 70.7377C87.8179 70.5219 87.937 70.3135 88.0784 70.1591C88.406 69.8018 88.8793 69.8091 89.3265 69.7923C89.6114 69.2741 89.7948 69.085 90.3079 68.7731Z" fill="#F2C650"/>
<path d="M92.7099 69.8509C92.6919 69.7604 92.6705 69.7287 92.7091 69.6406C92.8661 69.6507 93.0192 69.8121 93.1139 69.9255C93.1847 70.0102 93.2504 70.1074 93.3041 70.204C93.0449 70.1933 92.9539 69.9262 92.7099 69.8509Z" fill="#6A4C15"/>
<path d="M94.0469 70.4336C94.567 70.4399 95.0392 70.4636 95.4539 70.8184L95.534 70.9492C95.6223 71.0443 95.5896 71.2629 95.585 71.3941C95.5764 71.635 95.5657 71.8781 95.4828 72.1067C95.5009 72.4051 95.5348 72.7453 95.4913 73.0403C95.1614 72.9042 94.8616 72.8025 94.5066 72.7558C94.3176 71.9971 94.1747 71.2052 94.0469 70.4336Z" fill="#44310D"/>
<path d="M94.3672 71.0193C94.7774 70.9421 95.1128 70.8866 95.5331 70.9484C95.6213 71.0435 95.5887 71.2621 95.584 71.3933C95.5755 71.6342 95.5648 71.8773 95.4819 72.1059C95.1837 71.6823 94.7413 71.3737 94.3672 71.0193Z" fill="#F2C650"/>
<path d="M92.71 69.8477C92.954 69.923 93.045 70.19 93.3042 70.2007C93.4019 70.394 93.4947 70.5897 93.5825 70.7877C93.8696 71.425 94.7177 73.4644 94.4903 74.064C94.3324 74.0178 94.095 73.7574 93.9618 73.6457C93.9437 73.4466 93.9532 73.0392 93.8252 72.888C93.7915 72.8482 93.7636 72.8644 93.7169 72.8662C93.5856 72.9518 93.5258 73.0911 93.4507 73.2242C93.0327 73.1862 92.6234 73.1318 92.2035 73.1105C92.1977 72.6687 92.263 72.7505 92.4927 72.4268C92.6459 72.2108 92.5316 71.9259 92.4778 71.6928C92.7656 70.938 92.8303 70.6762 92.71 69.8477Z" fill="#44310D"/>
<path d="M70.4829 46.186L72.4959 46.1797C72.563 46.7827 72.5176 47.436 72.518 48.0439L72.5187 51.6341C72.6349 51.5584 72.75 51.4803 72.8686 51.4085C72.8714 51.0403 72.8577 50.6636 72.8917 50.297C72.9214 50.6563 72.9008 51.0291 72.9003 51.39C74.101 50.6008 75.3925 49.9294 76.4822 48.9773C76.4358 49.5945 76.4631 50.2268 76.4644 50.8462C76.4673 52.1757 76.4974 53.5109 76.4672 54.8398L76.4574 54.9288C76.4874 55.5398 76.4691 56.1573 76.4687 56.7691C76.4608 58.0277 76.4663 59.2863 76.485 60.5448C76.4931 60.7404 76.5077 60.9383 76.5034 61.134L76.4971 61.6437C76.461 61.7474 76.3926 61.8852 76.3897 61.9929C76.3545 62.0867 76.347 62.1616 76.2439 62.2043C76.0872 62.2695 75.7823 62.2388 75.6049 62.2606C75.2908 62.2983 74.9797 62.3536 74.6717 62.4263C72.5869 62.9319 70.992 64.3154 69.8964 66.1188C69.5169 66.9873 69.2087 67.8117 69.1189 68.7619C69.1154 69.0492 69.0922 69.3507 69.1151 69.6366C69.1041 69.6948 69.0885 69.7447 69.0667 69.7997C68.6833 69.7547 68.3116 69.4117 67.9579 69.26C67.3721 69.0087 66.6826 68.8991 66.0611 68.7562L65.8607 68.4346C65.8481 68.1554 65.7384 67.8563 65.711 67.5705C65.6725 67.4202 65.6276 67.2854 65.5621 67.1447C65.5582 67.0932 65.5588 67.0273 65.5277 66.9833C65.4195 66.8299 64.963 66.7596 64.7794 66.707C64.2822 66.1864 63.886 65.3517 63.5162 64.732C63.4612 64.6282 63.3968 64.5265 63.3497 64.4188C63.2654 64.2253 63.2897 64.0718 63.3616 63.8798C63.6876 63.3576 63.9046 62.7262 64.0828 62.1392C63.9129 61.6604 63.7862 61.167 63.6196 60.6864C62.8086 61.0092 61.945 61.2415 61.1056 61.4776C59.9775 61.7948 58.8287 62.1127 57.6738 62.3164L57.6828 59.637C57.6841 59.2228 57.7412 58.7254 57.6537 58.3242C57.6358 58.1729 57.6439 58.0108 57.6406 57.858C58.8051 57.5703 59.9563 57.2372 61.0945 56.8587C62.2326 56.4802 63.3541 56.0575 64.4589 55.5905C64.6584 55.5079 65.181 55.3539 65.31 55.194C65.3551 55.2084 65.3664 55.2208 65.4129 55.206C65.5261 55.1587 65.607 55.1284 65.6745 55.0248L65.7105 55.0385C66.165 54.9575 66.995 54.5014 67.4481 54.2905L67.7993 54.1325C67.8042 53.9041 67.8124 53.6775 67.8301 53.4497C67.8415 53.6658 67.8355 53.8848 67.8362 54.1013C68.2573 53.8866 68.6903 53.6911 69.1175 53.4882C69.1222 53.1183 69.1181 52.7458 69.1485 52.3769C69.1569 50.5442 69.1545 48.7114 69.1412 46.8786C69.278 46.8917 69.4074 46.9126 69.5413 46.9436C69.6738 46.9144 69.8059 46.8758 69.9296 46.8195C70.2152 46.6895 70.3821 46.4775 70.4829 46.186Z" fill="url(#paint3_linear_500_4901)"/>
<path d="M70.4823 46.186L72.4954 46.1797C72.4403 46.828 72.4791 47.5073 72.4812 48.1587L72.4834 51.6574C71.5003 52.1992 70.5338 52.7642 69.5343 53.2764C69.4219 53.3494 69.2803 53.4008 69.1583 53.4583C69.1614 53.098 69.171 52.7367 69.148 52.3769C69.1564 50.5442 69.1539 48.7114 69.1406 46.8786C69.2775 46.8917 69.4069 46.9126 69.5408 46.9436C69.6733 46.9144 69.8053 46.8758 69.929 46.8195C70.2146 46.6895 70.3816 46.4775 70.4823 46.186Z" fill="#0A0A0A"/>
<path d="M69.1406 46.8789C69.2775 46.892 69.4069 46.9129 69.5408 46.9439L69.5343 53.2767C69.4219 53.3497 69.2803 53.4011 69.1583 53.4586C69.1614 53.0983 69.171 52.737 69.148 52.3772C69.1564 50.5445 69.1539 48.7117 69.1406 46.8789Z" fill="#D5860F"/>
<path d="M68.5931 58.9412C68.8314 58.7502 69.394 58.5722 69.7018 58.434C70.3767 58.131 71.0525 57.82 71.7135 57.4877C72.8373 56.9229 73.9596 56.3287 75.0621 55.7228C75.5305 55.4654 75.985 55.1774 76.458 54.9297C76.488 55.5407 76.4697 56.1582 76.4693 56.77C76.4614 58.0286 76.4668 59.2872 76.4856 60.5457C76.4936 60.7414 76.5083 60.9392 76.504 61.1349L76.4977 61.6446C76.4615 61.7483 76.3932 61.8862 76.3903 61.9938C76.355 62.0876 76.3476 62.1625 76.2445 62.2052C76.0878 62.2704 75.7829 62.2397 75.6055 62.2615C75.2913 62.2992 74.9803 62.3545 74.6723 62.4272C72.5875 62.9328 70.9925 64.3163 69.897 66.1197C69.5175 66.9882 69.2093 67.8126 69.1195 68.7628C69.116 69.0502 69.0928 69.3516 69.1157 69.6375C69.1047 69.6957 69.0891 69.7456 69.0673 69.8007C68.6839 69.7556 68.3122 69.4126 67.9585 69.2609C67.3726 69.0096 66.6832 68.9 66.0616 68.7571L65.8613 68.4355C65.8486 68.1563 65.739 67.8572 65.7116 67.5714C65.6731 67.4211 65.6282 67.2863 65.5627 67.1456C65.5587 67.0941 65.5594 67.0283 65.5283 66.9842C65.4201 66.8308 64.9636 66.7605 64.78 66.7079C64.2828 66.1873 63.8866 65.3526 63.5168 64.7329C63.4617 64.6292 63.3973 64.5274 63.3503 64.4197C63.2659 64.2262 63.2903 64.0727 63.3622 63.8807C63.6882 63.3585 63.9052 62.7271 64.0833 62.1401C63.9135 61.6613 63.7868 61.1679 63.6202 60.6873C64.162 60.499 64.7167 60.3424 65.2616 60.1619C66.056 59.901 66.8415 59.6158 67.6183 59.3065C67.9363 59.1832 68.2879 59.0907 68.5931 58.9412Z" fill="#F2C650"/>
<path d="M70.9977 59.9931C71.3911 59.9382 71.6812 59.823 72.0094 59.6055C72.0017 59.7675 71.8524 59.946 71.7356 60.0498C71.5298 60.2325 71.2278 60.3926 70.9525 60.4278C70.928 60.2864 70.9722 60.1328 70.9977 59.9931Z" fill="#0A0A0A"/>
<path d="M76.5042 61.1328L76.4979 61.6425C76.111 61.6634 75.4117 61.7003 75.0642 61.5415L75.0469 61.4911C75.2202 61.3368 76.1395 61.274 76.4588 61.1508L76.5042 61.1328Z" fill="#44310D"/>
<path d="M67.5312 67.0325C67.7176 66.636 68.2924 66.2105 68.6998 66.0597C68.9793 65.9561 69.5723 65.755 69.8469 65.879C69.6644 66.0809 69.4238 66.184 69.2433 66.399C68.8005 66.4427 68.3317 66.4409 67.9492 66.6975C67.8004 66.7973 67.6814 66.9362 67.5312 67.0325Z" fill="#0A0A0A"/>
<path d="M69.8473 65.8789C69.8493 65.9708 69.8472 66.0367 69.897 66.1181C69.5174 66.9866 69.2092 67.811 69.1195 68.7613C68.6962 68.474 67.9131 68.2507 67.604 67.8921C67.529 67.8051 67.484 67.6903 67.4375 67.5862C67.4729 67.402 67.5087 67.2188 67.5317 67.0324C67.6818 66.9361 67.8008 66.7973 67.9496 66.6975C68.3321 66.4409 68.8009 66.4427 69.2437 66.3989C69.4242 66.184 69.6648 66.0808 69.8473 65.8789Z" fill="#6A4C15"/>
<path d="M68.5938 58.9412C68.8321 58.7502 69.3946 58.5722 69.7025 58.434C70.3773 58.131 71.0532 57.82 71.7141 57.4877C72.8379 56.9229 73.9603 56.3287 75.0627 55.7228C75.5312 55.4654 75.9857 55.1774 76.4587 54.9297C76.4887 55.5407 76.4704 56.1582 76.47 56.77C76.4621 58.0286 76.4675 59.2872 76.4863 60.5457C76.1978 60.4254 75.8758 60.4113 75.582 60.3079C75.2982 60.2082 75.0437 60.0306 74.7558 59.9355C74.6722 59.908 74.587 59.8865 74.5003 59.871C74.2719 59.829 73.8776 59.7716 73.6895 59.9337C73.4762 60.1175 73.6022 60.9069 73.587 61.2068C73.3673 61.4447 73.1128 61.6617 72.8775 61.8846C72.5351 61.673 72.2034 61.4457 71.8826 61.2027C71.5617 60.9598 71.2531 60.7022 70.9566 60.43C71.2319 60.3947 71.5339 60.2347 71.7397 60.0519C71.8566 59.9482 72.0058 59.7697 72.0135 59.6076C72.1193 59.4777 72.2384 59.3467 72.2522 59.1728C72.2588 59.0887 72.241 59.0035 72.181 58.9421C71.8108 58.5628 69.224 58.8976 68.5938 58.9412Z" fill="url(#paint4_linear_500_4901)"/>
<path d="M54.8043 78.1632C55.5165 77.9415 58.0675 78.2669 58.7573 78.5475C60.9631 79.338 62.3894 80.2289 63.8869 82.0372C64.2163 82.4351 64.553 83.0636 64.8657 83.39C66.013 85.6473 66.5148 87.1934 66.48 89.7594C66.4429 90.2501 66.4123 90.7427 66.3296 91.2284C66.2667 91.5974 66.1598 91.9696 66.1117 92.3387C66.0151 92.6422 65.9309 92.962 65.8086 93.2558C65.7627 93.217 65.7266 93.1946 65.6716 93.169C65.3141 93.0035 64.9655 92.7516 64.6251 92.5495L62.4976 91.2889C62.275 91.154 61.9925 90.9461 61.7255 91.0121C61.7057 91.934 61.7304 92.8613 61.7329 93.7837C61.7339 94.2015 61.7655 94.6464 61.7182 95.0611C61.7009 95.2122 61.6666 95.4259 61.5627 95.5453C61.4521 95.6723 61.2833 95.735 61.1205 95.7472C60.423 95.7997 59.6999 95.7582 58.9996 95.757L55.0817 95.7551C54.1273 95.7521 53.1729 95.7546 52.2185 95.7628C51.643 95.7688 51.0358 95.8145 50.4636 95.7605C50.2907 95.7443 50.1341 95.6935 50.0064 95.5707C49.852 95.4222 49.8453 95.1291 49.8395 94.9257C49.7936 93.3276 49.8449 91.7174 49.841 90.1179L49.8316 88.277C49.8297 87.9529 49.8032 87.6041 49.8428 87.2826C49.8672 87.0845 49.9291 86.8591 50.0772 86.7157C50.3193 86.4812 50.7223 86.5267 51.0292 86.5297C51.0248 85.9021 50.9281 82.7083 51.1035 82.3645C51.2377 82.1014 52.1728 81.7956 52.4869 81.6607C52.6569 80.7489 53.0357 79.5598 52.8821 78.642C52.8793 78.6251 52.8726 78.6091 52.8679 78.5928L52.8951 78.6052L53.0731 78.4317C53.6471 78.2948 54.2189 78.228 54.8043 78.1632Z" fill="#0A0A0A"/>
<path d="M55.7841 81.7773C56.166 81.7965 59.0017 83.0438 59.5444 83.2708L59.533 86.5149L56.1603 86.5083L52.2734 86.5165L52.2786 83.2353C53.4607 82.7853 54.6177 82.2666 55.7841 81.7773Z" fill="#F3A915"/>
<path d="M54.8018 78.1632C55.5139 77.9415 58.0649 78.2669 58.7548 78.5475C60.9606 79.338 62.3869 80.2289 63.8843 82.0372C64.2138 82.4351 64.5505 83.0636 64.8632 83.39C66.0105 85.6473 66.5123 87.1934 66.4775 89.7594C66.4404 90.2501 66.4097 90.7427 66.327 91.2284C66.2641 91.5974 66.1572 91.9696 66.1092 92.3387C66.0126 92.6422 65.9283 92.962 65.806 93.2558C65.7602 93.217 65.7241 93.1946 65.669 93.169C65.3115 93.0035 64.9629 92.7516 64.6225 92.5495L62.4951 91.2889C62.2725 91.154 61.99 90.9461 61.7229 91.0121L61.7304 88.4347C61.7341 87.9854 61.7892 87.4823 61.7225 87.0387C61.7064 86.9319 61.6707 86.8619 61.6009 86.7811C61.384 86.5301 61.0856 86.5197 60.7785 86.501C60.805 85.152 60.7876 83.7988 60.782 82.4496C60.5285 82.1905 60.0787 82.0442 59.7477 81.9031C59.2359 81.6852 56.1161 80.3386 55.7353 80.3827C55.2959 80.4337 53.0676 81.4257 52.4844 81.6607C52.6543 80.7489 53.0331 79.5598 52.8796 78.642C52.8767 78.6251 52.87 78.6091 52.8653 78.5928L52.8926 78.6052L53.0705 78.4317C53.6446 78.2948 54.2164 78.228 54.8018 78.1632Z" fill="url(#paint5_linear_500_4901)"/>
<path d="M50.4373 87.3218C54.0132 87.3366 57.5913 87.2893 61.1665 87.3283C61.1407 89.1347 61.1658 90.9433 61.1573 92.7501C61.1544 93.3684 61.2068 94.3751 61.1351 94.9547C61.1261 95.0276 61.0975 95.0765 61.0586 95.1371C60.7323 95.2258 58.6973 95.1684 58.1725 95.1686L50.4207 95.1778C50.4276 92.561 50.3745 89.9375 50.4373 87.3218Z" fill="#F3A915"/>
<path d="M55.7071 88.9648C56.0295 88.9671 56.3446 89.0457 56.5962 89.2558C56.6119 89.2689 56.6273 89.2824 56.6423 89.2963C56.6573 89.3101 56.6719 89.3244 56.6862 89.339C56.7005 89.3536 56.7143 89.3686 56.7278 89.3839C56.7414 89.3993 56.7545 89.4149 56.7671 89.4309C56.7798 89.4469 56.7921 89.4632 56.8039 89.4799C56.8158 89.4965 56.8273 89.5135 56.8383 89.5307C56.8492 89.5479 56.8597 89.5654 56.8698 89.5832C56.8799 89.601 56.8896 89.619 56.8987 89.6373C56.9079 89.6555 56.9165 89.674 56.9247 89.6927C56.933 89.7114 56.9407 89.7303 56.9479 89.7495C56.9551 89.7685 56.9619 89.7878 56.9681 89.8073C56.9744 89.8267 56.9801 89.8463 56.9853 89.8661C56.9906 89.8858 56.9953 89.9057 56.9995 89.9257C57.0037 89.9457 57.0074 89.9658 57.0106 89.986C57.0138 90.0062 57.0164 90.0264 57.0185 90.0467C57.0207 90.067 57.0223 90.0874 57.0234 90.1078C57.043 90.4848 56.8798 90.8095 56.6302 91.0812C56.6361 91.859 56.6378 92.6369 56.6353 93.4148C56.3807 93.4211 56.1254 93.4197 55.8707 93.422L54.9191 93.4311C54.9113 92.6438 54.9148 91.8566 54.9294 91.0693C54.7829 90.8703 54.652 90.6644 54.5972 90.4203C54.5929 90.4007 54.5891 90.3811 54.5858 90.3613C54.5825 90.3415 54.5798 90.3216 54.5776 90.3017C54.5753 90.2817 54.5736 90.2618 54.5724 90.2417C54.5712 90.2217 54.5705 90.2017 54.5704 90.1816C54.5702 90.1616 54.5705 90.1415 54.5715 90.1215C54.5723 90.1014 54.5738 90.0814 54.5757 90.0615C54.5776 90.0415 54.5801 90.0216 54.583 90.0018C54.586 89.9819 54.5895 89.9622 54.5935 89.9425C54.5975 89.9228 54.602 89.9033 54.607 89.8839C54.6121 89.8645 54.6176 89.8452 54.6236 89.8261C54.6296 89.8069 54.6361 89.788 54.6432 89.7691C54.6502 89.7504 54.6577 89.7318 54.6657 89.7134C54.6736 89.695 54.6821 89.6768 54.6911 89.6588C54.7 89.6408 54.7094 89.6231 54.7192 89.6056C54.7291 89.5882 54.7394 89.571 54.7501 89.5541C54.7609 89.5371 54.7721 89.5205 54.7837 89.5041C55.007 89.1832 55.3329 89.0304 55.7071 88.9648Z" fill="#0A0A0A"/>
<path d="M57.6489 58.3242C57.7364 58.7254 57.6794 59.2228 57.678 59.637L57.6691 62.3164C58.824 62.1127 59.9727 61.7948 61.1009 61.4775C61.9403 61.2415 62.8039 61.0092 63.6149 60.6864C63.7815 61.167 63.9082 61.6604 64.078 62.1392C63.8999 62.7262 63.6829 63.3576 63.3569 63.8798C63.285 64.0718 63.2606 64.2253 63.345 64.4188C63.392 64.5265 63.4564 64.6282 63.5115 64.732C63.8812 65.3517 64.2775 66.1864 64.7746 66.707C64.9582 66.7596 65.4148 66.8299 65.523 66.9833C65.554 67.0273 65.5534 67.0932 65.5574 67.1447C65.6228 67.2854 65.6678 67.4202 65.7062 67.5705C65.7337 67.8563 65.8433 68.1554 65.8559 68.4346L66.0563 68.7562C66.6778 68.8991 67.3673 69.0087 67.9531 69.26C68.3069 69.4117 68.6786 69.7547 69.062 69.7997C69.0837 69.7447 69.0993 69.6948 69.1104 69.6366C69.1519 69.9646 69.0932 70.3656 69.086 70.7023C69.0827 71.1365 69.0808 71.5725 69.1054 72.0061C67.8692 71.9926 66.7637 71.9174 65.8101 72.858C65.1248 73.5339 64.9903 74.284 64.9906 75.2086L64.984 80.5751C64.9881 81.4238 65.0469 82.2817 65.0241 83.1291C65.0209 83.2479 65.0087 83.3493 64.9684 83.4611C64.9253 83.4111 64.9325 83.4021 64.8639 83.3894C64.5512 83.0629 64.2145 82.4344 63.885 82.0366C62.3875 80.2282 60.9612 79.3373 58.7555 78.5468C58.0656 78.2662 55.5146 77.9408 54.8025 78.1625C54.7057 77.6099 54.4458 77.0948 54.3803 76.5315L54.4213 76.5282C54.3792 76.5048 54.3305 76.0581 54.301 75.9616L54.288 76.0135C54.1367 75.7966 54.106 75.3696 54.0618 75.1134L54.1041 75.0758C54.0531 74.7253 53.9035 74.3231 53.9028 73.9767C53.9024 73.7569 53.8501 73.5165 53.806 73.3009C53.2944 73.2397 52.7511 73.2921 52.2375 73.2916L48.2621 73.2869C47.8894 73.288 47.0808 73.3496 46.7407 73.267C46.7346 73.1777 46.7251 73.1188 46.7558 73.0325C46.9886 72.9465 47.6187 73.0096 47.9032 73.0098L51.6559 73.0103C52.3295 73.0102 53.1006 73.0847 53.7588 72.9506C53.7794 72.5501 53.6468 72.0962 53.6168 71.6905C53.577 71.149 53.5492 70.607 53.5336 70.0643C53.5222 69.7463 53.5433 69.3992 53.4788 69.0879C53.4196 68.802 50.9941 69.1436 50.6864 68.9453C50.6615 68.8827 50.6414 68.8438 50.6527 68.7747C50.655 68.7609 50.6596 68.7475 50.663 68.7339L50.6463 68.6868C50.7065 68.5034 50.6631 68.2714 50.647 68.0805C50.6388 68.2468 50.6264 68.4094 50.6049 68.5747C50.5533 67.7019 50.5603 66.771 50.6049 65.8977C50.5681 64.1065 50.602 62.3061 50.6013 60.5142C50.4946 60.4959 50.3848 60.4786 50.2811 60.4463C49.9889 60.3556 49.6964 60.1562 49.5656 59.872C49.455 59.6318 49.446 59.3271 49.5383 59.0797C49.6335 58.8251 49.8419 58.6224 50.089 58.5145C50.3353 58.4069 50.6308 58.3883 50.8824 58.489C51.1921 58.6131 51.3816 58.8781 51.5024 59.177C52.2734 59.1683 53.0444 59.1673 53.8154 59.174C53.823 59.3439 53.8187 59.5151 53.8187 59.6852C54.3635 59.5629 54.9063 59.3862 55.4449 59.2367C56.1798 59.0328 56.9241 58.8448 57.6513 58.6158L57.6489 58.3242Z" fill="#A57018"/>
<path d="M53.819 59.6866C54.3639 59.5642 54.9067 59.3875 55.4452 59.2381C56.1801 59.0342 56.9244 58.8461 57.6516 58.6172C57.6441 59.6811 57.6212 60.7471 57.6295 61.811C57.6339 62.3694 57.6901 62.9234 57.664 63.4828C57.6127 63.0694 57.6065 62.649 57.5885 62.233C57.5044 62.2046 57.409 62.2535 57.3327 62.2934C56.9427 62.4974 56.6359 62.7906 56.2915 63.0541C55.6399 63.5525 54.9406 63.9491 54.3663 64.5461C54.2383 64.6791 54.0165 64.7018 53.8418 64.741C53.8579 65.8005 53.7979 66.8658 53.8294 67.9246L53.812 67.9411C53.8032 66.9301 53.8002 65.9191 53.803 64.9081C53.8027 64.4115 53.8384 63.8833 53.7859 63.391C53.7578 62.7916 53.7857 62.1769 53.7876 61.5755C53.7896 60.9536 53.7605 60.3052 53.819 59.6866Z" fill="#6A4C15"/>
<path d="M50.6026 60.5133C50.4959 60.495 50.3861 60.4777 50.2824 60.4454C49.9902 60.3547 49.6977 60.1553 49.5669 59.8711C49.4563 59.6309 49.4473 59.3262 49.5397 59.0788C49.6348 58.8242 49.8432 58.6216 50.0903 58.5136C50.3366 58.406 50.6321 58.3874 50.8837 58.4882C51.1934 58.6122 51.3829 58.8772 51.5037 59.1762C52.2747 59.1674 53.0457 59.1664 53.8167 59.1731C53.8243 59.343 53.82 59.5143 53.82 59.6843C53.7614 60.303 53.7905 60.9514 53.7886 61.5733C53.7867 62.1747 53.7587 62.7894 53.7868 63.3887L53.7823 63.4297C53.6895 64.3524 53.7495 65.3303 53.7507 66.2606C53.7532 68.1281 53.7451 70.0152 53.9093 71.8765C53.9654 72.5118 54.0673 73.1311 54.1529 73.7606C54.1845 73.993 54.1895 74.2256 54.2327 74.4569L54.2085 74.4902L54.203 74.4321C54.1076 73.4732 53.9006 72.5309 53.8377 71.5648C53.6414 68.5472 53.7126 65.5047 53.7553 62.4833C53.7707 61.3949 53.7511 60.3054 53.7569 59.2169C53.0343 59.2267 52.2731 59.1526 51.5552 59.2225C51.5404 59.3103 51.5394 59.3472 51.5769 59.4286C51.9014 59.7172 53.4454 59.3286 53.4835 59.604C53.5297 59.9367 53.4791 60.3388 53.4815 60.6801C53.4984 61.8507 53.4913 63.021 53.46 64.1912C53.4521 64.6172 53.479 65.044 53.4806 65.4703L53.4795 68.709H50.9504C50.9181 67.7162 50.9897 60.651 50.9034 60.4682C50.8241 60.4768 50.7652 60.4947 50.6915 60.5251C50.5549 61.0122 50.6333 61.7537 50.6344 62.2669L50.6413 64.9375C50.6419 65.2034 50.6972 65.6519 50.6062 65.8968C50.5694 64.1056 50.6033 62.3052 50.6026 60.5133Z" fill="#F3A915"/>
<path d="M51.729 59.5775C52.3004 59.5551 52.8746 59.5619 53.4464 59.5586C53.41 62.5895 53.4038 65.6204 53.4277 68.6514C53.1588 68.6636 52.8879 68.661 52.6187 68.6643L50.9942 68.6704L50.9917 63.3423C50.9911 62.373 51.0397 61.3744 50.9766 60.4084C51.2006 60.2307 51.356 60.0351 51.4942 59.7862C51.5128 59.7525 51.5293 59.7175 51.5501 59.6851C51.6123 59.5882 51.619 59.5967 51.729 59.5775Z" fill="#0A0A0A"/>
<path d="M58.7573 78.546C58.6266 78.0903 58.5075 77.6316 58.4002 77.1699C58.293 76.7082 58.1976 76.244 58.1142 75.7774C58.0307 75.3108 57.9592 74.8423 57.8998 74.372C57.8403 73.9018 57.7929 73.4303 57.7576 72.9575C57.608 71.0128 57.6581 69.0549 57.663 67.1059C57.6647 66.4077 57.5898 65.6974 57.6143 65.0025C57.6173 64.9178 57.6118 64.8482 57.6675 64.7832C57.7375 64.9786 57.6508 65.2069 57.7427 65.3933C57.8369 65.4214 57.853 65.4068 57.9477 65.3746L58.0022 65.4016L57.9909 65.4219L57.9943 65.3544C58.0556 65.3908 58.0741 65.3902 58.1435 65.3785C58.8355 65.2617 60.7165 65.7524 61.3985 65.9778C61.8898 66.1404 62.3694 66.3495 62.8652 66.4963C63.1321 66.5754 63.4031 66.5603 63.6617 66.6266C63.7816 66.6574 63.8504 66.6957 63.9685 66.6521L63.9945 66.5775C63.969 66.5302 63.9445 66.4859 63.9282 66.4346C63.7977 66.0233 63.2646 65.3711 63.3709 64.9405C63.4796 64.4998 63.2886 64.6475 63.2443 64.3263C63.2417 64.3076 63.2441 64.2886 63.2436 64.2698C63.2395 64.1265 63.2301 64.0292 63.2931 63.8972L63.3587 63.8789C63.2868 64.071 63.2625 64.2245 63.3469 64.4179C63.3939 64.5256 63.4583 64.6274 63.5133 64.7311C63.8831 65.3508 64.2794 66.1856 64.7765 66.7061C64.9601 66.7588 65.4166 66.829 65.5249 66.9825C65.5559 67.0265 65.5553 67.0923 65.5592 67.1438C65.6247 67.2845 65.6696 67.4193 65.7081 67.5697C65.7356 67.8555 65.8452 68.1546 65.8578 68.4337L66.0582 68.7554C66.6797 68.8983 67.3692 69.0078 67.955 69.2591C68.3088 69.4108 68.6805 69.7538 69.0638 69.7989C69.0856 69.7438 69.1012 69.6939 69.1122 69.6357C69.1538 69.9638 69.0951 70.3647 69.0878 70.7015C69.0846 71.1357 69.0827 71.5717 69.1073 72.0053C67.8711 71.9917 66.7656 71.9165 65.812 72.8571C65.1267 73.533 64.9921 74.2832 64.9925 75.2078L64.9859 80.5742C64.99 81.4229 65.0487 82.2808 65.026 83.1283C65.0228 83.247 65.0105 83.3484 64.9703 83.4603C64.9272 83.4102 64.9343 83.4013 64.8657 83.3885C64.553 83.0621 64.2163 82.4335 63.8869 82.0357C62.3894 80.2273 60.9631 79.3365 58.7573 78.546Z" fill="url(#paint6_linear_500_4901)"/>
<path d="M65.5569 67.1445C65.6224 67.2853 65.6673 67.4201 65.7058 67.5704C65.6173 67.492 65.5005 67.4119 65.3934 67.3621C65.3476 67.3408 65.3506 67.3243 65.3281 67.2798C65.337 67.2804 65.3458 67.282 65.3547 67.2815C65.4732 67.2756 65.4843 67.2293 65.5569 67.1445Z" fill="#6A4C15"/>
<path d="M63.5121 64.7344C63.8819 65.3541 64.2781 66.1888 64.7752 66.7094C64.9589 66.762 65.4154 66.8323 65.5236 66.9857C65.5547 67.0297 65.554 67.0956 65.558 67.1471C65.4854 67.2319 65.4742 67.2782 65.3557 67.284C65.3469 67.2845 65.338 67.2829 65.3292 67.2823C65.0697 67.0847 64.6108 67.0469 64.3044 66.9059C64.0427 66.5664 63.8316 66.1264 63.6575 65.7363C63.5049 65.3942 63.3726 65.1003 63.5121 64.7344Z" fill="#0A0A0A"/>
<path d="M69.0868 70.7014C68.6777 70.613 68.2424 70.3917 67.8447 70.2483C67.2166 70.0219 66.551 69.8408 65.9406 69.5734C65.783 69.5043 65.6063 69.4254 65.4844 69.3027C65.5305 69.0328 65.7232 68.6728 65.8568 68.4336L66.0572 68.7552C66.6787 68.8981 67.3682 69.0077 67.954 69.259C68.3077 69.4107 68.6794 69.7537 69.0628 69.7987C69.0846 69.7437 69.1002 69.6938 69.1112 69.6356C69.1527 69.9636 69.0941 70.3646 69.0868 70.7014Z" fill="#1D190F"/>
<path d="M76.4831 48.9763L76.5368 48.9531C76.8082 49.0848 77.0571 49.2956 77.3045 49.4685C77.7932 49.8098 78.2813 50.1549 78.7813 50.4793C79.3767 50.8584 79.9765 51.2305 80.5805 51.5957C80.8905 51.7826 81.2798 51.9659 81.55 52.2055C81.9087 52.5403 82.4631 52.7812 82.896 53.0189C83.5131 53.3583 84.1384 53.6821 84.7717 53.9902C85.4051 54.2983 86.0457 54.5904 86.6937 54.8664C87.3416 55.1425 87.9961 55.4022 88.6571 55.6454C89.3181 55.8887 89.9847 56.1153 90.657 56.3253C91.2562 56.5177 91.8526 56.7362 92.4634 56.8887C93.7754 55.4173 95.2447 54.5499 97.2476 54.4355C97.6359 54.4133 98.0295 54.4239 98.4178 54.4365C98.4279 54.4436 98.4379 54.4508 98.4481 54.4578C98.8234 54.7124 99.5974 54.8211 100.054 55.0123C100.115 55.0379 100.175 55.0644 100.235 55.0918C100.295 55.1192 100.354 55.1475 100.413 55.1767C100.472 55.2059 100.531 55.236 100.589 55.267C100.647 55.298 100.704 55.3299 100.761 55.3625C100.818 55.3953 100.875 55.4288 100.931 55.4632C100.987 55.4977 101.043 55.5329 101.098 55.569C101.153 55.6051 101.207 55.642 101.261 55.6798C101.315 55.7175 101.368 55.756 101.421 55.7953C101.474 55.8347 101.526 55.8748 101.578 55.9157C101.629 55.9566 101.68 55.9983 101.73 56.0407C101.781 56.0832 101.83 56.1264 101.879 56.1703C101.928 56.2143 101.976 56.2589 102.024 56.3043C102.072 56.3497 102.119 56.3958 102.165 56.4427C102.211 56.4895 102.257 56.537 102.302 56.5851C102.346 56.6333 102.39 56.6822 102.434 56.7317C102.477 56.7812 102.52 56.8314 102.561 56.8822C102.603 56.9329 102.644 56.9843 102.685 57.0364C102.725 57.0884 102.764 57.1411 102.803 57.1943C102.842 57.2475 102.88 57.3013 102.917 57.3557C102.954 57.41 102.99 57.4649 103.025 57.5204C103.061 57.5759 103.095 57.6319 103.129 57.6883C103.163 57.7448 103.196 57.8018 103.228 57.8593C103.26 57.9168 103.291 57.9748 103.321 58.0332C103.351 58.0916 103.381 58.1505 103.409 58.2098C103.438 58.2691 103.465 58.3288 103.492 58.389C103.519 58.4491 103.545 58.5096 103.569 58.5706C103.594 58.6315 103.618 58.6928 103.641 58.7545C103.664 58.8161 103.686 58.8781 103.708 58.9404C103.729 59.0027 103.749 59.0653 103.768 59.1282C103.787 59.1912 103.806 59.2543 103.823 59.3178C103.84 59.3813 103.857 59.445 103.872 59.509C103.888 59.5729 103.902 59.6371 103.916 59.7015C103.925 59.7484 103.931 59.7941 103.937 59.8415L103.999 60.2165C105.236 60.2013 106.329 60.5417 107.231 61.4209C107.282 61.4704 107.331 61.5211 107.379 61.573C107.428 61.625 107.475 61.6781 107.52 61.7324C107.566 61.7867 107.61 61.8421 107.653 61.8985C107.695 61.955 107.737 62.0125 107.777 62.071C107.817 62.1296 107.855 62.1891 107.892 62.2495C107.929 62.3099 107.965 62.3713 107.999 62.4335C108.032 62.4957 108.065 62.5587 108.096 62.6225C108.126 62.6863 108.156 62.7509 108.183 62.8161C108.211 62.8814 108.237 62.9473 108.261 63.0138C108.285 63.0804 108.308 63.1475 108.329 63.2152C108.35 63.2829 108.369 63.3511 108.387 63.4197C108.405 63.4884 108.42 63.5574 108.435 63.6268C108.449 63.6963 108.461 63.766 108.472 63.8361C108.483 63.9061 108.491 63.9764 108.499 64.0469C108.506 64.1174 108.511 64.188 108.515 64.2588C108.519 64.3295 108.521 64.4003 108.521 64.4712C108.527 65.6022 108.112 66.7059 107.313 67.5138C106.438 68.399 105.258 68.7528 104.038 68.7522C103.198 68.7518 102.348 68.7739 101.51 68.7412L101.14 68.7391C100.577 68.7551 100.014 68.7449 99.4515 68.741L98.7445 68.7497C95.9357 68.7069 93.1217 68.763 90.3124 68.7725C89.7992 69.0845 89.6158 69.2735 89.3309 69.7917C88.8838 69.8085 88.4105 69.8012 88.0829 70.1585C87.9414 70.3129 87.8224 70.5213 87.8333 70.7372C87.8391 70.8534 87.8861 70.9493 87.9741 71.0253C88.161 71.1869 88.4179 71.3086 88.6693 71.2845C89.8159 71.1743 90.367 69.1937 91.666 70.1917C92.0336 70.4741 92.3228 70.8961 92.3733 71.3633C92.4031 71.64 92.3462 71.9083 92.2482 72.1667C91.0922 71.9048 90.1239 72.1088 89.1215 72.7445C88.6602 73.037 88.2878 73.3761 87.9282 73.7856C87.8564 73.4574 87.5329 73.0472 87.3003 72.8106C86.3201 71.8142 85.3852 71.8734 84.0951 71.8673C83.9966 70.3417 84.1617 68.8593 83.691 67.3685C83.5578 66.9468 83.3558 66.5539 83.1878 66.146C82.9073 65.8332 82.7192 65.3956 82.4503 65.061C82.3818 64.9773 82.3115 64.8951 82.2395 64.8144C82.1675 64.7337 82.0939 64.6545 82.0186 64.5768C81.9433 64.4991 81.8665 64.4231 81.788 64.3486C81.7096 64.2741 81.6296 64.2013 81.5481 64.1302C81.4667 64.0591 81.3838 63.9896 81.2994 63.9219C81.215 63.8542 81.1293 63.7883 81.0422 63.7242C80.9551 63.6601 80.8667 63.5978 80.777 63.5373C80.6873 63.4769 80.5965 63.4183 80.5043 63.3616C80.4122 63.3049 80.3189 63.2502 80.2245 63.1974C80.1301 63.1446 80.0346 63.0938 79.9381 63.045C79.8416 62.9961 79.7441 62.9494 79.6457 62.9046C79.5472 62.8598 79.4479 62.8171 79.3477 62.7765C79.2474 62.7358 79.1464 62.6973 79.0445 62.6608C78.9427 62.6244 78.8401 62.5901 78.7369 62.5579C78.6336 62.5257 78.5297 62.4957 78.4252 62.4679C78.3207 62.44 78.2157 62.4143 78.1101 62.3908C77.7474 62.3085 77.4082 62.2572 77.0368 62.2375C76.8864 62.2296 76.6185 62.2532 76.4871 62.1843L76.4473 62.0199L76.3906 61.9919C76.3935 61.8843 76.4619 61.7464 76.498 61.6427L76.5043 61.133C76.5086 60.9373 76.494 60.7395 76.486 60.5438C76.4672 59.2853 76.4618 58.0267 76.4697 56.7681C76.4701 56.1563 76.4884 55.5388 76.4584 54.9278L76.4681 54.8388C76.4983 53.51 76.4683 52.1747 76.4654 50.8452C76.4641 50.2258 76.4367 49.5935 76.4831 48.9763Z" fill="#FEFEFE"/>
<path d="M76.4801 48.9763L76.5337 48.9531C76.8051 49.0848 77.054 49.2956 77.3015 49.4685C77.7902 49.8098 78.2783 50.1549 78.7783 50.4793C79.3737 50.8584 79.9734 51.2305 80.5775 51.5957C80.8874 51.7826 81.2768 51.9659 81.547 52.2055C81.9057 52.5403 82.46 52.7812 82.8929 53.0189C83.5101 53.3583 84.1353 53.6821 84.7687 53.9902C85.402 54.2983 86.0427 54.5904 86.6906 54.8664C87.3386 55.1425 87.993 55.4022 88.654 55.6454C89.315 55.8887 89.9816 56.1153 90.6539 56.3253C91.2531 56.5177 91.8495 56.7362 92.4603 56.8887C93.7724 55.4173 95.2417 54.5499 97.2446 54.4355C97.6328 54.4133 98.0264 54.4239 98.4148 54.4365C98.4248 54.4436 98.4348 54.4508 98.445 54.4578C98.8204 54.7124 99.5944 54.8211 100.051 55.0123C100.112 55.0379 100.172 55.0644 100.232 55.0918C100.292 55.1192 100.351 55.1475 100.41 55.1767C100.469 55.2059 100.528 55.236 100.586 55.267C100.644 55.298 100.701 55.3299 100.758 55.3625C100.815 55.3953 100.872 55.4288 100.928 55.4632C100.984 55.4977 101.04 55.5329 101.095 55.569C101.15 55.6051 101.204 55.642 101.258 55.6798C101.312 55.7175 101.365 55.756 101.418 55.7953C101.471 55.8347 101.523 55.8748 101.575 55.9157C101.626 55.9566 101.677 55.9983 101.727 56.0407C101.778 56.0832 101.827 56.1264 101.876 56.1703C101.925 56.2143 101.973 56.2589 102.021 56.3043C102.069 56.3497 102.116 56.3958 102.162 56.4427C102.208 56.4895 102.254 56.537 102.298 56.5851C102.343 56.6333 102.387 56.6822 102.431 56.7317C102.474 56.7812 102.517 56.8314 102.558 56.8822C102.6 56.9329 102.641 56.9843 102.682 57.0364C102.722 57.0884 102.761 57.1411 102.8 57.1943C102.839 57.2475 102.877 57.3013 102.914 57.3557C102.951 57.41 102.987 57.4649 103.022 57.5204C103.058 57.5759 103.092 57.6319 103.126 57.6883C103.16 57.7448 103.193 57.8018 103.225 57.8593C103.257 57.9168 103.288 57.9748 103.318 58.0332C103.348 58.0916 103.378 58.1505 103.406 58.2098C103.435 58.2691 103.462 58.3288 103.489 58.389C103.516 58.4491 103.542 58.5097 103.566 58.5706C103.591 58.6315 103.615 58.6928 103.638 58.7545C103.661 58.8161 103.683 58.8781 103.704 58.9404C103.726 59.0027 103.746 59.0653 103.765 59.1282C103.784 59.1912 103.803 59.2543 103.82 59.3178C103.837 59.3813 103.854 59.445 103.869 59.509C103.885 59.5729 103.899 59.6371 103.913 59.7015C103.922 59.7484 103.928 59.7941 103.934 59.8415C103.748 59.4484 103.608 59.0376 103.413 58.648C102.625 57.074 101.454 55.8234 99.7663 55.2226C98.1218 54.6371 96.467 54.7452 94.8911 55.4982C93.3785 56.221 92.2256 57.6246 91.679 59.1921C91.5659 59.5165 91.4443 59.8742 91.3957 60.2155C91.3598 60.4671 91.3736 60.7341 91.3074 60.9806C91.2827 61.0726 91.2811 61.0895 91.2029 61.1416L91.0361 61.1154C90.6944 60.8894 88.5101 60.2843 87.9434 60.0951C86.9051 59.7484 85.8801 59.3489 84.8599 58.9521C81.9459 57.8188 79.1837 56.4488 76.4553 54.9278L76.4651 54.8388C76.4952 53.51 76.4652 52.1748 76.4623 50.8452C76.461 50.2258 76.4337 49.5935 76.4801 48.9763Z" fill="#F3A915"/>
<path d="M76.4584 54.9297C79.1868 56.4506 81.9489 57.8207 84.863 58.954C85.8831 59.3508 86.9081 59.7503 87.9465 60.0969C88.5132 60.2862 90.6975 60.8913 91.0392 61.1173C90.0246 60.9779 88.9404 61.2413 88.123 61.8655C88.0701 61.9057 88.0181 61.9471 87.9672 61.9898C87.9162 62.0325 87.8664 62.0765 87.8177 62.1217C87.7689 62.1669 87.7213 62.2132 87.6748 62.2608C87.6284 62.3083 87.5832 62.357 87.5392 62.4068C87.4951 62.4566 87.4523 62.5075 87.4108 62.5594C87.3693 62.6113 87.3291 62.6642 87.2902 62.7181C87.2514 62.7721 87.2138 62.8269 87.1776 62.8827C87.1415 62.9385 87.1067 62.9951 87.0734 63.0526C87.04 63.1101 87.0081 63.1683 86.9776 63.2274C86.9471 63.2865 86.9182 63.3463 86.8907 63.4068C86.8631 63.4673 86.8372 63.5285 86.8127 63.5903C86.7882 63.6521 86.7653 63.7145 86.7439 63.7774C86.7225 63.8403 86.7027 63.9038 86.6845 63.9677C86.6663 64.0316 86.6496 64.096 86.6346 64.1607C86.6195 64.2255 86.6061 64.2906 86.5943 64.356C86.5825 64.4214 86.5723 64.487 86.5637 64.553C86.4999 65.0354 86.5516 65.5062 86.654 65.9793C86.6815 66.1066 86.7412 66.2511 86.7542 66.378C87.2445 67.4065 87.8901 68.177 88.9959 68.5691C89.4269 68.7219 89.8598 68.7497 90.3124 68.7744C89.7992 69.0864 89.6158 69.2754 89.3309 69.7936C88.8838 69.8104 88.4105 69.8031 88.0829 70.1604C87.9414 70.3148 87.8224 70.5232 87.8333 70.739C87.8391 70.8553 87.8861 70.9511 87.9741 71.0272C88.161 71.1888 88.4179 71.3105 88.6693 71.2864C89.8159 71.1762 90.367 69.1956 91.666 70.1936C92.0336 70.476 92.3228 70.898 92.3733 71.3651C92.4031 71.6419 92.3462 71.9102 92.2482 72.1686C91.0922 71.9067 90.1239 72.1107 89.1215 72.7464C88.6602 73.0389 88.2878 73.378 87.9282 73.7875C87.8564 73.4593 87.5329 73.049 87.3003 72.8125C86.3201 71.816 85.3852 71.8753 84.0951 71.8692C83.9966 70.3436 84.1617 68.8611 83.691 67.3704C83.5578 66.9487 83.3558 66.5558 83.1878 66.1479C82.9073 65.8351 82.7192 65.3975 82.4503 65.0629C82.3818 64.9792 82.3115 64.897 82.2395 64.8163C82.1675 64.7356 82.0939 64.6564 82.0186 64.5787C81.9433 64.501 81.8665 64.425 81.788 64.3505C81.7096 64.276 81.6296 64.2032 81.5481 64.1321C81.4667 64.061 81.3838 63.9915 81.2994 63.9238C81.215 63.8561 81.1293 63.7902 81.0422 63.7261C80.9551 63.6619 80.8667 63.5997 80.777 63.5392C80.6873 63.4787 80.5965 63.4202 80.5043 63.3635C80.4122 63.3068 80.3189 63.2521 80.2245 63.1993C80.1301 63.1465 80.0346 63.0957 79.9381 63.0468C79.8416 62.998 79.7441 62.9513 79.6457 62.9065C79.5472 62.8617 79.4479 62.819 79.3477 62.7784C79.2474 62.7377 79.1464 62.6991 79.0445 62.6627C78.9427 62.6263 78.8401 62.592 78.7369 62.5598C78.6336 62.5276 78.5297 62.4976 78.4252 62.4698C78.3207 62.4419 78.2157 62.4162 78.1101 62.3927C77.7474 62.3104 77.4082 62.2591 77.0368 62.2394C76.8864 62.2315 76.6185 62.2551 76.4871 62.1862L76.4473 62.0218L76.3906 61.9938C76.3935 61.8862 76.4619 61.7483 76.498 61.6446L76.5043 61.1349C76.5086 60.9392 76.494 60.7414 76.486 60.5457C76.4672 59.2872 76.4618 58.0286 76.4697 56.77C76.4701 56.1582 76.4884 55.5407 76.4584 54.9297Z" fill="url(#paint7_linear_500_4901)"/>
<path d="M83.1861 66.1479L83.1971 66.0935C82.7895 65.2002 81.7674 64.1042 80.9476 63.5785C80.796 63.4813 80.3563 63.2919 80.2653 63.1523C80.2357 63.1069 80.2436 63.0144 80.2446 62.9631C80.16 62.8862 80.0583 62.8338 80.0234 62.7242C80.1135 62.5926 80.4418 62.4868 80.6023 62.4646C80.7296 62.4469 80.857 62.4773 80.9849 62.4534C81.2607 62.4018 81.5071 62.2849 81.7927 62.2852C82.2478 62.2855 82.7004 62.3327 83.1532 62.3341C83.3214 62.3346 83.4892 62.3073 83.6579 62.3065C84.0537 62.3046 84.4501 62.3622 84.8445 62.3899C84.9997 62.4008 85.156 62.3846 85.3105 62.3992C85.6293 62.4293 85.9347 62.5289 86.2508 62.5692C86.4683 62.597 86.689 62.5784 86.9054 62.6128C86.9806 62.7034 86.984 62.7907 86.972 62.904C86.9374 63.233 86.7433 63.5523 86.6447 63.8665C86.4627 64.4464 86.3577 65.8323 86.7027 66.3505C86.7232 66.3813 86.7169 66.3733 86.7524 66.3781C87.2427 67.4065 87.8883 68.177 88.9941 68.5691C89.4251 68.722 89.858 68.7497 90.3106 68.7744C89.7974 69.0864 89.6141 69.2754 89.3292 69.7936C88.882 69.8105 88.4087 69.8031 88.0811 70.1605C87.9397 70.3148 87.8206 70.5232 87.8315 70.7391C87.8373 70.8553 87.8843 70.9512 87.9723 71.0272C88.1592 71.1889 88.4161 71.3105 88.6675 71.2864C89.8142 71.1762 90.3652 69.1957 91.6642 70.1936C92.0319 70.476 92.3211 70.8981 92.3715 71.3652C92.4014 71.642 92.3444 71.9102 92.2465 72.1686C91.0904 71.9068 90.1221 72.1108 89.1197 72.7464C88.6585 73.039 88.286 73.378 87.9264 73.7875C87.8546 73.4593 87.5311 73.0491 87.2985 72.8126C86.3183 71.8161 85.3834 71.8753 84.0933 71.8692C83.9948 70.3436 84.1599 68.8612 83.6892 67.3704C83.556 66.9487 83.3541 66.5558 83.1861 66.1479Z" fill="#6A4C15"/>
<path d="M76.3883 61.9922L76.445 62.0202L76.4848 62.1846C76.6162 62.2535 76.884 62.2299 77.0344 62.2378C77.4058 62.2575 77.745 62.3088 78.1077 62.3911C78.2133 62.4146 78.3183 62.4403 78.4228 62.4682C78.5274 62.496 78.6312 62.526 78.7345 62.5582C78.8378 62.5904 78.9403 62.6247 79.0422 62.6611C79.144 62.6976 79.245 62.7361 79.3453 62.7768C79.4455 62.8174 79.5448 62.8601 79.6433 62.9049C79.7418 62.9496 79.8392 62.9965 79.9358 63.0453C80.0323 63.0941 80.1277 63.1449 80.2221 63.1977C80.3166 63.2505 80.4098 63.3052 80.502 63.3619C80.5941 63.4186 80.685 63.4772 80.7747 63.5376C80.8643 63.5981 80.9527 63.6604 81.0399 63.7245C81.127 63.7886 81.2127 63.8546 81.297 63.9222C81.3814 63.9899 81.4643 64.0594 81.5457 64.1305C81.6272 64.2016 81.7072 64.2745 81.7856 64.3489C81.8641 64.4234 81.9409 64.4994 82.0162 64.5771C82.0915 64.6548 82.1651 64.734 82.2371 64.8147C82.3091 64.8954 82.3794 64.9776 82.4479 65.0613C82.7168 65.3959 82.9049 65.8335 83.1855 66.1463C83.3535 66.5542 83.5554 66.9471 83.6886 67.3688C84.1594 68.8596 83.9942 70.342 84.0927 71.8676C85.3828 71.8737 86.3177 71.8145 87.2979 72.811C87.5305 73.0475 87.854 73.4577 87.9258 73.7859C88.1874 74.6106 88.1044 75.5169 88.1042 76.373C88.104 77.2789 88.0902 78.1872 88.1103 79.0929C88.4353 79.477 88.7571 79.8653 89.1063 80.2279C89.8199 80.1401 90.5392 80.1041 91.2566 80.0584C91.6786 80.0315 92.1055 79.9858 92.5278 79.9775C92.9789 80.4582 93.4456 80.9234 93.9279 81.373C93.9111 81.5988 93.7743 81.8787 93.698 82.0958C93.5814 82.3927 93.4602 82.6877 93.3343 82.9808C93.2085 83.2739 93.0781 83.565 92.9431 83.854C92.8081 84.143 92.6687 84.4298 92.5247 84.7145C92.3807 84.9991 92.2323 85.2814 92.0795 85.5614C91.9266 85.8414 91.7695 86.1189 91.6079 86.394C91.4464 86.669 91.2806 86.9415 91.1105 87.2113C90.9404 87.4812 90.7662 87.7483 90.5877 88.0127C90.4093 88.2771 90.2267 88.5386 90.04 88.7973C89.8534 89.0559 89.6627 89.3116 89.4681 89.5643C89.2734 89.817 89.0748 90.0665 88.8723 90.313C88.6698 90.5594 88.4634 90.8026 88.2533 91.0426C88.0432 91.2826 87.8293 91.5192 87.6117 91.7525C87.3942 91.9858 87.173 92.2156 86.9483 92.4419C86.7235 92.6683 86.4952 92.891 86.2635 93.1102C86.0317 93.3294 85.7966 93.5449 85.5581 93.7566C85.3196 93.9684 85.0778 94.1765 84.8327 94.3807C83.0224 95.673 81.2483 97.0838 79.2144 98.0234C78.8165 98.3127 77.0172 99.2028 76.5372 99.3079C76.2463 99.1576 75.9356 99.038 75.6383 98.8996C75.0095 98.6046 74.3872 98.2966 73.7713 97.9754C73.4194 97.7899 73.0711 97.598 72.7263 97.3996C72.3817 97.2011 72.0408 96.9962 71.7037 96.785C71.3666 96.5738 71.0336 96.3563 70.7047 96.1327C70.3758 95.909 70.0512 95.6792 69.7309 95.4435C69.4106 95.2076 69.0948 94.9659 68.7835 94.7182C68.4722 94.4706 68.1657 94.2172 67.8639 93.9581C67.5621 93.699 67.2652 93.4343 66.9733 93.1641C66.6815 92.8939 66.3948 92.6183 66.1132 92.3373C66.1612 91.9683 66.2681 91.5961 66.331 91.2271C66.4137 90.7414 66.4444 90.2488 66.4815 89.758C66.5163 87.1921 66.0145 85.646 64.8672 83.3887C64.9358 83.4015 64.9286 83.4104 64.9717 83.4605C65.012 83.3486 65.0242 83.2472 65.0274 83.1285C65.0502 82.281 64.9914 81.4231 64.9873 80.5744L64.9939 75.208C64.9936 74.2834 65.1281 73.5332 65.8134 72.8573C66.767 71.9167 67.8726 71.9919 69.1087 72.0055C69.0841 71.5719 69.086 71.1359 69.0893 70.7017C69.0965 70.3649 69.1552 69.9639 69.1137 69.6359C69.0908 69.35 69.1139 69.0486 69.1175 68.7612C69.2073 67.811 69.5155 66.9866 69.895 66.1181C70.9905 64.3147 72.5855 62.9312 74.6702 62.4256C74.9782 62.3529 75.2893 62.2977 75.6035 62.2599C75.7809 62.2381 76.0857 62.2688 76.2425 62.2037C76.3456 62.1609 76.353 62.086 76.3883 61.9922Z" fill="#0A0A0A"/>
<path d="M73.0817 72L73.0515 70.3551C73.0264 69.0898 73.0735 68.1997 73.9748 67.2222C74.6361 66.5049 75.5002 66.1796 76.4604 66.1367L76.5 69.7882C76.5023 70.3525 76.4343 71.5112 76.5464 72.003L73.0817 72Z" fill="#44310D"/>
<path d="M76.4531 66.1367C77.558 66.2309 78.492 66.5617 79.2197 67.4354C79.9748 68.3418 80.0013 69.3486 80.0004 70.4749C80 70.98 80.0033 71.4871 79.9904 71.992L76.5392 72.003C76.4271 71.5112 76.4951 70.3525 76.4928 69.7882L76.4531 66.1367Z" fill="url(#paint8_linear_500_4901)"/>
<path d="M76.2502 63.4578C76.2986 63.455 76.3456 63.4527 76.3942 63.4532C78.1405 63.4746 79.7729 64.141 81.0019 65.3885C83.0244 67.4414 82.7483 69.3497 82.737 71.9607C82.2149 71.9547 81.6928 71.9583 81.1708 71.9715C81.174 70.2001 81.4283 68.341 80.2685 66.8462C79.4156 65.747 78.2539 65.1435 76.8878 64.9727C76.7346 64.9656 76.5814 64.9613 76.4281 64.9599C76.354 64.9596 76.28 64.9611 76.206 64.9644C76.132 64.9677 76.0582 64.9728 75.9845 64.9797C75.9108 64.9866 75.8372 64.9953 75.7639 65.0058C75.6906 65.0164 75.6176 65.0287 75.545 65.0429C75.4722 65.057 75.3999 65.0728 75.328 65.0905C75.2561 65.1082 75.1846 65.1276 75.1137 65.1488C75.0427 65.17 74.9723 65.193 74.9025 65.2176C74.8327 65.2422 74.7635 65.2686 74.695 65.2966C74.6264 65.3247 74.5586 65.3544 74.4915 65.3857C74.4245 65.4171 74.3582 65.4502 74.2927 65.4848C74.2273 65.5194 74.1627 65.5557 74.099 65.5935C74.0354 65.6313 73.9727 65.6706 73.9109 65.7115C73.8492 65.7524 73.7885 65.7948 73.7288 65.8387C73.6692 65.8826 73.6106 65.9279 73.5532 65.9746C73.4958 66.0214 73.4395 66.0695 73.3844 66.119C73.3294 66.1685 73.2756 66.2194 73.223 66.2716C71.5797 67.9239 71.8848 69.8092 71.8907 71.9323C71.3824 71.9279 70.874 71.9297 70.3658 71.9378C70.3581 69.5431 70.1275 67.4854 71.8557 65.5422C73.017 64.2363 74.5247 63.566 76.2502 63.4578Z" fill="#F3A915"/>
<path d="M88.126 80.2383C88.3645 80.4515 88.6123 80.6654 88.7997 80.9263C89.325 80.8663 89.8609 80.8537 90.3889 80.8217C91.0125 80.784 91.6402 80.729 92.2649 80.7196C92.8068 81.0931 93.1701 81.6985 93.6964 82.0976C93.5798 82.3945 93.4586 82.6895 93.3327 82.9826C93.2069 83.2757 93.0765 83.5668 92.9415 83.8558C92.8066 84.1448 92.6671 84.4316 92.5231 84.7163C92.3791 85.0009 92.2307 85.2832 92.0779 85.5632C91.9251 85.8432 91.7679 86.1207 91.6063 86.3958C91.4448 86.6708 91.279 86.9433 91.1089 87.2131C90.9389 87.483 90.7646 87.7501 90.5861 88.0145C90.4077 88.2789 90.2251 88.5404 90.0384 88.799C89.8518 89.0577 89.6611 89.3134 89.4665 89.5661C89.2718 89.8188 89.0732 90.0683 88.8707 90.3148C88.6682 90.5612 88.4619 90.8044 88.2517 91.0444C88.0416 91.2844 87.8277 91.521 87.6102 91.7543C87.3926 91.9876 87.1715 92.2174 86.9467 92.4437C86.7219 92.6701 86.4936 92.8928 86.2619 93.112C86.0302 93.3311 85.795 93.5466 85.5565 93.7584C85.318 93.9702 85.0762 94.1782 84.8312 94.3825C83.0208 95.6747 81.2467 97.0856 79.2128 98.0252L79.1972 97.9917C79.235 97.9181 79.1237 97.7627 79.1429 97.6468C79.2335 96.8519 79.2259 96.0258 79.3523 95.2407C79.4341 94.7325 79.5793 94.2308 79.7037 93.7313C79.8891 92.9919 80.0681 92.2509 80.2406 91.5084C80.0411 91.3257 79.4893 90.8865 79.4126 90.6606L83.3366 90.6635C84.0258 90.6649 84.755 90.714 85.4397 90.6411C85.786 90.6043 86.097 90.5173 86.4216 90.3938C86.7485 90.3722 87.0998 90.1286 87.3318 89.9046C87.6842 89.5645 87.9528 89.0862 88.0583 88.6076C88.2024 87.9535 88.1167 86.7645 88.1166 86.0468C88.1164 84.1123 88.0846 82.172 88.126 80.2383Z" fill="url(#paint9_linear_500_4901)"/>
<path d="M86.4194 90.3945C86.3634 90.9552 85.925 91.4659 85.504 91.8068C85.1064 92.1287 84.6672 92.4754 84.2248 92.7304C83.895 92.9204 83.5342 93.0734 83.1919 93.2409C83.3694 93.4344 83.5501 93.6011 83.7474 93.7733C83.5211 93.8366 83.2744 93.8923 83.0596 93.987C82.5085 94.2302 81.9601 94.8084 81.5183 95.2114C81.5737 95.3937 81.628 95.5763 81.6812 95.7593C81.3232 95.9377 80.9621 96.1363 80.5909 96.284C80.486 96.6014 80.4062 96.9266 80.3012 97.2432C79.9195 97.3608 79.4956 97.4627 79.1406 97.6475C79.2313 96.8526 79.2237 96.0265 79.3501 95.2414C79.4319 94.7332 79.577 94.2315 79.7015 93.732C79.8869 92.9926 80.0659 92.2516 80.2384 91.509C80.0389 91.3264 79.4871 90.8872 79.4103 90.6613L83.3344 90.6642C84.0235 90.6656 84.7528 90.7147 85.4374 90.6418C85.7838 90.605 86.0947 90.5179 86.4194 90.3945Z" fill="#F3A915"/>
<path d="M66.4777 89.7578C66.4875 89.7618 66.4974 89.7657 66.5072 89.7699C67.0568 90.0055 67.4946 90.4494 68.0891 90.6011C68.7816 90.7778 70.0571 90.6596 70.812 90.657L76.5247 90.6513L78.4005 90.6496C78.7321 90.6495 79.0803 90.6304 79.4104 90.6586C79.4871 90.8844 80.0389 91.3237 80.2384 91.5063C80.0659 92.2489 79.8869 92.9899 79.7015 93.7293C79.5771 94.2288 79.4319 94.7304 79.3501 95.2387C79.2237 96.0238 79.2313 96.8498 79.1407 97.6448C79.1215 97.7607 79.2328 97.9161 79.195 97.9897L79.2106 98.0232C78.8128 98.3125 77.0134 99.2026 76.5334 99.3077C76.2425 99.1573 75.9318 99.0378 75.6345 98.8994C75.0057 98.6044 74.3834 98.2963 73.7675 97.9752C73.4156 97.7897 73.0673 97.5978 72.7226 97.3993C72.3779 97.2008 72.037 96.996 71.6999 96.7848C71.3629 96.5736 71.0299 96.3561 70.7009 96.1324C70.3721 95.9087 70.0474 95.679 69.7271 95.4432C69.4068 95.2074 69.091 94.9656 68.7797 94.718C68.4684 94.4703 68.1619 94.217 67.8601 93.9578C67.5583 93.6987 67.2615 93.4341 66.9696 93.1639C66.6777 92.8936 66.391 92.6181 66.1094 92.3371C66.1574 91.968 66.2643 91.5958 66.3272 91.2268C66.4099 90.7411 66.4406 90.2486 66.4777 89.7578Z" fill="#44310D"/>
<path d="M70.5945 73.2018L80.6591 73.2088L83.7213 73.2035C84.2353 73.2024 84.7976 73.1536 85.305 73.2274C85.7191 73.2876 86.0181 73.4235 86.3189 73.7202C86.5591 73.9572 86.7504 74.2888 86.8043 74.6245C86.8755 75.0677 86.8339 75.5693 86.8337 76.0193L86.8322 78.5084L86.8283 87.2866C86.8243 87.922 86.766 88.5377 86.2752 89.0009C86.0528 89.2109 85.7664 89.352 85.4685 89.4162C84.8461 89.5501 83.3072 89.4579 82.5725 89.4535L72.199 89.4555C71.3514 89.4548 70.5037 89.4589 69.6561 89.4679C69.0838 89.4739 68.4765 89.5258 67.9114 89.4326C67.6336 89.3868 67.3921 89.2061 67.1951 89.0112C66.8269 88.647 66.5368 88.0888 66.4369 87.5818C66.311 86.9421 66.3216 86.2465 66.3076 85.5963C66.2826 84.6738 66.2724 83.7512 66.2769 82.8284C66.2845 80.3315 66.2756 77.8346 66.2504 75.3377C66.2446 74.6661 66.304 74.1686 66.8082 73.6746C67.0288 73.4584 67.3226 73.3232 67.6213 73.2549C68.1901 73.1248 69.9119 73.2033 70.5945 73.2018Z" fill="#F2C650"/>
<path d="M83.2925 85.1758L85.8372 85.1799C85.8385 85.9939 85.8459 86.8078 85.8596 87.6217C85.0027 87.6156 84.1459 87.6179 83.2891 87.6286C83.299 86.8113 83.292 85.9932 83.2925 85.1758Z" fill="#F3A915"/>
<path d="M67.341 74.5742L69.811 74.5768L69.8141 77.0981C68.9824 77.0687 68.1449 77.0898 67.3125 77.0931C67.3175 76.2534 67.327 75.4138 67.341 74.5742Z" fill="#F3A915"/>
<path d="M68.9872 85.1974L69.8046 85.1797C69.8061 86.0465 69.8027 86.9132 69.7944 87.78L68.099 87.7789L67.3453 87.7828C67.3507 86.9229 67.3502 86.063 67.3438 85.2032L68.9872 85.1974Z" fill="#F3A915"/>
<path d="M67.3188 78.0352C68.1499 78.0484 68.981 78.0572 69.8121 78.0617L69.8101 80.6022C68.9776 80.5975 68.145 80.5992 67.3125 80.6072L67.3188 78.0352Z" fill="#F3A915"/>
<path d="M83.2974 78.0508C84.1478 78.0757 85.004 78.0627 85.8549 78.0585C85.8481 78.8957 85.8503 79.7329 85.8613 80.5701L83.2969 80.5365L83.2974 78.0508Z" fill="#F3A915"/>
<path d="M83.2906 74.5625C84.1378 74.5701 84.995 74.5538 85.8403 74.6047C85.8347 75.4322 85.8369 76.2597 85.8469 77.0872C85.5653 77.1103 85.268 77.091 84.9848 77.0908C84.4195 77.0884 83.8543 77.0918 83.2891 77.1011L83.2906 74.5625Z" fill="#F3A915"/>
<path d="M67.3436 81.6055L69.8076 81.6108L69.8087 84.2095L67.3359 84.213C67.3475 83.3438 67.35 82.4747 67.3436 81.6055Z" fill="#F3A915"/>
<path d="M83.2972 81.6034L85.8417 81.6016C85.8368 82.4622 85.8373 83.3228 85.8432 84.1834C84.9944 84.1936 84.1457 84.1971 83.2969 84.1938C83.3017 83.3304 83.3018 82.4669 83.2972 81.6034Z" fill="#F3A915"/>
<path d="M76.278 78.0079C76.4548 77.9957 76.6174 77.9948 76.7934 78.0256C76.8266 78.0311 76.8596 78.0375 76.8926 78.0447C76.9254 78.0518 76.9581 78.0598 76.9906 78.0687C77.0231 78.0775 77.0553 78.0871 77.0873 78.0976C77.1194 78.1081 77.1511 78.1194 77.1825 78.1314C77.2139 78.1435 77.245 78.1563 77.2758 78.17C77.3066 78.1836 77.337 78.198 77.367 78.2132C77.3971 78.2283 77.4267 78.2442 77.456 78.2609C77.4852 78.2776 77.5141 78.295 77.5424 78.3131C77.5708 78.3312 77.5987 78.35 77.6261 78.3695C77.6535 78.3891 77.6804 78.4093 77.7068 78.4302C77.7332 78.451 77.7591 78.4725 77.7844 78.4947C77.8098 78.517 77.8345 78.5398 77.8587 78.5632C77.8828 78.5867 77.9064 78.6107 77.9293 78.6354C77.9523 78.6599 77.9746 78.6851 77.9962 78.7109C78.0179 78.7367 78.0389 78.763 78.0593 78.7898C78.0797 78.8166 78.0993 78.8439 78.1183 78.8717C78.4226 79.3202 78.5528 79.8715 78.441 80.4064C78.32 80.9855 78.0055 81.3944 77.5155 81.714C77.6114 82.7149 77.7349 83.7406 77.9231 84.728L76.6913 84.749C76.1312 84.7518 75.5712 84.7496 75.0112 84.7422C75.1503 83.7323 75.3204 82.726 75.461 81.7157C75.0049 81.3596 74.6683 80.9683 74.5412 80.3885C74.4266 79.866 74.5579 79.3286 74.8527 78.8886C75.2019 78.3673 75.6856 78.1291 76.278 78.0079Z" fill="#0A0A0A"/>
<defs>
<filter id="filter0_dd_500_4901" x="15" y="20" width="122" height="118" filterUnits="userSpaceOnUse" color-interpolation-filters="sRGB">
<feFlood flood-opacity="0" result="BackgroundImageFix"/>
<feColorMatrix in="SourceAlpha" type="matrix" values="0 0 0 0 0 0 0 0 0 0 0 0 0 0 0 0 0 0 127 0" result="hardAlpha"/>
<feOffset dy="1"/>
<feGaussianBlur stdDeviation="1.5"/>
<feColorMatrix type="matrix" values="0 0 0 0 0 0 0 0 0 0 0 0 0 0 0 0 0 0 0.3 0"/>
<feBlend mode="normal" in2="BackgroundImageFix" result="effect1_dropShadow_500_4901"/>
<feColorMatrix in="SourceAlpha" type="matrix" values="0 0 0 0 0 0 0 0 0 0 0 0 0 0 0 0 0 0 127 0" result="hardAlpha"/>
<feMorphology radius="3" operator="dilate" in="SourceAlpha" result="effect2_dropShadow_500_4901"/>
<feOffset dy="4"/>
<feGaussianBlur stdDeviation="4"/>
<feColorMatrix type="matrix" values="0 0 0 0 0 0 0 0 0 0 0 0 0 0 0 0 0 0 0.15 0"/>
<feBlend mode="normal" in2="effect1_dropShadow_500_4901" result="effect2_dropShadow_500_4901"/>
<feBlend mode="normal" in="SourceGraphic" in2="effect2_dropShadow_500_4901" result="shape"/>
</filter>
<linearGradient id="paint0_linear_500_4901" x1="99.5" y1="27" x2="26" y2="150" gradientUnits="userSpaceOnUse">
<stop stop-color="#151515"/>
<stop offset="1" stop-color="#1F1D15"/>
</linearGradient>
<linearGradient id="paint1_linear_500_4901" x1="16.5" y1="6.5" x2="127" y2="197.5" gradientUnits="userSpaceOnUse">
<stop stop-color="#435257"/>
<stop offset="1" stop-color="#6D8C99"/>
</linearGradient>
<linearGradient id="paint2_linear_500_4901" x1="98.7966" y1="82.2264" x2="87.0889" y2="81.5353" gradientUnits="userSpaceOnUse">
<stop stop-color="#FFBE17"/>
<stop offset="1" stop-color="#BE8A22"/>
</linearGradient>
<linearGradient id="paint3_linear_500_4901" x1="67.1978" y1="46.1282" x2="66.9444" y2="62.4059" gradientUnits="userSpaceOnUse">
<stop stop-color="#4B2E12"/>
<stop offset="1" stop-color="#DBA01E"/>
</linearGradient>
<linearGradient id="paint4_linear_500_4901" x1="71.7118" y1="61.0255" x2="75.9558" y2="54.7406" gradientUnits="userSpaceOnUse">
<stop stop-color="#5A4218"/>
<stop offset="1" stop-color="#7D5918"/>
</linearGradient>
<linearGradient id="paint5_linear_500_4901" x1="57.4661" y1="87.4285" x2="63.825" y2="82.0751" gradientUnits="userSpaceOnUse">
<stop stop-color="#C38309"/>
<stop offset="1" stop-color="#FFCB40"/>
</linearGradient>
<linearGradient id="paint6_linear_500_4901" x1="58.5665" y1="80.5456" x2="64.7443" y2="66.9232" gradientUnits="userSpaceOnUse">
<stop stop-color="#231804"/>
<stop offset="1" stop-color="#795617"/>
</linearGradient>
<linearGradient id="paint7_linear_500_4901" x1="83.5772" y1="63.0696" x2="83.3889" y2="54.8931" gradientUnits="userSpaceOnUse">
<stop stop-color="#85621F"/>
<stop offset="1" stop-color="#AC8327"/>
</linearGradient>
<linearGradient id="paint8_linear_500_4901" x1="78.4534" y1="72.1072" x2="77.577" y2="66.0565" gradientUnits="userSpaceOnUse">
<stop stop-color="#604411"/>
<stop offset="1" stop-color="#7D5A17"/>
</linearGradient>
<linearGradient id="paint9_linear_500_4901" x1="88.0663" y1="92.8069" x2="82.6845" y2="83.6123" gradientUnits="userSpaceOnUse">
<stop stop-color="#32260C"/>
<stop offset="1" stop-color="#6B4A13"/>
</linearGradient>
</defs>
</svg>
