<svg width="30" height="30" viewBox="0 0 30 30" fill="none" xmlns="http://www.w3.org/2000/svg">
<g clip-path="url(#clip0_276_5096)">
<path fill-rule="evenodd" clip-rule="evenodd" d="M27.5 7.365C26.5639 7.77525 25.5717 8.04281 24.5562 8.15875C25.6203 7.53121 26.4199 6.53832 26.8062 5.365C25.7972 5.95321 24.6964 6.36773 23.55 6.59125C22.574 5.57238 21.2234 4.99739 19.8125 5C18.4634 4.98935 17.1654 5.51525 16.2042 6.46192C15.243 7.40858 14.6974 8.69843 14.6875 10.0475C14.6875 10.435 14.7313 10.82 14.8188 11.1962C10.7105 11.0004 6.87438 9.08434 4.25 5.9175C2.88979 8.22636 3.58834 11.1968 5.835 12.6575C5.02224 12.6335 4.2264 12.4194 3.51125 12.0325V12.095C3.52619 14.5148 5.24868 16.5869 7.625 17.0438C6.86794 17.246 6.07515 17.2759 5.305 17.1313C5.99493 19.1985 7.91465 20.6051 10.0938 20.64C7.93196 22.3004 5.20696 23.0504 2.5 22.73C4.85269 24.2176 7.58019 25.005 10.3638 25C14.2134 25.0572 17.9251 23.5681 20.6677 20.8661C23.4104 18.1641 24.9548 14.475 24.955 10.625C24.955 10.4038 24.955 10.1887 24.94 9.97125C25.9435 9.264 26.8108 8.38103 27.5 7.365Z" fill="white"/>
</g>
<defs>
<clipPath id="clip0_276_5096">
<rect width="30" height="30" fill="white"/>
</clipPath>
</defs>
</svg>
