<svg width="30" height="30" viewBox="0 0 30 30" fill="none" xmlns="http://www.w3.org/2000/svg">
<g clip-path="url(#clip0_276_5091)">
<path fill-rule="evenodd" clip-rule="evenodd" d="M15 5C11.4114 4.9992 8.09757 6.92132 6.31644 10.0367C4.53532 13.152 4.56005 16.9829 6.38125 20.075L7.0925 20.9725L6.22125 23.9212L9.12125 23.1112L9.595 23.415C13.1809 25.7172 17.8319 25.4941 21.1809 22.8592C24.53 20.2242 25.8413 15.7564 24.4476 11.7294C23.0539 7.70242 19.2613 5.00104 15 5ZM2.5 15C2.5 8.09625 8.09625 2.5 15 2.5C21.9037 2.5 27.5 8.09625 27.5 15C27.5 21.9037 21.9037 27.5 15 27.5C12.7979 27.5031 10.6343 26.9221 8.73 25.8162L2.545 27.5438L4.3275 21.5075L4.32 21.4988L4.27875 21.43C3.1118 19.4884 2.49679 17.2653 2.5 15Z" fill="white"/>
<path d="M20.9188 16.865C20.8713 16.8425 19.0475 15.945 18.7237 15.8275C18.5886 15.7718 18.4448 15.7401 18.2987 15.7338C18.0537 15.7338 17.8463 15.8562 17.6863 16.0975C17.5037 16.3687 16.9525 17.0125 16.7825 17.205C16.76 17.23 16.73 17.2612 16.7113 17.2612C16.695 17.2612 16.4125 17.145 16.3275 17.1075C14.3725 16.2575 12.8888 14.2163 12.685 13.8713C12.6562 13.8212 12.655 13.8 12.655 13.8C12.6613 13.7738 12.7275 13.7075 12.7612 13.6737C12.8612 13.575 12.9688 13.4462 13.0725 13.32L13.2188 13.145C13.37 12.97 13.4375 12.8325 13.515 12.6763L13.5562 12.5938C13.6818 12.3396 13.6725 12.0396 13.5312 11.7937C13.4888 11.7075 12.7188 9.85 12.6375 9.655C12.44 9.18375 12.18 8.965 11.8188 8.965C11.785 8.965 11.8188 8.965 11.6788 8.97125C11.5075 8.9775 10.575 9.10125 10.1625 9.36C9.725 9.635 8.9875 10.515 8.9875 12.06C8.9875 13.45 9.86875 14.7625 10.2475 15.2612L10.2987 15.3363C11.75 17.455 13.5588 19.025 15.3912 19.7575C17.1562 20.4625 17.9925 20.545 18.4675 20.545C18.6675 20.545 18.8275 20.5287 18.9675 20.515L19.0575 20.5063C19.6675 20.4525 21.0075 19.7575 21.3125 18.9112C21.5525 18.2437 21.6162 17.515 21.4562 17.25C21.3462 17.07 21.1575 16.98 20.9188 16.865Z" fill="white"/>
</g>
<defs>
<clipPath id="clip0_276_5091">
<rect width="30" height="30" fill="white"/>
</clipPath>
</defs>
</svg>
