<svg width="30" height="30" viewBox="0 0 30 30" fill="none" xmlns="http://www.w3.org/2000/svg">
<g clip-path="url(#clip0_276_5100)">
<path fill-rule="evenodd" clip-rule="evenodd" d="M27.125 10.0463C27.008 9.15798 26.6688 8.31358 26.1388 7.59125C25.4819 6.92956 24.5911 6.55285 23.6588 6.5425C20.2 6.2925 15.0013 6.2925 15.0013 6.2925C15.0013 6.2925 9.805 6.2925 6.34125 6.5425C5.40926 6.55264 4.51875 6.92941 3.8625 7.59125C3.33014 8.31288 2.99029 9.15819 2.875 10.0475C2.7205 11.3779 2.63705 12.7157 2.625 14.055V15.93C2.63699 17.2693 2.72044 18.6071 2.875 19.9375C2.9925 20.8275 3.33 21.675 3.855 22.4025C4.61 23.0725 5.58 23.4487 6.58875 23.4625C8.5675 23.6512 15.0025 23.7125 15.0025 23.7125C15.0025 23.7125 20.2038 23.7125 23.6625 23.4625C24.5953 23.4516 25.4865 23.0745 26.1437 22.4125C26.6726 21.6893 27.0109 20.8446 27.1275 19.9562C27.2821 18.6258 27.3655 17.2881 27.3775 15.9487V14.0538C27.3634 12.7144 27.2791 11.3768 27.125 10.0463ZM12.51 18.2388V11.2137L19.26 14.7375L12.51 18.2388Z" fill="white"/>
</g>
<defs>
<clipPath id="clip0_276_5100">
<rect width="30" height="30" fill="white"/>
</clipPath>
</defs>
</svg>
